<svg id="Layer_1" data-name="Layer 1" xmlns="http://www.w3.org/2000/svg" viewBox="0 0 2159.49 2088.07"><defs><style>.cls-1{opacity:0.05;}.cls-2{isolation:isolate;}.cls-3{fill:#1d5b6a;}.cls-4{fill:#0f3c4a;}.cls-5{fill:#1f2628;}</style></defs><g id="Hišne_Mešanice" data-name="Hišne Mešanice" class="cls-1"><g class="cls-2"><path class="cls-3" d="M-116.67,398.13Q-88,347-54.37,253.23l98-271.6a85.83,85.83,0,0,0,4.2-27.3q0-24.49-12.6-56v-2.1h127.4l146.3,389.2q26.6,70.71,54.6,112.7v2.1h-168v-2.8a145,145,0,0,0,4.55-20.65,183,183,0,0,0,1.75-26.95q0-7-.7-24.85T192,284.73l-21-55.3H-11l-11.9,34.3a163.07,163.07,0,0,0-8.4,53.2q0,36.4,13.3,79.8v3.5h-98.7ZM.23,197.93h159.6L77.93-19.77Z" transform="translate(116.67 103.77)"/><path class="cls-3" d="M392.93,383.43q2.79-11.9,5.95-25.2t5.95-32.9a255.15,255.15,0,0,0,2.8-35.7V158a255.38,255.38,0,0,0-2.8-35.7q-2.81-19.59-5.95-32.9t-6.3-25.55q-3.15-12.24-3.15-13.65v-2.8h119.7v67.9q21.69-44.1,50-60.2T612.73,39q20.29,0,43.4,7.7L640,155.93h-2.8a142,142,0,0,0-36.05-27.65q-19.26-10.14-44.1-10.15t-48,16.1v155.4A245.25,245.25,0,0,0,510.88,318q1.74,15.06,4.55,28.35t4.9,22.75q2.1,9.45,4.9,18.55l2.8,9.8v2.8H389.43v-2.8Q389.43,396,392.93,383.43Z" transform="translate(116.67 103.77)"/><path class="cls-3" d="M674.33,223.13q0-86.79,52.15-133.35T857,43.23q78.39,0,131.25,46.9t52.85,133q0,86.81-53.2,135.1-53.2,49-130.9,49t-130.2-48.65Q674.33,309.93,674.33,223.13ZM794,297.33q6.3,33.6,22.4,57.4t40.6,23.8q35,0,52.5-45.5T927,223.13q0-63-17.5-107.45T857,71.23q-35,0-52.15,44.45T787.73,223.13Q787.73,263.74,794,297.33Z" transform="translate(116.67 103.77)"/><path class="cls-3" d="M1073.32,50.23v-2.8h119v59.5q45.5-63.69,110.6-63.7,36.39,0,63.35,17.85t38.15,52.15q44.79-70,114.8-70,46.89,0,77.35,30.1t30.45,87.5v128.8a253.64,253.64,0,0,0,2.8,35.7q2.79,19.6,6,32.9t6.3,25.55q3.15,12.25,3.15,13.65v2.8h-137.9v-2.8l2.8-9.8q2.79-9.09,4.9-18.55t4.9-22.75q2.79-13.29,4.55-28.35a247.5,247.5,0,0,0,1.75-28.35V174.83q0-32.9-18.55-49.35T1461.82,109q-25.2,0-53.2,18.9a240.79,240.79,0,0,1,2.8,32.9v128.8q0,35,18.2,107.8v2.8h-137.9v-2.8q0-1.4,3.15-13.65t6.3-25.55q3.15-13.29,5.95-32.9a255.15,255.15,0,0,0,2.8-35.7V174.83q0-32.9-18.55-49.35T1245.52,109q-27.3,0-53.2,18.2v162.4a253.64,253.64,0,0,0,2.8,35.7q2.79,19.6,6,32.9t6.3,25.55q3.15,12.25,3.15,13.65v2.8h-137.2v-2.8q0-1.4,3.15-13.65t6.3-25.55q3.15-13.29,6-32.9a255.15,255.15,0,0,0,2.8-35.7V158a255.38,255.38,0,0,0-2.8-35.7q-2.81-19.59-6-32.9t-6.3-25.55Q1073.32,51.64,1073.32,50.23Z" transform="translate(116.67 103.77)"/><path class="cls-3" d="M1679.52,295.93q0-54.6,43.4-83.65t96.6-29.05q9.09,0,18.9.7,32.19,1.41,56.7,10.5v-41.3q0-79.09-36.4-79.1-26.61,0-82.6,38.5t-66.5,53.2h-3.5V69.13q91-25.89,158.9-25.9,66.49,0,99.4,31.5t32.9,84.7v144.9q0,47.61,25.2,47.6,8.4,0,18.9-4.9l1.4,2.1a62.13,62.13,0,0,1-22.4,40.25q-18.9,15.75-48.3,15.75-58.11,0-73.5-54.6-35.7,56-106.4,56-52.5,0-82.6-33.25T1679.52,295.93Zm106.4-14q0,30.1,17.15,49.35t45.15,19.25q26.6,0,46.9-21.7V215.43a122.69,122.69,0,0,1-14.7-.7,134.32,134.32,0,0,0-18.9-1.4q-31.5,0-53.55,17.5T1785.92,281.93Z" transform="translate(116.67 103.77)"/></g><g class="cls-2"><path class="cls-3" d="M-71.31,1100.23V599.16H80.11L171,941l89.9-341.79H412.67v501.07h-94V705.8l-99.46,394.43H121.81L22.68,705.8v394.43Z" transform="translate(116.67 103.77)"/><path class="cls-3" d="M722.68,984.7l95.71,16.07q-18.46,52.63-58.28,80.15t-99.63,27.51q-94.68,0-140.14-61.86Q484.46,997,484.45,921.47q0-90.24,47.17-141.33T650.91,729q81,0,127.83,53.49t44.77,163.89H582.89q1,42.74,23.24,66.48t55.37,23.76q22.56,0,37.94-12.31T722.68,984.7Zm5.47-97.07q-1-41.7-21.53-63.4t-49.9-21.7q-31.46,0-52,22.9t-20.16,62.2Z" transform="translate(116.67 103.77)"/><path class="cls-3" d="M868,996.67,964.33,982q6.17,28,25,42.55t52.63,14.53q37.26,0,56.06-13.67,12.64-9.57,12.64-25.64,0-10.93-6.83-18.11-7.18-6.84-32.13-12.65-116.22-25.63-147.32-46.83-43.07-29.39-43.06-81.69,0-47.16,37.25-79.29T1034.06,729q74.51,0,110.74,24.27t49.91,71.77l-90.58,16.75q-5.82-21.18-22.05-32.47t-46.31-11.28q-37.93,0-54.35,10.6-10.93,7.52-10.93,19.48,0,10.26,9.57,17.43,13,9.57,89.72,27t107.15,42.73Q1207,941,1207,986.75q0,49.9-41.7,85.79t-123.39,35.89q-74.18,0-117.4-30.08T868,996.67Zm53.66-406.06H999.2l36.91,50.93,39.65-50.93H1153l-70.76,100.83H993.39Z" transform="translate(116.67 103.77)"/><path class="cls-3" d="M1362.87,848l-87.16-15.72q14.7-52.63,50.59-77.93T1432.94,729q64.26,0,95.7,15.21t44.26,38.62q12.82,23.42,12.82,86l-1,112.11q0,47.87,4.61,70.58t17.26,48.71h-95q-3.77-9.57-9.23-28.37-2.38-8.53-3.41-11.28-24.62,23.93-52.64,35.89a150.86,150.86,0,0,1-59.82,12q-56.06,0-88.35-30.42t-32.3-76.9q0-30.76,14.7-54.86t41.18-36.91q26.49-12.83,76.4-22.39,67.32-12.65,93.31-23.59v-9.57q0-27.67-13.68-39.47t-51.61-11.79q-25.63,0-40,10.08T1362.87,848Zm128.52,77.93q-18.47,6.17-58.45,14.7t-52.3,16.75q-18.8,13.33-18.8,33.84,0,20.16,15,34.86t38.29,14.7q26,0,49.56-17.09,17.43-13,22.9-31.79,3.75-12.3,3.76-46.83Z" transform="translate(116.67 103.77)"/><path class="cls-3" d="M2010.58,1100.23h-96V915q0-58.79-6.15-76.05t-20-26.83q-13.85-9.57-33.32-9.57a77.05,77.05,0,0,0-44.78,13.67,68.84,68.84,0,0,0-27.17,36.23q-7.35,22.56-7.35,83.4v164.4h-96v-363h89.2v53.32Q1816.42,729,1888.55,729q31.8,0,58.11,11.45t39.82,29.22a106.06,106.06,0,0,1,18.8,40.33q5.29,22.56,5.3,64.6Z" transform="translate(116.67 103.77)"/></g></g><g id="Hišne_Mešanice-2" data-name="Hišne Mešanice-2"><g class="cls-2"><path class="cls-4" d="M173.33,358.63q8.21-14.6,17.8-41.4l28-77.6a24.52,24.52,0,0,0,1.2-7.8q0-7-3.6-16v-.6h36.4l41.8,111.2q7.6,20.2,15.6,32.2v.6h-48v-.8a41,41,0,0,0,1.3-5.9,52.52,52.52,0,0,0,.5-7.7q0-2-.2-7.1a37.34,37.34,0,0,0-2.6-11.5l-6-15.8h-52l-3.4,9.8a46.58,46.58,0,0,0-2.4,15.2,78.45,78.45,0,0,0,3.8,22.8v1h-28.2Zm33.4-57.2h45.6l-23.4-62.2Z" transform="translate(116.67 103.77)"/><path class="cls-4" d="M318.93,354.43q.79-3.4,1.7-7.2c.6-2.53,1.17-5.67,1.7-9.4a73.08,73.08,0,0,0,.8-10.2V290a73.08,73.08,0,0,0-.8-10.2c-.53-3.73-1.1-6.87-1.7-9.4s-1.2-5-1.8-7.3a36.92,36.92,0,0,1-.9-3.9v-.8h34.2v19.4q6.19-12.6,14.3-17.2t15.3-4.6a39.19,39.19,0,0,1,12.4,2.2l-4.6,31.2h-.8a40.44,40.44,0,0,0-10.3-7.9,26.67,26.67,0,0,0-12.6-2.9,23.63,23.63,0,0,0-13.7,4.6v44.4a71.16,71.16,0,0,0,.5,8.1c.33,2.87.77,5.57,1.3,8.1s1,4.7,1.4,6.5.87,3.57,1.4,5.3l.8,2.8v.8h-39.6v-.8A35.53,35.53,0,0,1,318.93,354.43Z" transform="translate(116.67 103.77)"/><path class="cls-4" d="M399.33,308.63q0-24.79,14.9-38.1t37.3-13.3q22.39,0,37.5,13.4t15.1,38q0,24.8-15.2,38.6-15.21,14-37.4,14t-37.2-13.9Q399.33,333.43,399.33,308.63Zm34.2,21.2a43,43,0,0,0,6.4,16.4q4.6,6.79,11.6,6.8,10,0,15-13t5-31.4q0-18-5-30.7t-15-12.7q-10,0-14.9,12.7t-4.9,30.7A115.37,115.37,0,0,0,433.53,329.83Z" transform="translate(116.67 103.77)"/><path class="cls-4" d="M513.33,259.23v-.8h34v17q13-18.19,31.6-18.2a32,32,0,0,1,18.1,5.1,27.44,27.44,0,0,1,10.9,14.9q12.8-20,32.8-20,13.39,0,22.1,8.6t8.7,25v36.8a71.59,71.59,0,0,0,.8,10.2c.53,3.73,1.1,6.87,1.7,9.4s1.2,5,1.8,7.3a36.92,36.92,0,0,1,.9,3.9v.8h-39.4v-.8l.8-2.8q.79-2.6,1.4-5.3c.4-1.8.86-4,1.4-6.5s1-5.23,1.3-8.1a71.16,71.16,0,0,0,.5-8.1v-32.8q0-9.4-5.3-14.1a19.06,19.06,0,0,0-13.1-4.7q-7.2,0-15.2,5.4a69,69,0,0,1,.8,9.4v36.8q0,10,5.2,30.8v.8h-39.4v-.8a36.92,36.92,0,0,1,.9-3.9c.6-2.33,1.2-4.77,1.8-7.3s1.16-5.67,1.7-9.4a73.08,73.08,0,0,0,.8-10.2v-32.8q0-9.4-5.3-14.1a19.06,19.06,0,0,0-13.1-4.7,26.11,26.11,0,0,0-15.2,5.2v46.4a71.59,71.59,0,0,0,.8,10.2c.53,3.73,1.1,6.87,1.7,9.4s1.2,5,1.8,7.3a36.92,36.92,0,0,1,.9,3.9v.8h-39.2v-.8a36.92,36.92,0,0,1,.9-3.9c.6-2.33,1.2-4.77,1.8-7.3s1.16-5.67,1.7-9.4a73.08,73.08,0,0,0,.8-10.2V290a73.08,73.08,0,0,0-.8-10.2c-.54-3.73-1.1-6.87-1.7-9.4s-1.2-5-1.8-7.3A36.92,36.92,0,0,1,513.33,259.23Z" transform="translate(116.67 103.77)"/><path class="cls-4" d="M686.53,329.43q0-15.6,12.4-23.9a48.53,48.53,0,0,1,27.6-8.3c1.73,0,3.53.07,5.4.2a53.35,53.35,0,0,1,16.2,3v-11.8q0-22.61-10.4-22.6-7.61,0-23.6,11t-19,15.2h-1v-27.6q26-7.39,45.4-7.4,19,0,28.4,9t9.4,24.2v41.4q0,13.6,7.2,13.6a13,13,0,0,0,5.4-1.4l.4.6a17.75,17.75,0,0,1-6.4,11.5q-5.4,4.5-13.8,4.5-16.61,0-21-15.6-10.2,16-30.4,16-15,0-23.6-9.5A31.87,31.87,0,0,1,686.53,329.43Zm30.4-4q0,8.6,4.9,14.1a16.42,16.42,0,0,0,12.9,5.5q7.59,0,13.4-6.2v-32.4a35.84,35.84,0,0,1-4.2-.2,37.78,37.78,0,0,0-5.4-.4,23.87,23.87,0,0,0-15.3,5Q716.93,315.83,716.93,325.43Z" transform="translate(116.67 103.77)"/><path class="cls-4" d="M789.33,267.23v-8a95.88,95.88,0,0,0,24.4-14.7,117.59,117.59,0,0,0,18.4-19.9h1v33.8h27.2v8.8h-27.2v59.4q0,15.19,13.8,15.2a32,32,0,0,0,15.2-4.2q-9.21,23.6-31.2,23.6-12.6,0-19.8-8.4t-7.2-23.4v-62.2Z" transform="translate(116.67 103.77)"/><path class="cls-4" d="M872.72,225.23a17,17,0,0,1,5.5-12.7,18.24,18.24,0,0,1,13.1-5.3,17.9,17.9,0,0,1,13,5.3,17.76,17.76,0,0,1-.1,25.6,18,18,0,0,1-12.9,5.3,18.24,18.24,0,0,1-13.1-5.3A17.22,17.22,0,0,1,872.72,225.23Zm1,129.2q.79-3.4,1.7-7.2c.6-2.53,1.17-5.67,1.7-9.4a73.08,73.08,0,0,0,.8-10.2V290q0-10-5.2-30.8v-.8h34.2v69.2a71.16,71.16,0,0,0,.5,8.1c.33,2.87.77,5.57,1.3,8.1s1,4.7,1.4,6.5.87,3.57,1.4,5.3l.8,2.8v.8h-39.6v-.8A35.53,35.53,0,0,1,873.72,354.43Z" transform="translate(116.67 103.77)"/><path class="cls-4" d="M922.52,359.23l52.8-92.6h-12.2a28.9,28.9,0,0,0-12.2,3.1,62.6,62.6,0,0,0-11.2,6.6q-4.61,3.5-8.9,7.2c-2.87,2.47-4.43,3.77-4.7,3.9h-.8v-29h90l-52.8,92.4h11.2a30.41,30.41,0,0,0,12.3-3,54.59,54.59,0,0,0,11.2-6.5q4.5-3.49,8.8-7.2c2.87-2.47,4.43-3.77,4.7-3.9h1l-.2,20.6.2,8.4Z" transform="translate(116.67 103.77)"/><path class="cls-4" d="M1027.12,225.23a17,17,0,0,1,5.5-12.7,18.24,18.24,0,0,1,13.1-5.3,17.9,17.9,0,0,1,13,5.3,17.76,17.76,0,0,1-.1,25.6,18,18,0,0,1-12.9,5.3,18.24,18.24,0,0,1-13.1-5.3A17.22,17.22,0,0,1,1027.12,225.23Zm1,129.2q.8-3.4,1.7-7.2c.6-2.53,1.17-5.67,1.7-9.4a73.08,73.08,0,0,0,.8-10.2V290q0-10-5.2-30.8v-.8h34.2v69.2a71.16,71.16,0,0,0,.5,8.1c.33,2.87.77,5.57,1.3,8.1s1,4.7,1.4,6.5.87,3.57,1.4,5.3l.8,2.8v.8h-39.6v-.8A35.53,35.53,0,0,1,1028.12,354.43Z" transform="translate(116.67 103.77)"/><path class="cls-4" d="M1080.32,354.43q.79-3.4,1.7-7.2c.6-2.53,1.16-5.67,1.7-9.4a73.08,73.08,0,0,0,.8-10.2V290a73.08,73.08,0,0,0-.8-10.2c-.54-3.73-1.1-6.87-1.7-9.4s-1.2-5-1.8-7.3a36.92,36.92,0,0,1-.9-3.9v-.8h34.2v19.4q6.2-12.6,14.3-17.2t15.3-4.6a39.24,39.24,0,0,1,12.4,2.2l-4.6,31.2h-.8a40.61,40.61,0,0,0-10.3-7.9,26.67,26.67,0,0,0-12.6-2.9,23.6,23.6,0,0,0-13.7,4.6v44.4a68.93,68.93,0,0,0,.5,8.1q.49,4.31,1.3,8.1t1.4,6.5c.4,1.8.86,3.57,1.4,5.3l.8,2.8v.8h-39.6v-.8A35.53,35.53,0,0,1,1080.32,354.43Z" transform="translate(116.67 103.77)"/><path class="cls-4" d="M1162.12,329.43q0-15.6,12.4-23.9a48.57,48.57,0,0,1,27.6-8.3c1.73,0,3.53.07,5.4.2a53.35,53.35,0,0,1,16.2,3v-11.8q0-22.61-10.4-22.6-7.6,0-23.6,11t-19,15.2h-1v-27.6q26-7.39,45.4-7.4,19,0,28.4,9t9.4,24.2v41.4q0,13.6,7.2,13.6a13,13,0,0,0,5.4-1.4l.4.6a17.75,17.75,0,0,1-6.4,11.5q-5.4,4.5-13.8,4.5-16.6,0-21-15.6-10.2,16-30.4,16-15,0-23.6-9.5A31.92,31.92,0,0,1,1162.12,329.43Zm30.4-4q0,8.6,4.9,14.1a16.44,16.44,0,0,0,12.9,5.5q7.61,0,13.4-6.2v-32.4a36.08,36.08,0,0,1-4.2-.2,37.78,37.78,0,0,0-5.4-.4,23.87,23.87,0,0,0-15.3,5Q1192.52,315.83,1192.52,325.43Z" transform="translate(116.67 103.77)"/><path class="cls-4" d="M1273.92,259.23v-.8h34.2v17.4q12-18.6,32.4-18.6,14,0,23.4,8.7t9.4,24.9v36.8a71.59,71.59,0,0,0,.8,10.2c.53,3.73,1.1,6.87,1.7,9.4s1.2,5,1.8,7.3a36.92,36.92,0,0,1,.9,3.9v.8h-39.6v-.8q5.19-20.81,5.2-30.8v-32.8q0-9.79-4.9-14.5a18.06,18.06,0,0,0-12.5-4.9h-.6q-8.8,0-18,6.8v45.4a68.93,68.93,0,0,0,.5,8.1q.5,4.31,1.3,8.1t1.4,6.5c.4,1.8.86,3.57,1.4,5.3l.8,2.8v.8h-39.6v-.8a36.92,36.92,0,0,1,.9-3.9c.6-2.33,1.2-4.77,1.8-7.3s1.16-5.67,1.7-9.4a73.08,73.08,0,0,0,.8-10.2V290a73.08,73.08,0,0,0-.8-10.2c-.54-3.73-1.1-6.87-1.7-9.4s-1.2-5-1.8-7.3A36.92,36.92,0,0,1,1273.92,259.23Z" transform="translate(116.67 103.77)"/><path class="cls-4" d="M1402.11,271q14-13.8,36.8-13.8,23,0,34.4,14.3t11.4,35.1h-64.6q1.61,16.39,9.3,25.9t22.1,9.5q15.4,0,31.2-11.6l.8.4q-4.59,12.19-16.4,21.3t-28.6,9.1a50.78,50.78,0,0,1-35.4-13.7q-15-13.69-15-38.5Q1388.11,285,1402.11,271Zm53.6,24.8q-.8-30.6-17.4-30.6-9.8,0-14.2,9.8t-4.4,23.8v3Z" transform="translate(116.67 103.77)"/></g><g class="cls-2"><path class="cls-4" d="M177.13,558.23l2.8-7.8a170.85,170.85,0,0,0,5.1-17.9,82.94,82.94,0,0,0,2.3-18.7v-67a49,49,0,0,0-1.2-10.2,77.71,77.71,0,0,0-2.5-9.3q-1.31-3.7-2.8-7.3a26.86,26.86,0,0,1-1.5-4v-.8h38.4l41.6,103.6,38.8-103.6h36v.8a36.92,36.92,0,0,1-.9,3.9c-.6,2.33-1.2,4.77-1.8,7.3s-1.17,5.67-1.7,9.4a73.08,73.08,0,0,0-.8,10.2v80.8a73.08,73.08,0,0,0,.8,10.2c.53,3.73,1.1,6.87,1.7,9.4s1.2,5,1.8,7.3a36.92,36.92,0,0,1,.9,3.9v.8h-41.4v-.8l.8-2.8q.8-2.6,1.4-5.3t1.4-6.5c.53-2.53,1-5.23,1.3-8.1a71.16,71.16,0,0,0,.5-8.1V441l-43.8,118.2h-10V559l-1.2.2-46.6-117.6a48.09,48.09,0,0,0-.2,5.2v67a82.94,82.94,0,0,0,2.3,18.7,170.85,170.85,0,0,0,5.1,17.9l2.8,7.8v1h-29.4Z" transform="translate(116.67 103.77)"/><path class="cls-4" d="M359.53,471q14-13.8,36.8-13.8,23,0,34.4,14.3t11.4,35.1h-64.6q1.61,16.39,9.3,25.9t22.1,9.5q15.4,0,31.2-11.6l.8.4q-4.6,12.2-16.4,21.3t-28.6,9.1a50.78,50.78,0,0,1-35.4-13.7q-15-13.69-15-38.5Q345.53,485,359.53,471Zm53.6,24.8q-.79-30.6-17.4-30.6-9.8,0-14.2,9.8t-4.4,23.8v3Z" transform="translate(116.67 103.77)"/><path class="cls-4" d="M465.53,465.23q11.4-8,30.4-8a94.59,94.59,0,0,1,36.2,7.4v26.8h-.8a146,146,0,0,0-19.7-19q-9.11-7-18.5-7a18,18,0,0,0-10.3,2.9,9.4,9.4,0,0,0-4.3,8.3q0,6.19,5.8,9.7t19.4,8.1a6.2,6.2,0,0,1,1.4.4q17.19,6,24.4,14a27.7,27.7,0,0,1,7.2,19.2q0,16.4-11.7,24.8t-28.7,8.4q-17.61,0-39.6-8.6v-28h.8c.4.53,1.87,2.07,4.4,4.6l5,4.8q1,1.2,4.5,4.5a60.18,60.18,0,0,0,5.3,4.6c1.2.87,2.86,2.07,5,3.6a26.61,26.61,0,0,0,5.5,3.2,52.19,52.19,0,0,0,5.2,1.7,21.47,21.47,0,0,0,5.7.8,17.88,17.88,0,0,0,10.8-3.2,10.69,10.69,0,0,0,4.4-9.2,11.25,11.25,0,0,0-1.5-5.9,14.73,14.73,0,0,0-5.6-4.8,65.23,65.23,0,0,0-7.6-3.7q-3.5-1.39-11.3-4.2-16.6-6-24.9-14a26.18,26.18,0,0,1-8.3-19.6Q454.13,473.43,465.53,465.23Zm-4.4-51.4,2.4-2.2,31.8,11.6,31.6-11.6,2.4,2.2-34,31.8Z" transform="translate(116.67 103.77)"/><path class="cls-4" d="M548.13,529.43q0-15.6,12.4-23.9a48.53,48.53,0,0,1,27.6-8.3c1.73,0,3.53.07,5.4.2a53.35,53.35,0,0,1,16.2,3v-11.8q0-22.61-10.4-22.6-7.61,0-23.6,11t-19,15.2h-1v-27.6q26-7.39,45.4-7.4,19,0,28.4,9t9.4,24.2v41.4q0,13.6,7.2,13.6a13,13,0,0,0,5.4-1.4l.4.6a17.75,17.75,0,0,1-6.4,11.5q-5.4,4.5-13.8,4.5-16.61,0-21-15.6-10.2,16-30.4,16-15,0-23.6-9.5A31.87,31.87,0,0,1,548.13,529.43Zm30.4-4q0,8.6,4.9,14.1a16.42,16.42,0,0,0,12.9,5.5q7.59,0,13.4-6.2v-32.4a35.84,35.84,0,0,1-4.2-.2,37.78,37.78,0,0,0-5.4-.4,23.87,23.87,0,0,0-15.3,5Q578.53,515.82,578.53,525.43Z" transform="translate(116.67 103.77)"/><path class="cls-4" d="M659.92,459.23v-.8h34.2v17.4q12-18.6,32.41-18.6,14,0,23.39,8.7t9.41,24.9v36.8a73,73,0,0,0,.79,10.2c.54,3.73,1.11,6.87,1.71,9.4s1.2,5,1.79,7.3a35.63,35.63,0,0,1,.91,3.9v.8H724.92v-.8q5.21-20.8,5.2-30.8v-32.8q0-9.79-4.89-14.5a18.06,18.06,0,0,0-12.5-4.9h-.61q-8.79,0-18,6.8v45.4a71.16,71.16,0,0,0,.5,8.1q.51,4.31,1.3,8.1c.54,2.53,1,4.7,1.41,6.5s.86,3.57,1.4,5.3l.8,2.8v.8H659.92v-.8a38.63,38.63,0,0,1,.91-3.9c.59-2.33,1.2-4.77,1.79-7.3s1.17-5.67,1.71-9.4a73,73,0,0,0,.79-10.2V490a73,73,0,0,0-.79-10.2c-.54-3.73-1.1-6.87-1.71-9.4s-1.2-5-1.79-7.3A38.63,38.63,0,0,1,659.92,459.23Z" transform="translate(116.67 103.77)"/><path class="cls-4" d="M777.12,425.23a17,17,0,0,1,5.5-12.7,18.24,18.24,0,0,1,13.1-5.3,17.9,17.9,0,0,1,13,5.3,17.76,17.76,0,0,1-.1,25.6,18,18,0,0,1-12.9,5.3,18.24,18.24,0,0,1-13.1-5.3A17.25,17.25,0,0,1,777.12,425.23Zm1,129.2q.79-3.4,1.7-7.2c.6-2.53,1.17-5.67,1.7-9.4a73.08,73.08,0,0,0,.8-10.2V490q0-10-5.2-30.8v-.8h34.2v69.2a71.16,71.16,0,0,0,.5,8.1c.33,2.87.77,5.57,1.3,8.1s1,4.7,1.4,6.5.87,3.57,1.4,5.3l.8,2.8v.8h-39.6v-.8A38.33,38.33,0,0,1,778.12,554.43Z" transform="translate(116.67 103.77)"/><path class="cls-4" d="M841.32,471q14-13.8,37-13.8,14.8,0,38.4,9.2l.4,30.2h-1a106.24,106.24,0,0,0-17.2-21.7q-10-9.71-20-9.7-10.2,0-15.2,10t-5,25q.4,19.39,8.2,30.6t23.6,11.2q15.4,0,30.4-11l.6.4q-4.6,12.2-16.2,21t-28,8.8a50.7,50.7,0,0,1-35.2-13.6q-15-13.61-15-38.6Q827.12,484.84,841.32,471Z" transform="translate(116.67 103.77)"/><path class="cls-4" d="M944.52,471q14-13.8,36.8-13.8,23,0,34.4,14.3t11.4,35.1h-64.6q1.61,16.39,9.3,25.9t22.1,9.5q15.41,0,31.2-11.6l.8.4q-4.61,12.2-16.4,21.3t-28.6,9.1a50.78,50.78,0,0,1-35.4-13.7q-15-13.69-15-38.5Q930.52,485,944.52,471Zm53.6,24.8q-.79-30.6-17.4-30.6-9.79,0-14.2,9.8t-4.4,23.8v3Z" transform="translate(116.67 103.77)"/></g></g><rect id="Sidebar-2" class="cls-5" x="116.67" y="787.97" width="1984.2" height="1300.1"/></svg>