<svg id="Layer_1" data-name="Layer 1" xmlns="http://www.w3.org/2000/svg" viewBox="0 0 244.55 289.71"><defs><style>.cls-1{fill:#cde2d3;}.cls-2{fill:#231f20;}</style></defs><title>baby</title><path class="cls-1" d="M235.09,245.83c-3.81,1.91-8.24,1.4-12.36,2a33.92,33.92,0,0,1-7.93.19c-2.66-.21-5.2-.93-7.83-1.24-1.64-.19-3.25.18-4.87,0a6.43,6.43,0,0,1-2.32-.69,14.39,14.39,0,0,1-6.47-6.15c-.79-1.66-1.37-3.38-2-5.1a57.87,57.87,0,0,0-3.36-8c-2.13-3.93-4.06-7.95-6.48-11.73-2.17-3.39-4.83-6.58-5.79-10.52a10.8,10.8,0,0,1-.09-3.76c.09-.87.21-1.73.3-2.6a60,60,0,0,1,3.24-13.08c1.86-5.43,2.72-10.63,5.89-15.49,1.68-2.56,3.65-5.78,6.2-7.42a31.43,31.43,0,0,1,7.53-3.62c2.58-.8,5.26-1.17,7.89-1.77,3.85-.88,7.5-2.08,11.53-2.25,1,0,.94-.35,1.78-.73,1.34-.6,3.74,0,5,.52a40.33,40.33,0,0,1,11.76,7,20.53,20.53,0,0,1,2.74,2.95,18.23,18.23,0,0,0,1.54,2.38c.55.58,1,1.21,1.55,1.76a19.25,19.25,0,0,1,2.89,3.11c.95,1.53,1.38,3.27,2.28,4.82a22.55,22.55,0,0,1,1.84,2.94,42.26,42.26,0,0,1,1.95,8.31,32.15,32.15,0,0,1,.27,6.86c-.08,1.9-.35,3.89,1,5.59a10.47,10.47,0,0,1,2.41,4.18c.58,2.5,1.1,5,1.8,7.49a34.74,34.74,0,0,1,1,3.49c.38,2.23.41,3.68-.93,5.51-1,1.37-1.82,2.85-2.82,4.24-1.41,2-3.06,2.94-5,4.57a17.42,17.42,0,0,0-3.11,3.45c-1.66,2.43-4.16,4.54-5.46,7.11A12.56,12.56,0,0,1,235.09,245.83Z" transform="translate(-175.46 -153.69)"/><g id="poletje_fantek" data-name="poletje fantek"><path class="cls-2" d="M310.56,173.26c-6.53,3.59-11.12,11.26-13.37,18.23-1.19,3.68.49,7.92-1.57,11.22-2.63,4.21-5.21,5.72-6.47,10.85-1.06,4.28-.85,6.89-.54,11.35a56.89,56.89,0,0,1,.08,6c-.05,1.21-.31,2.29.38,3.35s1.78,1.28,2.88,1.95c2.21,1.35,3.59,3.4,5.5,5.14a33.14,33.14,0,0,1,8.72,11.55c.32.74,1.4.1,1.08-.63-3.05-6.83-8.05-11.69-13.56-16.65-1.14-1-3.5-1.66-3.91-3.38-.27-1.16.61-3.1.55-4.44-.15-3.79-1.36-7.68-.59-11.47,1-4.77,2.93-8,6-11.71,2.13-2.56,2.09-3.66,2.11-6.85,0-8.5,5.84-19.29,13.34-23.41.7-.39.07-1.47-.63-1.08Z" transform="translate(-175.46 -153.69)"/><path class="cls-2" d="M311.31,173.89a20.12,20.12,0,0,1,5.37-3.8c.51-.3.32-1.22-.31-1.17-6,.52,2.75-1,.24-3.66-.82-.88-2.75.3-1.07-.37a46.56,46.56,0,0,1,10.53-2.51c4.32-.61,7.15-1.14,11.18-.26a76.66,76.66,0,0,1,12.45,3.94c3.7,1.48,6.79,2.7,9.79,5.46a44.9,44.9,0,0,0,5.69,5c3.13,2.05,6.72,2.45,9.86,4.34,4.22,2.54,6.16,6.6,7.33,11.17,2.17,8.52-2.8,16.57-2.18,25.13.58,8-4.95,12.43-7.71,19.2-1.71,4.17-1.31,8.89-5.57,11.34-3.38,1.94-8.35,2.38-12.07,3.73-.75.27-.42,1.48.34,1.21,4-1.45,8-2.47,12.06-3.73,1.95-.62,3.24-.76,4.28-2.6.94-1.64.7-4.71,1.08-6.36a22.09,22.09,0,0,1,3.43-7.37,34.83,34.83,0,0,0,4.74-9c1.1-3.47.54-6.22.7-9.82.2-4.53,1.76-8.9,2.45-13.38.87-5.62-.31-12.85-4.21-17.26a19.4,19.4,0,0,0-6.63-4.69c-2.41-1.07-5-1.5-7.27-3a30.56,30.56,0,0,1-4.33-3.84c-4.89-4.62-11.09-7.22-17.51-9-4-1.11-8.3-2.44-12.44-2.74-2.48-.18-4.22.73-6.51,1.32-1.5.39-3,.49-4.53.94a59.54,59.54,0,0,0-6.06,1.62c-.9.4-1.35.56-1.42,1.52a.63.63,0,0,0,.31.54c.61.35,2,.35,2.1.6a29.61,29.61,0,0,0-3.91,3.4.64.64,0,0,0,.54.94c1.49,0,2.82-.42,4.32-.55l-.32-1.16a20.76,20.76,0,0,0-5.62,4c-.53.6.35,1.49.88.88Z" transform="translate(-175.46 -153.69)"/><path class="cls-2" d="M310.79,174.11c.68,1,3.24,2.37,3.43,3.45.27,1.58-3.22,4.15-3.54,6.06-.57,3.41,1.28,2.79-.37,6.77-.93,2.25-2.07,4.53-3.11,6.73-.9,1.91-2.75,3.58-2.75,5.77,0,.21.16.28.18.44.29,2.35,1.48,1.33-.36,3.94-1,1.47-2.17,3.31-2.06,5.21.1,1.7,4,6.3,2.82,7.46a.62.62,0,0,0,0,.88c2.35,1.83.66,5.2-.18,7.54-1.45,4-4,4.7-7.75,5.28-.79.13-.45,1.33.33,1.21,4.21-.66,6.12,0,7.8-3.9,1.07-2.51,3.51-6.67,2.46-9.51-.2-.56-1-.78-1.17-1.25s-.08-1.48-.24-2c-.81-2.65-1.88-3.15-1.8-6.33.07-3,.1-2.57,1.46-4.64.4-.62,1.09-1.18,1.15-2a9.87,9.87,0,0,0-.26-1.44c-.08-1.49-.82.76-.36-1.93.21-1.23.75-1.39,1.19-2.41,1.59-3.65,4.15-7.66,5.19-11.49.13-.44-.32-1-.27-1.36a49.23,49.23,0,0,1,1.34-6.14c.24-.51,1.72-2.06,1.69-2.78-.1-2.17-2.54-2.49-3.74-4.19-.46-.65-1.55,0-1.08.63Z" transform="translate(-175.46 -153.69)"/><path class="cls-2" d="M302.15,234.85c3-.45,3.9-.06,6.39-1.89,2.12-1.56,2.35-1.65,2.49-4.48.05-1,.41-1.1-.14-2.27-.15-.31-1.42-.85-1.44-1,.08.6,1.15,1.63,1.46,2.09,1.21,1.81,2.14,3.69,3.49,5.42,1.89,2.43,4.7,3.27,3.24,6.44-.75,1.62-2,2.57-1,4.37.65,1.24,2.84,2.44,3.9,3.35a25.87,25.87,0,0,0,3.68,2.91c3.48,2,7.26.68,10.95,2,.76.27,1.09-.93.34-1.2-4.48-1.59-8.64-.11-12.69-3.35-2.27-1.82-5.85-4.12-4.11-7.22.44-.79,1.75-1.29,1.93-2.27.23-1.26-.78-1.76-1.55-2.48-1.84-1.71-3.71-3-5.08-5.26-1.1-1.77-1.74-3.9-3.12-5.51-.89-1-3.8-2.3-3.49.39.05.45.45.53.63.91.4.87.73.4,1.26,1.74a3.17,3.17,0,0,1,.17,2.55c-.89,2.73-5.09,3.19-7.6,3.56-.79.12-.45,1.33.33,1.21Z" transform="translate(-175.46 -153.69)"/><path class="cls-2" d="M368.5,203.88c1.71-1.68,9.58-8.35,6.08-10.95a3.77,3.77,0,0,0-1.7-.37c-2.69-.47-3.05.47-5.73-.85-2.88-1.43-2-2-3-4.49a5.69,5.69,0,0,0-1.17-2.06.64.64,0,0,0-1.07.44c-.1,2.73.16,5.47-.06,8.19l1.07-.44c-1.43-1.35-2.22-3.1-3.71-4.36-2.52-2.12-5.88-3.1-8.77-4.57-1.6-.81-4.18-2.95-6-1.84a.62.62,0,0,0-.31.54c.33,3.16,4.16,7.1,5.93,9.53.47.64,1.55,0,1.08-.64-1.28-1.74-4.53-5.09-4.81-7.24-.14-1.08-.84-.94.85-.7a9.81,9.81,0,0,1,2.3,1.22c2.08,1.05,4.34,1.83,6.34,3,2.72,1.62,4.07,3.86,6.27,5.92a.63.63,0,0,0,1.06-.44c.22-2.72,0-5.46.06-8.19l-1.07.45c2.5,2.42.5,7.43,4.7,8.3,1.9.4,6.88-2.43,6.94,1.38,0,2.08-4.74,5.89-6.13,7.26a.63.63,0,0,0,.88.89Z" transform="translate(-175.46 -153.69)"/><path class="cls-2" d="M289.2,220.47a33.78,33.78,0,0,0-9.07-3.73c-2.52-.61-3.92-.2-6.62,0s-4.39-.68-6.9-1.15c-8.76-1.62-9,6.35-10.35,13.06a35.87,35.87,0,0,0-.66,7.67c.05,3,1.13,6.59.47,9.49-.58,2.53-2.72,5.48-4,7.77-.4.7-.94,2.32-2.06,2.25s-.22-.46-1-.77c-.11,0-1.37-.65-1.52-.73-1.53-.87-1.32,2.69-1.1-.89.25-4.15,3.93-7.62,3.55-12.1,0-.56-.87-.92-1.16-.32-.83,1.7-1.66,4-1.83.86-.11-2.28,1.57-3.49,2.64-5.23,1.86-3,1.76-6.66,2.64-10s1.31-8.86,3.73-11.59c1.59-1.79,3.94-2.89,5.92-1.29,1.12.9,1.51,1.77,2.7,2.64.61.45,1.17-.47.76-1l-.3-.36-.45,1.06s4.25,4.33,4.85,4.84c3.19,2.73,0,5.73-.49,9s.84,4.13,2.15,6.64c2.35,4.5-.72,8.78-2.19,12.93-.25.72.75,1,1.14.48a34.38,34.38,0,0,0,6.13-20c0-.8-1.28-.8-1.25,0a33.85,33.85,0,0,1-6,19.33l1.15.49c1.29-3.64,3.69-7.28,3.11-11.32-.21-1.46-.73-1.69-1.25-2.83-2-4.37-2.3-5.13-.55-9.19a16.61,16.61,0,0,0,1-2.25c.7-2.57.13-2.7-1.83-4.12-2.46-1.79-2.82-4.92-6-5.31-.6-.07-.74.71-.44,1.07l.3.37.76-1c-2.37-1.73-3.86-5.56-7.84-3.7-2.23,1-3.85,4.17-4.43,6.36-1.6,6-1.85,13.68-5.18,19-1.77,2.82-3.16,5.52-1.38,8.86a.63.63,0,0,0,1,.12c1.27-1.15,1.75-2.71,2.49-4.23l-1.16-.32c.31,3.61-1.82,7.21-3.06,10.48-.63,1.68-1.53,3.28-.51,4.89a.63.63,0,0,0,1,.13c1.33-.84,2.22-.72,2.69.36a.63.63,0,0,0,.7.29c3.79-1.07,5.79-6.49,7.19-9.79,1-2.39.71-4.26.45-6.8a46.88,46.88,0,0,1,.74-13.53,41.59,41.59,0,0,1,1.64-7.25c2.23-6.1,7.73-2.26,12-1.92,3.92.31,4.76-.61,9.39.45a27.18,27.18,0,0,1,7.65,2.91.63.63,0,0,0,.63-1.08Z" transform="translate(-175.46 -153.69)"/><path class="cls-2" d="M251.24,256.85c-.86,3.23,7.68.29,7.95.22a16,16,0,0,1,9,.23,14.28,14.28,0,0,0,4.71.7c1.39-.14,2.7-.92,4.05-1.25,2.73-.65,4.26,0,6.74.11,6.31.34,10.29,3.84,14.66,8.22a.63.63,0,0,0,.89-.89c-6.07-6.07-10.89-8.91-19.54-9.23-1.81-.07-3.48.92-5.21,1.29-3,.63-5.34-.17-8.14-.83a13.83,13.83,0,0,0-4.67-.4c-3.89.53-6.3,3.49-10.67,1a.63.63,0,0,0-.92.37l0,.14a.63.63,0,0,0,1.21.33Z" transform="translate(-175.46 -153.69)"/><path class="cls-2" d="M253,217.38A56.58,56.58,0,0,1,240.5,216c-5.05-1.15-7.22-4.14-9.06-8.6-2-4.92-4.07-8.12-9.34-10.12-2.58-1-11.1-3.86-13.19-1.08s5.19,7.26,6.86,8.71a.62.62,0,0,0,.88-.88c-1.92-2.18-8.51-9.44-12-6-1,1-1.51,3.79-1.21,5.1.52,2.31,3.74,3.77,5.26,5.51,2.7,3.1,3.85,7.11,6.73,10.07a25.26,25.26,0,0,0,8.21,5.46c4.17,1.75,8,3.94,12.06,6,2.89,1.49,10.56,4.59,11.52,7.82a.62.62,0,0,0,1.2-.33c-.62-2.1-1.53-2.55-3.41-3.6-2.91-1.63-5.72-3.43-8.68-5s-5.9-3.51-9-4.87c-2.54-1.11-5-1.9-7.32-3.49-5.49-3.75-7.18-9.91-11.71-14.62-1-1-2.17-1.46-2.82-2.79-.88-1.79-1.05-4.23,2.93-4.12,3,.08,5.57,3.74,7.32,5.72l.88-.88c-1.38-1.21-3.78-2.82-4.5-4.47-2-4.43-.62-2.33.93-2.82,1.71-.54,4.62.6,6.25,1.05a17.66,17.66,0,0,1,7.62,3.93c2.35,2.18,3.14,5.64,4.38,8.54,1.51,3.55,2.41,4.69,6.1,6A45,45,0,0,0,253,218.62a.62.62,0,0,0,0-1.24Z" transform="translate(-175.46 -153.69)"/><path class="cls-2" d="M208.9,197.76l.17,0a.62.62,0,0,0,.46-.6c.17-6.25-2.24-12.55-2.72-18.8a.64.64,0,0,0-.79-.6c-2.37.62-5,.28-7.34.69-1,.17-3,1.48-3.75,1.1-2.43-1.3,6.34-3.73,7.43-4.22a.63.63,0,0,0-.15-1.15c-1.62-.34-2.53,0-4.21.22l.44,1.07a32.88,32.88,0,0,1,10.25-4.88,24.23,24.23,0,0,1,8.63-1.31l-.45-1.06a48.24,48.24,0,0,1-4.25,4.68,6.17,6.17,0,0,1-2.15,1.61,2.25,2.25,0,0,1-.82-.37c-2.88.46-2.46,1-4.59,3.27-.54.59.34,1.48.89.88.87-.95,2.46-3.81,4.22-2.44a.65.65,0,0,0,.76.1c2.67-1.69,4.84-4.42,6.83-6.85a.64.64,0,0,0-.44-1.07,26,26,0,0,0-4.17-.23c-1.65.19-2.94,1.93-4.52,1a.62.62,0,0,0-.63,0c-1.6,1.06-3.32,1.18-5,2a31.25,31.25,0,0,0-5.44,3.77.63.63,0,0,0,.44,1.07,21.3,21.3,0,0,1,3.88-.26l-.15-1.14c-3,1.32-5.86,1.75-8.72,3.33a.63.63,0,0,0-.13,1l.85,1.87c0,.3.28.67.63.63,3-.41,5.77-1.45,8.89-1.7,2.55-.2,2.41-.62,2.66,1.88.11,1.11,2.2,15.44,2.65,15.35-.78.16-.45,1.37.34,1.21Z" transform="translate(-175.46 -153.69)"/><path class="cls-2" d="M208,208.43c1.79,2.5,1.85,5.77,1.85,8.71a.63.63,0,0,0,1.25,0c0-3.15-.1-6.66-2-9.34-.46-.65-1.54,0-1.08.63Z" transform="translate(-175.46 -153.69)"/><path class="cls-2" d="M316.3,250.13c-3.83,1.75-7.13-.12-10.16,3.67-4,5-7.05,10.56-11.38,15.35a28.94,28.94,0,0,0-6.61,14.94c-.53,3.37-.57,6.64-1.21,10.1-.16.91-.73,1.92-.1,2.77a.66.66,0,0,0,.86.22c1.21-.59,1.66-2.13,2.39-3.21a94.17,94.17,0,0,1,6.94-8.52,21.24,21.24,0,0,0,2.88-3.68c1-1.79,1.08-4.35,2.89-5.47,1.62-1,4.93-.3,6.73-.11A33.3,33.3,0,0,1,320,278.52c5.22,2.22,11,2.94,15.66,6.43.64.48,1.26-.6.63-1.08-5.1-3.85-11.36-4.59-17.09-7.05-4.51-1.93-9.23-2-14.1-2.09-3.26-.05-3.57,0-5,3.24-2.55,5.71-7,9.57-10.55,14.63l-1,1.47c-1.18,1.49-1.37,1.92-.58,1.27-.24-1.13,1-3.28,1.15-4.42.41-2.42,0-4.81.46-7.22a37.58,37.58,0,0,1,2.42-7.81c1.41-3.39,3.44-4.86,5.65-7.55,3.66-4.43,6-10.87,10.42-14.64,2.62-2.26,6-1.14,8.91-2.49.73-.34.09-1.42-.63-1.08Z" transform="translate(-175.46 -153.69)"/><path class="cls-2" d="M372.58,243.37c1.9,2.28,3.8,4.1,4.47,7.15a31.39,31.39,0,0,1,.34,6.43c0,1.75-.43,3.87.12,5.53.41,1.21,1.06,1.94,1.24,3.32a53.92,53.92,0,0,1,0,7.52c-.06,2.83-.36,5.52.49,8.26a.63.63,0,0,0,1.23-.16c-.09-2.95.77-5.73,1-8.64.2-2.32-.39-4.63-.08-6.93l-1.07.45c2.15,1.87,4.7,2.19,6.87,4.31,1.8,1.75,3.6,3.66,5.3,5.52a42.51,42.51,0,0,1,5.41,6.71c1.42,2.44,1.44,9.17.64,12-1.73,6-7.24,11.35-11.73,15.4-3.09,2.79-6.18,5.41-9.47,8-2.83,2.22-5.45,5.05-8.48,6.94l.92.71.19-.54c.26-.76-.95-1.09-1.21-.33l-.18.54a.63.63,0,0,0,.91.7c3.78-2.36,7.12-5.82,10.62-8.59,3.32-2.62,6.46-5.44,9.59-8.29a32.29,32.29,0,0,0,6-6.91c1.34-2.17,3.48-4.74,4.21-7.16.69-2.25.32-5.78.52-8.1.14-1.67.6-1.25,0-3-.66-1.95-2.83-3.88-4.06-5.41-2.78-3.43-5.9-6.53-8.84-9.8-1.92-2.15-4.23-1.75-6.32-3.57a.63.63,0,0,0-1.06.44c-.34,2.54.27,5.07,0,7.63s-1,5.2-.9,7.94l1.23-.17c-1.26-4.05-.52-9.34-.45-13.57,0-1.35.31-3.16-.08-4.49-.26-.92-1.08-1.1-1.39-2.27-.87-3.27.5-7.28-.28-10.73-.73-3.26-2.71-5.21-4.79-7.7-.52-.62-1.4.27-.88.88Z" transform="translate(-175.46 -153.69)"/><path class="cls-2" d="M399.17,286.74c0,1.82-.36,3.88.29,5.59.55,1.43,2.16,2.9,3.07,4.19,2.51,3.55,3.51,7,1.52,11.08-2.61,5.37-7.93,9.57-12.14,13.67-2,2-4.06,3.93-6,6-1.24,1.28-3.11,4.29-4.56,5.07-.71.38-.08,1.46.63,1.08,1.32-.71,1.9-1.87,2.8-3a85,85,0,0,1,7.38-7.57c4.86-4.76,10-9.24,13.39-15.23a10.81,10.81,0,0,0-.43-10.45c-1.06-1.75-3-2.85-3.94-4.81s-.76-3.45-.74-5.57a.63.63,0,0,0-1.25,0Z" transform="translate(-175.46 -153.69)"/><path class="cls-2" d="M404.09,298.39c1.83,2,4,4,5.54,6.26.86,1.31,1.48,2.73,2.37,4,1,1.47,2.39,2.83,2.68,4.77.14,1-.24,2-.07,3.05.71,4.37,1.06,7.5-.31,11.91-1.95,6.29-5.62,10-10,14.65-1.67,1.8-2.87,3.91-4.95,5.31-1.7,1.15-3.66,1.83-5.46,2.81-3.73,2-6.32,5.43-9.66,7.94-4,3-7.21,5.6-11.84,7.55-4.25,1.78-8,3.23-11.2,6.61-.55.58.33,1.47.89.88,4.53-4.79,11-5.54,16.37-9a61.1,61.1,0,0,0,10.14-8.1c3.8-3.87,8.68-5.08,12.63-8.47,1.73-1.49,2.89-3.51,4.47-5.14a68.24,68.24,0,0,0,5.33-5.56,30.47,30.47,0,0,0,5.58-13.14c.68-4-.39-8.14-.72-12a5.09,5.09,0,0,0-.73-2.51c-.68-1.25-2.22-2.15-3-3.35-.59-.89-.87-1.93-1.45-2.81-1.59-2.38-3.83-4.39-5.73-6.52-.54-.6-1.42.29-.89.89Z" transform="translate(-175.46 -153.69)"/><path class="cls-2" d="M415.53,323.54c.54,4.53,2.59,8.95,2.88,13.41.19,3-1.3,5-2.3,7.75a43.46,43.46,0,0,0-1.8,8c-.31,2-.45,3.95-.65,5.94-.43,4.19-1.83,6.59-4.84,9.4-3.58,3.35-6.67,6.68-10.49,9.75-3.08,2.48-4.56,6.15-6.76,9.34-3.51,5.07-9.77,7.15-15.69,6.89-4.57-.2-9.58-.13-14.08-.89L357.45,392c-.35-.28-.71-.55-1.08-.8-.23,0-.31-.3-.58-.26-1,.14-.94.21-1.83.93-.63.5.26,1.38.88.88,1-.82,4,1.26,5.29,1.57a34.81,34.81,0,0,0,7.1.41c4.38,0,9.2,1.47,13.37.43S389,392.5,391.75,389c3.33-4.23,5-8.26,9.46-11.62a68.94,68.94,0,0,0,10.91-10.89c2.9-3.58,2.62-7.52,3.18-11.88a41.63,41.63,0,0,1,2.57-10.79c.8-1.91,2-3.79,2.13-5.93a12.25,12.25,0,0,0-1.11-4.81,48.4,48.4,0,0,1-2.11-9.51c-.09-.79-1.34-.8-1.25,0Z" transform="translate(-175.46 -153.69)"/><path class="cls-2" d="M351.92,388.19c1.08,2.76,1.84,3.93.73,7s-2.29,4.87-5.06,6.58c-3.67,2.27-4.87,6.61-7.37,10-2.67,3.65-6.57,3.07-10.6,3.14A28.35,28.35,0,0,1,319,413.32a10.51,10.51,0,0,0-4.34-.81c-5,0-6.48-.4-8.44-5-.44-1-2.38-4.28-1.86-5.36.67-1.42.79-.35,1.24,0,1.29,1.07,1.14,2.3,2.8,3.12,3.94,2,8.72,1.21,12.9.58a40.49,40.49,0,0,0,9.4-2.36c2.44-1,4.49-2.66,6.94-3.62,2.19-.86,6.09-1.29,7.27-3.61.36-.72-.72-1.35-1.08-.63-1.07,2.11-5.78,2.59-7.81,3.53-3.91,1.82-7.24,3.92-11.57,4.86-3.86.83-9.7,2.12-13.62.77-3.28-1.14-3.26-2.91-5-5.23-.72-1-.37-.86-1.37-1.38a.65.65,0,0,0-.76.1c-2.85,2.53,1.46,12.41,3.72,14.35,2.47,2.13,8.48,1.43,11.23,2.06a53.41,53.41,0,0,0,12.54,1.4c3.2,0,5.42,1,7.95-1.2,3.32-2.92,4.46-7.61,7.45-10.74,1.32-1.38,3.17-1.83,4.48-3.19s1.8-3.53,2.59-5.21c2-4.13,1.08-3.65-.6-7.92-.29-.74-1.5-.42-1.2.33Z" transform="translate(-175.46 -153.69)"/><path class="cls-2" d="M352.83,387.48c-2.93-2.09-3.64-6.2-2.61-9.48.92-2.9,4.12-3.65,6-5.2,1.24-1,2.78-1.79,3.43-3.59a9.86,9.86,0,0,0-.32-6.52c-.93-2.39-3.52-4.36-3.81-7-.09-.79-1.35-.79-1.25,0,.31,2.75,2.72,4.61,3.72,7.08,1.39,3.43.6,7.57-3,8.92-1.56.58-3.21.9-4.39,2.19-3.8,4.11-2.8,11.53,1.55,14.64.66.47,1.28-.61.63-1.08Z" transform="translate(-175.46 -153.69)"/><path class="cls-2" d="M301.31,372.37c-2.84-2.24-6-4-8.79-6.25a7.47,7.47,0,0,0-5.22-2.05c-5.26-.46-8.57-4-13.78-3.16-2.92.44-6.73.39-9.41,1.34-2.14.76-2.1,2.15-3.82,3.51-2.23,1.75-5.22,1.67-7.39,3.46a11.4,11.4,0,0,0-3.78,6.65c-1.18,5-.7,11.64,2.68,15.79,3,3.72,9.19,3.28,13.31,2.29,3-.72,5.08-.85,7.56.9a8.72,8.72,0,0,0,2.24,1.41c1.85.57,3-.09,4.58-1.19,2.51-1.75,4.22-4.24,6.36-6.38,1.85-1.84,3.86-3.23,5-5.63a.64.64,0,0,0-.22-.85c-2.32-1.41-6.29.54-8.69,1.06-2,.43-4,.77-6,1.12l-1.36.28q-5.52,2.08-4.4-6c1.58-2.07,6.66-3.87,8.9-4.4,2.83-.68,4.78-.19,7.52.21,0,0,3.64.49,3.61.46.2.2-.75,1.13-.21,1.54,3.55,2.72,8.29-3,12.73.28l.63-1.07-.28-.2c-.67-.45-1.3.64-.63,1.08l.28.19c.68.46,1.27-.61.63-1.07a8.56,8.56,0,0,0-5.27-1.23,12.89,12.89,0,0,0-3.4.67c-.07,0-4.18,1.49-2.84-.3a.63.63,0,0,0-.38-.92c-6.84-1.86-12.89-1.63-19.13,1.82-3.11,1.73-7.19,5.43-3.8,9.09,1.36,1.48,3.11,1.52,5,1.33A80,80,0,0,0,284.48,384c.62-.15,4.39-1.39,4.74-.91.67.92-2.71,3.31-3.4,4-2.76,2.63-6.76,9.64-11.44,7.56-2.74-1.22-3.5-3.24-6.86-2.74-1.43.22-2.64,1.1-4,1.39-2.8.57-9.55-.85-11.29-3.25-3.2-4.43-3.33-12.55-.7-17.21,1.86-3.28,6.68-3.82,9.69-6.12,3.69-2.82,5.88-3.55,10.48-4.12a19.52,19.52,0,0,1,7.36.21c1.45.43,2.67,1.38,4.07,1.9,1.63.61,2.53.41,4.21.69,4,.67,9.93,5.41,13.12,7.93.63.5,1.52-.38.89-.88Z" transform="translate(-175.46 -153.69)"/><path class="cls-2" d="M247.49,379.85c-.41,1.48-1.6,2.62-1.84,4.21s.31,3,.36,4.51c.13,3.72,0,6.65,2.11,9.91s5.92,5.39,9.5,6.87a41.92,41.92,0,0,0,4.92,1.78c1.34.35,3,.52,4.35,1,5.62,1.8,4.47,7,7.84,10.59a7,7,0,0,0,3.57,1.75,46.66,46.66,0,0,1,7.47,2.76c8.06,3.72,15.36-4.48,23.52-3.75.8.07.8-1.18,0-1.25-2.88-.26-5.08.88-7.78,1.64-4.15,1.17-9.79,4.11-13.94,2.77-1.94-.63-3.5-2.08-5.42-2.75-2.32-.82-5-.3-6.8-2.49-2-2.45-2.1-6.11-4.28-8.52s-4.34-2.1-7.11-2.71a30.67,30.67,0,0,1-11-4.67c-4.67-3.31-5.73-7.44-5.72-12.89,0-1.44-.4-3.35-.11-4.73.25-1.22,1.2-2.4,1.55-3.65a.63.63,0,0,0-1.21-.34Z" transform="translate(-175.46 -153.69)"/><path class="cls-2" d="M288.26,365.24c1.64-.4,1.92-2.87,1.6-4.24-.84-3.64-5.32-3.81-8.3-4.25-5.3-.78-11.62,0-16.74-1.55-3.95-1.16-9.09-2.08-12.38-4.63-2.62-2-4.56-4.86-8.17-5a20.62,20.62,0,0,0-4,.35c-1.56.25-3,.7-4.55.81.13,0-3,0-2.89,0-1.61.36-4.43,1.83-4.82,3.66-.5,2.32,2.21,2.65,2.94,4.48.3.74,1.51.42,1.21-.33-.71-1.76-3.62-2.88-1.47-5.38,1-1.14,6.59-1.34,8.35-1.65,4.25-.74,8-.37,11.34,2.72,1.44,1.32,2.43,2.71,4.31,3.48a55.49,55.49,0,0,0,12.45,3.26c3.59.46,7.17.45,10.78.93,2.12.28,4.35-.1,6.34.8,2.4,0,3.72,1.59,4,4.69l-.3.69c-.78.19-.45,1.4.33,1.21Z" transform="translate(-175.46 -153.69)"/><path class="cls-2" d="M330.76,416.43c.32,3.9-1.1,11.79-4.36,14.18-2.26,1.64-6,2.77-8.47,4-2.71,1.39-5.68,2.47-8.09,4.35-.66.52-4.43,4.5-4.43.16,0,1,1.3-2,1.15-1.61a.64.64,0,0,0-.44-.76,8.7,8.7,0,0,0-5.73.31c-.32.11-9.63,4-8.56,1.3a.64.64,0,0,0-.61-.8c-1.83-.14-5.15,1.43-6.34-.76-2-3.68,6.13-5.79,7.73-6.21s1.95-1,3.19-2c3.25-2.57,8.81-2,12.84-2.4a.65.65,0,0,0,.62-.62c.37-2.9.93-5.63,1.55-8.48.22-1,.08-2.67.5-3.58.33-.72-.74-1.36-1.08-.63-1.46,3.14-.19,10.59-3.17,12.22-2,1.08-5.54,0-7.74.39-2.68.46-3.7,2.16-6,3.27-2.73,1.32-7.84,1.75-9.47,4.84-.95,1.82-.51,5.18,1.56,5.87,1.33.45,2.81-.82,4-.5,1.54.41-.06.43,1,1.19,2.94,2.11,6.49-.36,9.45-1.51,1-.39,3.46-1.07,3.79.21.05.22-.75.55-.77.89-.1,1.4-.87,2.08.56,3.1,3.1,2.22,7.69-3.4,9.75-4.44,2.95-1.49,5.9-2.93,8.82-4.48,1.93-1,4.08-1.23,5.71-2.75a10.84,10.84,0,0,0,2.85-5.36c.73-2.84,1.68-6.5,1.44-9.43-.06-.8-1.32-.81-1.25,0Z" transform="translate(-175.46 -153.69)"/><path class="cls-2" d="M355.37,358a.63.63,0,0,0,0-1.25.63.63,0,0,0,0,1.25Z" transform="translate(-175.46 -153.69)"/><path class="cls-2" d="M356,357.34a20.71,20.71,0,0,1,1.51-7.83,8.83,8.83,0,0,0,.87-2.5c.31-2.4.37-4.71.91-7.15a13,13,0,0,0,.67-3.8c-.1-1.05-.59-1.4-.92-2.3-1-2.74-.51-4.58-.27-7.42.22-2.69.31-6-.85-8.58-1.43-3.15-5.13-4.65-7.16-7.46-1.38-1.9-1.42-4.16-2.61-6.11a16.37,16.37,0,0,0-3-3.27c-2.15-2-3.26-3.66-3.49-6.63a13.13,13.13,0,0,0-.25-3.07,20.88,20.88,0,0,0-5-7.26c-.59-.55-1.47.33-.89.89,3.39,3.24,4.43,6.6,5,11.06a6.42,6.42,0,0,0,2.21,4.55c2.14,2.23,3.37,3,4.79,6.1.73,1.61.3,1.6,1.21,3.17,1.67,2.88,4.76,4.32,6.82,6.74,3,3.52,2,8.28,1.62,12.42-.31,3.51,1.51,6.08,1.21,9.49-.58,6.47-3.58,12.4-3.6,19a.63.63,0,0,0,1.25,0Z" transform="translate(-175.46 -153.69)"/><path class="cls-2" d="M307.77,400.35c-.29-1.3-4.72-10.11-3.39-11.62.43-.5,3.47.86,3.66,1,1,.72,1.58,1.79,2.63,2.46a.63.63,0,0,0,.92-.7c-.81-2.84-4.71-3.5-6.28-6.06-1.35-2.21-.54-3.26-.65-5.5-.07-1.29-1.1-3.38-1.54-4.51-.7-1.81-2-3.31-2.76-5s-.43.65-.83-2.87c0-.49-.31-.91-.4-1.39-1-5.27-5.41-8-7.89-12.62-3.55-6.58-2.58-13.61-1.65-20.68.8-6,1-11.85,2.08-17.83.6-3.17,1.15-6.88,0-10-.55-1.49-1.41-1.91-2.48-2.93-1.82-1.73-1.33-2.92-1.17-5.45.05-.8-1.2-.8-1.25,0-.17,2.74-.55,4.08.92,6.16,1.06,1.51,2.82,3.08,3.21,5.51a16.84,16.84,0,0,1,.18,2.93,50,50,0,0,1-1.36,7.51c-1.06,5.42-1,10.86-1.7,16.33s-1.13,11,.82,16.17c1.86,5,6.49,8.06,8.38,12.76.74,1.85.12,4.2.89,5.87.62,1.36,2,2.28,2.75,3.71a17.58,17.58,0,0,1,1.87,8.68c0,1-.43,1.55,0,2.51a30.71,30.71,0,0,0,3.06,3.38c1.23,1.23,4.07,1.93,4.57,3.65l.91-.71c-3.44-2.21-3.61-3.86-8.16-3.78a.64.64,0,0,0-.62.62c-.25,4.18,3.15,8.67,4.05,12.74.17.78,1.37.45,1.2-.33Z" transform="translate(-175.46 -153.69)"/><path class="cls-2" d="M355.42,356.76c-.1-1.35-.48-2.65-.57-4-.1-1.52.24-3.09,0-4.6a4.75,4.75,0,0,0-1.75-3.29,6,6,0,0,0-8,1,20.38,20.38,0,0,0-1.37,2.29c-1.34,2.13-3,2.72-4.81,4.21a3.09,3.09,0,0,0-1.5,2.71c0,1.73,1.46,3.27,2.71,4.28,2.34,1.91,4.74,2.89,6.73,5.3.51.62,1.39-.27.89-.89-1.83-2.21-3.58-3.17-5.94-4.75-3.29-2.22-3.11-3.89-.25-6.75a23.75,23.75,0,0,0,2.62-2.51c.58-.79.93-1.72,1.49-2.51,1.65-2.27,5.68-3.49,7.51-.45.95,1.59.27,4.19.38,5.95.09,1.36.47,2.65.57,4,.06.8,1.31.81,1.25,0Z" transform="translate(-175.46 -153.69)"/><path class="cls-2" d="M353.62,315.32c-.33,1.6-6.14-2.08-6.27-2.17-3.18-2-4.89-4.81-7.59-7.2-1.88-1.66-3.9-3.43-6.37-2.74-5,1.39-10.45,5.79-15.51,3.13-4.13-2.18-8.79-4.15-13.54-4.09a.63.63,0,0,0,0,1.25c3.72-.05,7.33,1.28,10.65,2.81,1.63.74,3.59,2.41,5.33,2.76,1.26.25,1.77-.23,2.89-.65,2.61-1,5.48-1.47,8-2.6,2.39-1.06,3.47-1.5,5.92-.1s4.08,4.34,6.25,6.22c3.25,2.81,6.39,5.14,10.72,4.64a.65.65,0,0,0,.6-.45l.1-.48c.16-.79-1.05-1.12-1.21-.33Z" transform="translate(-175.46 -153.69)"/><path class="cls-2" d="M290,320.58c-2.28-1.13-4.06-3.08-6.22-4.45-4.41-2.79-7.58-5.34-9.93-10.2-2.14-4.46-5.55-5.91-10.43-6.7-3.67-.59-9.24-1.45-12.79.06-4.13,1.75-1.71,4.43,0,6.84l1-.76c-1.87-1.57-7-8.06-7.48-1.24a16.12,16.12,0,0,0,2.27,8.12,4.4,4.4,0,0,0,1.93,1.46c2.58,1.36,3.11,1.93,4.47,4.55a93.92,93.92,0,0,0,5.88,10.62c1.38,2,2.8,6.06,5.27,7.15,1.43.64,3,.16,4.47,0,2.94-.25,5.53.76,8.15,2.05a85.22,85.22,0,0,1,11.19,7.1c.66.47,1.28-.62.63-1.08-4.6-3.25-9.39-7-14.79-8.82-2.39-.81-4.47.08-6.75-.36-4-.77-7.12-6.1-9.05-9.41s-3.11-8.91-6.07-11.61c-2.14-2-4.85-2.24-5.42-5.78-1-1.78-.64-3.5,1.12-5.16l.67.87a19,19,0,0,1,2.63,2.4c.5.42,1.42-.14,1-.76-.07-.1-.5-.54-.48-.67q-2-1.06.57-2.7c.32-1.66,1.18-2.33,2.58-2a24.55,24.55,0,0,1,5.94,0,26.62,26.62,0,0,1,7.21,1.45c3,1.15,4,3.34,5.62,6,1.84,3.06,3.5,5.48,6.52,7.45,3.22,2.09,6.27,4.93,9.7,6.62.72.36,1.35-.72.63-1.07Z" transform="translate(-175.46 -153.69)"/><path class="cls-2" d="M207.69,181.5a3.4,3.4,0,0,1,1.47-2.64,2.78,2.78,0,0,0,1.2-1.5c.32-.91.76-2.24-.46-2.7-.75-.28-1.08.93-.33,1.21a7.27,7.27,0,0,1-.77,1.73,14.87,14.87,0,0,0-1.29,1.09,4.54,4.54,0,0,0-1.07,2.81c0,.8,1.21.8,1.25,0Z" transform="translate(-175.46 -153.69)"/><path class="cls-2" d="M206.72,181.78c-.09,0-.23-.46-.3-.55a2,2,0,0,0-.45-.38,3.5,3.5,0,0,0-1.34-.81,2.79,2.79,0,0,1-1.57-.88,5.51,5.51,0,0,0-1-.63.63.63,0,0,0-1.21.33c.15.52.56.63,1,.9.6.39.9.93,1.6,1.24a6.68,6.68,0,0,0,.84.25,2.56,2.56,0,0,1,.8.52c.5.4.68,1,1.32,1.22s1.09-1,.33-1.21Z" transform="translate(-175.46 -153.69)"/><path class="cls-2" d="M332.25,419.23c2.44-.34,4.86.06,7.27-.55a27.1,27.1,0,0,0,6.24-2.8c2.15-1.2,4.5-2,6.57-3.35s3.9-3.27,6.11-4.43c2.45-1.27,5.36-1.17,7.82-2.37a41.45,41.45,0,0,0,4.75-3.29c3.46-2.32,8.4-4.9,11-8.2.49-.63-.39-1.52-.89-.89-2.72,3.48-7.84,5.87-11.41,8.41a23.81,23.81,0,0,1-6.47,3.61c-1.86.6-3.7.72-5.42,1.65a47.62,47.62,0,0,0-5,3.63,43.37,43.37,0,0,1-5.76,3c-2.6,1.35-5,3.05-7.89,3.78-2.39.61-4.85.22-7.26.56-.79.11-.46,1.31.33,1.2Z" transform="translate(-175.46 -153.69)"/><path class="cls-2" d="M248.29,379.82c-.14-3.33-3.51-7-6.36-8.32-1.27-.61-2.73-.76-4-1.37a17.88,17.88,0,0,1-5.57-5c-2.67-3.49-1.58-7.15-1.22-11.11l-1.16.31.38.62a.63.63,0,0,0,1,.12l.31-.25c.63-.5-.26-1.38-.88-.88l.29-.24a.64.64,0,0,0-1.17.32c-.49,5.45-1.3,8.67,2.51,12.9,1.7,1.88,2.85,3.47,5.2,4.44,3.6,1.48,9.23,3.59,9.43,8.48,0,.8,1.28.8,1.25,0Z" transform="translate(-175.46 -153.69)"/></g></svg>