<svg id="Layer_1" data-name="Layer 1" xmlns="http://www.w3.org/2000/svg" viewBox="0 0 1920 538"><defs><style>.cls-1{fill:#332b2b;}.cls-2,.cls-3,.cls-5{isolation:isolate;}.cls-3{font-size:80px;}.cls-3,.cls-5{fill:#e9d5c9;font-family:Helvetica;}.cls-4{fill:#f2efec;}.cls-5{font-size:16px;}.cls-6{letter-spacing:-0.07em;}</style></defs><title>cela</title><rect id="Stripe_3" data-name="Stripe 3" class="cls-1" width="1920" height="538"/><g id="Footer"><g id="Pišite_nam_in_obiščite_nas" data-name="Pišite nam in obiščite nas" class="cls-2"><text class="cls-3" transform="translate(508.67 185)">Pišite nam in obiščite nas</text></g><g id="Social"><path id="Path_8" data-name="Path 8" class="cls-4" d="M818.53,238.23a45.59,45.59,0,0,0-45.59,45.58h0a45.59,45.59,0,1,0,45.59-45.59ZM831.24,265h-5.86a2.46,2.46,0,0,0-2.72,2.17c0,.1,0,.2,0,.3v6.35h8.6l-.75,9.47h-7.6v28.4l-11.17-.09.29-28.35h-6.18v-9H812v-9.92c1.14-8.39,8.91-8.29,9.55-8.29h9.68Z"/><g id="Group_17" data-name="Group 17"><path id="Path_9" data-name="Path 9" class="cls-4" d="M1113.48,261.33h-24a10.21,10.21,0,0,0-10.21,10.22v24.54a10.22,10.22,0,0,0,10.21,10.22h24a10.22,10.22,0,0,0,10.21-10.22V271.55a10.21,10.21,0,0,0-10.21-10.22Zm-12,36.44a13.95,13.95,0,1,1,14-13.95,13.95,13.95,0,0,1-14,13.95ZM1116.1,272a3.05,3.05,0,1,1,3.06-3.05,3,3,0,0,1-3.06,3.05Z"/><circle id="Ellipse_4" data-name="Ellipse 4" class="cls-4" cx="1101.47" cy="283.82" r="9.53"/><path id="Path_10" data-name="Path 10" class="cls-4" d="M1101.47,238.23a45.59,45.59,0,1,0,45.59,45.59,45.59,45.59,0,0,0-45.59-45.59ZM1128.64,296a15.3,15.3,0,0,1-15.3,15.3h-23.75a15.3,15.3,0,0,1-15.3-15.3V271.63a15.3,15.3,0,0,1,15.3-15.3h23.75a15.3,15.3,0,0,1,15.3,15.3Z"/></g><g id="Group_18" data-name="Group 18"><path id="Path_11" data-name="Path 11" class="cls-4" d="M960.12,289.23l0,.06L936.62,272.8v22.05a3.9,3.9,0,0,0,3.9,3.9h39a3.9,3.9,0,0,0,3.9-3.9V272.94l-23.23,16.33Z"/><path id="Path_12" data-name="Path 12" class="cls-4" d="M981.15,269.27a3.85,3.85,0,0,0-1.67-.38h-39a4,4,0,0,0-1.55.32l21.13,14.86Z"/><path id="Path_13" data-name="Path 13" class="cls-4" d="M960,238.23a45.59,45.59,0,0,0-45.59,45.59h0A45.59,45.59,0,0,0,960,329.41h0a45.59,45.59,0,0,0,45.59-45.59h0A45.59,45.59,0,0,0,960,238.23Zm28.4,60.47a5,5,0,0,1-4.95,4.95h-46.9a4.94,4.94,0,0,1-4.95-4.95V268.93a4.94,4.94,0,0,1,4.95-4.95h46.9a5,5,0,0,1,4.95,4.95h0Z"/></g></g><g id="Distributer:_Lomas_d.o.o._Kardeljeva_ploščad_11_a_1000_Ljubljana_Slovenija_Oglaševalec_in_uvoznik:_Franck_d.o.o._Letališka_cesta_29c_1000_Ljubljana" data-name="Distributer: Lomas d.o.o. Kardeljeva ploščad 11 a 1000 Ljubljana Slovenija Oglaševalec in uvoznik: Franck d.o.o. Letališka cesta 29c 1000 Ljubljana" class="cls-2"><text class="cls-5" transform="translate(690.2 445)">Distributer: Lomas d.o.o., Kardeljeva ploščad <tspan class="cls-6" x="322.83" y="0">1</tspan><tspan x="330.55" y="0">1 a, 1000 Ljubljana, Slovenija</tspan></text><text class="cls-5" transform="translate(698.07 464)">Oglaševalec in uvoznik: Franck d.o.o., Letališka cesta 29c, 1000 Ljubljana</text></g></g></svg>
