<svg viewBox="300 0 100% 100%" id="Layer_1" data-name="Layer 1" xmlns="http://www.w3.org/2000/svg" ><defs><style>.cls-1{fill:none;stroke:#e2a02f;stroke-width:2px;}</style></defs><title>crta</title><path id="Curve" class="cls-1" d="M1059,115C938.39,227.39,911.16,312.2,913.51,382.61s79.11,164.56,113,114.39-99.88-102.91-125.92-10.5,182.89,272.41,21.77,380.1-116.7,232.09-285.55,299.17c-61.79,24.56-130,29.73-194.48,25.21-112.28-7.87-213.58-44.85-252-60.7-60.63-25-113.07-71.4-113.85-111.54s69.81-79.32,15.67,98.79,19.85,202.85,52,221.78,371.81,19.89,513.75,95.54,44,150.62,232.73,288.05-139.24,388.74-320.34,346.32S304.07,2155.41,305.48,2369s706.23,313.08,588.44,482.74S109.18,3081.6,257.68,3178.43s415.87-56.95,339.61,78.92,164,130.06,163.19,300.06C759.28,3817-49.66,3851.22,148,4227.21c18.77,32.26,141.68,235.89,373.38,268.18,211,29.41,430.62-94.72,423.13-153.83-5.78-45.63-151.61-90.56-230.16-35.9-32.27,22.46-44.45,55.66-58.83,96.57-39.42,112.09.15,152.77-26.09,260.85-7.11,29.3-31.91,131.48-115.52,190.05-53.77,37.64-96.5,32.54-167.69,48.44-70.87,15.84-169.09,52.32-279.48,145.33" transform="translate(-66.11 -114.27)"/></svg>