<svg id="Layer_1" data-name="Layer 1" xmlns="http://www.w3.org/2000/svg" viewBox="0 0 887.26 1319.96"><title>crtaProba</title><path d="M838.1,2109.64c-51.33-14.62-105.16-16.3-157.86-9-52.29,7.22-103.12,22.67-152.38,41.32-44.94,17-88.63,37-132.72,56-33.1,14.3-67.71,30.25-103.72,35.43-24.71,3.54-49.35-1.46-60.77-25.9-7.1-15.2-8.61-32.73-8.86-49.28a330.17,330.17,0,0,1,1.5-34.59c.63-6.93.23-17.44,4.89-23.37,13.43-17.09,52.11,58.26,56,65.81q15.9,30.74,29.05,62.82c6.22,15.21,12.74,30.9,16.15,47,3.81,18-1.34,34.16-17.63,43.68-17.22,10.06-38.51,12.84-57.88,15.91-22.7,3.6-45.75,6.42-67.77,13.26-18.77,5.82-37.66,15.16-48.66,32.16-13.87,21.43-11.46,48.88-5.57,72.52,12.22,49,39.22,94.54,66,136.84,15.67,24.79,32.13,48.74,52.31,70.12a359.74,359.74,0,0,0,57.72,49.31c40.24,27.65,85.75,47.19,133,59.33a489.61,489.61,0,0,0,130.52,15.31c33.57-.61,68.09-4.24,100-15.05,14.47-4.89,39.42-13.73,43-31.24,3.64-17.84-21.33-28.6-33.79-34.27-11.79-5.36-29-12.53-41.68-5.72-10.7,5.75-12.14,19.72-11.84,30.56.58,20.8,6.85,41.52,13.35,61.11,9.41,28.34,21.11,55.92,33.51,83.07,15,32.85,31.23,65.14,48.1,97.07q27.47,52,57.06,102.83Q808.23,3123,839,3172.26q27.54,44.11,56.53,87.28c15.39,22.8,31.12,45.42,47.81,67.3,10,13.18,20.29,27,32.7,38.12,2.27,2,5.73,5.55,9,5.8a3.52,3.52,0,0,0,2.53-.55c.66-.43.93-1.52,1.27-2.13,2.43-4.4,4.23-9.33,6.18-14,11.15-26.4,21.49-56.09,19.12-85.22-1.52-18.64-9.76-35.57-25.55-46.1-17.77-11.86-40.4-14.78-61.29-15.19-29.37-.58-58.8,4-87.48,10-35.53,7.41-70.5,17.51-105,28.72-37.45,12.18-74.43,25.79-111.09,40.2-35.39,13.91-70.48,28.59-105.35,43.76q-46.33,20.14-92.21,41.3c-22.39,10.26-44.7,20.7-67.11,30.93-9.93,4.53-20.44,10.6-31.15,13.14-.47.11-.27.83.2.72,10.85-2.57,21.52-8.74,31.58-13.33,22.06-10.07,44-20.35,66.08-30.46q45.09-20.68,90.55-40.6c35.27-15.36,70.75-30.23,106.55-44.32,36.14-14.22,72.6-27.68,109.51-39.75,34.14-11.17,68.72-21.25,103.85-28.79,29.12-6.24,59-11.08,88.84-10.78,21.38.21,44.67,2.9,62.93,15,16.91,11.18,24.86,29.63,25.63,49.46,1.2,31.22-10.83,62.61-23.43,90.57-2.14,4.74-2.57,8.35-7.69,5.62-4.35-2.32-8-6.34-11.39-9.83-13.38-13.88-25-29.56-36.42-45-17.15-23.28-33.48-47.16-49.46-71.25q-29.33-44.21-57.05-89.42-30.28-49.2-59-99.36c-19-33.33-37.52-67-55.18-101.06-16.19-31.22-31.73-62.8-45.93-95-11.56-26.18-22.44-52.83-30.7-80.26-5.42-18-10.87-37.68-9.43-56.69.9-11.8,6-23.09,19-24.6,17.45-2,38,8.79,52,17.94,6.65,4.34,14.22,10.68,15,19.19.64,7.37-4.39,13.62-9.67,18.12-19.31,16.45-48.23,22.39-72.48,26.5-39,6.63-79.19,6.94-118.5,2.95-46.92-4.77-93.36-16.11-136.75-34.69-46.7-20-89.68-48.63-124.78-85.47-20.82-21.86-37.73-46.47-53.79-71.94-15.67-24.85-30.51-50.32-43.16-76.86-14.8-31.06-30.3-67.77-26.25-103,2.51-21.89,15-39.23,34.07-49.84,19.45-10.79,42-15.1,63.74-18.72,21.44-3.57,43.32-5.81,64.29-11.73,14.75-4.16,31.46-11,38-26,3.26-7.51,3.4-15.89,2.11-23.86-2.44-15-8.53-29.64-14.09-43.67-15.51-39.09-33.59-78.72-57.36-113.55-5.48-8-13.93-22.39-24.41-24.69-9.84-2.15-10.92,12.7-11.59,19-2.27,21.25-3.57,43-.72,64.28,1.72,12.8,5.05,26.1,12.81,36.67,14.11,19.22,38.7,20.15,60.29,16.43,35.26-6.09,69-21.49,101.59-35.61,44.35-19.19,88.33-39.26,133.59-56.26,49.31-18.52,100.21-33.77,152.55-40.66,51.61-6.8,104.27-4.88,154.5,9.42a.37.37,0,0,0,.2-.72Z" transform="translate(-127.22 -2096.42)"/></svg>