<svg id="Layer_1" data-name="Layer 1" xmlns="http://www.w3.org/2000/svg" viewBox="0 0 190.89 326.96"><defs><style>.cls-1{fill:#e0d2ca;}.cls-2{fill:#c4b0ad;}.cls-3{fill:#231f20;}</style></defs><title>deklica</title><path class="cls-1" d="M263.42,133.44C234,155,241,218.7,255.49,234c19.61,20.74,23.79-9.35,51.06-20.17,23.31-9.25,19.34-28,44.1-32.27,16.58-2.88,21.12-23.19,8.1-40.91C343.78,120.28,289,114.71,263.42,133.44Z" transform="translate(-202.97 -121.24)"/><path class="cls-2" d="M220.86,308.05c-8.11-21.56,13-46.28,33.23-42.72,25.83,4.56,12.55,16,38.1,26.84,22.61,9.59,36.44-16.66,62.33,6.15,29.92,26.36-34.13,48.53,6.94,131.63,25.81,52.23-64-21.17-69.47-51.52-7.7-43.18-28.82-31.05-31.07-50.68C257.83,300.63,228,327.16,220.86,308.05Z" transform="translate(-202.97 -121.24)"/><g id="deklica"><path class="cls-3" d="M294.8,255.22c2.29,2.87,2.5,7,4.78,10,3,3.9,5.95,6,10.25,8.29.6.32,1.32-.5.76-1-4.42-3.76-14.73-9.75-14.62-16.63l-1.17.31c3.57,4.9,5.41,10.16,10.84,13.41,3,1.79,6.67,2.79,9.89,4.17,6.84,2.91,13.52,6.19,20.35,9.12,7.3,3.13,20.19,5.09,23.23-4.67a15.37,15.37,0,0,0,.86-6.15c0-.71.59-2.62.07-3.57-1.44-2.61-7.32-4.51-9.9-2.77a.63.63,0,0,0-.13,1c1.61,1.8,8.22,1.59,10.24,1.18,2.32-.48,4.23-2.71,1.5-4.51-1.68-1.12-4.36-.13-6.06.38a36.3,36.3,0,0,1-4.3,1.35c-1,.19-3.67.57-3-.17,1.07-1.14,4-.95,5.41-1.23a28.62,28.62,0,0,0,4.18-1.47c1-.34,3.37-.67,3.77-.19.19.23-.26,1,0,1.3.61.71.19.77,1.09,1.4a.64.64,0,0,0,.76-.1c3.53-2.8,6.5-8.43,8.5-12.39,2.37-4.7,2.48-10.49,3.23-15.63.64-4.35-1.53-7.51-2.72-11.59-1.11-3.77.79-4.32,1.86-7.39.8-2.28-.14-4.67.57-7.05.15-.48-.47-1-.92-.71a15.21,15.21,0,0,1-6.91,3,12.25,12.25,0,0,0-3.79,1c-1.05.61-3.06,2.32-2.73,3.69a.63.63,0,0,0,.61.46c1.94-.25,3.44-2.18,5.08-3.1,2.79-1.58,5.34-1.38,7.95-3.66,2.31-2,2.85-4.54,2.93-7.58a87,87,0,0,0-1.19-15.62c-.43-2.84-1.62-8,1.62-9.52,1.73-.81,4.52-.28,6.48-1.07a17,17,0,0,0,7.85-6.66c1.8-2.91,2.57-6.72,1-9.9-1.35-2.67-4.16-3.59-6.8-4.55a.63.63,0,0,0-.77.77,16,16,0,0,0,1.65,3.18c2.79,4.76,2.67,7.82-1.14,12-2.85,3.13-5.4,2.74-9.23,2.87a8.82,8.82,0,0,0-2.56.22c-.4.11-.35.92-.64,1.08-4.3,2.4-6.91,2.41-10.93-.16-3.32-2.11-4-6.24-7.62-7.78-2.91-1.26-4.81-.79-6.76-4.08-.95-1.6-.94-3.5-1.65-5.16-1.28-3-3.85-4.2-6.68-5.47-5.94-2.66-8.73-6.53-13-11.14-2.65-2.85-6.21-4.44-9.41-6.55-1.74-1.14-3.24-2.62-5-3.75-1.34-.88-2.92-1.13-4.19-1.89s-1.41.55-1-1.36c.38-1.63,1.86-1.54,3.29-1.86a41.2,41.2,0,0,1,9.2-.83,102.16,102.16,0,0,1,14.28,1.62c1.83.27,3.62.4,5.46.56,3.92.34,6.25,2,9.11,4.53,8,7.08,17.18,15.21,22.47,24.62,2.08,3.7,5.59,8.21,6.31,12.3,1.49,8.59-14.34,1.66-18.48.79-6.92-1.46-10.69-1.21-14.69,4.68-2.22,3.28-3.78,4.5-8.28,3-1.7-.58-3.26-1.76-4.94-2.44-4-1.61-7.2-2-11.21-.39-6.64,2.67-10,9-11.36,15.72-.83,4.05-.59,11.24-3.6,14.22-2.22,2.2-6,2-8,4.75s-.81,6-.93,9.1a13.63,13.63,0,0,1-.88,4.15L294,226l-6.66.22c-1.29-.91-1.61-3.89-2.46-5.18-1.44-2.17-3.49-2.44-6-2.84s-6.6-1.89-8.89,0c-4,3.25-3.23,11.4-1,15.26,1.89,3.21,5.05,5.21,8.1,7.19,3.82,2.48,7.21,2.43,11.71,3,2.1.28,3,.8,4.41-1s2.78-5.43.85-7.49c-3-3.18-9.57,1.48-11.76-2.95-3-6.05,5.21-2.77,5.93-2.47a14.2,14.2,0,0,1,4.3,2.33c2.1,2.11,2.39,5.76,2.66,8.54.15,1.58,1.34,6,.66,7.48s-5.51,1.68-7.07,1.43c-4.52-.71-8.11-7.35-11.93-9.8-4.23-2.72-9.18-1.84-13.45-4.07-3.66-1.93-5.86-5.89-6.58-9.92-.79-4.47,1.15-7,3.94-10.22a.63.63,0,0,0-.44-1.06,26.65,26.65,0,0,0-4.89.13l.31,1.17q9.48,1.11,6,7l-1.39,1.67c-3.09,2.79-6.44,2.06-8.7-1-3.49-4.7-2.53-8.85,1.66-13.08a.64.64,0,0,0-.45-1.07c-.95,0-4.07-.81-4.32-1.87l2.47-1.74q3.24-3.93,2.81.62a8.31,8.31,0,0,1-2.67,7.41c-3.81,3.79-7.92-1.23-7.37-5.35a32,32,0,0,1,2.2-6.83c1.5-4,3.47-7.73,5-11.68,1.4-3.68,1.24-7.24,1.23-11.13-.08-18.9,13.17-34.23,26.16-46.67a78.13,78.13,0,0,1,8.56-7.17c4.6-3.3,11.87-1.71,17.17-.79,4.61.79,9.81,1.48,12.53,5.71,1.71,2.67,2.84,4.2-.66,6.23-6,3.5-12.62,6.12-18.69,9.65-3.37,2-10.83,5.06-12.3,9.15-1.37,3.79,1.63,5.29,5,5,3.73-.35,7.13-2.14,10.4-3.83,4.29-2.23,8.73-4.1,13.11-6.13.64-.3.18-1.41-.48-1.15-7.12,2.89-14.75,9.54-18.41,16.27a.63.63,0,0,0,.38.91,8,8,0,0,0,5-.67c1.45-.66,2.67-1.71,4-2.49s3.41-2.65,2.62-.45c-.66,1.87-4.41,4.14-5.85,5.47a55.81,55.81,0,0,0-7.49,8.18.63.63,0,0,0,.37.92c3,1,4.34.13,6.93-1.36a103.58,103.58,0,0,1,16.19-7.83c9.42-3.36,21.07-.73,29.85,3.58.72.35,1.35-.73.63-1.08-11.48-5.64-24.52-7.23-36.1-1.34-3.43,1.74-7.47,4.58-11.2,5.59-.75,1.18-1.57,1.27-2.46.28q-2.37-.6-.06-1.94c.71-1.49,3-3,4.23-4.11,2.14-2,7-4.77,7-8.08a.64.64,0,0,0-.79-.6,12.06,12.06,0,0,0-4.49,1.69c-1,.6-2,1.36-3,1.94l-1.93.92c-2.17.21-2.52-.33-1-1.6,1.07-2.46,4.15-4.61,6.15-6.25,3.06-2.53,6.11-5.23,9.83-6.74l-.48-1.14c-3.36,1.55-6.78,3-10.11,4.6s-6.55,3.71-10.15,4.64c-4,1-9.45-.06-4.62-4.9,1.83-1.83,4.64-3.13,6.84-4.48a159.24,159.24,0,0,1,17.27-9.4c3-1.35,7.37-2.62,8.41-6.11a.65.65,0,0,0-.28-.71c-2.52-1.94-2.88-5.22-5.7-6.82-3.17-1.8-7.47-2.29-11-2.85-3.76-.59-8.64-1.77-12.39-1.25-2.74.39-4.83,2.3-6.94,3.92-12.85,9.81-24.8,23.47-30.87,38.59-3.67,9.14-.71,18.72-4.51,27.69-2.43,5.71-7.46,13.45-6.23,19.81,2.25,11.62,15.53,1.09,13-6.52-1.08-3.28-6.77-5.45-9-2.07-2.57,3.84,3,7.56,6.35,7.64l-.44-1.06c-2.1,2.12-3.65,2.88-4.2,6a10.39,10.39,0,0,0,1,6.42c1.75,3.76,4.92,6.89,9.27,5.17,8.32-3.28,5.6-16.41-3.42-12.36-.56.25-.28,1.2.32,1.16a26.65,26.65,0,0,1,4.89-.13l-.44-1.07c-3.17,3.6-5.25,6.07-4.38,11.21.8,4.74,3.95,10.21,8.74,11.77,3.57,1.16,7.26.59,10.7,2.43s5.85,4.6,8.41,7.25c4.28,4.42,7.09,3.32,13.22,3a.63.63,0,0,0,.62-.63c-.3-5,0-11.68-2.34-16.31-1.68-3.37-5.93-5.29-9.52-5.92-8.66-1.52-5.19,7.64.87,8.3,2.76.3,1.53-1.06,4.4,2.48l2.16,2.67-2.66,1.88c-.47.05-1.08-.4-1.55-.43-3.76-.27-7.55-.82-10.83-2.74-3.9-2.28-7.89-5.38-9-10-1.26-5.38.85-10.28,6.71-10.52,3.84-.16,7.52,1,9.15,4.55.82,1.79,1.57,4,3.17,5.3,2.49,2,5.18.62,6.86-1.71a14.59,14.59,0,0,0,2.3-5.74c.82-4.65-1.59-9.48,3.65-12.33,3-1.66,6.94-2.37,7.6-6.28,1.35-8,.85-16.52,7.14-22.79,3-3,7.75-4.77,11.88-3.83,3.93.89,7,3.78,10.71,4.86s5.45-2,7.33-4.81c3.06-4.55,6-5.38,11.58-4.43a72.64,72.64,0,0,1,10.7,3.09c3.54,1.17,9.77,1.56,11.88-2.59,1.77-3.46-3.44-7.85-4.92-10.58a80.4,80.4,0,0,0-14.21-18.92c-2.9-2.94-5.8-5.89-8.85-8.69-2.13-1.94-4.4-4.52-7.06-5.75-3-1.39-6.86-1-10-1.45-3.34-.5-6.63-1.16-10-1.43-6.78-.56-13.68-.23-19.93,2.65a.59.59,0,0,0-.31.54c0,1.55.67,2,2,2.62,2.47,1.16,4.42,1.33,6.87,3.16,1.46,1.09,2.82,2.22,4.38,3.2,4,2.54,7.48,4.76,10.56,8.48,2.93,3.56,5.84,6.42,10,8.32,1.85.83,4.6,1.72,6.06,3.28,1.63,1.76,1.6,4.16,2.46,6.21a8.69,8.69,0,0,0,5.82,5.21,8.63,8.63,0,0,1,5.2,3.71,19.09,19.09,0,0,0,2.59,3.32,17.53,17.53,0,0,0,9.27,3.83,6.81,6.81,0,0,0,3-.15c2.79-1.22.07-.57,1.91-1.76,3-1.92,5.85-.4,8.93-2,4.69-2.44,8.91-9,6.49-14.23-.27-.6-2.82-3.83-2.78-3.86a12,12,0,0,1,2.91,1.31c2.57,2,3,4.36,2.47,7.19a12.91,12.91,0,0,1-5.2,7.75c-3.28,2.53-6.16,2.11-10,3.08-4.63,1.18-2.59,9.3-2.07,12.76.75,4.9,2.46,14.06-.24,18.47-2.1,3.43-5.44,3.18-8.55,4.89a16.67,16.67,0,0,0-3.47,2.44c-.28.29-1,.45-1.22.76q.62,1.45,1.65-.69a2.83,2.83,0,0,1,2.24-1.44c3.49-1.32,6-1.07,9.21-3.53l-.91-.7a17.86,17.86,0,0,0-.47,3.85c-.22,2.26-1.35,3.86-2.08,5.87-.83,2.32-.31,4.26.53,6.55,1.53,4.21,2.8,7,1.95,11.67-.68,3.7-.65,7.82-1.87,11.35-1.27,3.71-4,7.55-6.26,10.81-.58.86-1.61,3.36-2.44,2.46-.47-.51,0-1-.14-1.54s0-.93-.33-1.34c-.88-1.09-2.43-.62-3.52-.21-2.29.87-3.88,2.41-6.49,2.87-2.4.42-4.81.82-7.2,1.3a.63.63,0,0,0-.44.43c-.86,2.7,4.08,2.27,5.46,2.12a25.31,25.31,0,0,0,4.95-1.32c.72-.23,3.23-1.34,4-1,4.67,2.33-.61,2.61-1.57,2.62a33.17,33.17,0,0,1-6.12-.7q-2.07-.51,2.21.46a7.35,7.35,0,0,1,4.58,2.22c.38.75-.13.25.09,1.08,1.72,6.42-2.19,13.12-8.75,14-9.83,1.39-20.37-5.4-29.15-9.23-3.35-1.46-6.7-2.92-10.09-4.25a23.38,23.38,0,0,1-7.66-4.27c-3.14-2.9-4.65-7.18-7.13-10.59a.63.63,0,0,0-1.16.32c-.12,7.47,10.13,13.38,15,17.52l.76-1c-5.16-2.73-9.78-6.11-12.07-11.76-.87-2.15-1.23-4.47-2.7-6.31-.51-.63-1.38.26-.89.88Z" transform="translate(-202.97 -121.24)"/><path class="cls-3" d="M355.56,250.25c1.07-2.18,4.62-.57,6.35-.73a8.16,8.16,0,0,0,4.06-1.67c3.43-2.68,3.74-6.67.53-9.54-2.78-2.49-6.41-3.22-8.9-6.16-2.37-2.79-4.55-6.18-5-9.89a7.65,7.65,0,0,1,.57-3.92c.17-.51,1.13-1,1-1.6-.26-1.28-2.39-2-3.4-2.36s-2.18-.52-3.22-.89c-.72-.25-2.56-1.58-3.56-1.82a6.29,6.29,0,0,0-3.14-.13,13.29,13.29,0,0,0-6.07,3.18c-2.24,1.88-4.25,5.61-6.8,6.9-3.75,1.89.29-5.39,2.06-6.68,4.49-3.29,9.79-1.59,14.81-2.08,2-.19,4.2-.07,6-.89.6-.28-.58-.52-.89-.38s-2.38-.49-3-.46c-.42,0-.78.42-1.16.5-3.61.8-2.29.73-6.26.62-4.45-.12-9.46.35-12.52,4.1-1.07,1.31-3.55,6.17-.86,7s7.58-6.47,9.12-7.86c2.66-2.4,4.76-3.7,8.83-2.8.56.13.82.7,1.34.83,1.7.39,4.41.73,5.75,1.88,2.16,1.84.43,1.79.25,3.65-.52,5.37,1.84,9.81,5.37,13.82A16.83,16.83,0,0,0,362,236.4c4.43,2.4,8.17,7.32,2.9,11.19-4.34,3.18-8-2.63-10.54,2.53-.18.37,1,.47,1.21.13Z" transform="translate(-202.97 -121.24)"/><path class="cls-3" d="M355.09,443.79c6.6-.53,17-4.4,21.28-9.8,2.13-2.68,2.17-7.07,2.72-10.36A88.42,88.42,0,0,0,380.6,404c-.76-13-6.4-25.08-6.64-38.11a52.89,52.89,0,0,1,3.46-20.21c2.05-5.42,4.06-10.71,3.13-16.6-1.81-11.46-9.31-20.45-15.89-29.52a20.9,20.9,0,0,0-7.15-6.75c-3.91-2-8.27-1-12.43-1.85-5-1-7.36-6.61-12.32-8.23-3-1-3.86.32-5.57,2.67-2.05,2.82-3.37,6.46-5.58,9.12a29.24,29.24,0,0,1-9.45,6.9c-5.49,2.18-12.84-5-17.18-7.86-6.37-4.25-12.07-8.64-17-14.56-2.28-2.77-4.63-5.77-8.23-6.74C265,270.9,253,275,254.57,265.65c.69-4.13,5.71-9.13,8.56-12.13,2.5-2.63,5.61-4.66,8.21-7.19,1.57-1.52,5-5.68.58-5.73-2.32,0-5.12,1.81-7.11,2.85-2.75,1.43-5.66,2.9-8.26,4.6-7.92,5.17-9.45,16.37-15.91,23.06-7.36,7.62-16.13,12.83-21,22.54-3,5.87-5.58,11.92-8.39,17.87-2.4,5.07-6.09,9.65-7.4,15.19-2.35,10,.81,21.38,3,31.09,2,9,3.82,17.93,5.48,27,2.68,14.6,5.33,29.23,8.42,43.75.06.26.52.83.84.55,1.05-.92-1.35-5.51-1.7-6.5a153.84,153.84,0,0,1-6.62-22.43c-2.47-12.7-1.89-26.31-2.49-39.2-.51-11.09-.71-22.37-2.21-33.39a43.69,43.69,0,0,0-1.34-4.62c-1.58-6.55,8.83-16.5,13-20.64,2.56-2.53,5.34-6.24,8.73-7.52a36.53,36.53,0,0,1,11.41-1.88c8.28-.27,16.17,3.52,23,7.91,4.45,2.87,9.39,6.16,13.13,9.95,4,4.09,6,11.34,8,16.6,3.3,8.74-5.44,18.22-5.6,27.1-.09,4.7,1.58,9.77,1.87,14.57.44,7.38.43,14.79.53,22.19.05,3.83.11,7.67.29,11.5.12,2.55-.18,6.07.73,8.49,1.22,3.26.59-2.87.24-4.58a28,28,0,0,0-1.92-6.32c-.68-1.41-3.17-5.09-4.94-5.34-2.41-.34-3.24,2.53-4,4.23-2,4.41-2.12,9.3-1.67,14,.94,9.86,5.35,18.4,8.66,27.58.23.65,1.13.57.85-.2-3.43-9.51-8-18.4-8.65-28.69a28.14,28.14,0,0,1,.6-8.73c.95-3.6,4.22-9,7.6-3.83,2.73,4.16,2.35,9.3,3.59,13.92.15.56,1.12.91,1,.09-2.79-14.52-1-29.89-1.9-44.59-.31-4.81-2.51-10.95-1.5-15.59,1.24-5.76,3.45-11.3,5.05-17,1.13-4,1.36-5.71-.1-9.53-2-5.23-3.92-11.83-7.7-16.1-2.86-3.24-7.11-6-10.6-8.49-6.15-4.39-13-8.21-20.43-9.83-5.71-1.25-14.19-.89-19.38,2-3,1.64-5.73,5.22-8.13,7.61a73.66,73.66,0,0,0-8.5,10c-1.68,2.43-4.23,6-4.35,9.13-.05,1.31.57,1.88.89,2.91.69,2.24,1,7,1.25,10.11,2.23,27.51-.28,56.23,8.64,82.66,1,3,2.12,5.9,3.12,8.87.36,1.06,1.1,4.09,1.5,2.14.25-1.17-.7-3.52-.92-4.67-.52-2.62-1-5.25-1.54-7.87-2.3-11.86-4.66-23.72-6.73-35.62-2.67-15.31-8.62-31.13-8.11-46.79a26.86,26.86,0,0,1,4-13.07,154,154,0,0,0,7.12-14.11c4.29-9.35,8.12-17.45,16-24.32,5.75-5,12-9.66,15.73-16.52,3.59-6.6,5.71-13,12.59-16.84,1.69-.95,12.69-7.93,13.72-5.76.87,1.85-10.29,9.72-11.7,11.35-3.65,4.24-9.41,9.52-8,15.76,1.34,5.9,9,3.31,13.43,3.78,6.6.69,9.27,5.53,13.28,10a61.68,61.68,0,0,0,10.26,8.59c3.65,2.59,7.44,5,11.17,7.46,2.46,1.64,6.24,4.73,9.47,4.15,1.94-.34,3.84-2.19,5.41-3.26,2-1.35,4.39-2.69,5.93-4.58s2.61-4.6,4-6.72c.75-1.17,1.66-3.11,2.81-4,3.06-2.32,6.63.54,9.08,2.86,2,1.89,3.12,3.64,5.82,4.35,3.25.86,6.72.26,10,.9,5.46,1.07,8.4,5.34,11.41,9.58,3.18,4.47,6.65,8.51,9.23,13.39,2.78,5.28,5.26,11.26,4.94,17.31s-3.43,11.25-5,16.94c-2.4,8.47-2.25,17.82-.61,26.41,2.1,11,5.86,21.13,5.57,32.56a104.69,104.69,0,0,1-2,16.74c-.65,3.46-.74,6.39-3.51,8.66-5.3,4.35-12.71,7.82-19.57,8.37-.58,0,0,1.15.52,1.11Z" transform="translate(-202.97 -121.24)"/><path class="cls-3" d="M275.06,242.65c-2.62,1.48-4.47,4.47-6.51,6.66a22.75,22.75,0,0,0-4.95,8.23c-1.51,4.7,1.37,7.81,5.24,9.9,9.71,5.23,17.11,14.24,25.36,21.42,3.5,3,7.09,4,10.9,6.64,1.88,1.29,3.53,3.48,5.81,4.07,2.08.53,4.2-.21,6.3.59s3.81,3.13,4.74.71c.47-1.2,0-3.33-.05-4.58-.09-2.44-.23-4.89-.08-7.33.19-3.18.4-5.15,4-3.61,2.53,1.07,4.86,2.94,7.16,4.44,1.33.87,2.64,1.87,4.06,2.61,1.95,1,4.08,1.19,5.95,2.41,7.24,4.72,3.34,13.33,6.41,20,1.65,3.57,3.73,6.62,4.8,10.47a68.47,68.47,0,0,1,1.88,11.62c.78,7.85,2.06,14.46-3.37,21.15-3.43,4.23-9.71,7.57-12.21,12.49-2,3.94-2.12,9.58-3.41,13.84-1.52,5-3.85,11.42-2.67,16.65,1.12,5,2.76,7.74,7.06,10.2,7.07,4,14.61,7,17.12,15.59,1.57,5.38-3.39,9-5.35,13.5-.9,2.07-.44,3.15,1.89,3.23.64,0-.36-.65-.68-.66-1.3,0,4.78-9.95,5.14-10.89,1.32-3.54-.35-6.92-2.26-10-2.83-4.53-6.87-6.69-11.47-9.06-2.6-1.34-6.56-2.75-8-5.4a18.8,18.8,0,0,1-2.35-9.37c.51-5.93,2.25-11.15,3.74-16.84.61-2.33,1.19-4.67,1.65-7a11.23,11.23,0,0,1,3.24-6c3.55-3.95,8.08-7.07,11.05-11.52,4-6,3.19-11.79,2.25-18.45s-1.27-13-4.51-19c-1.75-3.24-3.45-6.19-3.69-10-.21-3.19.17-6.56-1-9.61a12.83,12.83,0,0,0-7.28-6.72c-4.32-1.68-7.69-3.92-11.67-6.37-1.31-.81-5-3.67-6.81-3.11-2.22.66-1.82,5.11-1.85,6.89,0,2.27.12,4.53.18,6.79,0,.71.33,2.21,0,2.82-.75,1.47-1.4.49-3.1-.29a8.54,8.54,0,0,0-2.56-1.08c-1.48-.22-2.48.15-4.07-.26-2.44-.62-3.76-2.18-5.82-3.56s-4.75-2.08-6.93-3.46a41.75,41.75,0,0,1-5.42-4.62c-3.91-3.54-7.67-7.23-11.52-10.84-2.17-2-4.59-3.8-6.91-5.66-2.73-2.19-7.47-3.59-9.23-6.59-2.21-3.76.31-8.4,2.43-11.64,1.76-2.67,5.68-7.33,8.46-8.9.27-.15-.74-.77-1.07-.58Z" transform="translate(-202.97 -121.24)"/></g></svg>