<svg id="Layer_1" data-name="Layer 1" xmlns="http://www.w3.org/2000/svg" viewBox="0 0 199.34 322.78"><defs><style>.cls-1{fill:#cebfbc;}.cls-2{fill:#c7d3d7;}.cls-3{fill:#231f20;}</style></defs><title>goskeGirl</title><path class="cls-1" d="M209.75,196.6c18.35-19,15.6-11.41,25.69-11.41,15.6,0,12.16,9.25,25.7,6.66,12.36-2.38,14.68,19,32.12,34.21,8,7,15.48-17.08,13.76-30.41-3.67-28.52-16.21-48.72-32.12-55.13-16.52-6.66-29.36,10.45-39.46,15.21-7.47,3.51-16.82,5.09-24.78,20C206.54,183.39,203.07,203.51,209.75,196.6Z" transform="translate(-197.05 -138.9)"/><path class="cls-2" d="M307.46,381.38c7.25-55.6-21.67-86.32-.46-104.38,6.06-5.16,9.37-9,16-11,10-3,42.23,14.43,49.22,40.47C381,339.18,382,354.73,391,383c8,25,9,41.59-10.27,54.11-15.45,10-83.84,11.48-93.1-2.12C281.36,425.79,306,392.76,307.46,381.38Z" transform="translate(-197.05 -138.9)"/><g id="goska_kid" data-name="goska kid"><path class="cls-3" d="M213.78,225.74c1.11-2.44,9-6.45,9.65-2.07.17,1.1-1.34,2.55-2.3,3.1-1.75,1-2-.18-2.49-1.48a14,14,0,0,1-.85-3.08l-1.2.33a4.53,4.53,0,0,0,1.69,2.94,9.37,9.37,0,0,0,2.51,1.16c1.82.32,2.29-1.95,2.57-3.28a.63.63,0,0,0-1.05-.6c-.85.7-1.78,1.29-2.63,2-.61.52.28,1.4.89.88.84-.71,1.78-1.3,2.63-2l-1-.61c-.22,1.06-.29,2.2-1.41,2a3.46,3.46,0,0,1-3-2.85c-.15-.8-1.32-.45-1.2.33.28,1.9,1.19,6.43,4,6.07a2,2,0,0,0,1.22-.68c.78-.75,1.48-1.42,2.33-2.11s1-.9.72-2a3.94,3.94,0,0,0-4.91-3.23c-2.76.49-6,1.77-7.26,4.5-.33.72.75,1.36,1.08.63Z" transform="translate(-197.05 -138.9)"/><path class="cls-3" d="M219.89,225.19c-1.42,1.5.89,3.71,2,1.61.33-.66.16-1.37-.62-1.52a4.09,4.09,0,0,0-2,.44.63.63,0,0,0,0,1.2c.78.23,1.42-.31,1.95-.82a4.3,4.3,0,0,1,1-.87c.42-.21.86-.26,1.19-.63.66-.75.28-1.6-.33-2.23a3.72,3.72,0,0,0-.94-.83c-.51-.22-.83,0-1.33.12l.7.92.18-.36a.62.62,0,0,0-.37-.91c-1.42-.33-2.4.49-3.5,1.28-.64.46,0,1.55.64,1.08s1.55-1.38,2.53-1.16l-.38-.92c-.06.12-.12.24-.17.36a.63.63,0,0,0,.7.92,1,1,0,0,1,1.16.48c.36.63-.47.64-.87.87s-1.36,1.63-1.82,1.5v1.2a8.62,8.62,0,0,1,1-.32,3.89,3.89,0,0,0,.53-.09c-.24-.35-.34-.36-.3,0a.3.3,0,0,1,.06-.39c.55-.58-.33-1.47-.89-.88Z" transform="translate(-197.05 -138.9)"/><path class="cls-3" d="M215.12,227.72H215c-.74-.07-.79,1-.16,1.22,2.59.92,4.62-.07,6.79-1.42a8.86,8.86,0,0,0,2.71-2.57c.51-.79.33-1.21.19-2.06s.06-1.62-.45-2.23a7.74,7.74,0,0,0-2.55-1.57c-1.46-.52-4-.75-5.33.18-.47.32-.36,1.23.31,1.17h.08c.8-.07.81-1.33,0-1.25h-.08l.32,1.16c.9-.61,2.59-.44,3.55-.2a5.25,5.25,0,0,1,2.17,1,1.7,1.7,0,0,1,.6,1.51,2.75,2.75,0,0,1-.58,2.38,9.09,9.09,0,0,1-2,1.63c-1.66,1-3.39,1.74-5.38,1L215,229h.14c.8.06.8-1.19,0-1.25Z" transform="translate(-197.05 -138.9)"/><path class="cls-3" d="M242.66,218.52h-.13c-.75,0-.78,1-.16,1.22a7.93,7.93,0,0,0,5.29.24c3-.76,4.29-2.83,6.72-4.41,1.93-1.25,4.11-2.71.49-3.42-3.38-.66-7.24-1.91-10.55-.12-1.34.72-2.31,2.06-3.92,2.23-.92.09.28-.32.82-.71,3.18-2.26,6.3-4.17,10.31-2.62.75.29,1.07-.92.33-1.21-4.15-1.6-8.34.06-11.52,2.95-1.55,1.41-2.05,3.57.75,2.78,1.75-.49,2.85-1.93,4.52-2.59,2.73-1.06,5.36.07,8.07.51,1.26.21,1.81-.27.59.74-.58.48-1.23.81-1.8,1.33-2.77,2.53-5.87,4.63-9.77,3.1l-.17,1.23h.13c.81,0,.81-1.22,0-1.25Z" transform="translate(-197.05 -138.9)"/><path class="cls-3" d="M247.63,211.36l-.17,0a.62.62,0,0,0-.44.43,4.61,4.61,0,0,0,.27,3.23,2.91,2.91,0,0,0,1.05,1.15c.63.36,1.26.14,1.93.29l-.44-.43.08.3a.63.63,0,0,0,1.05.28c1.2-1.1-.63-1.6-1.49-1.61-.38,0-1.6.14-1.84-.19.16.22.19-.73.19-.88,0-.65,0-1.33-.7-1.63a.62.62,0,0,0-.91.37c-.31,1.52-.41,2.55.55,3.82.41.55.77,1.2,1.48,1.39a3.15,3.15,0,0,0,1.72-.14,2.92,2.92,0,0,0,1.43-1.23,6.88,6.88,0,0,1,1.13-1.63c.81-.83,1-1.75-.1-2.41a.6.6,0,0,0-.63,0l-.21.15c-.65.46,0,1.55.63,1.07l.21-.14h-.63c.32.2-.67.9-.85,1.13-.54.67-.57,1.58-1.5,1.89s-1.21-.18-1.71-.85a2.94,2.94,0,0,1-.32-2.72l-.92.38c.45.2-.27,2,.48,2.52a4.2,4.2,0,0,0,1.95.35c.28,0,.56,0,.84,0l.33,0c.33.13.32-.05,0-.54l1.05.27-.08-.3a.61.61,0,0,0-.44-.44c-.86-.19-1.66.12-2.23-.87a3.2,3.2,0,0,1-.14-2.26l-.44.43.17,0c.79-.16.45-1.37-.33-1.21Z" transform="translate(-197.05 -138.9)"/><path class="cls-3" d="M252.55,213.8l.17,0-.44-.44c.07.26.27.54.19.78s-.43.49-.57.68a2.5,2.5,0,0,1-1.42,1.11l.61.16c.15.12,0,.12.19-.11l.26-.3a4.53,4.53,0,0,0,.43-.55.64.64,0,0,0-.37-.92,1.6,1.6,0,0,0-1,.1c-.49.2-1,.33-1.49.52l.48,1.15a3.8,3.8,0,0,0,.87-.78,8.51,8.51,0,0,0,1-.82.65.65,0,0,0,.1-.76,2.58,2.58,0,0,0-1.74-1.1l.44.77c.11-.29,1.1,0,1.22.2a.79.79,0,0,1-.25.87,5.82,5.82,0,0,1-1.38.35,1.94,1.94,0,0,0-1.1.8.6.6,0,0,0,0,.63,1.78,1.78,0,0,0,.59.63c.64.48,1.27-.6.63-1.08l-.14-.18v.63c.25-.36.91-.34,1.3-.43a2.58,2.58,0,0,0,1.1-.51,2.11,2.11,0,0,0,.42-2.13c-.22-.67-1-1-1.67-1.09a1.57,1.57,0,0,0-1.92,1,.61.61,0,0,0,.43.77,1.48,1.48,0,0,1,1,.53l.1-.76a6.49,6.49,0,0,1-.86.71c-.26.22-.44.55-.74.7-.63.3-.19,1.4.48,1.14.36-.14.72-.22,1.08-.34.16-.05.57-.31.73-.28l-.37-.92c-.32.56-1,.94-1,1.65s.67,1.13,1.35.85a5,5,0,0,0,2-1.77,1.84,1.84,0,0,0,.59-1c.08-.46-.16-.77-.26-1.2a.61.61,0,0,0-.44-.44l-.17,0c-.78-.19-1.11,1-.33,1.21Z" transform="translate(-197.05 -138.9)"/><path class="cls-3" d="M233.65,206.58c3.13-.79,5.21-3.51,8.41-4.14,3.45-.67,6.6.46,10,.78,4,.37-.23-.6-1.74-.64-2.34-.05-4.81-.31-7.14-.22-3.66.14-6.74,2.52-10.21,3.38-.78.19-.45,1.4.33,1.21,3.76-.94,7-3.5,11-3.33,2.85.13,7.65,1.23,10.25-.25a.65.65,0,0,0,.31-.54v-.24a.63.63,0,0,0-.79-.61c-3.43.75-7.19-1.32-10.76-1a13.2,13.2,0,0,0-4.16,1c-2.11,1-3.5,2.82-5.85,3.41a.63.63,0,0,0,.33,1.21Z" transform="translate(-197.05 -138.9)"/><path class="cls-3" d="M221,221.18c5,.84,5.38,7,5.29,11-.06,3.11-1.57,5-2.34,7.88-1,3.66,1.86,5.54,5,6.6.77.26,1.09-1,.33-1.21-6.63-2.25-3.5-5.2-2.11-9.38.69-2.06.39-4.16.49-6.29.2-4.28-1.28-8.92-6.32-9.76-.79-.13-1.13,1.07-.33,1.2Z" transform="translate(-197.05 -138.9)"/><path class="cls-3" d="M236.38,244.42l-.13,0,.37.92A1.37,1.37,0,0,1,237,245c.37-.18.67,0,.57-.51s0-.24-.37-.23-.54.23-1.07.12l.44.76c.14-.35,2-.34,2.31-.38a2.73,2.73,0,0,0,2-1.06,1.83,1.83,0,0,0,.16-2c-.57-.95-1.92-1.15-2.12-2.37-.14-.79-1.34-.45-1.21.33a3,3,0,0,0,1.22,1.84c.35.28,1.15.7,1.09,1.24s-1.11.81-1.61.85c-1.06.1-2.61.11-3.09,1.26a.63.63,0,0,0,.44.77c.74.17,3.58-.09,2.87-1.49-.63-1.25-2.61-.16-3.17.57a.64.64,0,0,0,.37.92l.14,0a.63.63,0,0,0,.33-1.21Z" transform="translate(-197.05 -138.9)"/><path class="cls-3" d="M232.8,259.34c-.62-1.19-.57-3.11.76-3.66.82-.34,2,.45,2.79.47,1.63.05,2.37-1.65,3.88-1.59.85,0,1.68.76,2.6.8a19.89,19.89,0,0,0,3.34-.64c1.05-.14,2.62-.11,3.38-.25l-.48-1.14-.48.28a.63.63,0,0,0,.64,1.08l.47-.28a.63.63,0,0,0-.48-1.15c-2.11.4-6.08.76-8.15.26a3.74,3.74,0,0,0-3.16.14,7.55,7.55,0,0,1-2.95.72c-.33,0-.67,0-1,0-.85,0-1.23-.08-1.91.57-1.5,1.42-1.15,3.47-.33,5,.38.71,1.46.08,1.08-.63Z" transform="translate(-197.05 -138.9)"/><path class="cls-3" d="M232.26,260.28c1.63,0,3.29-.82,4.9-.71v-1.25h-.68v1.25a9.55,9.55,0,0,0,4.76-1.34c1.18-.57,2.45-.79,3.63-1.32,1.49-.68,2.57-1.69,4.21-2.16a.62.62,0,0,0-.34-1.2c-2.23.64-4.14,2-6.33,2.73s-3.6,2-5.93,2a.63.63,0,0,0,0,1.25h.68a.63.63,0,0,0,0-1.25c-1.61-.11-3.27.72-4.9.71a.63.63,0,0,0,0,1.25Z" transform="translate(-197.05 -138.9)"/><path class="cls-3" d="M236,263.15a2.51,2.51,0,0,0,2.22.83,5.89,5.89,0,0,0,1.15-.5,4.26,4.26,0,0,0,1.2-.66c.59-.55-.29-1.43-.88-.89a5.51,5.51,0,0,1-1.37.69,1.18,1.18,0,0,1-1.44-.35c-.55-.59-1.43.29-.88.88Z" transform="translate(-197.05 -138.9)"/><path class="cls-3" d="M289.43,231.53c5.18-1.49,6.27-2.75,6.35-8.07.09-5.71,4.17-10.85,2.38-16.61-.38-1.21-1-2.15-1.42-3.36.31.88-.51-2.85-.78-3.21a4.93,4.93,0,0,0-3.09-1.66c-3.05-.42-8.23.85-8.68,4.33a.6.6,0,0,0,.31.54c1.38.85,2.48,0,3.87.42,5,1.65-1.84,4.83-2.18,6.24s.35,1.34,1,2.42c.24.41,1.12.25,1.36.61,1.3,1.94-2.53,6.5-1.64.52a.66.66,0,0,0-.28-.7c-1.4-.84-.64-4.56-1.56-6.23-.53-1-2.51-2-3.25-2.71-2.27-2.29-2.58-4.18-2-7.16a.63.63,0,0,0-.29-.71c-3.4-1.55-7,.37-10.63-.48-2.65-.62-4.16-2.1-6.44-3.48-1.72-1-3.75-1.58-5.41-2.73-2.71-1.9-3.32-6.39-6.63-7.51-2.62-.88-6,.83-8.65,1a22.92,22.92,0,0,1-8.6-1.33c-2.11-.75-3.58-2.23-5.56-3.14-2.31-1.06-4.42-.18-6.58,1a107.44,107.44,0,0,0-11,6.71c-3.31,2.3-5.77,5.38-9,7.62-.66.46,0,1.54.63,1.08a22.78,22.78,0,0,0,3.89-3.55c2.06-2.18,5.05-3.95,7.56-5.56s5.25-3.4,8-4.88c4.27-2.31,6.43-.38,10.07,1.35a22.31,22.31,0,0,0,13.35,1.65c3-.58,4.88-1.73,7.5,1.06.86.92,1.3,2.36,2,3.38a8.21,8.21,0,0,0,4.07,3.17c4.31,2,7.91,5.94,12.81,6a28,28,0,0,0,3.3-.35l2.49-.33c1.64.05,2.13.63,1.46,1.73.3,1.23-.26,2.3.29,3.57.74,1.71,2.53,2.61,3.73,3.91a4.82,4.82,0,0,1,1.71,3.51c.06.52-.18,1.07-.12,1.6.17,1.52,1.31,2.43,1.72,3.89.33,1.19-.06,1.91.79,3a.66.66,0,0,0,.86.22c1.56-.74,4.79-1.65,4.82-4s-.8-1-1.88-2.14c-3.88-4,.73-2.29,1.75-5.86a2.85,2.85,0,0,0-1-3.2c-1.42-1-8,.91-2.5-2.47s7.45,2.4,8.53,6.19c1.58,5.61-1.73,8.31-2.55,13.2a32.86,32.86,0,0,0,.24,3.52,7,7,0,0,1-5.44,6.87.62.62,0,0,0,.34,1.2Z" transform="translate(-197.05 -138.9)"/><path class="cls-3" d="M239.68,203.24c-1.32.22-2.1,1.27-3.35,1.58-.66.16-.55,1.29.17,1.22,2.72-.27,5-1.73,7.73-2a41.6,41.6,0,0,1,6.5-.43c.83,0,1.79.38,2.48-.19a.63.63,0,0,0-.13-1,6.72,6.72,0,0,0-4.2-.42,34.16,34.16,0,0,1-4.51.38c-1.6.1-2.84.84-4.52.82a.63.63,0,0,0,0,1.25,15.42,15.42,0,0,0,3.32-.6c1.47-.27,2.75.08,4.21,0,1.82-.14,3.2-1.16,5.07-.31l-.12-1c-.35.29-3.85-.13-4.55-.07-1.3.1-2.59.21-3.89.37-2.57.33-4.87,1.72-7.39,2l.16,1.23c1.27-.31,2-1.35,3.36-1.58C240.81,204.31,240.47,203.1,239.68,203.24Z" transform="translate(-197.05 -138.9)"/><path class="cls-3" d="M265,289.68c3.1-2.89,8.43-5.21,12.4-6.38,3.4-1,6-1.56,9.37.43,1.3.77,2.29,1.89,3.63,2.61,3.68,2,6.91,3.15,9.67,6.49,1.73,2.1,2.65,4.61,5.3,5.67a21.77,21.77,0,0,0,2.55.52c2.65.79,4.08,2.06,4.63,4.8a46.31,46.31,0,0,1,.33,13c-.7,8.4-2.74,16.9-.8,25.27,2.1,9,6,16.64,6,26.15,0,9.79-4.84,18.16-6.27,27.64-1.39,9.26-2.39,18.06-5,27.12-2.67,9.39-5,19-8.22,28.19-.26.77.95,1.09,1.21.34,2.79-8.07,4.74-16.4,7.16-24.58,2.3-7.76,4.49-15.62,5.4-23.68.5-4.44.75-8.69,2-13,1.18-4,2.59-7.89,3.65-11.91a43.35,43.35,0,0,0,.18-20.63c-1.86-7.82-5.77-14.93-5.81-23.13,0-8.48,2.24-16.81,1.9-25.3-.13-3.33-.09-9.37-3.55-11.21-.62-.33-.64-.13-1.28-.35-1.94-.68-1.29.18-3.94-1.27-2.89-1.58-1.68-.87-3.05-2.48-1.67-2-3.1-4.14-5.22-5.71-2.65-2-5.89-2.77-8.62-4.67-2.47-1.72-4.07-2.76-7.15-2.55-5.65.38-13.34,3.88-17.45,7.7-.59.55.3,1.43.89.89Z" transform="translate(-197.05 -138.9)"/><path class="cls-3" d="M308.65,252.55c1.31,2.5,2.32,4.73,4.54,6.47,4.15,3.27,8.33,6.46,12.5,9.76,2.05,1.63,5.9,4,7.39,6.07,1.34,1.91,2.07,4.24,3.38,6.2,2.79,4.17,4.79,9,7.88,12.94,3.74,4.78,6.93,8,9,13.83a78.48,78.48,0,0,1,4.56,18c1.13,10.58,3.42,20.35,8.95,29.54a40.81,40.81,0,0,1,5.65,14.7c1.13,6.41.52,12.31.65,18.74.09,4.28.11,8.8,2,12.71,2.65,5.44,8.38,11.13,8.44,17.42.07,6.73-6.74,13-10.83,17.65-5,5.69-9.77,10.12-17.9,9.28-5-.51-8.78.78-13.49,2.11a123.78,123.78,0,0,1-20.23,4.18c-1.47.16-2.95.25-4.42.34-1.19.07-4.89.92-5.84.43-1.85-1,1.47-.7,2.31-.81,6.4-.85,12.8-2.8,19.29-2.63,5,.13,11.42,2.91,16.45,1.52,3.05-.84,6.7-6.65,9.8-1.77,1.65,2.59,1.05,8.88,1.16,11.88,0,.8,1.28.8,1.25,0-.12-3.22.66-13.58-3.5-15.35-1.45-.62-3,.28-4.32.88-2.62,1.2-4.61,3.07-7.69,3.27-2.37.17-4.87-.59-7.21-1-7.31-1.19-13.81,0-21,1.25-2.61.46-9.37-.08-10.45,3.35a.63.63,0,0,0,.6.79c10,.57,20.88-1.78,30.51-4.19,5.56-1.39,10.7-3.54,16.53-3a17.57,17.57,0,0,0,11.1-2.13c3.48-2,6-5.27,8.56-8.23a75.17,75.17,0,0,0,8.46-10.94c4.68-7.92-.38-14.74-4.55-21.65-5.78-9.59-2.31-19.55-3.79-29.93-.66-4.63-1.25-9.7-3.18-14s-4.9-7.85-6.83-12.07C360,338.62,360,328,357.72,318c-2-8.7-4.85-16.43-10.87-23.08-3.73-4.13-5.64-9.29-8.83-13.8-2.27-3.19-3.3-7-6.42-9.48-4.44-3.53-8.82-7.8-13.52-10.93-3.83-2.56-6.17-4.59-8.35-8.74-.37-.72-1.45-.09-1.08.63Z" transform="translate(-197.05 -138.9)"/><path class="cls-3" d="M293.49,234.68c.56,3.94,2.11,5.65,4.38,8.88a25.35,25.35,0,0,0,4.21,5.07c2,1.56,4.78,1.89,6.67,4l.44-1.06c-1.17,0-1.62.56-2.54,1.25a51.25,51.25,0,0,1-9.59,6.12c-2.63,1.18-5,2.71-7.54,4-3.88,2-7.76,2.66-10.66,6.11a19.48,19.48,0,0,0-3.75,6.87c-1.46,4.32-4.29,6.25-7.53,9.27-2.21,2.06-4.43,4.16-5.74,6.9-1.19,2.49-2.4,3.37-4.06,5.39-1.32,1.61-2,3.57-3.33,5.22-1.9,2.3-4.15,4.11-5.55,6.8-2.07,4-1.38,7.76-2.27,12-1.72,8.22-3.42,16.64-3.84,25.06-.26,5.25-1.78,9-4.33,13.5A72,72,0,0,0,233.05,372a29.54,29.54,0,0,0-1.92,10.17c.11,4.54,1.63,8.92,1.65,13.51a29.62,29.62,0,0,1-4.16,15.69,113.65,113.65,0,0,0-6.6,12.73c-2.13,5.13-4.34,10.31-6,15.6-1.51,4.74-3.61,9.94-4.45,14.81-.14.79,1.07,1.12,1.21.33.65-3.78,2.38-7.52,3.41-11.24a133.16,133.16,0,0,1,5.12-14.27,120.27,120.27,0,0,1,5.84-12.63c1.71-3.14,3.85-6.24,5.15-9.58,2.64-6.8,1.85-14.25.64-21.24-1.66-9.6,3-19,7.82-27,4.17-7,3.28-15.08,4.64-22.94.69-4,1-8.06,1.94-11.95,1.1-4.49.49-9.55,2.67-13.7,3.05-5.79,9.34-9.71,12.24-15.59a28.14,28.14,0,0,1,6.82-9c2.11-1.88,5-3.63,6.44-6.19.66-1.18.58-2.46,1-3.72a16,16,0,0,1,4.19-6.71c3.22-3.09,9.19-4.84,13.21-7.11,3-1.69,5.73-2.49,8.5-4.47,1.38-1,5.19-4.55,6.85-4.56a.63.63,0,0,0,.44-1.07,13.86,13.86,0,0,0-3.65-3.35c-1.62-.87-3-1-4.34-2.32-3-2.84-6.36-7.64-6.95-11.78-.11-.79-1.31-.45-1.2.34Z" transform="translate(-197.05 -138.9)"/><path class="cls-3" d="M294.72,234.51a27.27,27.27,0,0,1,.91-4.47,18.44,18.44,0,0,1,1.59-4.73c.36-.71-.72-1.35-1.07-.63a18.83,18.83,0,0,0-1.72,5,28,28,0,0,0-1,4.8.63.63,0,0,0,1.25,0Z" transform="translate(-197.05 -138.9)"/><path class="cls-3" d="M284.45,246.59c-.09,1.61-3.5,4-4.33,5.22-1.47,2.14-2.33,3.94-4.3,5.78-3.75,3.49-7.93,6.26-11.78,9.55-4.64,4-8.72,8.61-15.25,8.84-7.39.26-12.53-5.64-16.3-11.32-1.33-2-2.21-2.25-4-3.77-1.42-1.22-3-3.76-4.13-5.28-2-2.57-3-5.52-4.57-8.36-1.93-3.56-4-7-4.77-11.1-.83-4.51.27-7.37-2.68-11.09-2.27-2.86-5.06-6.48-1.39-9.37,2-1.6,3.89-1.23,6.24-1.78l-.33-1.21a35,35,0,0,0-5.52,2.17c-.82.4-2.36,2-3.2,2.15-1,.17-.23.26-.38-1.18-.07-.62.12-1,0-1.75a10.32,10.32,0,0,0-1.27-3.14,53.73,53.73,0,0,1-2.58-6.16c-.15-.4-.33-.79-.46-1.19a9,9,0,0,1-.7-6.43L203,196c-.78-3.2-4.91-2.47-4.47-7.19.23-2.46,2.89-6.76,4.11-8.94A29,29,0,0,0,205.4,174c1.69-5.87,3.7-11.45,9.63-14.53,3.79-2,6.76-4.61,10.75-6.1,1.78-.66,3.43-1.61,5.18-2.36,3.66-1.57,6.87-1.56,10.71-1.15,6,.63,11.67.84,17.32,3.18,2.29.94,5.35,1.81,7.35,3.14-.23-.15,2.53,2,2.7,2.66l.78.94a5,5,0,0,1-4.26.3c-4.81-.71-8.95-1.65-13.84-.39-2.16.55-10.36,4.88-6.33,8.06,1.61,1.26,6.2-1.05,7.56-1.62a62,62,0,0,1,8-3.22c3.76-1,6.91-.35,10.67-.06,4.56.35,7.2.07,10.3,4.17.8,1.06,1,1.82,2.23,2.36,2.66,1.13,7.59-.56,9.31,2.62,2.06,3.8-1.08,4.62-1.48,7.76-.52,4.09,5.75,5.64,6.91,9.38.75,2.38-.1,7,3.16,7.66a.62.62,0,0,0,.77-.43c1.08-5.19,1.35-9.83-.52-14.76-1.29-3.37-.13-6.08-.2-9.36,0-1.81-1.43-4.27-2.33-5.8-2.55-4.36-6.9-7.29-10.84-10.29a26.11,26.11,0,0,0-6.15-3.35c-2.33-1-2.33,2.65-4.78-2.56-.41-.87-.31-2.12-.61-3-2.65-8.19-13.51-10.17-20.29-6.49-2.88,1.56-4.52,2.67-8.16,2.06a14.53,14.53,0,0,0-5.42,0c-3.43.73-6.94,2.16-7.56,5.9-.13.79,1.07,1.12,1.2.33,1.44-8.64,13-2.7,17.91-5.36,5.27-2.88,9.84-5.31,15.71-1.91,2,1.18,4.54,3.45,5.4,5.76.48,1.27.34,2.73.9,4a4.1,4.1,0,0,0,2.36,2.31c2.17,1,4.79.76,7,2.06a48.46,48.46,0,0,1,4.86,3.72c3.73,2.91,8.06,6.45,9.22,11.35.73,3.07-1.07,5.8-.17,9,1,3.68,3.32,7.59,1.88,11.59-1.17,3.24-1.52.75-1.91-1.38a10.45,10.45,0,0,0-.7-2.73c-1.22-2.51-4.43-3.35-5.7-5.52-1.81-3.1,2.46-5.06,2.17-8-.6-6.12-10.1-4.26-13.1-7.55-1.27-1.39-1.44-2.75-3.26-3.7-3-1.6-7.19-1-10.5-1.35a23.56,23.56,0,0,0-12.14,1.63c-1.78.71-7.47,4.49-9.45,3.61-4.27-1.88,2.42-5.13,3.57-5.47a23.81,23.81,0,0,1,9.61-.68c3.68.47,7,1.84,10.76,1.2a.61.61,0,0,0,.43-.76c-2.06-5.32-9.18-8.15-14.09-9.81a39.65,39.65,0,0,0-9.95-2.1c-3.74-.24-7.85-.94-11.57-.7-3.27.22-5.94,1.64-8.87,3-3.41,1.54-5.57,1.8-8.26,4.17s-6,2.86-8.43,5.22a29.73,29.73,0,0,0-5.42,7.94c-1.51,3-1.44,6.34-3,9.33-1.77,3.45-4.25,6.76-5.13,10.65-.43,1.91-.56,4.21,1.12,5.54.49.39,1.57.41,2,.78,1.75,1.51.75,3,.78,4.85,0,2.75,1.47,5.07,2.36,7.59.71,2,2.51,4.81,2.87,6.84.28,1.58-.61,3.25.55,4.6a.63.63,0,0,0,.76.1c1.5-.66,2.59-1.93,4.1-2.68a32.21,32.21,0,0,1,5.35-2.2.63.63,0,0,0-.33-1.21c-2.6.61-3.79-.65-6,1.12-1.38,1.13-3.69,3.13-3.89,5.08s1.68,3.68,2.78,5a15.22,15.22,0,0,1,3.66,8.23c.16,1.32.17,2.67.35,4a28.21,28.21,0,0,0,3.29,8.91c1.62,3.17,3.14,6.75,5.06,9.74a51.88,51.88,0,0,0,5.48,7c1.32,1.42,2.88,2.53,4.08,4.05.84,1.08,1.41,2.2,2.35,3.24,3.84,4.24,7.89,8.38,14,8.19,6.67-.21,9.5-2.91,14.35-6.95,5.17-4.31,10.74-8,15.48-12.88,2-2.08,3.61-4.69,5.38-7,.91-1.17,2.38-2.35,2.47-3.87,0-.81-1.21-.8-1.25,0Z" transform="translate(-197.05 -138.9)"/><path class="cls-3" d="M297.1,225.68c-.65,1.07,2.26,3.33,2.83,3.76a.64.64,0,0,0,.76-.1c1.46-1.43,1.59-3.15,1.52-5.13s-1.23-4.69,1.57-4.16a.63.63,0,0,0,.61-.16c1.05-1.33.82-2.83.46-4.51a36.4,36.4,0,0,1-.75-9.32,33.1,33.1,0,0,0,.27-4c-.23-1.8-1.31-3.09-1.55-5-.11-.82-.23-1.63-.4-2.43s-1.37-.46-1.2.33a57.26,57.26,0,0,0,1,5.66c.64,2,.29,2.16.05,3.9-.13.9.41,2.19.43,3.12,0,1.2-.3,2.44-.18,3.66a22.81,22.81,0,0,0,.7,3c.66,2.9,1.33,2.85-.39,3.94-.24.15-1.07-.57-1.53-.21-.8.63-.71,1.23-.8,2.19-.19,2.08,1.83,4.84-.91,5.1-1.83.17-1.24-.42-2.61-.94a.63.63,0,0,0-.71.29l-.23.38c-.43.69.65,1.31,1.07.63Z" transform="translate(-197.05 -138.9)"/><path class="cls-3" d="M222.29,220.37a5.31,5.31,0,0,0-3.22-.4,7.29,7.29,0,0,0-2.76,1.07c-1.64,1.13-3.15,2.29-3.64,4.32-.19.78,1,1.12,1.21.33.39-1.63,1.7-2.54,3-3.49a5.33,5.33,0,0,1,5.09-.63c.76.27,1.09-.94.33-1.2Z" transform="translate(-197.05 -138.9)"/><path class="cls-3" d="M258.62,273.38c2,1.53,3,6.58,3.52,9a23.56,23.56,0,0,1-1.79,12.45c-.35.71.72,1.35,1.08.63.83-1.66,1.88-2.86,2-4.74a10.53,10.53,0,0,1,0-5.29,9.76,9.76,0,0,0,.25-1.31,14.8,14.8,0,0,0-.06-1.64c-.37-2-1.44-4.52-2-6.56a6.05,6.05,0,0,0-2.37-3.61c-.65-.48-1.27.6-.63,1.08Z" transform="translate(-197.05 -138.9)"/><path class="cls-3" d="M285.45,216.67c-.71,2.81-2.07,6-5,7-1.3.48-2.7.49-3.87,1.27-3.46,2.29-4,7-6.51,10-.5.62.37,1.51.88.88,1.53-1.87,2.21-4,3.35-6.07,1.71-3.14,3.76-3.8,6.93-5.09,3.36-1.37,4.54-4.35,5.39-7.72a.63.63,0,0,0-1.21-.33Z" transform="translate(-197.05 -138.9)"/><path class="cls-3" d="M214.17,213.69l0-.13-.43.44c1.32-.27,2.95-.55,3.94-1.59l-1.07-.44c0,.66.1.64-.5,1s0,1.51.64,1.08a3.13,3.13,0,0,0,1-.81c.26-.42.12-.83.11-1.29a.63.63,0,0,0-1.06-.44c-.83.86-2.29,1-3.39,1.27a.6.6,0,0,0-.44.43l0,.13c-.19.78,1,1.12,1.2.33Z" transform="translate(-197.05 -138.9)"/></g></svg>