<svg id="Layer_1" data-name="Layer 1" xmlns="http://www.w3.org/2000/svg" xmlns:xlink="http://www.w3.org/1999/xlink" viewBox="0 0 536.96 341.93"><defs><style>.cls-1{fill:none;}.cls-2{clip-path:url(#clip-path);}.cls-3{fill:#231f20;}</style><clipPath id="clip-path" transform="translate(-29.16 -126.37)"><rect class="cls-1" x="14.17" y="14.17" width="566.93" height="566.93"/></clipPath></defs><title>grad3</title><g class="cls-2"><g class="cls-2"><path class="cls-3" d="M485,299.25q3.76,1.2,7.51,2.48l3.73,1.28a8.87,8.87,0,0,0,1.73.49,1.26,1.26,0,0,0,1.07-.21l-.24,1.26a8.7,8.7,0,0,0-5.57-3.94l1.58-1.33a81.35,81.35,0,0,1,.35,8.84,79.15,79.15,0,0,1-.68,8.83,19.47,19.47,0,0,0-.21,2,2.54,2.54,0,0,0,.29,1.32c.22.46.64,1.08,1,1.7l1.16,1.84c1.54,2.46,3.1,4.89,4.61,7.37l-3.2,1.59a47.78,47.78,0,0,0-2.8-6,48.5,48.5,0,0,0-3.62-5.59l2.47,0L482.78,334l-.91-1.69a47.89,47.89,0,0,1,6.88-.1,48.48,48.48,0,0,1,6.81.8l.52.1,0,.52c.22,3.77.4,7.54.68,11.31.14,1.87.23,3.79.42,5.63a52.61,52.61,0,0,1,.52,5.72l-.07,2.88a3.8,3.8,0,0,1-.13.9,1.78,1.78,0,0,1-.82,1,8.21,8.21,0,0,1-1.5.56c-1.76.58-3.63,1.19-5.48,1.65-3.7,1-7.46,1.68-11.22,2.28s-7.53,1.05-11.26,1.54l-2.82.35a18.73,18.73,0,0,1-3.12.14,8.47,8.47,0,0,1-3.44-.84,6.23,6.23,0,0,1-2.78-2.78,10.5,10.5,0,0,1-.91-3.32l-.3-2.84c-.23-1.81-.52-3.62-.9-5.41a61.2,61.2,0,0,0-3.24-10.46l1.73,1.31a1.64,1.64,0,0,0-1,.36,3.07,3.07,0,0,0-1,1.21,11.28,11.28,0,0,0-.66,4.38c-.1,3.54-.27,7.09-.42,10.63l-.05,1.33c0,.43,0,.9-.09,1.47a6.39,6.39,0,0,1-.52,2,4.26,4.26,0,0,1-1.67,1.82,6.24,6.24,0,0,1-1.8.71c-.52.12-.92.2-1.38.29-.89.17-1.79.33-2.69.47s-1.79.27-2.7.37l-1.35.16-.69.07a6.92,6.92,0,0,1-.94,0,3.43,3.43,0,0,1-1.32-.3,3.14,3.14,0,0,1-1.24-1,4.1,4.1,0,0,1-.71-2.2c0-.61,0-1.05,0-1.42s0-.78-.06-1.17a14.33,14.33,0,0,0-.41-2.34,13,13,0,0,0-.78-2.18,3.13,3.13,0,0,0-1-1.29,1,1,0,0,0-1.05,0,3.37,3.37,0,0,0-1.23,1.34,5.63,5.63,0,0,0-.4,1c-.1.36-.19.77-.27,1.18-.17.84-.3,1.76-.58,2.72a6.83,6.83,0,0,1-1.48,2.81,8.14,8.14,0,0,1-2.47,1.79,27.24,27.24,0,0,1-2.56,1.06,37,37,0,0,1-5.23,1.47,38.71,38.71,0,0,1-10.72.74v-.4a42.32,42.32,0,0,0,10.35-1.76,46.14,46.14,0,0,0,4.88-1.84,10.58,10.58,0,0,0,4-2.55c.84-1,1-2.63,1.17-4.45.06-.46.13-.93.24-1.43a6.81,6.81,0,0,1,.52-1.54,6.16,6.16,0,0,1,2.19-2.65,4.15,4.15,0,0,1,1.94-.66,4.1,4.1,0,0,1,2.08.39,6,6,0,0,1,2.51,2.56,14.85,14.85,0,0,1,1.16,2.77,17.33,17.33,0,0,1,.66,2.87c.07.49.11,1,.14,1.47s0,1,.05,1.25.13.45,0,.3-.41-.24-.23-.21.58-.06,1-.12l1.29-.19,2.55-.45c.85-.17,1.7-.34,2.54-.54.41-.09.88-.19,1.22-.28a2.88,2.88,0,0,0,.67-.25c.09-.08,0,0,.09-.12a2.3,2.3,0,0,0,.13-.63c0-.3,0-.72,0-1.18l0-1.33c.09-3.54.15-7.09.29-10.63a15.3,15.3,0,0,1,1.07-6,7.37,7.37,0,0,1,2.37-2.87,5.69,5.69,0,0,1,4-1.09l1.29.16.44,1.16a64.83,64.83,0,0,1,3.19,11.24q.54,2.88.82,5.78c.21,2,.19,3.86.73,4.95a2.49,2.49,0,0,0,1.13,1.18,5.19,5.19,0,0,0,2,.53,15.39,15.39,0,0,0,2.53,0l2.81-.26c3.78-.31,7.54-.59,11.27-.94a102.75,102.75,0,0,0,11.11-1.56c1.84-.36,3.59-.83,5.46-1.33a9.16,9.16,0,0,0,1.16-.34c.11-.07,0,0,.08-.06a2.14,2.14,0,0,0,.09-.49c.05-.88.17-1.92.2-2.78,0-1.81-.19-3.68-.34-5.58s-.24-3.78-.36-5.67c-.2-3.77-.51-7.54-.78-11.31l.56.62a44.74,44.74,0,0,0-6.63-.5,45.53,45.53,0,0,0-6.6.53l-2.54.39,1.63-2.08,10.6-13.54L493,317.6l1.31,1.52a43.13,43.13,0,0,1,7.26,12.32L498.34,333c-1.55-2.46-3-4.94-4.54-7.42l-1.12-1.86a22.89,22.89,0,0,1-1.18-2,6.32,6.32,0,0,1-.48-1.43,6.24,6.24,0,0,1-.1-1.47,18.35,18.35,0,0,1,.32-2.35,79.89,79.89,0,0,0,.95-8.46,78.47,78.47,0,0,0,.1-8.54l-.07-1.77,1.65.44a10.78,10.78,0,0,1,6.73,5.44l.39.76-.63.5a2.79,2.79,0,0,1-1.39.58,3.87,3.87,0,0,1-1.29-.08,10.53,10.53,0,0,1-2-.75l-3.6-1.62q-3.6-1.65-7.17-3.34Z" transform="translate(-29.16 -126.37)"/><path class="cls-3" d="M498.48,351.91q2-.39,4-.72l.56-.09.09.66c.37,2.73.68,5.46,1,8.19l-.85-1.08a10.31,10.31,0,0,0,5.09-.12l-1.07,1a9.75,9.75,0,0,0,.26-3.27,9.07,9.07,0,0,0-.88-3.1l-.95-1.94,2.18-.43,4.16-.84,2-.41.07,2.11q.3,8.5-.11,17c-.26,5.68-.56,11.36-.52,17s.25,11.34.63,17a79.66,79.66,0,0,0,2.25,16.48,25.19,25.19,0,0,0,3.2,7.21,22.43,22.43,0,0,0,5.39,5.61,41.31,41.31,0,0,0,6.88,4.17c2.45,1.22,5,2.32,7.61,3.36s5.26,2.09,7.91,3.28a59.81,59.81,0,0,1,7.67,4.14,31.9,31.9,0,0,1,6.72,5.66,21.48,21.48,0,0,1,4.33,7.53l-.37.16a22.54,22.54,0,0,0-5.24-6.41,33.72,33.72,0,0,0-6.85-4.52c-4.91-2.55-10.18-4.19-15.6-6.08-2.69-1-5.4-2-8.06-3.27a41,41,0,0,1-7.6-4.71,26.7,26.7,0,0,1-6.06-6.85,28,28,0,0,1-3.34-8.41c-1.33-5.84-1-11.67-.85-17.33s.28-11.34.13-17-.6-11.34-1-17-.64-11.34-.61-17l2.08,1.7-4.19.72,1.24-2.37a12.46,12.46,0,0,1,1,4.31,11.76,11.76,0,0,1-.63,4.33l-.3.85-.77.14a12.51,12.51,0,0,1-6.4-.45l-.86-.29v-.79c0-2.74.08-5.49.19-8.24l.65.57c-1.36,0-2.73,0-4.11-.08Z" transform="translate(-29.16 -126.37)"/><path class="cls-3" d="M478.43,336.68c-3.73-1.24-7.45-.56-11.25.06s-7.74,1.23-11.63,1.65-7.82.46-11.75.53a97.24,97.24,0,0,0-11.71.89l-1.15.16.51-1.08c1.49-3.15,2.8-6.39,4.11-9.64l.21-.51.75-.17c4.34-1,8.71-1.71,13.06-2.47s8.67-1.6,13-2.3,8.67-1.44,13-2.23,8.65-1.65,13-2.5l.13.38a81.52,81.52,0,0,1-12.42,5.12,121.35,121.35,0,0,1-13,3.39c-4.37.92-8.8,1.48-13.22,2s-8.84.94-13.29,1.13l1-.69c-1.81,3-3.61,6-5.24,9.08l-.63-.91a95.43,95.43,0,0,0,11.62-1.7c3.85-.78,7.7-1.61,11.59-2s7.79-.73,11.71-.93c1,0,2-.07,3-.06a28.7,28.7,0,0,1,3.06.26,12.27,12.27,0,0,1,5.68,2.24Z" transform="translate(-29.16 -126.37)"/><path class="cls-3" d="M396.19,355.66c.66,7.3,1.12,14.61,1.45,21.93s.58,14.64.59,22-.06,14.67-.29,22-.54,14.66-1.08,22l-.09,1.3-1.31.11a175.74,175.74,0,0,1-33.08-.46c-5.48-.54-10.93-1.28-16.36-2.12s-10.84-1.79-16.23-2.78c-10.78-2-21.48-4.18-32.24-5.94s-21.57-3.31-32.43-4.5c-21.71-2.42-43.58-3.65-65.45-4s-43.75-.06-65.63.44l-1,0,0-1-1.49-41.74c-.12-3.49-.26-6.91-.32-10.48a28.18,28.18,0,0,1,.45-5.51,16,16,0,0,1,.82-2.78,12.33,12.33,0,0,1,1.43-2.62,10.77,10.77,0,0,1,4.74-3.83,8.22,8.22,0,0,1,3.2-.58,7.39,7.39,0,0,1,3.26.86,8.26,8.26,0,0,1,2.52,2.05,9.19,9.19,0,0,1,1.62,2.75,8.28,8.28,0,0,1,.57,3.22,7.8,7.8,0,0,1-.84,3.31l-.73-2.44a10.22,10.22,0,0,0,6.62.83,23.09,23.09,0,0,0,6.91-2.53c4.45-2.4,8.79-6,14.54-7.55a19.07,19.07,0,0,1,4.38-.64,24.86,24.86,0,0,1,4.34.3,50.64,50.64,0,0,1,8,2.11c2.57.86,5,1.69,7.53,2.37s5.05,1.28,7.62,1.78a196.74,196.74,0,0,0,31.45,2.8c10.6.23,21.22.13,31.85-.17l63.91-1.86,16-.45,8-.18c2.63-.13,5.52.14,7.18-.86a2.63,2.63,0,0,0,.95-1,8,8,0,0,0,.66-1.61,12.38,12.38,0,0,1,.81-2.05,6.26,6.26,0,0,1,1.58-1.88,9.83,9.83,0,0,1,4.12-1.78,35.43,35.43,0,0,1,4.1-.53,65.8,65.8,0,0,1,16.17.58l-.5.07a49.36,49.36,0,0,1,7.95-3,44.07,44.07,0,0,1,8.37-1.5,3.7,3.7,0,0,1,2.31.61,3,3,0,0,1,1.09,2.15,19.34,19.34,0,0,1,0,2.15l-.05,2.09L414,365.5h-.4l-.16-8.36,0-2.09a18.73,18.73,0,0,0-.09-2,2,2,0,0,0-.75-1.46,2.69,2.69,0,0,0-1.68-.34,42.33,42.33,0,0,0-8,1.75,46.24,46.24,0,0,0-7.6,3.14l-.22.11-.27,0a66.67,66.67,0,0,0-15.72-.12,36.6,36.6,0,0,0-3.81.59,7.64,7.64,0,0,0-3.13,1.41,4,4,0,0,0-.95,1.18,11.16,11.16,0,0,0-.6,1.68,10,10,0,0,1-.81,2.1,5.09,5.09,0,0,1-1.76,1.9,9.23,9.23,0,0,1-4.42,1.25c-1.41.1-2.68.15-4,.22l-8,.4-16,.71-31.94,1.42c-10.65.49-21.29,1-32,1.32s-21.37.61-32.08.33-21.49-.84-32.15-3c-2.66-.54-5.31-1.18-7.93-1.92s-5.22-1.65-7.7-2.5c-4.94-1.7-9.91-3.08-14.51-1.84a27.65,27.65,0,0,0-6.8,3c-2.25,1.3-4.48,2.77-7,4.09a26.34,26.34,0,0,1-8.08,2.85,13.77,13.77,0,0,1-8.92-1.29l-1.57-.86.84-1.58A4.41,4.41,0,0,0,146,364a5.59,5.59,0,0,0-2.46-3,4,4,0,0,0-1.73-.5,4.92,4.92,0,0,0-1.91.32,7.55,7.55,0,0,0-3.29,2.61,10.69,10.69,0,0,0-1.77,4.15,24,24,0,0,0-.47,4.87c0,3.39.11,6.93.13,10.39l.53,41.76-1-.95c21.89.06,43.78-.11,65.67.29l8.21.14,8.21.2c2.74.05,5.48.16,8.21.24s5.48.17,8.21.3c10.95.4,21.89,1,32.82,2s21.84,2.09,32.7,3.71,21.64,3.63,32.39,5.6,21.49,3.87,32.3,5a182.63,182.63,0,0,0,32.47.84l-1.4,1.41c.59-7.28,1.16-14.56,1.54-21.85s.67-14.6.81-21.9.22-14.62.15-21.93-.26-14.62-.52-21.93Z" transform="translate(-29.16 -126.37)"/><path class="cls-3" d="M158.13,358.86a54,54,0,0,0-1.24-7.39c-.29-1.2-.65-2.38-1-3.54s-.85-2.29-1.31-3.41l-.6-1.45,1.59-.56c6-2.1,12.38-3.71,18.89-3.64a94.65,94.65,0,0,1,9.6.72c3.16.36,6.3.63,9.45.8,6.31.35,12.65.13,19,.33s12.62.49,18.91.94l1.81.12.18,1.82c.27,2.79.46,5.59.64,8.39s.34,5.61.43,8.42l.08,2.11,0,.52c0,.2,0,.43,0,.67a3.05,3.05,0,0,1-.66,1.87,2.39,2.39,0,0,1-1,.68,3,3,0,0,1-.89.18,9.86,9.86,0,0,1-1.16,0l-2.11-.13c-2.81-.17-5.62-.4-8.43-.72v-.4c2.8-.42,5.6-.75,8.4-1l2.1-.2c.34,0,.76-.06.94-.1s.13-.11,0,0-.08.09-.11-.13l-.13-.9-.31-2.08c-.44-2.78-.78-5.57-1.16-8.35s-.67-5.57-.92-8.37l2,1.94c-6.3-.48-12.57-1.16-18.85-1.84s-12.52-1.87-18.81-2.44c-3.14-.29-6.29-.53-9.44-.51a66.93,66.93,0,0,0-9.32.69,177.94,177.94,0,0,0-18.2,3.61l1-2a32.66,32.66,0,0,1,1.53,7.71,28.14,28.14,0,0,1-.43,7.73Z" transform="translate(-29.16 -126.37)"/><path class="cls-3" d="M178.75,343.06a11.59,11.59,0,0,1,2.05,3.55,14.11,14.11,0,0,1,.58,1.85,6.89,6.89,0,0,1,.25,1.92,8.51,8.51,0,0,1-.06,1l-.13,1.11a3,3,0,0,1-.52,1.42,3.67,3.67,0,0,1-.94.84,11.32,11.32,0,0,0-2.74,2.82,11.65,11.65,0,0,1-2.92,2.94,11.24,11.24,0,0,1-3.83,2,9.69,9.69,0,0,1-4.45.13,8.13,8.13,0,0,1-2.14-.79,2.23,2.23,0,0,1-1.15-1.13,1.22,1.22,0,0,1,.05-.89.79.79,0,0,1,.67-.46l.12.38c-.06.2.19.38.3.3a1.05,1.05,0,0,1,.47-.19c.57-.12,1.17-.23,1.71-.38a32.49,32.49,0,0,0,3.16-1.05c1-.39,2.1-.7,3.2-1.16s2.23-.95,3.47-1.4a8.74,8.74,0,0,0,3.24-2.07,1,1,0,0,0,.33-.61,1.39,1.39,0,0,0-.23-.46c-.12-.19-.3-.49-.46-.79a8.27,8.27,0,0,1-.42-.91,6.76,6.76,0,0,1-.47-1.87,15.69,15.69,0,0,1-.15-1.94,11.74,11.74,0,0,1,.61-4.05Z" transform="translate(-29.16 -126.37)"/><path class="cls-3" d="M161.08,338.55a18.58,18.58,0,0,1,2.54-4.57,24.62,24.62,0,0,1,1.57-1.94,11,11,0,0,1,2-1.6,18.68,18.68,0,0,0,2.07-1.56,9.13,9.13,0,0,0,1.57-2,36.62,36.62,0,0,0,2-4.72l2.63-6.21.46,7.31a8.11,8.11,0,0,0,.79,2.84c.44,1,.94,2,1.38,3.24a15.24,15.24,0,0,1,.94,4,5.83,5.83,0,0,1-1.06,4.16l-.39-.11a10,10,0,0,0-1.31-3.28c-.56-1-1.24-1.93-1.88-3a14.16,14.16,0,0,1-1.62-3.67,9.77,9.77,0,0,1-.19-4.58l3.1,1.1c-1.16,1.32-2.63,2.4-3.75,3.7a11.49,11.49,0,0,0-1.49,2.09c-.42.76-.75,1.59-1.11,2.41a9.67,9.67,0,0,1-1.35,2.26,16,16,0,0,1-1.87,1.81,12.92,12.92,0,0,1-4.67,2.6Z" transform="translate(-29.16 -126.37)"/><path class="cls-3" d="M176.78,323.22l8.67,1.64c2.87.55,5.73,1,8.6,1.47s5.73.78,8.6,1.19,5.75.88,8.66,1.19l-1,1a26.62,26.62,0,0,0,.24-2.76,8.71,8.71,0,0,0-.36-2.61,4.8,4.8,0,0,0-1.4-2.08,3.29,3.29,0,0,0-2.21-.84l-1.36,0,.86-1.08c1.24-1.56,2.43-3.15,3.6-4.76l3.46-4.88,1-1.38,1.21,1.48c1.32,1.61,2.59,3.25,3.83,4.91l3.7,5,3.7,5-6-2.05a13.2,13.2,0,0,0-6-.54l-2.7.39.31-2.78c.24-2.08.52-4.1.65-6.08a31.37,31.37,0,0,0-.09-5.89c-.21-2-.5-4.15-.54-6.38a14.45,14.45,0,0,1,1.29-6.68l1.87.79c-1.14,2-2.31,4-3.57,5.89l-.37-.16c.63-2.22,1.34-4.4,2.09-6.57l1.87.79a13.83,13.83,0,0,0-.12,5.7c.28,2,.82,3.95,1.21,6.07a30.81,30.81,0,0,1,.48,3.3,31.18,31.18,0,0,1,.09,3.34,57.65,57.65,0,0,1-.62,6.43L214,318.9A16.4,16.4,0,0,1,221.9,320L219.59,323l-3.35-5.24c-1.11-1.76-2.18-3.53-3.22-5.34l2.19.1-4.16,4.29c-1.38,1.44-2.73,2.9-4,4.4l-.5-1a4.62,4.62,0,0,1,3,1.19,6.65,6.65,0,0,1,1.85,2.54,10.36,10.36,0,0,1,.74,3c.13,1,.16,2,.21,2.95l0,.89-1.08.09a70.62,70.62,0,0,1-9,.19,57.87,57.87,0,0,1-8.88-1.25,73,73,0,0,1-8.62-2.44,53.41,53.41,0,0,1-8.17-3.67Z" transform="translate(-29.16 -126.37)"/><path class="cls-3" d="M231.71,344a6.06,6.06,0,0,1-1.77.36,7.81,7.81,0,0,1-1.73-.22,5.58,5.58,0,0,1-2.9-1.81,8.69,8.69,0,0,1-.82-1.57,8.25,8.25,0,0,0-.69-1.53,5.79,5.79,0,0,0-.91-1.29,9.75,9.75,0,0,0-1.14-1.19,15,15,0,0,1-1.13-1.26,11.46,11.46,0,0,1-.85-1.43c-.23-.49-.48-1-.68-1.49a9.53,9.53,0,0,1-.44-1.56,10.44,10.44,0,0,1,1-6.48l.4,0a17.75,17.75,0,0,1,2.8,5.54,8.22,8.22,0,0,1,.31,1.39c.09.46.16.93.23,1.41a18.8,18.8,0,0,1,.36,2.92,6.42,6.42,0,0,0,.33,1.47,4.79,4.79,0,0,0,.79,1.23,5.24,5.24,0,0,0,1.27.8c.49.18,1,.34,1.38.54a3.61,3.61,0,0,1,1.11.7,11.45,11.45,0,0,1,1,.86,9.6,9.6,0,0,1,1.06,1,8.46,8.46,0,0,1,1.13,1.26Z" transform="translate(-29.16 -126.37)"/><path class="cls-3" d="M214.46,325.92a3.84,3.84,0,0,1,1,.69,3.05,3.05,0,0,1,.6.74,2,2,0,0,1,.32,1.6c-.19.57-.75,1.19-.8,1.75a2,2,0,0,0,.66,1.55,1.21,1.21,0,0,0,.59.46c.17,0,.16-.23-.08-.48s-.34-.25-.18-.31a2.3,2.3,0,0,1,.76,0,4.2,4.2,0,0,1,1.63.55,5.48,5.48,0,0,1,1.64,1.36v.4a5.73,5.73,0,0,1-1.61,1.39,4.38,4.38,0,0,1-1.62.57,2.93,2.93,0,0,1-.87,0,3.73,3.73,0,0,1-1.74-.66,2.29,2.29,0,0,1-1-1.78,2.14,2.14,0,0,1,.3-1.13,2,2,0,0,0,.23-1.67c-.19-.53-.9-1-1.23-1.48a2,2,0,0,1-.1-1.63,3.25,3.25,0,0,1,.38-.87,4.16,4.16,0,0,1,.75-.92Z" transform="translate(-29.16 -126.37)"/><path class="cls-3" d="M245.93,364.83c-.82-17.36-1.3-34.71-1.58-52.06-.17-8.68-.16-17.34-.69-25.93s-1.31-17.3-1.17-26.07.68-17.43,1.46-26.09l1.18-13a5.91,5.91,0,0,1,1.07-3.43,6.64,6.64,0,0,1,1.36-1.18l1.33-.94c1.77-1.25,3.56-2.48,5.36-3.71a493.36,493.36,0,0,1,44.43-27.31l1.52-.82.41,1.74c3.56,15.13,5.18,30.66,5.9,46.12s.68,30.94.49,46.37-.79,31-3.42,46.38a37.13,37.13,0,0,1-10.67,20.92c-5.54,5.61-12.1,9.84-18.66,13.88l-.23-.33c3.11-2.3,6.21-4.58,9.18-7a74.36,74.36,0,0,0,8.28-7.87,38.83,38.83,0,0,0,6.19-9.33,39.54,39.54,0,0,0,2.9-10.76c2-15.13,2.19-30.54,2.24-45.91l.05-23.12c0-7.7,0-15.39-.25-23.06A294.11,294.11,0,0,0,298,186.62l1.94.92a337.63,337.63,0,0,0-45,25.91c-1.77,1.24-3.55,2.48-5.3,3.75a16.2,16.2,0,0,0-2.41,1.9,4.72,4.72,0,0,0-.7,2.72c-.27,4.32-.53,8.66-.69,13-.37,8.66-.55,17.31-.25,25.92s1.18,17.19,1.67,25.91.37,17.45.28,26.12c-.15,17.35-.5,34.71-1.2,52.07Z" transform="translate(-29.16 -126.37)"/><path class="cls-3" d="M303.6,338.82c5,3.48,9.9,7.07,14.78,10.69a24.47,24.47,0,0,0,3.65,2.35,10.54,10.54,0,0,0,3.9,1.11,27.3,27.3,0,0,0,4.33,0l4.54-.27,9.09-.51c3-.15,6.06-.28,9.06-.5s6-.48,8.9-.91c1.47-.21,2.92-.47,4.37-.76a9,9,0,0,0,1.85-.49,1.57,1.57,0,0,0,.85-.64,3.48,3.48,0,0,0,.19-1.46l-.07-2.26-.15-4.55-.3-9.1-.29-9.1-.41-9.1c-.18-3-.32-6.06-.54-9.09a78.24,78.24,0,0,1,0-9.19c.14-3,.32-6.06.24-9.05s-.28-6-.48-9.06c-.44-6-1.08-12.07-1.59-18.13s-1-12.1-1.43-18.16l-1.36-18.16c-.24-3-.44-6.06-.63-9.09a16.39,16.39,0,0,0-.54-4,5.44,5.44,0,0,0-1.93-2.59c-1.91-1.5-4.76-2.33-7.66-3.31l-8.62-2.86q-8.64-2.83-17.31-5.55l-8.68-2.7L313,191.06c-1.44-.41-2.93-.93-4.28-1.22a3.74,3.74,0,0,0-3.46.61,4.68,4.68,0,0,0-1.06,3.64,23.26,23.26,0,0,0,.94,4.33,8.54,8.54,0,0,1,.16,4.65l-.39-.1a8.32,8.32,0,0,0-.61-4.3,23.86,23.86,0,0,1-1.39-4.45,8.32,8.32,0,0,1,0-2.49,4.88,4.88,0,0,1,1.11-2.44,4.29,4.29,0,0,1,2.42-1.39,7.88,7.88,0,0,1,2.6-.06c1.65.25,3.05.66,4.55,1l4.44,1.05c3,.7,5.92,1.41,8.86,2.2q8.85,2.28,17.6,4.87c2.93.84,5.83,1.74,8.74,2.65s6,1.66,9,3.84a9.41,9.41,0,0,1,3.39,4.63,19.5,19.5,0,0,1,.73,5c.19,3,.39,6.06.54,9.09l.95,18.19c.65,12.14,1.23,24.25,1.45,36.44.06,3.05.09,6.08,0,9.15s-.39,6.11-.61,9.13a63.28,63.28,0,0,0-.16,9c.17,3,.41,6.06.62,9.09l.75,9.08.87,9.07.87,9.08.43,4.54.21,2.28a5.93,5.93,0,0,1-.38,3,4.44,4.44,0,0,1-1.1,1.48,5.71,5.71,0,0,1-1.37.87,12.67,12.67,0,0,1-2.5.79c-1.52.37-3.06.64-4.59.88-3.07.47-6.15.76-9.21.92-6.13.32-12.17.43-18.25.57l-4.56.09a28.62,28.62,0,0,1-4.76-.23,12.61,12.61,0,0,1-4.73-1.62,26.68,26.68,0,0,1-3.82-2.84c-4.62-3.95-9.2-7.94-13.7-12Z" transform="translate(-29.16 -126.37)"/><path class="cls-3" d="M303.08,159c.34,3.9.59,7.79.82,11.68l.31,5.84.07,1.46a12.59,12.59,0,0,0,.1,1.31c.09.33.11.32.22.4a3.24,3.24,0,0,0,.89.26c3.83.67,7.7,1.46,11.5,2.39s7.61,1.95,11.36,3.11a156.56,156.56,0,0,1,22,8.44c3.56,1.67,7,3.51,10.51,5.08a34.58,34.58,0,0,0,10.9,3.2l-.73.44a1.17,1.17,0,0,0-.15-1.16,5,5,0,0,0-1.18-1.2,17.16,17.16,0,0,0-1.61-1l-1.69-1q-3.36-2-6.8-3.83c-4.57-2.51-9.2-4.9-13.84-7.29-9.24-4.84-18.53-9.78-27.09-16-1.07-.76-2.14-1.54-3.17-2.36s-2.1-1.61-3.11-2.47a67.84,67.84,0,0,1-6-5.38,20.73,20.73,0,0,1-4.74-7.18,21,21,0,0,1-.95-8.54,61.2,61.2,0,0,1,1.17-8l.78-3.84a7.31,7.31,0,0,1,.94-2.55,5.05,5.05,0,0,1,2.58-2,7.59,7.59,0,0,1,5.21.27c.7.26,1.31.53,1.87.76a13.24,13.24,0,0,0,1.61.54,12.59,12.59,0,0,0,6.7,0l1,3.57s.09,0,.09-.06a.44.44,0,0,0-.09.1,7.46,7.46,0,0,0-.48,1,7.65,7.65,0,0,1-.85,1.59,5.43,5.43,0,0,1-1.54,1.38,6.42,6.42,0,0,1-3.63.89,7.46,7.46,0,0,1-3.38-1,16.1,16.1,0,0,1-4.54-4.11,16,16,0,0,0-3.7-3.59,13.84,13.84,0,0,0-4.93-1.49c-1.82-.32-3.65-.55-5.49-.75a76.46,76.46,0,0,0-11.13-.27l0-.39a64.09,64.09,0,0,1,11.26-.92,56.67,56.67,0,0,1,5.67.3,15.94,15.94,0,0,1,5.84,1.37,18.07,18.07,0,0,1,4.63,3.83,14.86,14.86,0,0,0,3.89,3.19,4.27,4.27,0,0,0,2,.46,3.17,3.17,0,0,0,1.72-.5c.46-.35.57-.52.92-1.41a8.72,8.72,0,0,1,.72-1.55,4,4,0,0,1,.8-1,3.62,3.62,0,0,1,1.33-.7l1,3.56a16.56,16.56,0,0,1-8.75.33,17.14,17.14,0,0,1-2.1-.66c-.66-.25-1.24-.5-1.77-.68a6.08,6.08,0,0,0-1.39-.33,2.53,2.53,0,0,0-1,.13.8.8,0,0,0-.45.34,3.8,3.8,0,0,0-.33,1.12c-.22,1.25-.47,2.6-.73,3.84a59.4,59.4,0,0,0-1.13,7.46,18.46,18.46,0,0,0,.62,6.91,16.8,16.8,0,0,0,3.71,5.84,65.46,65.46,0,0,0,5.52,5.2c1,.86,2,1.65,3,2.47s2,1.61,3,2.39a254.83,254.83,0,0,0,25.86,17.24c4.47,2.67,9,5.24,13.56,7.78l6.83,3.82,1.7,1c.57.32,1.14.62,1.74,1a6,6,0,0,1,1.59,1.52,3.09,3.09,0,0,1,.49,1.17,2.41,2.41,0,0,1-.16,1.38l-.21.46-.52,0A39.81,39.81,0,0,1,360,201c-3.72-1.37-7.27-3-10.88-4.37q-10.8-4.26-21.81-7.91-5.52-1.78-11.1-3.37c-3.74-1-7.46-2-11.26-2.92a5,5,0,0,1-1.82-.78,2.72,2.72,0,0,1-.83-1,3.13,3.13,0,0,1-.31-1.09,14.77,14.77,0,0,1,0-1.62l0-1.46.17-5.85c.13-3.89.28-7.79.51-11.69Z" transform="translate(-29.16 -126.37)"/><path class="cls-3" d="M298.61,164.38a59.73,59.73,0,0,0-6.29,7.59c-1.88,2.66-3.63,5.44-5.54,8.19a57.44,57.44,0,0,1-6.67,7.69c-2.48,2.36-4.88,4.7-7.39,7a98.78,98.78,0,0,1-7.85,6.53,67.74,67.74,0,0,1-8.76,5.26,78.1,78.1,0,0,1-9.26,4.14c-3.17,1.17-6.37,2.2-9.59,3.14l.84-2.15c.33.8.67,1.61,1.07,2.39s.84,1.55,1.32,2.31a34.33,34.33,0,0,0,3.28,4.34l-.24.32a19.69,19.69,0,0,1-4.59-3.39,22.69,22.69,0,0,1-3.61-4.58l-.8-1.37,1.63-.77c3-1.43,6.08-2.79,9.11-4.13l9.11-3.88c3-1.29,6-2.74,8.92-4.21a53.34,53.34,0,0,0,8.54-5,29.8,29.8,0,0,0,6.82-7.13c1.85-2.74,3.32-5.71,5.16-8.5a59.28,59.28,0,0,1,6.25-8,25.24,25.24,0,0,1,8.32-6Z" transform="translate(-29.16 -126.37)"/><path class="cls-3" d="M337.86,339.25c-.69-2.88-1.14-5.76-1.54-8.63s-.71-5.74-1-8.61-.46-5.76-.56-8.65a82,82,0,0,1,0-8.73h0l.06-.79.71.14c1.9.38,3.79.77,5.66,1.22s3.76.86,5.62,1.35l1.07.27v1.28c0,2.23,0,4.46,0,6.68s.16,4.44.31,6.66l.41,6.64c.14,2.22.25,4.44.43,6.66l.11,1.45-1.17.43a11.74,11.74,0,0,1-3.43.68,10.75,10.75,0,0,1-3.4-.4l-1-.28,0-.81c-.06-2.56-.08-5.12.08-7.71l.39-.05c.81,2.46,1.45,4.94,2.05,7.43l-1-1.09a9.32,9.32,0,0,0,2.59-.19,8.65,8.65,0,0,0,2.36-.86l-1.06,1.89c-.45-2.25-.84-4.51-1.09-6.79a60.41,60.41,0,0,1-.39-6.86c0-2.29.06-4.58.2-6.87s.32-4.56.62-6.83l1.06,1.55c-1.81-.66-3.59-1.39-5.39-2.09s-3.57-1.45-5.34-2.21l.77-.65h0a58,58,0,0,1,2,8.56c.48,2.88.79,5.78,1,8.69s.26,5.82.16,8.75a56.58,56.58,0,0,1-.84,8.76Z" transform="translate(-29.16 -126.37)"/><path class="cls-3" d="M349.78,334.15a9,9,0,0,1,3.55-.49,11.53,11.53,0,0,1,1.67.19,5.22,5.22,0,0,1,1.58.51l1.23.64v.63c0,.81-.23,1.69-.22,2.53a4.67,4.67,0,0,0,.66,2.35,8.18,8.18,0,0,0,.74,1l.88.91a16.68,16.68,0,0,1,1.6,1.82c.51.61,1,1.19,1.51,1.81a18.8,18.8,0,0,1,1.29,1.95c.2.33.4.68.59,1.05s.39.71.57,1.1a17.81,17.81,0,0,1,1.05,2.47l-.25.3a8.59,8.59,0,0,1-2.66-.88,11.91,11.91,0,0,1-2.25-1.5,11,11,0,0,1-1.82-2,16.29,16.29,0,0,1-1.26-2.37c-.17-.41-.35-.82-.5-1.24s-.23-.87-.31-1.32c-.14-.9-.22-1.81-.43-2.64a7,7,0,0,0-1-2.36,20.64,20.64,0,0,1-1.47-2.32l1.22,1.27a5.34,5.34,0,0,1-1.64-.3,11.44,11.44,0,0,1-1.55-.63,8.89,8.89,0,0,1-2.89-2.13Z" transform="translate(-29.16 -126.37)"/><path class="cls-3" d="M127.1,413.43c-2.47.35-4.92.58-7.34.75-2.43.37-4.84.67-7.24.93-2.39.44-4.78.85-7.17,1.2-2.36.54-4.73,1-7.13,1.37-2.36.53-4.75,1-7.16,1.44q-3.54.92-7,2c-2.26.91-4.5,1.92-6.71,3s-4.22,2.47-6.3,3.74-4,2.86-6,4.22c-1.9,1.51-3.84,3-5.77,4.42l-5.51,4.71c-1.72,1.69-3.48,3.33-5.27,5a161,161,0,0,0-19,22.13l-.36-.19a74.66,74.66,0,0,1,16.31-25c1.82-1.72,3.66-3.43,5.54-5.09l6-4.57c2.09-1.38,4.18-2.76,6.29-4.08s4.45-2.3,6.66-3.44,4.57-2,6.79-3.06C79,422,81.3,421,83.54,420s4.57-1.9,6.85-2.94c2.32-.89,4.67-1.77,7-2.58,2.41-.64,4.86-1.18,7.32-1.64s5-.55,7.46-.77c2.51,0,5,0,7.5,0,2.49.24,5,.54,7.41,1Z" transform="translate(-29.16 -126.37)"/><path class="cls-3" d="M314,205.65a6.33,6.33,0,0,1,1.31,2.35,6.6,6.6,0,0,1,.29,2.36,11.17,11.17,0,0,1-.92,2.36,3.61,3.61,0,0,0-.08,2.36l-.59-.74c1-.06,2-.39,3-.36a17.74,17.74,0,0,1,2.84.25,9.85,9.85,0,0,1,5.09,3.14l-.09.39a10,10,0,0,1-5.94.66,18.7,18.7,0,0,1-2.67-1c-.88-.38-1.68-1.13-2.54-1.61l-.68-.37.09-.36a3.58,3.58,0,0,0-.1-2.35,11.76,11.76,0,0,1-.94-2.35,6.34,6.34,0,0,1,.27-2.36,6.06,6.06,0,0,1,1.28-2.36Z" transform="translate(-29.16 -126.37)"/><path class="cls-3" d="M350.55,211.77a5.29,5.29,0,0,1,1.75-.68A6.88,6.88,0,0,1,354,211a7.21,7.21,0,0,1,1.68.29,3.91,3.91,0,0,1,1.48.89l1.27,1.15-.36.5a5.6,5.6,0,0,0-1.33,2.62,6.45,6.45,0,0,0,.45,2.87,16.76,16.76,0,0,1,.53,2.78,10.52,10.52,0,0,1,.15,2.74l-.4,4-2.64-2.05-1.77-1.38c-.63-.51-1.3-1-2.06-1.7l0-.39a5.91,5.91,0,0,1,2.87-.72,7.61,7.61,0,0,1,2.86.54l-3,2a8.23,8.23,0,0,1,0-3,10.09,10.09,0,0,1,.76-3,10,10,0,0,0,1.06-2.84,8.39,8.39,0,0,0-.32-3.05l.9,1.66a4.42,4.42,0,0,1-1.52-.16,11,11,0,0,1-1.39-.57,11.43,11.43,0,0,1-1.37-.79,8.71,8.71,0,0,1-1.39-1.16Z" transform="translate(-29.16 -126.37)"/><path class="cls-3" d="M253.73,226.72a7.54,7.54,0,0,1,1.18,2.43,3.2,3.2,0,0,1,0,2.22,3.28,3.28,0,0,0-.41,2.42,4.15,4.15,0,0,0,1.6,1.84l-2.37-.44a5.11,5.11,0,0,1,1.86-1.92,4.73,4.73,0,0,1,2.58-.82,5.25,5.25,0,0,1,1.36.19l.33.1c.09,0,.25.09.24.11a.66.66,0,0,0,.23.2c.2.15.46.26.67.39a.71.71,0,0,1,.25.24c.08.15.28.12.34-.1l.34-.21a.68.68,0,0,1,.34.28.89.89,0,0,1,.11.59,1.89,1.89,0,0,1-.5.91,3.68,3.68,0,0,1-1.31.89,3,3,0,0,1-.79.2.65.65,0,0,0-.27.06l-.18.06-.69.25a7,7,0,0,1-1.35.3c-.49.07-.91.27-1.5.39l-2.34.5,0-.94a12.85,12.85,0,0,0-.09-2.74,7.2,7.2,0,0,0-1.4-2.37,3.25,3.25,0,0,1-.25-2.67,4.19,4.19,0,0,1,1.66-2.43Z" transform="translate(-29.16 -126.37)"/><path class="cls-3" d="M292.56,206.25a8.19,8.19,0,0,1,1,3.06,7.2,7.2,0,0,1,0,1.39,3.94,3.94,0,0,1-.49,1.39,5.56,5.56,0,0,0-.54,1.47,3,3,0,0,0,.16,1.44,18,18,0,0,0,1.62,2.54l1.56,2.83-4-.8a9.51,9.51,0,0,0-1.66-.16,9.87,9.87,0,0,1-1.61-.16l-1.79-.3-2.24-.29-.21-.34a4.48,4.48,0,0,1,1.61-2.07,5.84,5.84,0,0,1,2.39-1.05,5.22,5.22,0,0,1,2.63.1,8.26,8.26,0,0,1,2.37,1.15l-2.41,2a31.32,31.32,0,0,1,.37-3.28,4.1,4.1,0,0,0-.19-1.52,11.43,11.43,0,0,0-.71-1.52,3.78,3.78,0,0,1-.47-1.59,5.38,5.38,0,0,1,.24-1.59,5.23,5.23,0,0,1,1.93-2.82Z" transform="translate(-29.16 -126.37)"/><path class="cls-3" d="M267.75,219.84a9.57,9.57,0,0,1,.94,2.38,13.16,13.16,0,0,1,.39,2.37,9.24,9.24,0,0,1-.06,2.35,13.66,13.66,0,0,1-.76,2.32l-1.79-.83a18.67,18.67,0,0,0,2.88-1.54c.89-.58,1.74-1.29,2.71-1.92a8.54,8.54,0,0,1,3.19-1.28,10.79,10.79,0,0,1,3.5-.22l-2.35,2.65a19.44,19.44,0,0,1-.51-4.05A16.65,16.65,0,0,1,276,220a11.52,11.52,0,0,1,.36-2.18l.39-.1a13.45,13.45,0,0,1,1.35,1.75,21,21,0,0,1,1.05,1.83,18.9,18.9,0,0,1,1.46,3.82l.77,3-3.11-.38c-.85-.1-1.71-.25-2.6-.28l-2.79,0A6.26,6.26,0,0,0,270,228a4.4,4.4,0,0,0-2.06,2l-1,2-.81-2.78a12.22,12.22,0,0,1-.58-2.37,9.25,9.25,0,0,1,.12-2.35,13.85,13.85,0,0,1,.56-2.33,10.64,10.64,0,0,1,1.12-2.31Z" transform="translate(-29.16 -126.37)"/><path class="cls-3" d="M335.52,214.16a6,6,0,0,1,0,4.05,2.6,2.6,0,0,1-.42.83c-.21.29-.41.43-.57.42a1,1,0,0,1-.24,0c-.09,0-.17,0-.2.1s.09.36.32.47a3,3,0,0,0,1.78,0,17.87,17.87,0,0,1,1.95-.48,11.46,11.46,0,0,1,3.75.14l-2.41,2a9.94,9.94,0,0,1,.62-2.25,8.14,8.14,0,0,1,1.35-2.25h.4a8.2,8.2,0,0,1,1.28,2.28,9.91,9.91,0,0,1,.56,2.27l.23,2.08-2.64,0a11.16,11.16,0,0,1-3.63-1,16.52,16.52,0,0,1-1.74-1,5.71,5.71,0,0,0-1.89-.66,3.53,3.53,0,0,1-1.26-.47,2,2,0,0,1-.63-.72,2.56,2.56,0,0,1-.26-1,6.08,6.08,0,0,1,.06-1.33,2.52,2.52,0,0,1,.32-.88,6,6,0,0,1,2.93-2.79Z" transform="translate(-29.16 -126.37)"/></g></g></svg>