<svg id="Layer_1" data-name="Layer 1" xmlns="http://www.w3.org/2000/svg" xmlns:xlink="http://www.w3.org/1999/xlink" viewBox="0 0 495.89 384.63"><defs><style>.cls-1{fill:none;}.cls-2{clip-path:url(#clip-path);}.cls-3{fill:#231f20;}</style><clipPath id="clip-path" transform="translate(-49.7 -105.26)"><rect class="cls-1" x="14.17" y="14.17" width="566.93" height="566.93"/></clipPath></defs><title>grad1</title><g class="cls-2"><g class="cls-2"><path class="cls-3" d="M143.36,376.31a4.85,4.85,0,0,1-3.11.45,6.81,6.81,0,0,1-2.91-1.28,7.43,7.43,0,0,1-2.11-2.41,10.45,10.45,0,0,1-1.07-3,25,25,0,0,1-.22-6.22l.37-6.07q.76-12.13,1.64-24.26t1.8-24.25l.93-12.13.5-6.06a12.67,12.67,0,0,1,.58-3.47,4.3,4.3,0,0,1,.53-1,3.8,3.8,0,0,1,.72-.88l.43-.39c.15-.11.31-.21.47-.31a5.31,5.31,0,0,1,1-.47,11.31,11.31,0,0,1,3.55-.61c1.07,0,2.06,0,3-.12a6.27,6.27,0,0,0,2.29-.54,3.09,3.09,0,0,0,1.38-1.35,13.37,13.37,0,0,0,1.15-5.15l.55-6.05c.76-8.07,1.55-16.14,2.42-24.2l2.57-24.18.64-6.05c.17-2,.62-4.08.08-5.61a3,3,0,0,0-1.58-1.69,10,10,0,0,0-2.69-.77,23.69,23.69,0,0,1-3.08-.66,5,5,0,0,1-2.82-2.06L150,205l.4-.39c5.71-5.67,11.34-11.42,17-17.15s11.25-11.52,16.82-17.32l8.35-8.72c2.77-2.91,5.51-5.83,8.05-8.91,5.09-6.08,9.36-13,10.8-20.6l1.55-8.17,1.21,8.27c1.21,8.22,2.3,16.45,3.45,24.67L221,181.37l.41,3.09a23.82,23.82,0,0,0,.46,2.79,3.26,3.26,0,0,0,.38.87,1.69,1.69,0,0,0,.53.5,5.47,5.47,0,0,0,2.16.58l6.14.48c2.08.16,4.18.37,6.28.6a64,64,0,0,1,12.58,2.62,32.62,32.62,0,0,1,11.51,6.49l-3.33,2.54c-2-4-5.74-7.27-9.45-10.76a136.12,136.12,0,0,1-10.47-11.28,128.09,128.09,0,0,1-9-12.45A125.58,125.58,0,0,1,221.73,154c-1.13-2.3-2.11-4.67-3.12-7s-1.86-4.76-2.65-7.2a124.29,124.29,0,0,1-4-14.79c-.26-1.24-.52-2.5-.67-3.87a11,11,0,0,1,.33-4.31,7.64,7.64,0,0,1,2.6-3.7,8.52,8.52,0,0,1,4-1.74,7.57,7.57,0,0,1,4.41.6,7.44,7.44,0,0,1,3.17,3.06,8,8,0,0,1-.14,8.3l-.67,1-.83-.83a83.18,83.18,0,0,0-26-17.85l.15-.37a78.56,78.56,0,0,1,14.43,7,80.38,80.38,0,0,1,12.82,9.79l-1.5.15a5.9,5.9,0,0,0-.14-6.09,5.24,5.24,0,0,0-2.26-2,5.18,5.18,0,0,0-3-.29,5.64,5.64,0,0,0-4.41,3.78c-.53,2,.05,4.32.65,6.76a116.6,116.6,0,0,0,4.23,14.33c.81,2.36,1.79,4.65,2.73,7s2,4.54,3.17,6.75a121.47,121.47,0,0,0,7.47,12.9,129.92,129.92,0,0,0,8.87,12,133.93,133.93,0,0,0,10.23,10.81c1.81,1.71,3.72,3.42,5.53,5.35a28.14,28.14,0,0,1,4.79,6.6l5,9.89-8.3-7.34a29.07,29.07,0,0,0-10-5.66,58.73,58.73,0,0,0-11.73-2.58c-2-.25-4-.47-6.11-.65l-6.26-.58a9,9,0,0,1-3.76-1.18,5.65,5.65,0,0,1-1.69-1.65,6.83,6.83,0,0,1-.86-2,24.77,24.77,0,0,1-.54-3.35l-.37-3.09-3-24.72c-.95-8.25-2-16.49-2.86-24.74l2.76.1A39.51,39.51,0,0,1,209.47,144a65.75,65.75,0,0,1-7.3,9.85c-2.67,3.07-5.52,5.94-8.38,8.78l-8.55,8.52c-5.69,5.69-11.34,11.43-17,17.16S157,199.83,151.44,205.66l.11-.9c.86,1.38,2.91,1.62,4.9,1.92a11.65,11.65,0,0,1,3.16.8,4.91,4.91,0,0,1,2.53,2.58,8.21,8.21,0,0,1,.45,3.37c-.05,1.07-.14,2-.21,3.07l-.43,6.07-1.76,24.25c-.57,8.09-1.23,16.17-1.9,24.24l-.53,6.06a16.31,16.31,0,0,1-1.58,6.6,6.6,6.6,0,0,1-2.93,2.79,9.75,9.75,0,0,1-3.58.87c-1.12.09-2.16.07-3.11.11a7.77,7.77,0,0,0-2.43.35,1.86,1.86,0,0,0-1.13,1,9.6,9.6,0,0,0-.38,2.5l-.55,6.06-1.15,12.1q-1.12,12.1-2.36,24.2T136,357.93l-.67,6a22.91,22.91,0,0,0-.09,5.9,7.65,7.65,0,0,0,2.57,5,5.13,5.13,0,0,0,5.34,1.1Z" transform="translate(-49.7 -105.26)"/><path class="cls-3" d="M163.63,205.52a168.6,168.6,0,0,1,45.06-12c1.94-.24,3.88-.47,5.82-.65a18.67,18.67,0,0,1,3.17-.15,6.45,6.45,0,0,1,3.74,1.29,4.73,4.73,0,0,1,1.37,1.84,6.69,6.69,0,0,1,.46,1.87c.07.57.08,1,.11,1.53l.09,1.46.15,2.93.05,2.94c.1,7.82-.35,15.6-1,23.34s-1.11,15.48-1.51,23.22c-.2,3.86-.32,7.74-.37,11.6s-.06,7.73,0,11.59a9.55,9.55,0,0,0,1,4.87,3.11,3.11,0,0,0,1.5,1.22,6.64,6.64,0,0,0,2.29.4c1.68,0,3.69-.19,5.6-.32L237,282q11.52-1,23-2.71l-1.83,1.95c.47-6.61.76-13.22,1-19.84s.29-13.25.21-19.88c0-3.32-.08-6.63-.2-10s-.2-6.63-.36-9.95l-.26-5a8.47,8.47,0,0,1,1.25-5.28,6.09,6.09,0,0,1,2.13-1.76,14.74,14.74,0,0,0,2.09-1.22,2.55,2.55,0,0,0,1-1.83,1.4,1.4,0,0,0-.94-1.67l0-.39a1.56,1.56,0,0,1,1.21.73,2.53,2.53,0,0,1,.38,1.35,3.4,3.4,0,0,1-.25,1.37,3.28,3.28,0,0,1-.83,1.17c-1.33,1.23-3,1.82-3.64,3.06a7.32,7.32,0,0,0-.55,4.36l.61,4.93c.39,3.32.77,6.65,1.07,10s.52,6.67.72,10c.35,6.68.52,13.38.43,20.08s-.39,13.39-.9,20.06l-.13,1.74-1.7.21q-11.61,1.42-23.26,2.17c-1.95.13-3.89.24-5.84.32l-2.91.11a24.56,24.56,0,0,1-3.09,0,9.69,9.69,0,0,1-3.37-.81,6.28,6.28,0,0,1-2.8-2.55,8.6,8.6,0,0,1-1-3.33,21.61,21.61,0,0,1,0-3.1c.19-3.89.41-7.78.7-11.65l.92-11.61c.58-7.73,1.17-15.46,1.3-23.2s0-15.47-.61-23.14c-.16-1.92-.29-3.83-.49-5.74l-.13-1.43c-.05-.47-.09-1-.15-1.37a3.9,3.9,0,0,0-.23-.94,1.2,1.2,0,0,0-.35-.46,3.06,3.06,0,0,0-1.7-.47,19.44,19.44,0,0,0-2.63.14c-1.92.15-3.83.34-5.74.54q-5.73.65-11.43,1.51c-3.8.61-7.6,1.26-11.38,2-7.55,1.51-15,3.37-22.53,5.43Z" transform="translate(-49.7 -105.26)"/><path class="cls-3" d="M262.18,271.77a16.49,16.49,0,0,0,4.64-4.74,15.85,15.85,0,0,0,2.36-6,7.92,7.92,0,0,0-.87-5.75,4.19,4.19,0,0,0-2-1.55,2.71,2.71,0,0,0-2.19.05L257,257.52l5.35-6.12q3-3.48,5.83-7.15c1.87-2.43,3.68-4.91,5.38-7.46s3.39-5.12,5-7.75,3.13-5.28,4.62-8l1.6-2.91,1.15,3a48.79,48.79,0,0,1,3,13.15,53.77,53.77,0,0,1,.19,6.71,55,55,0,0,1-.62,6.66l-.08.58-.58,0a39.36,39.36,0,0,0-13.37,1.45l.5-.7c.15,1.77.28,3.53.46,5.3l.53,5.29-.66-.84,16.89,4.76-2,1.62c-.59-4.64-1.13-9.3-1.65-14l-.25-2.24,2.3.24a56.89,56.89,0,0,1,18.46,5.2l-2.65,3.06c-1.81-2.53-3.55-5.1-5.32-7.66s-3.53-5.12-5.25-7.7l-5.19-7.75a81,81,0,0,1-4.93-8.16,26.31,26.31,0,0,1-2.87-9.46,19.54,19.54,0,0,1,0-2.54,10.25,10.25,0,0,1,.5-2.64,6.52,6.52,0,0,1,1.45-2.5,5,5,0,0,1,1.24-.94l.36-.17.44-.14a3.37,3.37,0,0,1,.88-.11,4.18,4.18,0,0,1,2.88,1.24,3.35,3.35,0,0,1,.88,1.39,2.65,2.65,0,0,1-.06,1.84,3.12,3.12,0,0,1-2.57,1.79,7,7,0,0,1-2.61-.22,11.61,11.61,0,0,1-7.49-5.77l.34-.21a11.16,11.16,0,0,0,7.43,4.52,5.44,5.44,0,0,0,2,0c.6-.15,1-.46,1.06-.79a1,1,0,0,0-.48-1,1.94,1.94,0,0,0-1.34-.45,1,1,0,0,0-.27.06.27.27,0,0,1-.11.05l-.16.1a2.44,2.44,0,0,0-.57.5,4.05,4.05,0,0,0-.73,1.58,7.34,7.34,0,0,0-.22,2,18.92,18.92,0,0,0,.17,2.12,23.16,23.16,0,0,0,3,8.12,78.43,78.43,0,0,0,5,7.59l5.39,7.61c1.8,2.54,3.58,5.08,5.33,7.65s3.53,5.11,5.25,7.71l4.39,6.65-7-3.59a52.92,52.92,0,0,0-17-5.3l2-2c.39,4.66.76,9.33,1.07,14l.15,2.4-2.16-.78-16.53-5.89-.64-.23,0-.61-.19-5.32c-.06-1.77-.17-3.54-.25-5.31l0-.57.52-.12a46.67,46.67,0,0,1,6.84-1.22,47.35,47.35,0,0,1,6.94-.21l-.66.55a42.65,42.65,0,0,0,.35-6.49,43.34,43.34,0,0,0-.62-6.44,48.2,48.2,0,0,0-3.86-12.22l2.75.08c-1.29,2.87-2.75,5.66-4.29,8.41s-3.25,5.4-5.06,8-3.7,5.09-5.68,7.54-4.09,4.78-6.25,7.06L262.86,251a5.63,5.63,0,0,1,4.47.1,6.87,6.87,0,0,1,3.16,2.77,8.36,8.36,0,0,1,1.08,3.82,12.66,12.66,0,0,1-.41,3.71,16.77,16.77,0,0,1-3.27,6.38,16,16,0,0,1-5.52,4.3Z" transform="translate(-49.7 -105.26)"/><path class="cls-3" d="M302.68,259.84c.4,3.93.77,7.87,1.08,11.8l-.6-.73a12.23,12.23,0,0,1,5.1,2.36,18.59,18.59,0,0,1,3.81,4.07A44.44,44.44,0,0,1,316.9,287l-1.37-.95a42.72,42.72,0,0,0,12-2.18l5.68-1.94-3.94,4.62c-1.82,2.13-3.68,4.23-5.52,6.34l-5.55,6.34-2.16-2.8a28.75,28.75,0,0,1,10.74-3,27.74,27.74,0,0,1,11,1.35l-1.69,2.29a29.79,29.79,0,0,0-7.15-7.79l1.48-.09-9.62,8.12c-.78.68-1.62,1.37-2.33,2a4.23,4.23,0,0,0-1.36,2.32,30.32,30.32,0,0,0-.39,3l-.33,3.13c-.88,8.34-1.65,16.69-2.25,25.05S313,349.65,312.82,358s-.31,16.69.05,25l-2.13-1.81a82.57,82.57,0,0,1,14.83-.74,77.18,77.18,0,0,1,14.74,2l-2.61,2.3c-.8-7.24-1.05-14.51-1.16-21.74s0-14.43.06-21.62.07-14.37-.26-21.53l-.32-5.37-.41-5.36-.6-5.35-.76-5.34.39-.09c.43,1.75.88,3.5,1.29,5.27l1.05,5.32.86,5.36.65,5.4c.77,7.2,1.21,14.43,1.45,21.64l.64,21.58c.23,7.16.66,14.3,1.37,21.38l.29,3-2.9-.68a86.68,86.68,0,0,0-14-2.05,79.54,79.54,0,0,0-14.14.41l-2.09.25-.05-2.06a245,245,0,0,1,.73-25.29c.68-8.39,1.64-16.74,2.62-25.08s1.92-16.66,2.68-25l.29-3.14c.12-1,.13-2.06.33-3.19a5.47,5.47,0,0,1,.58-1.69,7,7,0,0,1,1.06-1.4c.79-.81,1.56-1.46,2.32-2.2l9.11-8.68.67-.63.82.55a32.6,32.6,0,0,1,8.28,8l2.42,3.38-4.12-1.09a27.4,27.4,0,0,0-9.83-.77,26.58,26.58,0,0,0-9.41,2.73l-8.75,4.52,6.59-7.32,5.63-6.26c1.89-2.08,3.75-4.17,5.65-6.23l1.75,2.67a43.1,43.1,0,0,1-12.94,1.9h-1.06l-.31-.94a45.44,45.44,0,0,0-4.06-9.37,13.16,13.16,0,0,0-7.35-6.18l-.6-.17v-.56c0-3.95,0-7.9.09-11.85Z" transform="translate(-49.7 -105.26)"/><path class="cls-3" d="M265.72,281.68c1.89.31,3.74.75,5.6,1.18s3.68.94,5.51,1.46l.86.25.07,1.06c.3,4.16.49,8.33.5,12.5s-.45,8.33-.81,12.49a102.22,102.22,0,0,0-.34,12.49c.11,4.17.48,8.34.71,12.51s.24,8.33.29,12.5,0,8.34-.22,12.5a205.42,205.42,0,0,1-2.68,24.91h-.4c-.86-8.37-1-16.69-1.09-25,0-4.16.14-8.31.35-12.47s.37-8.31.7-12.47.8-8.31,1-12.47c.09-2.08.13-4.16.1-6.24s-.16-4.16-.33-6.24c-.35-4.16-.82-8.32-.85-12.48s.08-8.31.29-12.48l.94,1.31c-1.75-.73-3.48-1.52-5.2-2.32s-3.43-1.65-5.11-2.6Z" transform="translate(-49.7 -105.26)"/><path class="cls-3" d="M277.73,285.31a14,14,0,0,1,2.54.15,18.34,18.34,0,0,1,2.37.43,21.39,21.39,0,0,1,2.29.61,10.6,10.6,0,0,1,2.2.87c.71.36,1.39.82,2.08,1.26a14.16,14.16,0,0,0,2.16,1.1,13,13,0,0,0,2.31.58,19.36,19.36,0,0,0,2.41.13,36.17,36.17,0,0,1,4.79.13c1.58.11,3.15.18,4.69.44.77.11,1.54.26,2.32.44s1.54.35,2.31.56,1.56.42,2.34.69a16.62,16.62,0,0,1,2.35.9v.4a20,20,0,0,1-4.91,1.16,26.11,26.11,0,0,1-4.92.09,28.23,28.23,0,0,1-4.81-.95c-.79-.22-1.58-.43-2.36-.72s-1.52-.67-2.27-1A17.38,17.38,0,0,0,291,291c-1.58-.32-3.31-.17-4.94-.43a15.07,15.07,0,0,1-4.56-1.75,14.55,14.55,0,0,1-3.95-3.11Z" transform="translate(-49.7 -105.26)"/><path class="cls-3" d="M150.3,378.27c2.4-.41,4.8-.69,7.2-.91s4.82-.33,7.23-.42a124.08,124.08,0,0,1,14.43.29c4.79.46,9.56,1.32,14.35,1.69a141.07,141.07,0,0,0,14.4.33c4.81-.13,9.62-.17,14.41,0l7.19.12c2.39,0,4.78.11,7.17.22,9.56.5,19.1,1.06,28.72,2.07v.4a165.3,165.3,0,0,1-28.87,1.8c-4.81-.1-9.61-.46-14.4-.83-2.4-.2-4.79-.4-7.19-.66s-4.77-.6-7.16-.89a130.41,130.41,0,0,0-14.35-1.23c-4.8-.13-9.62.29-14.41.35-2.4.05-4.79,0-7.18-.13s-4.78-.23-7.17-.39-4.79-.31-7.18-.55-4.79-.44-7.19-.82Z" transform="translate(-49.7 -105.26)"/><path class="cls-3" d="M282.45,384.54a10.05,10.05,0,0,1,4.57-2,5.9,5.9,0,0,1,2.37-.05c.81.16,1.63.46,2.43.59a7.88,7.88,0,0,0,4.68-1,11.7,11.7,0,0,1,2.31-.74c.78-.18,1.55-.37,2.33-.5l2.28,1.76A2,2,0,0,0,302,381l-.09,0-.13,0H302a3.31,3.31,0,0,1,.44,0c.31,0,.63.06.95.09l.95.14,1,.16a15.6,15.6,0,0,1,2.06.55c.33.12.67.22,1,.36l.46.19s.07,0,.05.06,0,0,0,0a.31.31,0,0,0-.09.11.41.41,0,0,0,0,.34.27.27,0,0,0,.1.09c.08,0,0-.11-.07-.17l.11-.39a.6.6,0,0,1,.4,0,.69.69,0,0,1,.14.15.45.45,0,0,1,0,.39.73.73,0,0,1-.14.16l-.07.05-.19.13a5.5,5.5,0,0,1-.55.32,10.62,10.62,0,0,1-1,.48,18.12,18.12,0,0,1-2,.64,7.66,7.66,0,0,1-1,.24c-.36.07-.72.1-1.09.14s-.72,0-1.09,0c-.19,0-.37,0-.58,0l-.33,0-.23,0-.26-.06-.16,0a2.16,2.16,0,0,1-.95-.64,2.31,2.31,0,0,1-.49-1l2.28,1.76c-.79,0-1.59,0-2.38-.07a11,11,0,0,1-2.4-.31,7.91,7.91,0,0,0-4.76-.1c-.77.28-1.52.72-2.29,1a5.85,5.85,0,0,1-2.33.38,10.13,10.13,0,0,1-4.86-1.12Z" transform="translate(-49.7 -105.26)"/><path class="cls-3" d="M341.94,325.25a73.08,73.08,0,0,0,9.13,6c1.59.86,3.19,1.7,4.84,2.41s3.3,1.4,5,2l1.16.39-.11,1.36a11.72,11.72,0,0,0,.36,4.17l-1.43-1.29a75.76,75.76,0,0,0,11.57.56c1.94,0,3.88-.16,5.83-.36,1-.11,1.93-.24,2.92-.4A7.28,7.28,0,0,1,383,340a3.6,3.6,0,0,1,1.9.66,10.72,10.72,0,0,1,2.13,2.49q.88,1.22,1.74,2.46c1.18,1.63,2.29,3.3,3.43,4.95,2.22,3.34,4.46,6.68,6.54,10.12l1.9,3.14L397.3,362a13.73,13.73,0,0,0-7.59-1.36,73.44,73.44,0,0,0-8.15,1.18c-2.81.49-5.68.85-8.55,1.07a83,83,0,0,1-8.64.26l-5.82-.17,4.58-3.63c1.37-1.09,2.72-2.23,4-3.4s2.63-2.34,3.89-3.57c2.51-2.47,4.95-5,7.22-7.73l.43-.51.06-.06,0,0a.08.08,0,0,0,0,.05s0,0,0-.09a5.57,5.57,0,0,0,.26-1c.15-.79.25-1.68.37-2.6.05-.45.12-.92.23-1.44a10.72,10.72,0,0,1,.45-1.47c.32-.9.7-1.78,1.09-2.61a22.83,22.83,0,0,0,2-4.74,5.58,5.58,0,0,0,0-2.37,8.3,8.3,0,0,0-1-2.33l.54.11a3.36,3.36,0,0,1-2.17.25l.05-.39a2.73,2.73,0,0,0,1.69-.56l.28-.22.26.32a9.18,9.18,0,0,1,1.55,2.42,6.88,6.88,0,0,1,.54,3,21.54,21.54,0,0,1-1.4,5.49c-.29.84-.53,1.66-.73,2.48a7.37,7.37,0,0,0-.21,1.14c0,.38-.06.81-.08,1.24,0,.89-.05,1.8-.14,2.78a8.89,8.89,0,0,1-.29,1.64c-.05.16-.13.36-.2.54s-.12.23-.19.34l-.11.17-.05.07-.4.56a80.6,80.6,0,0,1-7.09,8.46c-1.28,1.32-2.59,2.63-4,3.85s-2.8,2.41-4.25,3.55l-1.24-3.8c2.75.13,5.51.19,8.26.08s5.5-.33,8.27-.68a53.14,53.14,0,0,1,8.65-.56,16.64,16.64,0,0,1,8.64,2.58l-1.4,1.32a78.3,78.3,0,0,0-5.81-10.39c-1.08-1.67-2.27-3.26-3.48-4.83-.62-.78-1.25-1.55-1.89-2.3a8.68,8.68,0,0,0-1.92-1.89,1.52,1.52,0,0,0-.93-.19,5.55,5.55,0,0,0-1.22.27c-1,.28-2,.56-2.95.8a49.24,49.24,0,0,1-6.06,1.07,45.34,45.34,0,0,1-12.31-.4l-1.16-.19-.27-1.09a13.88,13.88,0,0,1-.24-5.48l1.05,1.75a49.33,49.33,0,0,1-5.14-2.45,46.53,46.53,0,0,1-4.78-3,42.07,42.07,0,0,1-8.17-7.7Z" transform="translate(-49.7 -105.26)"/><path class="cls-3" d="M437.75,408.16c-6.92-.2-13.76.78-20.75,1.11a58.87,58.87,0,0,1-10.6-.33,37.53,37.53,0,0,1-5.29-1.06A39.47,39.47,0,0,1,396,406c-6.58-3-12.16-7.35-17.84-11.12a65.75,65.75,0,0,0-8.74-5,30.15,30.15,0,0,0-9.41-2.69c-6.56-.75-13.49.57-20.47.94q-5.22.31-10.44.4c-3.47.09-6.95.13-10.42.17-6.94.08-13.87.17-20.8.36s-13.87.5-20.8.74-13.89.57-20.86.53-14-.42-20.9-1.06-13.82-1.37-20.69-1.88c-3.44-.26-6.86-.45-10.29-.6s-6.88-.18-10.33-.21c-13.8-.19-27.72.29-41.67-.72-3.48-.24-7-.58-10.43-1.06l-2.6-.36-2.59-.43a49.38,49.38,0,0,1-5.2-1.05,16.43,16.43,0,0,1-5-2.17,10.4,10.4,0,0,1-2.09-1.89,9.6,9.6,0,0,1-.81-1.16l-.33-.67c-.08-.23-.15-.46-.22-.69a7.19,7.19,0,0,1,.83-5.44,5.24,5.24,0,0,1,2-1.93,3.72,3.72,0,0,1,2.71-.33l-.08.39a3.19,3.19,0,0,0-2.3.5,4.67,4.67,0,0,0-1.54,1.81,6.11,6.11,0,0,0-.37,4.62,5.11,5.11,0,0,0,1.25,1.91,8.58,8.58,0,0,0,1.88,1.45A16.46,16.46,0,0,0,132,381a48,48,0,0,0,5.05.71l2.56.28,2.57.2c3.43.29,6.88.4,10.32.52,13.77.37,27.59-.39,41.53-.4,7,0,14,.24,21,.93s13.84,1.54,20.71,2.29c13.7,1.6,27.47,1.94,41.36,2.08s27.75.19,41.6-.21c3.47-.11,6.92-.28,10.38-.51s6.89-.58,10.31-1,6.81-1,10.28-1.45a51.85,51.85,0,0,1,10.69-.59,31,31,0,0,1,10.57,2.76,58.52,58.52,0,0,1,9.25,5.35c2.9,2,5.69,4.05,8.51,6a66.34,66.34,0,0,0,8.67,5.26,34.82,34.82,0,0,0,9.47,3.09,65.36,65.36,0,0,0,10.15.85c6.86.09,13.9-.37,20.82.62Z" transform="translate(-49.7 -105.26)"/><path class="cls-3" d="M434.74,442.21a49.55,49.55,0,0,0-28.16-12.1,48.52,48.52,0,0,1-5.39-.81,15.61,15.61,0,0,1-5.33-2.23c-3.26-2.2-5.43-5.26-7.62-7.89a45.42,45.42,0,0,0-7.28-7.06,49,49,0,0,0-18.23-8.67,44.45,44.45,0,0,0-20.31-.37c-3.39.68-6.75,1.67-10.11,2.69s-6.72,2.14-10.15,3a99,99,0,0,1-21,2.93c-7.06.3-14.09.5-21.13.74-14.07.5-28.13,1.06-42.25,1.08-7.06,0-14.13-.05-21.2-.34s-14.12-.82-21.15-1.46c-14.06-1.39-28-3.34-41.95-5.6-3.48-.55-7-1.15-10.42-1.75l-5.21-.89c-1.73-.3-3.49-.6-5.25-1-3.48-.84-7.14-2.34-9.45-5.4a10.72,10.72,0,0,1-2.07-5.1,7.07,7.07,0,0,1,1.36-5.22l.32.24a6.56,6.56,0,0,0-.81,4.85,9.77,9.77,0,0,0,2.2,4.42,11.11,11.11,0,0,0,4,2.81,22.61,22.61,0,0,0,4.85,1.43c1.68.31,3.4.51,5.15.71l5.25.6L153.9,403c14,1.62,27.92,3.28,41.9,4.47s27.94,2.1,42,2.29l21.09.19c7,.05,14.08.2,21.12.3l10.56.12c3.52,0,7,.07,10.54,0a82.08,82.08,0,0,0,20.72-2.82c3.36-.95,6.65-2.16,10-3.35s6.66-2.4,10.13-3.3a47.88,47.88,0,0,1,10.7-1.62,45.92,45.92,0,0,1,10.84.91,48.12,48.12,0,0,1,10.37,3.42,44.83,44.83,0,0,1,9.32,5.71,49.08,49.08,0,0,1,7.74,7.71c2.21,2.81,4.15,5.65,6.73,7.47s5.84,2.41,9.32,2.93a48.15,48.15,0,0,1,10.45,2.66A46.17,46.17,0,0,1,435,441.93Z" transform="translate(-49.7 -105.26)"/><path class="cls-3" d="M352.23,384.72A25,25,0,0,1,351,379.2a26.77,26.77,0,0,1-.18-5.44,44.84,44.84,0,0,0,.69-5.51,16.5,16.5,0,0,0-1-5.4c-.28-.89-.62-1.76-.88-2.63s-.49-1.76-.72-2.64a24.6,24.6,0,0,0-1.57-4.56,7.13,7.13,0,0,0-1.1-1.64,8.23,8.23,0,0,0-1.73-1.39c-1.37-.88-3.1-1.53-4.83-2.44l.05-.4a13.25,13.25,0,0,1,5.92-.1,8.5,8.5,0,0,1,3.05,1.32A8,8,0,0,1,351.1,351a13.85,13.85,0,0,1,1.55,6,28.7,28.7,0,0,1,.06,5.64,24.07,24.07,0,0,0,.13,5.57c.27,1.83,1,3.64,1.35,5.5a12.47,12.47,0,0,1,.18,2.79,23.82,23.82,0,0,1-.21,2.8,18.48,18.48,0,0,1-1.54,5.51Z" transform="translate(-49.7 -105.26)"/><path class="cls-3" d="M232.29,292.27a68.18,68.18,0,0,1,1.36,10.27,75,75,0,0,1,0,10.28c-.31,3.42-1,6.84-1.21,10.25a73.53,73.53,0,0,0,.16,10.28c.11,1.72.27,3.44.34,5.16s.07,3.43.08,5.14c0,3.43,0,6.86-.22,10.28a117.5,117.5,0,0,1-3.15,20.4l-.4,0a146.41,146.41,0,0,1-.72-20.58c.11-3.41.43-6.82.71-10.22s.67-6.81,1.17-10.22a66.29,66.29,0,0,0,.74-10.24c0-3.42-.63-6.85-.84-10.26a48.78,48.78,0,0,1-.05-5.13c0-1.71.13-3.41.25-5.12a76.94,76.94,0,0,1,1.36-10.26Z" transform="translate(-49.7 -105.26)"/><path class="cls-3" d="M174.19,285.07c-.42-1.71-.72-3.43-1-5.15-.13-.87-.26-1.73-.35-2.59s-.21-1.72-.28-2.58l1.88,1.45a24.37,24.37,0,0,1-6.52,1,19.53,19.53,0,0,1-6.53-.94l1.87-1.38c-.35,2-.81,4-1.16,6a49.51,49.51,0,0,0-.76,6l-.84-.62A22.79,22.79,0,0,1,167,284.9c2.17-.22,4.27-.35,6.36-.51,4.19-.27,8.36-.5,12.54-.84s8.37-.42,12.58-.51a126.42,126.42,0,0,1,12.74.3l0,.39a111.14,111.14,0,0,1-25.15,4.07,124,124,0,0,1-12.78-.28c-2.14-.19-4.26-.55-6.3-.72a13.12,13.12,0,0,0-6,.68l-.94.38.1-1a51.51,51.51,0,0,0,.24-6.09c0-2-.16-4.08-.18-6.12v-1.59l1.88.21c2,.21,3.9.33,5.85.37a34.91,34.91,0,0,0,5.85-.43l1.93-.3-.05,1.76c0,.86-.1,1.73-.15,2.59s-.13,1.74-.21,2.6a51.51,51.51,0,0,1-.71,5.2Z" transform="translate(-49.7 -105.26)"/><path class="cls-3" d="M165.88,213.41a12.87,12.87,0,0,1,1.84,5.81,7.13,7.13,0,0,1-.27,3c-.07.23-.11.29-.22.24s-.28,0-.19.08.75.28,1.22.32a8.9,8.9,0,0,0,2.94-.27c1-.24,2-.6,3-.78a29.94,29.94,0,0,1,5.88-.5l-2.08,2.4c-.07-1.14-.12-2.29-.16-3.5s-.1-2.44,0-3.84l.37-.17a10.4,10.4,0,0,1,2.63,3.14,13.31,13.31,0,0,1,1.39,3.81l.43,2.23-2.52.17a29.33,29.33,0,0,1-5.9-.44c-1-.17-2-.52-2.95-.75a9.44,9.44,0,0,0-2.94-.24,11.73,11.73,0,0,1-1.72.19,1.88,1.88,0,0,1-1.34-.76,4.14,4.14,0,0,1-.52-1.2,7.51,7.51,0,0,1-.53-2.93,13.12,13.12,0,0,1,1.32-5.95Z" transform="translate(-49.7 -105.26)"/><path class="cls-3" d="M186.55,211.39a7.74,7.74,0,0,1,1.22,1.86,10.12,10.12,0,0,1,.71,2,8.66,8.66,0,0,1,.13,4.2h-3.23c.3-1.48.92-3,.82-4.43a10.82,10.82,0,0,0-.35-2.2,1.84,1.84,0,0,1,.07-1,1.64,1.64,0,0,1,.48-.64,2.79,2.79,0,0,1,.61-.32l1.3-.36a31.7,31.7,0,0,1,4.39-.67,17,17,0,0,1,4.39.14l2.31.34L199,212a21,21,0,0,1-.81,2.71c-.16.46-.36.9-.56,1.35a11.63,11.63,0,0,1-.72,1.34l-.4,0A10.28,10.28,0,0,1,196,216c-.14-.47-.27-.94-.36-1.41a21.19,21.19,0,0,1-.42-2.81l1.91,2a17.47,17.47,0,0,1-4.39.22,30.25,30.25,0,0,1-4.39-.6l-.55-.15c-.2,0-.36-.1-.35-.14s.22-.21.22-.36-.08-.07-.11.06a8.34,8.34,0,0,0-.15,2.18c0,1.46.77,2.89,1.21,4.34h-3.23a13.21,13.21,0,0,1,0-3.82,19.86,19.86,0,0,1,.28-2,14,14,0,0,1,.54-2.09Z" transform="translate(-49.7 -105.26)"/><path class="cls-3" d="M205.77,210.21a7.46,7.46,0,0,1,.71,1.33,8.6,8.6,0,0,1,.5,1.33,15,15,0,0,1,.58,2.69l-2-1.66a7.77,7.77,0,0,1,2.55-.26c.87.06,1.77.29,2.64.37a9.11,9.11,0,0,0,5-1l.6-.28a2,2,0,0,0,.51-.26c.09-.06,0-.14-.22,0s-.33.43-.35.35a4.16,4.16,0,0,1,0-.5l-.05-.58c0-.38-.1-.76-.15-1.14-.27-1.5-.43-3-.63-4.52l1.59,1.26-2.4-.69c-.83-.26-1.68-.49-2.59-.83l-.06-.4a9.38,9.38,0,0,1,2.59-1.25,12.69,12.69,0,0,1,2.79-.51l.91,0,.68,1.31a10.66,10.66,0,0,1,1.2,5.51c0,.48-.07,1-.14,1.42l-.1.7-.16.78a2.71,2.71,0,0,1-.24.69,2.23,2.23,0,0,1-.62.8,2.38,2.38,0,0,1-1.37.54,4.91,4.91,0,0,1-.75-.05l-.66-.09a9.12,9.12,0,0,0-5.1.51c-.81.34-1.6.83-2.41,1.14a7.81,7.81,0,0,1-2.51.52l-2.08.13.06-1.79a15,15,0,0,1,.34-2.73,10.06,10.06,0,0,1,.39-1.37,7.44,7.44,0,0,1,.59-1.38Z" transform="translate(-49.7 -105.26)"/><path class="cls-3" d="M231.89,206.6a3.52,3.52,0,0,1,.91.68,2.55,2.55,0,0,1,.54.69,1.64,1.64,0,0,1,.2,1.45c-.22.5-.83,1-.93,1.52a1.66,1.66,0,0,0,.55,1.42.72.72,0,0,0,.55.32c.16,0,.08-.31,0-.45s-.05-.2.08-.21a1.29,1.29,0,0,1,.62.1,3.51,3.51,0,0,1,1.3.86,5.28,5.28,0,0,1,1.13,1.66l-.09.39a5.25,5.25,0,0,1-1.72,1,3.73,3.73,0,0,1-1.54.23,2.61,2.61,0,0,1-.8-.23,4.17,4.17,0,0,1-1.25-.8,2.43,2.43,0,0,1-.8-1.63,2,2,0,0,1,.33-1.12,1.66,1.66,0,0,0,.36-1.49c-.15-.48-.82-.92-1.12-1.39a1.63,1.63,0,0,1,0-1.46,2.91,2.91,0,0,1,.45-.76,3.8,3.8,0,0,1,.81-.78Z" transform="translate(-49.7 -105.26)"/><path class="cls-3" d="M243.66,209.5a3.87,3.87,0,0,1,.6.93,2.85,2.85,0,0,1,.27.79c.06.47.12.9-.22,1.23s-1,.64-1.19,1.07a1,1,0,0,0,.48,1.19c.2.16.45.26.61.38a3.06,3.06,0,0,1,.42.32c.26.2.53.32.63.53a8.2,8.2,0,0,0,.83,2.42v.4a2.37,2.37,0,0,1-2.06.86,3.2,3.2,0,0,1-2-.85,3.25,3.25,0,0,1-.87-1.79,2.68,2.68,0,0,1-.06-1,3.71,3.71,0,0,1,.3-1,2.44,2.44,0,0,0,.4-1.59c-.09-.5-.64-1.11-.78-1.68a1.63,1.63,0,0,1,.5-1.45,2.4,2.4,0,0,1,.69-.54,3.35,3.35,0,0,1,1-.39Z" transform="translate(-49.7 -105.26)"/><path class="cls-3" d="M250.66,221.4a2.72,2.72,0,0,1-1.23-2.05.91.91,0,0,1,.37-.86c.28-.26.72-.47,1-.72.54-.49.26-1.16-.11-1.9a2.25,2.25,0,0,1-.25-1,6.26,6.26,0,0,1,0-1l.28-1.9,3.12.91c.22.07.29.33.47.7.09.2.19.41.34.68a8.41,8.41,0,0,0,.59,1l0,.4a2.48,2.48,0,0,1-.91.91,2.68,2.68,0,0,1-1.12.36,2.62,2.62,0,0,1-2.13-.74l3.39-1a5,5,0,0,1-.51.73,2.24,2.24,0,0,1-.74.68c-.68.41-1.25.88-1,1.54.13.33.44.69.6,1a.85.85,0,0,1,0,.88,3,3,0,0,1-1.83,1.45Z" transform="translate(-49.7 -105.26)"/><path class="cls-3" d="M242.88,260a5.56,5.56,0,0,1,1.21-.54,7.46,7.46,0,0,1,1.18-.28,9.12,9.12,0,0,1,2.27-.06l1.11.12.39,1.4c.43,1.56-.87,3.26-.75,4.77,0,1.53,1.05,3.08,1.18,4.68.07.79.16,1.6.15,2.39a8.18,8.18,0,0,1-.42,2.35,10.54,10.54,0,0,1-1,2.22,8,8,0,0,1-1.66,2l-.39-.1a10.32,10.32,0,0,1-.66-2.45,13.91,13.91,0,0,1-.24-2.27,9.92,9.92,0,0,1,.15-2.18c.14-.71.34-1.43.5-2.15.28-1.44,1.37-2.94,1.2-4.45,0-1.52-1.6-2.85-1.6-4.31l1.5,1.52a8.59,8.59,0,0,1-2.15-.75,6.94,6.94,0,0,1-1-.63,6.27,6.27,0,0,1-1-.89Z" transform="translate(-49.7 -105.26)"/><path class="cls-3" d="M114.49,395c-2,3.36-4,6.55-5.81,9.86q-1.38,2.46-2.65,5l-2.54,5a30.43,30.43,0,0,1-3,5.18,7.25,7.25,0,0,1-2.6,2.05,11.25,11.25,0,0,1-3,.78c-1.92.28-3.8.56-4.93,1.87A17.41,17.41,0,0,0,88.31,427c-.59.79-1.15,1.61-1.74,2.43l-2,2.27c-.69.72-1.43,1.39-2.16,2.07a46.41,46.41,0,0,1-4.76,3.56c-3.28,2.18-6.64,4.11-10,5.91-6.68,3.57-13.23,7-17.64,13.44l-.36-.17A22.11,22.11,0,0,1,56,446.44a50.38,50.38,0,0,1,9.59-6.94c3.36-2,6.82-3.58,10.09-5.41,1.65-.91,3.22-1.9,4.79-2.89l2.3-1.57L85,427.91c.66-.65,1.34-1.29,2-2s1.23-1.49,2-2.21a6.81,6.81,0,0,1,2.77-1.52c1-.28,2-.44,2.87-.65a7,7,0,0,0,2.46-.95,4.77,4.77,0,0,0,1.56-1.85,50.94,50.94,0,0,0,1.8-5.26,33.74,33.74,0,0,1,2.46-5.36,46.08,46.08,0,0,1,3.17-5,40.52,40.52,0,0,1,8.14-8.45Z" transform="translate(-49.7 -105.26)"/><path class="cls-3" d="M545.2,489.88c-1.46-4.47-4.48-8.12-7.75-11.41s-6.83-6.45-10.27-9.66-7-6.32-10.48-9.44-7.08-6.19-10.66-9.23-7.16-6.12-10.88-8.8a46.48,46.48,0,0,0-5.75-3.66,23.78,23.78,0,0,0-6.12-2.46,11,11,0,0,0-6.25.43c-1.06.36-2.12.81-3.23,1.26s-2.25.87-3.39,1.25a56.54,56.54,0,0,1-21.26,2.66,7.64,7.64,0,0,1-3.71-.85,2.85,2.85,0,0,1-1.22-1.81,7.05,7.05,0,0,1-.06-1.93c.29-4.71.53-9.42.75-14.13L446,393.81c.19-4.72.4-9.41.65-14.16a12.09,12.09,0,0,1,.78-4,7.15,7.15,0,0,1,3.13-3.47,11,11,0,0,1,4.11-1.17,24.76,24.76,0,0,1,3.85,0l3.55.31c1.16.1,2.32.18,3.49.25,2.32.14,4.65.22,7,.25,4.66,0,9.31,0,13.95-.37L485.07,375c-4.78-5.11-9.44-10.38-13.8-16-2.16-2.8-4.21-5.7-6.11-8.72a75.92,75.92,0,0,1-5.1-9.39,60.43,60.43,0,0,1-3.55-10.12c-.36-1.76-.79-3.49-1-5.28-.11-.9-.27-1.73-.32-2.69a6.92,6.92,0,0,1,.06-1.56,5.47,5.47,0,0,1,.51-1.54c1-1.84,2.35-2.88,2.63-4.27s-.43-2.63-1.64-1.86a2.53,2.53,0,0,0-1.15,1.66,1.63,1.63,0,0,0,.13.95,2.45,2.45,0,0,0,.68.86,4.64,4.64,0,0,0,4.62.37l.18.36a5.83,5.83,0,0,1-2.62.74,4.5,4.5,0,0,1-2.73-.74,3.36,3.36,0,0,1-1-1.09,2.72,2.72,0,0,1-.36-1.57,3.78,3.78,0,0,1,1.52-2.66,2.91,2.91,0,0,1,1.63-.57,2.44,2.44,0,0,1,1.7.73,3,3,0,0,1,.82,1.56,4.46,4.46,0,0,1,0,1.63,7,7,0,0,1-1.2,2.72,14.43,14.43,0,0,0-1.26,2.08,3.51,3.51,0,0,0-.22,2c.09.79.31,1.66.46,2.48.28,1.68.8,3.31,1.24,4.95A65.61,65.61,0,0,0,463,339.5a96.27,96.27,0,0,0,11.39,17c4.3,5.38,9.08,10.4,13.78,15.54l3,3.29-4.44.29a137.06,137.06,0,0,1-14.33.26q-3.58-.12-7.16-.41-1.79-.15-3.57-.33l-3.49-.38c-2.2-.2-4.42-.16-5.89.6a3.47,3.47,0,0,0-1.57,1.64,9.54,9.54,0,0,0-.59,2.87c-.36,4.67-.76,9.4-1.17,14.09l-2.56,28.2c-.38,4.7-.75,9.4-1.06,14.11-.1,1.17-.06,2.19.73,2.66a6.72,6.72,0,0,0,3.12.6,45.18,45.18,0,0,0,7-.11,48.25,48.25,0,0,0,13.48-3.27c1.08-.43,2.13-.9,3.18-1.39s2.12-1,3.28-1.51a14.91,14.91,0,0,1,3.72-1,14.34,14.34,0,0,1,3.93.08,25.45,25.45,0,0,1,7.11,2.38,49.07,49.07,0,0,1,6.3,3.74c4,2.81,7.54,5.91,11.11,9s7.1,6.27,10.54,9.52,6.84,6.54,10.16,9.92q2.49,2.52,4.92,5.11c1.61,1.72,3.26,3.43,4.8,5.26,3.08,3.61,5.92,7.76,6.84,12.5Z" transform="translate(-49.7 -105.26)"/><path class="cls-3" d="M474.65,432.15a24.44,24.44,0,0,1-.46-3.56c-.1-1.17-.13-2.34-.12-3.5s0-2.32.12-3.47a22.25,22.25,0,0,1,.41-3.45c.45-2.28,1.27-4.54,1.54-6.85a26.87,26.87,0,0,0,.19-3.48c0-1.16-.13-2.32-.24-3.49a65.58,65.58,0,0,1-.53-7c-.08-2.31-.19-4.62-.1-6.93a71.11,71.11,0,0,1,1.85-13.91h.4a52.77,52.77,0,0,1,2,14,63.16,63.16,0,0,1-.39,7c-.11,1.16-.22,2.32-.4,3.48s-.44,2.32-.66,3.48a34,34,0,0,0-.85,6.94c0,2.33.43,4.7.5,7.05a33.27,33.27,0,0,1-.76,7,31.55,31.55,0,0,1-2.12,6.79Z" transform="translate(-49.7 -105.26)"/><path class="cls-3" d="M422.21,404.55c-.25-2.51-.37-5-.41-7.49s0-5,.05-7.45.18-5,.34-7.44.48-4.93.86-7.39l.89,1.45q-2.29-1.23-4.67-2.36c-1.57-.75-3.19-1.42-4.83-2l-2.92-1.06,3.06-.19a17.07,17.07,0,0,0,7.67-2.48,28.39,28.39,0,0,0,6.19-5.27c1.82-2,3.53-4.13,5.16-6.34s3.18-4.46,4.62-6.78a156.58,156.58,0,0,0,8-14.34c2.42-4.94,4.48-10.07,6.47-15.35l.39.09a61.25,61.25,0,0,1-3.57,16.64A64.57,64.57,0,0,1,441.71,352a75.33,75.33,0,0,1-5.25,6.79c-.91,1.09-1.91,2.14-2.91,3.17s-2.11,2-3.25,2.87a37.08,37.08,0,0,1-7.35,4.59,28.39,28.39,0,0,1-4,1.57,28.72,28.72,0,0,1-4.24.87l.15-1.26L420,372c1.71.47,3.42.95,5.12,1.49l.88.28V375c0,2.49,0,5-.18,7.45s-.4,4.94-.71,7.4-.61,4.93-1,7.39-.85,4.91-1.45,7.35Z" transform="translate(-49.7 -105.26)"/><path class="cls-3" d="M452.32,416.11a9.31,9.31,0,0,1,1-5.47,8.41,8.41,0,0,1,1.86-2.38,6,6,0,0,1,2.84-1.44,7.33,7.33,0,0,1,5.78,1.56,8.07,8.07,0,0,1,1.86,2.16l1.39,2.32a19.07,19.07,0,0,1,2.2,4.87,22.28,22.28,0,0,1,1.07,5.24,20.84,20.84,0,0,1-.37,5.34,16.59,16.59,0,0,1-1.8,5.08l-.39-.06c-.44-1.77-.68-3.45-1-5.09s-.51-3.26-.74-4.86-.31-3.22-.51-4.85-.39-3.26-.57-4.95a10.18,10.18,0,0,0-.51-2.42,3.18,3.18,0,0,0-1.39-1.71,3,3,0,0,0-2.12-.25A7.11,7.11,0,0,0,459,410a17.31,17.31,0,0,0-1.6,1,14.17,14.17,0,0,0-1.56,1.4c-1,1.08-1.95,2.42-3.15,3.83Z" transform="translate(-49.7 -105.26)"/><path class="cls-3" d="M480.84,403.79a18.93,18.93,0,0,1,6.08-2.59,31.47,31.47,0,0,1,6.33-.95c2.11-.05,4.25.26,6.35.06a13.56,13.56,0,0,0,5.84-2l-.08,1.66c-1.08-.41-2.17-.78-3.26-1.15s-2.14-.8-3.18-1.24c-2.09-.86-4.22-1.63-6.28-2.54s-4.09-1.91-6.12-3a65.13,65.13,0,0,1-6.06-3.46l.11-.38a32.8,32.8,0,0,1,7,.81,40.66,40.66,0,0,1,6.71,2.05,52.43,52.43,0,0,1,6.24,3.2c1,.59,2,1.21,2.94,1.9s1.87,1.44,2.78,2.16l1.55,1.21-1.63.45c-2.15.59-4.23,1.07-6.3,1.72a63.52,63.52,0,0,1-6.24,2,38.61,38.61,0,0,1-6.3.56c-2.1,0-4.17.07-6.4-.06Z" transform="translate(-49.7 -105.26)"/></g></g></svg>