<svg id="Layer_1" data-name="Layer 1" xmlns="http://www.w3.org/2000/svg" xmlns:xlink="http://www.w3.org/1999/xlink" viewBox="0 0 506.5 425.94"><defs><style>.cls-1{fill:none;}.cls-2{clip-path:url(#clip-path);}.cls-3{fill:#231f20;}</style><clipPath id="clip-path" transform="translate(-44.35 -83.52)"><rect class="cls-1" x="14.17" y="14.17" width="566.93" height="566.93"/></clipPath></defs><title>grad4</title><g class="cls-2"><g class="cls-2"><path class="cls-3" d="M401.19,199.39a22.55,22.55,0,0,1,3.61-8.57,33.14,33.14,0,0,1,6.42-6.8,70.54,70.54,0,0,1,16.06-9.42,142.92,142.92,0,0,1,35.53-10.84,146.22,146.22,0,0,1,18.56-1.87,76.27,76.27,0,0,1,18.78,1.31,42.44,42.44,0,0,1,9.14,3,28.5,28.5,0,0,1,8.08,5.52,22.6,22.6,0,0,1,5.36,8.33,35.66,35.66,0,0,1,1.88,9.49c.25,3.16.21,6.24.27,9.32l.13,9.22.24,18.46.24,18.46.35,18.45c.28,12.3.7,24.6,1.12,36.9l.3,9.22.38,9.22L528,328l.2,4.61c.06,1.52.14,3.1,0,4.72a12.3,12.3,0,0,1-1.2,4.9,8.85,8.85,0,0,1-3.7,3.72c-3.09,1.65-6.41,1.85-9.45,2.12q-9.21.75-18.41,1.42c-12.27.93-24.55,1.86-36.83,2.71l-36.76,2.4c-3,.31-6.08.77-9.21,1a43.74,43.74,0,0,1-9.69-.11,14.72,14.72,0,0,1-5.1-1.58c-.21-.12-.42-.21-.63-.35l-.61-.46a6.92,6.92,0,0,1-1.16-1,8.15,8.15,0,0,1-1.56-2.69,13.71,13.71,0,0,1-.59-5.39c0-.84.13-1.66.23-2.45l.26-2.23c1.29-12-.33-24.18-.48-36.62,0-3.09,0-6.27.17-9.32l.37-9.23.74-18.44.82-18.44c.28-6.14.56-12.31,1.12-18.47a124.86,124.86,0,0,1,2.9-18.33,30.42,30.42,0,0,1,1.33-4.51,16.86,16.86,0,0,1,2.44-4.06,37.91,37.91,0,0,1,7-6.14l.25.31a39.41,39.41,0,0,0-6.53,6.37,15.67,15.67,0,0,0-2.12,3.92,30.16,30.16,0,0,0-1.09,4.38,137.46,137.46,0,0,0-2.14,18.21c-.36,6.11-.44,12.25-.53,18.4l-.3,18.46-.38,18.45-.19,9.23c-.08,3.09-.09,6.07,0,9.13.2,6.07.7,12.19,1,18.38a127.56,127.56,0,0,1-.16,18.74l-.25,2.35c-.09.74-.17,1.46-.21,2.15A10,10,0,0,0,398,348a3.8,3.8,0,0,0,.73,1.28,3.51,3.51,0,0,0,.57.48l.31.25a2.69,2.69,0,0,0,.38.2,10.91,10.91,0,0,0,3.67,1.1,39.67,39.67,0,0,0,8.73.09c3-.22,6-.6,9.15-.91l36.92-2c12.28-.75,24.56-1.43,36.85-2.11q9.21-.52,18.43-1c3-.15,6.06-.33,8.48-1.56a6.44,6.44,0,0,0,2.8-2.64,9.81,9.81,0,0,0,1.07-4,41.91,41.91,0,0,0,.06-4.5l-.07-4.62-.15-9.23-.15-9.22-.22-9.23c-.29-12.3-.57-24.6-1-36.9L523.84,245,523,226.58l-.81-18.45-.41-9.22c-.13-3.08-.24-6.14-.51-9.12a32,32,0,0,0-1.82-8.54,19.75,19.75,0,0,0-4.61-7c-4.06-4-9.7-6.27-15.46-7.56a72.88,72.88,0,0,0-17.94-1.37,148.08,148.08,0,0,0-53.34,11.23c-5.63,2.38-11.19,4.94-16.06,8.57a31.73,31.73,0,0,0-6.5,6.28,22.39,22.39,0,0,0-4,8.1Z" transform="translate(-44.35 -83.52)"/><path class="cls-3" d="M526.38,181.23a14.4,14.4,0,0,0-3.7-7.4,41.33,41.33,0,0,0-6.37-5.53c-4.69-3.32-9.41-6.82-13.91-10.48a161.32,161.32,0,0,1-13-11.61c-4.14-4.1-8.12-8.34-12.2-12.48-2.05-2.07-4.09-4.08-6.13-6.21a21.5,21.5,0,0,1-2.72-3.58,17.58,17.58,0,0,1-1.69-4.21c-.75-2.91-1.13-5.77-1.59-8.67s-.78-5.8-1-8.72c-.11-1.46-.22-2.92-.27-4.39l-.07-2.19,0-1.1c0-.4,0-.81,0-1.21a11.2,11.2,0,0,1,1.34-5,5.44,5.44,0,0,1,2.38-2.2,5.2,5.2,0,0,1,3.32-.37,9.12,9.12,0,0,1,2.57,1c.7.38,1.3.75,1.84,1a7.1,7.1,0,0,0,3.26.71,7.76,7.76,0,0,0,5.93-2.75l1.83-2.34,1.65,2.5a7,7,0,0,1,1.1,4.17A8.89,8.89,0,0,1,485,97a6.94,6.94,0,0,1-4,1.22,9,9,0,0,1-3.76-1,20.63,20.63,0,0,1-2.86-1.81c-.85-.62-1.64-1.23-2.42-1.76-.38-.26-.78-.47-1.18-.69l-.6-.33-.63-.25a15.76,15.76,0,0,0-5.47-1.08,26.48,26.48,0,0,0-5.83.6,56.86,56.86,0,0,0-5.82,1.64c-1.92.66-3.83,1.41-5.75,2.16l-.18-.35c1.76-1.09,3.56-2.1,5.42-3a41.08,41.08,0,0,1,5.78-2.45A25.45,25.45,0,0,1,464,88.58a17.29,17.29,0,0,1,6.63.76l.82.27.78.35a16.85,16.85,0,0,1,1.54.75c1,.56,1.84,1.16,2.67,1.71,1.65,1.1,3.23,1.91,4.57,1.83A3.88,3.88,0,0,0,484.1,92a4.51,4.51,0,0,0,.54-2,3.21,3.21,0,0,0-.45-1.7l3.48.16a11.74,11.74,0,0,1-9.33,4.31,11.35,11.35,0,0,1-5.11-1.32,18.2,18.2,0,0,0-3.35-1.81,1.42,1.42,0,0,0-.92,0,1.6,1.6,0,0,0-.77.69,7.8,7.8,0,0,0-.94,3.3c0,.32-.05.64-.06,1l0,1.07,0,2.15c0,1.44,0,2.87,0,4.31,0,2.87.08,5.74.25,8.62.07,1.43.19,2.87.31,4.3s.28,2.86.53,4.24a13.57,13.57,0,0,0,1.32,3.91,16.32,16.32,0,0,0,2.44,3.4c.95,1.06,2,2.09,3,3.09s2.07,2,3.13,3c4.22,4,8.73,7.62,13.22,11.26s8.93,7.32,13.33,11.05l6.65,5.56c2.22,1.85,4.45,3.64,6.69,5.57a35.42,35.42,0,0,1,6.1,6.53,13.73,13.73,0,0,1,2.69,8.46Z" transform="translate(-44.35 -83.52)"/><path class="cls-3" d="M464.94,128.55c-4.19,1.73-6.88,5.12-9.43,8.7-1.28,1.79-2.51,3.68-3.91,5.51a40.54,40.54,0,0,1-4.67,5.12A122.24,122.24,0,0,1,436,156.19c-3.63,2.69-7.17,5.5-10.58,8.47l-10.12,8.82a113.07,113.07,0,0,0-9.19,9.41c-.68.84-1.36,1.68-2.07,2.51s-1.26,1.75-1.92,2.62a23.42,23.42,0,0,0-1.75,2.66,24.86,24.86,0,0,0-1.41,2.83,18.64,18.64,0,0,0-1.53,6.07,12.2,12.2,0,0,0,.27,3.12,10.63,10.63,0,0,0,1.27,3l-.3.26a9.57,9.57,0,0,1-2.2-2.78,11.59,11.59,0,0,1-1.08-3.47,17.66,17.66,0,0,1,.59-7.2,24.56,24.56,0,0,1,2.88-6.56c.6-1,1.2-2,1.86-3s1.4-1.86,2.11-2.79a65.67,65.67,0,0,1,10-9.57c1.82-1.39,3.63-2.78,5.53-4s3.83-2.44,5.74-3.66a93,93,0,0,0,11.07-7.71,76.82,76.82,0,0,0,9.31-9.62c1.48-1.63,2.82-3.35,4.27-5s2.76-3.51,4.29-5.24a27.36,27.36,0,0,1,5.17-4.77,12.85,12.85,0,0,1,6.6-2.4Z" transform="translate(-44.35 -83.52)"/><path class="cls-3" d="M401,358.59c-3.12,5.41-2.58,11.25-3.64,17.44-.59,3.07-1.61,6.07-2.17,9.11a76.86,76.86,0,0,0-1.07,9.24c-.11,1.56-.2,3.12-.39,4.67s-.44,3.09-.7,4.62a85.7,85.7,0,0,1-2,9.12c-.42,1.5-.91,3-1.43,4.44a27.85,27.85,0,0,0-1.23,4.11,7.4,7.4,0,0,0,.18,3.88,5,5,0,0,0,2.66,3l-.07.39a5.34,5.34,0,0,1-4.39-2.46,8.7,8.7,0,0,1-1.52-5.09,21,21,0,0,1,.64-4.94c.32-1.52.68-3,1-4.48.73-3,1.62-5.9,2.44-8.85.41-1.48.81-3,1.25-4.44s.94-2.93,1.38-4.41a45.48,45.48,0,0,0,2-9c.32-3.07.06-6.2.12-9.27a38.45,38.45,0,0,1,.36-4.63,31.74,31.74,0,0,1,1-4.71,18,18,0,0,1,2-4.51,10.84,10.84,0,0,1,3.38-3.52Z" transform="translate(-44.35 -83.52)"/><path class="cls-3" d="M518.81,353.56a4.6,4.6,0,0,1,2.08-.26,5.84,5.84,0,0,1,1.9.53,4.35,4.35,0,0,1,1.57,1.15,6.39,6.39,0,0,1,.9,1.81l.28.75h0a4.31,4.31,0,0,0-.2,3.66,16.66,16.66,0,0,1,.57,1.87c.1.62.15,1.23.22,1.85a8.56,8.56,0,0,1-.37,3.65,10.26,10.26,0,0,1-1.86,3.58l-.4,0a10.11,10.11,0,0,1-1.45-3.76,8.57,8.57,0,0,1,.05-3.67c.14-.6.25-1.21.43-1.81a15.45,15.45,0,0,1,.77-1.8,4.31,4.31,0,0,0,.22-3.66l.27.75c-.56-.21-1.15-.33-1.63-.56a4.79,4.79,0,0,1-1.23-.91,10.65,10.65,0,0,1-1.13-1.18,11.75,11.75,0,0,1-1.13-1.59Z" transform="translate(-44.35 -83.52)"/><path class="cls-3" d="M399.06,432.29a173,173,0,0,1,23.65.89c7.85.76,15.65,1.83,23.44,2.83l5.83.72,5.83.66,5.83.55,5.83.44a155.94,155.94,0,0,0,23.28-.13l2.44-.22-1,2.16-6.33,13.6a33.63,33.63,0,0,0-2.65,6.81,12.12,12.12,0,0,0,.59,7,63.88,63.88,0,0,0,3.23,6.68c1.14,2.22,2.35,4.41,3.52,6.62l3.56,6.62a23.54,23.54,0,0,1,2.61,7.27,11,11,0,0,1-1.76,7.76,14.85,14.85,0,0,1-6.11,5.16,20.7,20.7,0,0,1-7.74,1.74,37.07,37.07,0,0,1-7.76-.55A104.46,104.46,0,0,1,460.64,505c-4.76-1.51-9.52-3-14.31-4.37-9.56-2.8-19.22-5.28-28.89-7.66l-14.57-3.42a126.25,126.25,0,0,1-14.63-4.16,69.78,69.78,0,0,1-7.11-3c-1.14-.63-2.31-1.17-3.4-1.89l-1.66-1-1.59-1.14-.79-.57-.76-.63-1.5-1.26-1.4-1.38a13.92,13.92,0,0,1-1.32-1.45c-.42-.51-.85-1-1.25-1.52L366.35,470a10.35,10.35,0,0,1-1.83-3.83,5.38,5.38,0,0,1,.1-2.4,11.62,11.62,0,0,1,.73-1.93l1.57-3.43c1.06-2.27,2.14-4.54,3.3-6.77,2.32-4.45,4.72-8.86,7.35-13.12l.35.19c-2.16,4.51-4.28,9-6.21,13.63-1,2.3-1.94,4.6-2.85,6.91l-1.36,3.48a10,10,0,0,0-.51,1.6,2.67,2.67,0,0,0,0,1.32,8.13,8.13,0,0,0,1.6,2.78l1.09,1.41c.39.45.81.88,1.21,1.31a35.36,35.36,0,0,0,2.58,2.47l1.42,1.09.71.55.75.49a52.6,52.6,0,0,0,13.1,6.11c9.29,3,19.23,4.55,29,7s19.42,5.12,29,8.1c4.79,1.5,9.57,3.07,14.3,4.69a118.53,118.53,0,0,0,14.16,4.24,36.38,36.38,0,0,0,7.15.87,18.06,18.06,0,0,0,6.87-1.16,12.56,12.56,0,0,0,5.42-4.15,9.56,9.56,0,0,0,1.49-3.06,9.72,9.72,0,0,0,.28-3.41,20.07,20.07,0,0,0-2.24-6.84c-1.09-2.22-2.28-4.45-3.43-6.66s-2.31-4.44-3.5-6.63a67.08,67.08,0,0,1-3.38-6.79,16,16,0,0,1-1-3.77,13.12,13.12,0,0,1,.12-4,38.67,38.67,0,0,1,2.39-7.29l5.58-13.94,1.44,1.94a113.81,113.81,0,0,1-23.83.93c-2-.14-3.95-.27-5.93-.45l-5.9-.64-5.88-.75-5.85-.88-23.27-3.78c-7.75-1.19-15.52-2.22-23.37-2.76Z" transform="translate(-44.35 -83.52)"/><path class="cls-3" d="M497.89,435a51.66,51.66,0,0,1-2.45-12.87,60.2,60.2,0,0,1-.11-6.58A43.69,43.69,0,0,1,496,409a63.35,63.35,0,0,1,1.57-6.39l.95-3.13c.31-1.05.63-2.09,1-3.13A39.24,39.24,0,0,1,502,390.2a17.88,17.88,0,0,1,4.15-5.39A14.29,14.29,0,0,1,519.71,382a11.31,11.31,0,0,1,3.39,1.87,8.5,8.5,0,0,1,2.55,3.35,7,7,0,0,1,.5,2.24,5.7,5.7,0,0,1-.38,2.49,4.15,4.15,0,0,1-2.24,2.3,4.33,4.33,0,0,1-3.09,0,5.68,5.68,0,0,1-2.14-1.37,5.38,5.38,0,0,1-.79-1,6.38,6.38,0,0,1-.31-.56l-.22-.51a8.47,8.47,0,0,1-.46-4.11,24.06,24.06,0,0,1,2.11-6.59c1.69-4,3.45-7.93,5.49-11.78l.38.13c-.75,4.29-1.79,8.49-2.89,12.67a27.47,27.47,0,0,0-1.23,5.86,5.24,5.24,0,0,0,.41,2.24l.12.22.09.14a1.89,1.89,0,0,0,.24.26,1.45,1.45,0,0,0,.58.33c.17.06.17,0,.06,0s-.14.13-.08,0a1.42,1.42,0,0,0,.09-.68,2.94,2.94,0,0,0-.14-.92,6.09,6.09,0,0,0-3.39-3.18,11.48,11.48,0,0,0-5.43-.69,13.3,13.3,0,0,0-5.54,1.77,12.47,12.47,0,0,0-4.26,4.28,20.68,20.68,0,0,0-2.38,5.83,71.39,71.39,0,0,0-1.43,12.7c-.26,4.22-.62,8.42-.78,12.67-.09,2.12-.11,4.24-.16,6.38s0,4.29-.09,6.48Z" transform="translate(-44.35 -83.52)"/><path class="cls-3" d="M392.62,320.59a2.92,2.92,0,0,0-1.24.66,4.88,4.88,0,0,0-.86,1.14c-.5.84-.86,1.8-1.32,2.75a7.62,7.62,0,0,1-2,2.75,6.86,6.86,0,0,1-3.29,1.27c-1.11.17-2.12.23-3.15.34l-3.08.25c-2.06.16-4.12.35-6.17.48-4.12.29-8.23.56-12.35.77s-8.24.42-12.36.5c-8.24.2-16.5,0-24.74.3s-16.45,1-24.62,2.11c-16.31,2.35-32.55,4.86-48.55,8.42-4,.94-8,1.77-12,2.77s-7.91,2-11.91,3.07a18.77,18.77,0,0,1-3.32.65,8.34,8.34,0,0,1-3.82-.45,5.53,5.53,0,0,1-1.8-1.15A13.91,13.91,0,0,1,215,346c-.24-.24-.16-.21-.36-.27a3.4,3.4,0,0,0-1.1.13c-4,.9-8.06,1.78-12.11,2.59l.45-1.13c1.29,2.42,2.61,4.83,3.86,7.27l-.34.22c-1.64-2.21-3.21-4.46-4.81-6.69l-.56-.79,1-.34c3.92-1.32,7.85-2.56,11.79-3.79a6.08,6.08,0,0,1,1.95-.35,3.41,3.41,0,0,1,1.32.3,3.72,3.72,0,0,1,1,.72c.52.5.8.9,1,1.06a2.24,2.24,0,0,0,.82.44c1.27.41,3.17,0,5-.64,3.94-1.22,7.89-2.58,11.92-3.59,2-.53,4-1.13,6-1.59l6.07-1.38q3-.65,6.11-1.2c2-.4,4.08-.73,6.13-1,4.09-.69,8.2-1.25,12.3-1.8,8.22-1.06,16.48-1.6,24.73-2.08s16.49-1,24.71-1.67,16.44-1.74,24.68-2.28c4.11-.29,8.23-.46,12.36-.59s8.24-.23,12.36-.3c2.07-.05,4.13,0,6.19-.06h3.1c1,0,2.08,0,3,0a5.59,5.59,0,0,0,2.52-.64,6.16,6.16,0,0,0,1.85-2c.56-.83,1.06-1.76,1.75-2.61a5.1,5.1,0,0,1,1.22-1.14,3.62,3.62,0,0,1,1.58-.53Z" transform="translate(-44.35 -83.52)"/><path class="cls-3" d="M347.17,290.84a144,144,0,0,1,1.4,21.28c0,1.79-.05,3.56-.12,5.36a15.31,15.31,0,0,1-1.13,5.67,9.62,9.62,0,0,1-1.78,2.57,10.16,10.16,0,0,1-2.51,1.83,16.15,16.15,0,0,1-5.64,1.53,34.7,34.7,0,0,1-5.58,0l-1.36-.1a5.21,5.21,0,0,1-1.89-.48,3.07,3.07,0,0,1-1.11-1,3.34,3.34,0,0,1-.53-1.22c-.07-.35-.1-.57-.13-.78l-.1-.66c-.51-3.51-1-7-1.49-10.55s-.83-7.05-1.24-10.58-.67-7.07-.86-10.62c-1-14.18-1.15-28.38-1.44-42.55s-.41-28.36-.13-42.56l0-.87.88-.3a10.14,10.14,0,0,1,5.35-.23,15.63,15.63,0,0,1,4.75,2,46.1,46.1,0,0,1,7.53,6.08l13.75,12.79-2.94.35a11.28,11.28,0,0,0,1.1-8.46,18.19,18.19,0,0,0-4.45-8,50.31,50.31,0,0,0-7.4-6.51,34.75,34.75,0,0,1-4.17-3.53A15.28,15.28,0,0,1,334.1,199c-.27-.43-.49-.88-.73-1.32l-.34-.67-.26-.69c-1.42-3.72-1.44-7.41-1.55-10.84s-.06-6.79-1.08-9.54a5.1,5.1,0,0,0-.43-1,4.49,4.49,0,0,0-.52-.91l-.62-.83-.77-.7a2.78,2.78,0,0,0-1.32-.79.58.58,0,0,0-.34,0,2.35,2.35,0,0,0-.59.42c-.46.43-1.09,1.16-1.66,1.77l-1.73,1.9-3.48,3.8-.36-2.23a1.43,1.43,0,0,0,1.1.09,16.14,16.14,0,0,0,2-.66,8.08,8.08,0,0,1,2.62-.61,3.71,3.71,0,0,1,3,1.4,5.87,5.87,0,0,1,1,2.61c.13.82.19,1.53.29,2.29.17,1.5.32,3,.43,4.53a40.07,40.07,0,0,1-.31,9.15,24.29,24.29,0,0,1-1.17,4.45,20.32,20.32,0,0,1-2.15,4l-.34-.22a20.46,20.46,0,0,0,1.7-4.08,23.79,23.79,0,0,0,.77-4.34,42.08,42.08,0,0,0-.37-8.82c-.2-1.47-.43-2.93-.69-4.4s-.45-3.07-1.05-3.7a1.14,1.14,0,0,0-1-.37,6.14,6.14,0,0,0-1.71.55,17,17,0,0,1-2.27.9,4.56,4.56,0,0,1-.72.15,3.53,3.53,0,0,1-.81.05,4,4,0,0,1-1.74-.48l-1.55-.81,1.19-1.42,3.3-3.95,1.65-2c.58-.66,1-1.27,1.78-2.05a5.52,5.52,0,0,1,1.48-1.09,4,4,0,0,1,2.17-.39,5.83,5.83,0,0,1,3.21,1.47l1.15,1c.34.38.65.79,1,1.19a6.92,6.92,0,0,1,.8,1.29,7.54,7.54,0,0,1,.64,1.35,20.36,20.36,0,0,1,1.28,5.5c.21,1.82.27,3.55.34,5.27.15,3.39.31,6.71,1.43,9.42l.2.52.26.46c.17.31.32.64.51.93a12.6,12.6,0,0,0,1.38,1.67,31.77,31.77,0,0,0,3.69,3.11,54.07,54.07,0,0,1,8,7.1,26,26,0,0,1,3.21,4.57,19.63,19.63,0,0,1,2,5.37,17.33,17.33,0,0,1,.23,5.8,13.62,13.62,0,0,1-2,5.6l-1.27,2-1.67-1.62-13.45-13.1a47.45,47.45,0,0,0-6.8-6c-2.4-1.63-5.14-2.59-7.72-1.87l.9-1.16q-.76,10.58-1.14,21.18c-.19,7.08-.26,14.15-.05,21.23s.56,14.14,1.2,21.19,1.3,14.08,2.16,21.1,1.62,14,2.49,21c.4,3.51.87,7,1.34,10.51l.08.66c0,.22.06.44.08.53s0,.08,0,0a.3.3,0,0,0-.11-.1,9.1,9.1,0,0,0,2,.28,30.35,30.35,0,0,0,5,.12c3.26-.21,6.41-1.3,7.74-4a12.76,12.76,0,0,0,1.1-4.65c.16-1.74.32-3.5.44-5.26.46-7,.57-14.09.38-21.17Z" transform="translate(-44.35 -83.52)"/><path class="cls-3" d="M318.4,183.47a6.77,6.77,0,0,1,.09,4.06,9.41,9.41,0,0,1-2,3.64,14.61,14.61,0,0,1-7.09,4.15c-1.29.4-2.6.68-3.88,1l-3.8.82-7.6,1.66-7.57,1.71L279,202.24l-15.14,3.51c-5.05,1.18-10.1,2.42-15.07,3.94-1.24.36-2.48.74-3.71,1.16s-2.52.79-3.64,1.24A4.05,4.05,0,0,0,240,213a3.55,3.55,0,0,0-.75,1.46,20.22,20.22,0,0,0-.49,3.73,33.49,33.49,0,0,0,.38,7.62,31.91,31.91,0,0,0,.79,3.68,3.78,3.78,0,0,0,.67,1.35,1,1,0,0,0,.83.37,2.51,2.51,0,0,0,1.14-.51c.44-.31.91-.72,1.45-1.15a9,9,0,0,1,4.14-1.89,9.58,9.58,0,0,1,8.57,2.82l-2.28-.26a9.44,9.44,0,0,0,2.28-3.95c.34-.85.66-1.76,1.13-2.73a7.66,7.66,0,0,1,2.26-2.9,5.47,5.47,0,0,1,4.13-.93,11.05,11.05,0,0,1,3.16,1.24c.41.21.78.4,1.11.53a6.26,6.26,0,0,0,1,.29,5.93,5.93,0,0,0,2.06,0,6.61,6.61,0,0,0,3.65-1.89,5.33,5.33,0,0,0,1.09-1.71c.31-.7.56-1.56.9-2.52a15.1,15.1,0,0,1,.62-1.51,7.91,7.91,0,0,1,1-1.6,6.76,6.76,0,0,1,3.4-2.19,5,5,0,0,1,2.35-.08,4.4,4.4,0,0,1,2.28,1.27,7.48,7.48,0,0,1,1.05,1.53,2.12,2.12,0,0,0,.27.39,1.48,1.48,0,0,0,.25.31,4.17,4.17,0,0,0,3.45,1,3.83,3.83,0,0,0,1.73-.67l.33-.28c.09-.11.18-.22.28-.32a4.64,4.64,0,0,0,.53-.91c.33-.69.62-1.55,1-2.49a8.69,8.69,0,0,1,1.73-2.93,5.33,5.33,0,0,1,3.44-1.81,3.92,3.92,0,0,1,2.14.44,4.76,4.76,0,0,1,1.51,1.25,26.13,26.13,0,0,1,1.62,2.46,2.79,2.79,0,0,0,1.37,1.29c1,.37,2.89-.57,4.4-1.42a23.26,23.26,0,0,0,8-7.38l.35.19A22.72,22.72,0,0,1,313,211a20.33,20.33,0,0,1-2.51,1.55,5.44,5.44,0,0,1-3.42.64,5.15,5.15,0,0,1-2.95-2.07,23.57,23.57,0,0,0-1.62-2.1,1.39,1.39,0,0,0-1.24-.55,2.38,2.38,0,0,0-1.31.92c-.85,1-1.06,2.68-1.87,4.72a8.86,8.86,0,0,1-.81,1.55c-.19.26-.4.51-.6.76s-.46.45-.71.66a7.57,7.57,0,0,1-3.36,1.54,7.89,7.89,0,0,1-6.94-1.91A5.2,5.2,0,0,1,285,216a5.6,5.6,0,0,1-.53-.76,4.39,4.39,0,0,0-.53-.77c-.07-.05-.06-.05-.13-.06a1.12,1.12,0,0,0-.42.06,2.47,2.47,0,0,0-1.2.85,4.45,4.45,0,0,0-.46.78,11.48,11.48,0,0,0-.44,1.08c-.29.79-.56,1.73-1,2.75a9.78,9.78,0,0,1-1.93,3,10.3,10.3,0,0,1-6.16,3.07,9.91,9.91,0,0,1-3.51-.16,9.44,9.44,0,0,1-1.7-.57c-.52-.23-1-.49-1.39-.71a7.76,7.76,0,0,0-2-.92,1.39,1.39,0,0,0-.64,0,.66.66,0,0,0-.29.08.51.51,0,0,0-.26.14,3.89,3.89,0,0,0-1.14,1.47c-.38.7-.71,1.54-1.09,2.41a19.57,19.57,0,0,1-1.33,2.74,8.47,8.47,0,0,1-2.34,2.63l-1.3.92-1-1.18a6.57,6.57,0,0,0-5.58-2.14,6.1,6.1,0,0,0-3,1.08c-.51.34-1,.75-1.7,1.13a4.6,4.6,0,0,1-2.51.74,3.31,3.31,0,0,1-2.51-1.36,6.07,6.07,0,0,1-.94-2.17,36,36,0,0,1-.57-4,44.91,44.91,0,0,1,0-7.95c.07-.65.15-1.31.25-2a11.48,11.48,0,0,1,.39-2,4.74,4.74,0,0,1,1.06-1.95A5.29,5.29,0,0,1,241,211c2.51-1,4.93-1.73,7.4-2.63,4.92-1.71,9.82-3.5,14.78-5.15s9.95-3.18,15-4.43q3.79-1,7.64-1.75c2.55-.53,5.11-1.08,7.68-1.52s5.14-.91,7.72-1.29,5.2-.68,7.63-1.16a13.62,13.62,0,0,0,6.57-2.95,7.39,7.39,0,0,0,2.61-6.53Z" transform="translate(-44.35 -83.52)"/><path class="cls-3" d="M252.52,204.87c2.12-1.87,4.33-3.53,6.53-5.21s4.42-3.28,6.64-4.89,4.48-3.16,6.86-4.58a78.74,78.74,0,0,0,7-4.51,52.09,52.09,0,0,0,6.17-5.52c1.91-2,3.71-4.13,5.46-6.21a18.49,18.49,0,0,0,2.16-3.06,15.2,15.2,0,0,0,1.16-3.51c.17-.67.36-1.39.62-2.14a10.85,10.85,0,0,1,1.09-2.29,7.57,7.57,0,0,1,1.84-2.06,6.05,6.05,0,0,1,2.86-1.25l1.89-.29.5,1.84c.51,1.86,1,3.73,1.56,5.6s1.13,3.72,1.71,5.58,1.22,3.72,1.86,5.58l1.95,5.63-.35.2a48.18,48.18,0,0,1-3.51-4.91,59.09,59.09,0,0,1-3-5.27c-.92-1.8-1.71-3.66-2.47-5.53s-1.39-3.79-1.94-5.74l2.39,1.55a3.18,3.18,0,0,0-1.85,1.4,6.72,6.72,0,0,0-.78,1.41c-.23.55-.43,1.15-.66,1.81a18.17,18.17,0,0,1-1.83,4.21,16.52,16.52,0,0,1-3.05,3.4c-2.17,1.84-4.4,3.49-6.59,5.23s-4.33,3.49-6.38,5.38-4,3.89-6.06,5.81a46.41,46.41,0,0,1-6.61,5.16,71.62,71.62,0,0,1-7.24,4.23,53.07,53.07,0,0,1-7.75,3.3Z" transform="translate(-44.35 -83.52)"/><path class="cls-3" d="M302.78,161.68a4.81,4.81,0,0,1,1.1.45,4.58,4.58,0,0,1,.82.5,3.77,3.77,0,0,1,.63.55,2.18,2.18,0,0,1,.49.64,11,11,0,0,1,.36,1.86,1.81,1.81,0,0,0,1.2,1.23,12.4,12.4,0,0,0,1.87.27,6.55,6.55,0,0,1,.82.2c.26.07.53.12.78.2a6.56,6.56,0,0,1,2.77,1.76l-1.06,2.31a3.53,3.53,0,0,1-.15-.39c-.05-.14-.1-.27-.14-.42a6.14,6.14,0,0,1-.19-1l.25-.32a6.59,6.59,0,0,1,1-.06c.16,0,.29,0,.44,0a1.86,1.86,0,0,1,.42.05l4.47.83-5.52,1.48a4.88,4.88,0,0,1-4.07-.58,9.29,9.29,0,0,1-1.56-1.38,18.4,18.4,0,0,1-1.05-1.87,2.68,2.68,0,0,0-1.46-1.22,5.59,5.59,0,0,1-2-.9,3.76,3.76,0,0,1-.87-1.83,3.71,3.71,0,0,1,.3-2.29Z" transform="translate(-44.35 -83.52)"/><path class="cls-3" d="M303.55,159.14a68.56,68.56,0,0,1-3.25-13.64c-.32-2.31-.59-4.63-.7-7-.05-1.17-.06-2.34,0-3.5l.07-1.76a13.17,13.17,0,0,1,.23-1.93,7.23,7.23,0,0,1,.68-2,3.9,3.9,0,0,1,1.66-1.63,3.38,3.38,0,0,1,2.26-.23,4.89,4.89,0,0,1,1.84.91,9,9,0,0,1,2.18,3,15.91,15.91,0,0,0,1.73,2.89,14.49,14.49,0,0,0,5.12,4,17.94,17.94,0,0,0,6.08,1.58l-1.89,2.3a4.43,4.43,0,0,0-2.3-2.38l2.51-.69a10.94,10.94,0,0,1-8.48,5.11,10.75,10.75,0,0,1-5-.87,38.52,38.52,0,0,1-3.87-2,25.71,25.71,0,0,0-3.52-1.57,26.8,26.8,0,0,0-3.8-1,27.38,27.38,0,0,0-8.1-.16l-.12-.38a19.26,19.26,0,0,1,8.41-2A21.49,21.49,0,0,1,304,138c1.36.56,2.58,1.14,3.73,1.53a7.79,7.79,0,0,0,3.2.47,7.6,7.6,0,0,0,5.5-3l1.05-1.47,1.46.78a8,8,0,0,1,3.91,4.79l.8,2.72-2.68-.42a16.22,16.22,0,0,1-6.95-2.94,20.28,20.28,0,0,1-5-5.36A27.5,27.5,0,0,1,307.4,132a6,6,0,0,0-1.88-2.51,2.08,2.08,0,0,0-2.41-.17,2.79,2.79,0,0,0-.72,2.31,12.14,12.14,0,0,0,.15,1.54l.24,1.71c.15,1.14.28,2.29.38,3.43.2,2.29.32,4.58.46,6.87.23,4.6.46,9.2.33,13.91Z" transform="translate(-44.35 -83.52)"/><path class="cls-3" d="M244.74,236.41a40.07,40.07,0,0,0,1.6,12.17l1.59,6a44.25,44.25,0,0,1,1.16,6.3c.29,2.13.25,4.29.34,6.41,0,1.07,0,2.14,0,3.2l0,1.59v1.59c0,1.06,0,2.11.1,3.17s0,2.11.1,3.16l.31,6.35c.1,2.12.2,4.24.2,6.36s-.06,4.24-.18,6.34c-.18,4.23-.43,8.44-.88,12.62-1,8.35-2.11,16.6-3.5,25h-.4a90.14,90.14,0,0,1-.83-12.71c0-4.24.17-8.46.48-12.66s.89-8.36,1.37-12.52,1-8.31,1.56-12.48c.21-2.08.48-4.17.51-6.26.05-1.05.05-2.1,0-3.14s-.09-2.1-.17-3.14a56.66,56.66,0,0,0-.91-6.21l-.72-3c-.12-.51-.22-1-.33-1.52s-.27-1-.39-1.51c-.5-2-.88-4-1.34-6.06s-.86-4.13-1.16-6.26a31.39,31.39,0,0,1-.35-6.51,18.1,18.1,0,0,1,1.4-6.35Z" transform="translate(-44.35 -83.52)"/><path class="cls-3" d="M279.33,234.21a6.08,6.08,0,0,1-1.63.94,6,6,0,0,1-1.49.37,2.46,2.46,0,0,1-1.46-.23,7.33,7.33,0,0,0-1.53-.72l.65-.75a3.44,3.44,0,0,0,.66,2.76,8.86,8.86,0,0,1,.93,2.75,5.76,5.76,0,0,1-.15,2.79,7.62,7.62,0,0,1-1.49,2.85h-.4a7.32,7.32,0,0,1-1.73-2.71,5.67,5.67,0,0,1-.38-2.77,9,9,0,0,1,.69-2.81,3.45,3.45,0,0,0,.43-2.81l-.15-.39.81-.35c.51-.23,1-.63,1.56-.91a2.52,2.52,0,0,1,1.65-.24,4.67,4.67,0,0,1,1.62.53,4.36,4.36,0,0,1,1.46,1.29Z" transform="translate(-44.35 -83.52)"/><path class="cls-3" d="M299.26,228.56a6,6,0,0,0-.91,1.53c-.19.34-.28.64-.71.77s-1.22.24-1.49.7a1.34,1.34,0,0,0,.25,1.52c.17.25.39.48.54.7a3.94,3.94,0,0,1,.38.69,4.41,4.41,0,0,1,.59,1.47,4.79,4.79,0,0,1-.09,1.79,5.7,5.7,0,0,1-.87,2l-.38.11a6,6,0,0,1-1.79-1.3,4.69,4.69,0,0,1-1-1.54,4.78,4.78,0,0,1-.18-1.91,4,4,0,0,1,.61-2.05,4.35,4.35,0,0,0,.71-1.89,8.6,8.6,0,0,1,.08-2.35,2.58,2.58,0,0,1,1.88-1.49,2.28,2.28,0,0,1,2.42.82Z" transform="translate(-44.35 -83.52)"/><path class="cls-3" d="M350.39,232.49a38.12,38.12,0,0,1,1.35,7.29,43.31,43.31,0,0,1,.16,7.29c-.22,2.43-.85,4.85-1.08,7.28a34.22,34.22,0,0,0,.17,7.29,94.22,94.22,0,0,1,.88,14.6,71.91,71.91,0,0,1-2,14.52h-1.32c.11-.63.24-1.26.39-1.9h.4c.2.62.37,1.24.53,1.86h-1.32a78.9,78.9,0,0,1-1-14.59,108,108,0,0,1,1.5-14.51,32.91,32.91,0,0,0,.36-7.28c-.18-2.43-.76-4.86-1-7.28a29.46,29.46,0,0,1,0-3.64c.05-1.21.12-2.42.24-3.63s.27-2.43.49-3.64a26.51,26.51,0,0,1,.83-3.64Z" transform="translate(-44.35 -83.52)"/><path class="cls-3" d="M202.92,341.22l-.83-33.92-.5-16.95L201,273.41l1.75,1.58a92,92,0,0,0-15.45,2.83c-5.1,1.34-10.13,3.05-15.2,4.7s-10.17,3.38-15.38,4.78a96.72,96.72,0,0,1-16,3.1l1.14-2.08a31.69,31.69,0,0,1,2.65,10.32,50,50,0,0,1-.26,10.46c-.81,6.88-2.55,13.5-3.73,20.19a105.92,105.92,0,0,0,.54,40.46l-1.4.27a1,1,0,0,1,0-.38.86.86,0,0,1,.34-.44l.24-.12a2,2,0,0,1,.31-.11l.53-.12,1-.15,2-.21c1.29-.12,2.58-.22,3.87-.32,2.57-.18,5.15-.33,7.72-.47,5.15-.27,10.3-.48,15.45-.7l15.45-.59c5.16-.16,10.29-.29,15.48-.37l1.31,0,.3,1.33,2.82,12.49,1.37,6.25c.47,2.12.84,4.12,1.76,5.18s2.47,1.52,4.41,1.62,4.16,0,6.27,0h6.44l6.42.15c17.15.38,34.22,1.85,51.21,3.73S318.28,401,335.21,403c4.24.54,8.47,1.09,12.7,1.58l6.35.75,6.36.68c4.24.49,8.48.9,12.73,1.33,2.12.23,4.24.39,6.37.57l6.38.57,0,.4c-8.54-.14-17.09-.51-25.62-1l-6.39-.43-6.39-.5c-4.26-.32-8.52-.71-12.77-1.07-8.51-.77-17-1.68-25.49-2.53L284,400.84c-4.24-.44-8.49-.79-12.73-1.18l-12.73-1c-8.48-.6-17-1.14-25.46-1.45l-6.37-.22-6.38-.08-3.18,0c-1.05,0-2.17,0-3.34-.09a13.07,13.07,0,0,1-3.65-.71,7.64,7.64,0,0,1-3.43-2.38,9.77,9.77,0,0,1-1.71-3.54c-.32-1.17-.5-2.21-.72-3.25l-1.3-6.27L200.44,368l1.61,1.31c-5.11,0-10.28,0-15.42,0l-15.44,0q-7.73,0-15.44.2c-2.57.06-5.14.13-7.7.23-1.29.05-2.57.11-3.84.2-.64,0-1.27.1-1.9.17-.31,0-.62.07-.91.12l-.42.08-.14,0s0,0,0,0,.26-.09.23-.63l-1.4.27a119.11,119.11,0,0,1-2-20.46,121.3,121.3,0,0,1,1.46-20.5c1.07-6.77,2.48-13.46,3-20.17a48.88,48.88,0,0,0-.14-10,28.76,28.76,0,0,0-2.76-9.33l-.89-1.79,2-.29A109.62,109.62,0,0,0,155.8,284c5.07-1.51,10.1-3.21,15.18-4.9s10.21-3.32,15.45-4.67a87.81,87.81,0,0,1,16.09-2.71l1.72-.11,0,1.69c.09,5.66.19,11.32.19,17s0,11.32-.08,17-.18,11.32-.38,17-.37,11.32-.68,17Z" transform="translate(-44.35 -83.52)"/><path class="cls-3" d="M217.08,335.73c-.58-5.78-1-11.54-1.44-17.28s-.87-11.49-1.37-17.23l-.64-8.58a36.5,36.5,0,0,0-1.33-8.18,15.22,15.22,0,0,0-1.69-3.66,15.89,15.89,0,0,0-2.71-3.08,20.35,20.35,0,0,1-3.1-3.24,17.62,17.62,0,0,1-2.07-4,47.31,47.31,0,0,0-3.49-7.84,38.87,38.87,0,0,0-5.06-6.8,41.56,41.56,0,0,0-6.34-5.53,26.83,26.83,0,0,1-3.59-2.84,9.72,9.72,0,0,1-1.59-2,11,11,0,0,1-1-2.37,27.43,27.43,0,0,1-.83-4.55c-.18-1.47-.32-2.94-.42-4.42s-.15-3-.15-4.45c0-.75,0-1.47,0-2.24a15.35,15.35,0,0,1,.27-2.51,7.09,7.09,0,0,1,1.17-2.77,6,6,0,0,1,2.54-2,18.31,18.31,0,0,1,2.35-.78l2.08-.59c2.79-.78,5.59-1.48,8.38-2.23l5.29-1.42-3,4.49a16.2,16.2,0,0,0-1.69,2.89,4,4,0,0,0-.31,1.25,2.85,2.85,0,0,0,.16,1.13c.26.71.73,1,1,1a1.11,1.11,0,0,0,.69-.28c.18-.17.16-.18.19-.23l1.37,1.15A57,57,0,0,0,190,226c-1.8.09-3.6.24-5.4.48s-3.58.59-5.37,1l-.12-.38a43.2,43.2,0,0,1,5.22-1.87A44.32,44.32,0,0,1,189.8,224a49.58,49.58,0,0,1,11.23-.6l1.05.07.31,1.08a3.41,3.41,0,0,1,0,1.82,3.79,3.79,0,0,1-.8,1.47,4.49,4.49,0,0,1-2.63,1.47,4,4,0,0,1-1.67-.06,4.35,4.35,0,0,1-1.44-.67,5.35,5.35,0,0,1-1.78-2.24,6.61,6.61,0,0,1-.55-2.61,7.87,7.87,0,0,1,.42-2.49,16.64,16.64,0,0,1,2-3.82l2.25,3.07c-2.78.82-5.54,1.67-8.32,2.45l-2.09.58A11.72,11.72,0,0,0,186,224a1.79,1.79,0,0,0-.84.62,3.27,3.27,0,0,0-.52,1.18,10,10,0,0,0-.25,1.79c0,.67-.08,1.39-.1,2.09-.05,1.4-.05,2.81,0,4.22s.12,2.81.24,4.22a28.88,28.88,0,0,0,.54,4,6.86,6.86,0,0,0,1.58,3.09,28.35,28.35,0,0,0,3,2.78,44.69,44.69,0,0,1,6.13,6.48c.91,1.17,1.75,2.38,2.54,3.63s1.49,2.54,2.18,3.84,1.26,2.65,1.83,4,1,2.75,1.56,4.06a14.67,14.67,0,0,0,2,3.63,18.56,18.56,0,0,0,3.08,2.81,18.62,18.62,0,0,1,3.32,3.11,17.38,17.38,0,0,1,2.4,4,32.24,32.24,0,0,1,2.31,8.73c.41,2.92.64,5.78.87,8.68.38,5.79.6,11.59.55,17.4a168.34,168.34,0,0,1-.92,17.38Z" transform="translate(-44.35 -83.52)"/><path class="cls-3" d="M179.22,250.19c-1.72,1.68-3.39,3.1-4.92,4.72s-3,3.21-4.58,4.83-3.44,3-5.11,4.61a32.75,32.75,0,0,0-4.38,5.36c-.68.94-1.28,2-2,2.92l-1,1.46-1.13,1.39a32.46,32.46,0,0,1-5.39,4.86c-3.95,2.83-8.11,4.22-11.18,7.15l.06-1.4a.84.84,0,0,0,.31.5,1.88,1.88,0,0,0,.78.36,2,2,0,0,0,1.91-.6l.37.15a2.28,2.28,0,0,1-.75,1.31,3.35,3.35,0,0,1-3.11.68,3,3,0,0,1-1.62-1.09l-.41-.55.47-.86a18.23,18.23,0,0,1,5.06-5.45,57.36,57.36,0,0,1,5.83-3.7c.95-.53,1.82-1.17,2.74-1.76.45-.3.87-.66,1.31-1s.89-.65,1.31-1a66.5,66.5,0,0,0,5.24-4.36,27.71,27.71,0,0,0,4.29-5.39,48.76,48.76,0,0,1,3.76-5.95,25.59,25.59,0,0,1,5.32-4.78c.51-.32,1-.64,1.54-.94s1.1-.52,1.64-.78a14.85,14.85,0,0,1,3.46-1Z" transform="translate(-44.35 -83.52)"/><path class="cls-3" d="M199.76,256.3a30.55,30.55,0,0,1,3.11,2.49c1,.87,1.92,1.79,2.83,2.73s1.77,1.9,2.61,2.89a28.37,28.37,0,0,1,2.35,3.1c1.43,2.19,2.55,4.61,4.08,6.71s3.31,4,4.91,6.27a15.77,15.77,0,0,1,2,3.74,11.77,11.77,0,0,1,.54,2.14,8.19,8.19,0,0,0,.31,1.56,1,1,0,0,0,.48.51,3.43,3.43,0,0,0,1.08.37c.47.08,1,.15,1.58.19l1.87.14c2.5.21,5,.38,7.55.5s5.11.15,7.78.31l.08.39a34.73,34.73,0,0,1-15.64,3.07c-.68,0-1.35-.07-2-.13a12.1,12.1,0,0,1-2.26-.43,7.2,7.2,0,0,1-2.45-1.22,5,5,0,0,1-1.69-2.64,10,10,0,0,1-.21-2.29,16.19,16.19,0,0,0-.12-1.69,17.61,17.61,0,0,0-.84-3.5,19.33,19.33,0,0,0-4-6.48c-1.72-1.95-3.85-3.57-5.68-5.42a28.46,28.46,0,0,1-2.52-3c-.79-1-1.55-2.09-2.27-3.17s-1.42-2.19-2.06-3.34a28.32,28.32,0,0,1-1.76-3.58Z" transform="translate(-44.35 -83.52)"/><path class="cls-3" d="M220.5,309.65a8,8,0,0,1,2.8-1.3,7.46,7.46,0,0,1,2.77-.27c.93.11,1.87.68,2.81.89a4.9,4.9,0,0,0,2.78-.24c.92-.35,1.81-.85,2.71-1.1s1.82-.47,2.73-.63a13.2,13.2,0,0,1,5.64.45v2a8.44,8.44,0,0,1-1.32-1l.06-.39a8.83,8.83,0,0,1,1.56-.59l6.1-1.72L243,309.44a11.7,11.7,0,0,1-5.5,1.8c-1,0-1.91-.06-2.86-.13a21.63,21.63,0,0,1-2.89-.69,5.39,5.39,0,0,0-2.82.06,24,24,0,0,1-2.79,1.09,7.57,7.57,0,0,1-2.84-.19,7.24,7.24,0,0,1-2.82-1.33Z" transform="translate(-44.35 -83.52)"/><path class="cls-3" d="M389.1,292.5a9.87,9.87,0,0,1-3.79.89c-1.27.09-2.5,0-3.64.05a12.31,12.31,0,0,0-3.05.27,7.82,7.82,0,0,0-1.21.41,4.77,4.77,0,0,0-1.19.67,17.35,17.35,0,0,0-2.5,2.45,22,22,0,0,0-2.14,3,60.44,60.44,0,0,0-3.17,6.64L367,304.47c1.94-.43,3.88-.68,5.83-1a46.25,46.25,0,0,1,5.87-.55c2-.06,3.94,0,5.92.11a41.38,41.38,0,0,1,6,.79l0,.4a41.08,41.08,0,0,1-5.77,1.76c-1.93.44-3.87.82-5.82,1.09a46.09,46.09,0,0,1-5.87.43c-2,0-3.94.11-5.91,0l-3.34-.17,1.91-2.2a59.74,59.74,0,0,0,4.73-5.63,21.54,21.54,0,0,0,1.82-3.17,28.75,28.75,0,0,1,1.66-3.52,6.31,6.31,0,0,1,3.73-2.64,10.46,10.46,0,0,1,4.21,0c2.57.47,4.63,1.38,7.07,1.91Z" transform="translate(-44.35 -83.52)"/><path class="cls-3" d="M366.81,310.26a3,3,0,0,1,1.24.93,2.83,2.83,0,0,1,.56,1.16,1.74,1.74,0,0,1-.06,1.23,5.38,5.38,0,0,1-.88,1.1l-.76.86-.07-.08a.49.49,0,0,0-.73-.06.9.9,0,0,0-.16.86,4.73,4.73,0,0,0,.34.82,1.44,1.44,0,0,0,.27.48,2,2,0,0,1,.25,1.37,9.44,9.44,0,0,1-.33,2.55l-.33.23a4.08,4.08,0,0,1-2.61-1.09,3.19,3.19,0,0,1-1-2.71,4.24,4.24,0,0,1,.44-1.65,3.15,3.15,0,0,1,1.17-1.15c1-.55,1.6-.85,2.56-1.5l-.84.78c-.19-.36-.49-.7-.64-1a1.2,1.2,0,0,1,0-.91,3.73,3.73,0,0,1,.39-1,7,7,0,0,1,.87-1.16Z" transform="translate(-44.35 -83.52)"/><path class="cls-3" d="M369.15,313.45a7.24,7.24,0,0,1,2.62-1.59,6.93,6.93,0,0,1,2.73-.47c.93.08,1.9.59,2.84.74a4.9,4.9,0,0,0,2.73-.44,17.45,17.45,0,0,1,2.66-1.14,23.72,23.72,0,0,1,2.72-.62,9.9,9.9,0,0,1,2.77,0,12.13,12.13,0,0,1,2.85.71l-.68.46a.31.31,0,0,0,.1.32c.06.05.11,0,.15,0a.23.23,0,0,0,0-.33l-.2-.34a.68.68,0,0,1,.46-.25,1.08,1.08,0,0,1,.53.11,1.05,1.05,0,0,1,.45.44,1.1,1.1,0,0,1,.05.86l0,.05-.66.41a12.18,12.18,0,0,1-2.65,1.24,10,10,0,0,1-2.72.57,25.83,25.83,0,0,1-2.78-.1,16.4,16.4,0,0,1-2.84-.61,4.8,4.8,0,0,0-2.76.1c-.89.31-1.75,1-2.65,1.26a6.79,6.79,0,0,1-2.77.06,7.21,7.21,0,0,1-2.87-1.06Z" transform="translate(-44.35 -83.52)"/><path class="cls-3" d="M365.4,297.29a6.21,6.21,0,0,1-1-2.37,5,5,0,0,1-.11-1.07,2.24,2.24,0,0,1,.17-1.05,9.92,9.92,0,0,0,1-2.16,3,3,0,0,0-.61-2.14,8.48,8.48,0,0,1-1.12-2l-.21-.49a1.22,1.22,0,0,0-.18-.36s0,.09.16.34a1.36,1.36,0,0,0,.85.43c.18,0,.16,0,0-.05s-.38,0-.56,0a8,8,0,0,1-1.17-.16,7.68,7.68,0,0,1-2.46-1l-.07-.39a7.58,7.58,0,0,1,2-1.76,9.55,9.55,0,0,1,1-.56,4.84,4.84,0,0,1,.55-.22,2.88,2.88,0,0,1,3,.8,3,3,0,0,1,.67,1.33,3.3,3.3,0,0,1,.08.73v.61a6.11,6.11,0,0,1-.42,2.46,4.21,4.21,0,0,0-.27,2.35c.15.75.79,1.53,1,2.33a2.57,2.57,0,0,1,0,1.2,5.28,5.28,0,0,1-.33,1.16,4.6,4.6,0,0,1-1.71,2.07Z" transform="translate(-44.35 -83.52)"/><path class="cls-3" d="M366.91,283.3a8.28,8.28,0,0,1-.19-3.68,10.68,10.68,0,0,1,.42-1.71,5.62,5.62,0,0,1,.74-1.59c.66-1,1.72-1.75,2.44-2.66a8.86,8.86,0,0,0,1.48-3.11l.33-1.19,1.33,1.22A15.2,15.2,0,0,1,376,273.3a19.24,19.24,0,0,1,2,3.09,16.46,16.46,0,0,1,1.13,3.5,13,13,0,0,1,.22,3.88l-.36.16a16,16,0,0,1-2.77-2.66,19.75,19.75,0,0,1-2-2.93,26.17,26.17,0,0,1-1.39-3.26,19.61,19.61,0,0,1-1-3.52l1.66,0a6.19,6.19,0,0,0-1.9,2.74c-.35,1.07-.28,2.33-.54,3.4a6.08,6.08,0,0,1-.59,1.52,12.86,12.86,0,0,1-.81,1.44,11.5,11.5,0,0,1-2.31,2.73Z" transform="translate(-44.35 -83.52)"/><path class="cls-3" d="M369.62,269.7a4.69,4.69,0,0,1-1.94,1.31,3.63,3.63,0,0,1-.95.22,1.61,1.61,0,0,1-.94-.1c-.64-.24-1.29-.87-1.94-1a2.53,2.53,0,0,0-1.88.56,5.35,5.35,0,0,1-1.82,1,5.79,5.79,0,0,1-1.84.46,6.8,6.8,0,0,1-4.06-1.31l-.07-.39a6,6,0,0,1,3.58-2.53,5.9,5.9,0,0,1,2,0,5.21,5.21,0,0,1,2,.62,2.79,2.79,0,0,0,2,.33c.64-.15,1.28-.81,1.93-1.08a2.85,2.85,0,0,1,2,.1,4.15,4.15,0,0,1,1.92,1.4Z" transform="translate(-44.35 -83.52)"/><path class="cls-3" d="M145.89,375.59a2.77,2.77,0,0,0-3.14.43,6,6,0,0,0-1.94,2.67c-.34,1-.52,2.3-.79,3.58a11.34,11.34,0,0,1-1.46,4.1,8.45,8.45,0,0,1-3.58,3,35.24,35.24,0,0,1-3.79,1.39c-.58.2-1.13.41-1.63.63l-1.44.79c-.44.34-.93.61-1.35,1a15.57,15.57,0,0,0-1.27,1.17c-3.3,3.36-5.7,8.14-8.53,12.51a23.84,23.84,0,0,1-5.17,6,32.09,32.09,0,0,1-7,3.76,73.91,73.91,0,0,0-6.91,3.07,10.27,10.27,0,0,0-4.66,4.47,11.71,11.71,0,0,0-.61,6.47c.31,2.37.91,4.87,1.2,7.6a43.06,43.06,0,0,1-1.6,15.92,87.5,87.5,0,0,1-5.66,14.56l-.38-.12c1-5.11,2.21-10.1,3-15.1a52,52,0,0,0,.43-14.76c-.27-2.39-.88-4.92-1.1-7.67a20.45,20.45,0,0,1,0-4.28,12.47,12.47,0,0,1,1.36-4.34A11.92,11.92,0,0,1,92.78,419a14.76,14.76,0,0,1,3.71-2.16,55.86,55.86,0,0,1,7.59-2.25,22.44,22.44,0,0,0,6.91-2.79,16.72,16.72,0,0,0,4.89-5.59,65.17,65.17,0,0,0,3.22-7,29.51,29.51,0,0,1,3.9-7.07,14.53,14.53,0,0,1,3.16-2.94c.62-.4,1.29-.73,1.93-1.08a18,18,0,0,1,2-.72c2.57-.79,4.8-1.26,5.91-2.8a10.35,10.35,0,0,0,1.43-3,22.35,22.35,0,0,1,1.45-3.8,7.12,7.12,0,0,1,3.17-3,4.64,4.64,0,0,1,2.15-.44,2.83,2.83,0,0,1,1.94.91Z" transform="translate(-44.35 -83.52)"/><path class="cls-3" d="M131.18,357.13A146.78,146.78,0,0,0,120,374l-5.11,8.82c-1.71,2.95-3.51,5.86-5.49,8.68A90.51,90.51,0,0,1,95.65,407c-2.53,2.35-5.29,4.37-7.75,6.68a27.73,27.73,0,0,0-6.07,7.84c-.79,1.48-1.53,3-2.39,4.55a32.89,32.89,0,0,1-3,4.42,55.37,55.37,0,0,1-7.4,7.44c-2.6,2.26-5.24,4.41-7.71,6.64a50.18,50.18,0,0,0-6.71,7.08c-3.91,5-6,11.33-7,17.88s-1.11,13.39-1.32,20.22l-.4,0a91.23,91.23,0,0,1-1.41-20.6,44.28,44.28,0,0,1,1.89-10.43,33.81,33.81,0,0,1,4.84-9.66c4.34-5.89,10.22-9.84,15.43-14.05A67,67,0,0,0,74,428.39c.55-.61,1.12-1.2,1.61-1.85s1-1.25,1.5-1.93c1-1.35,1.86-2.8,2.83-4.23a29.92,29.92,0,0,1,3.23-4.16A49,49,0,0,1,87,412.66c2.63-2.23,5.38-4.25,7.76-6.62a52.59,52.59,0,0,0,6.47-7.74c1.89-2.8,3.66-5.65,5.37-8.57s3.44-5.81,5.24-8.7,3.59-5.8,5.53-8.64a71.67,71.67,0,0,1,13.53-15.54Z" transform="translate(-44.35 -83.52)"/><path class="cls-3" d="M520.08,401.44a30.52,30.52,0,0,0,2.56,19.48c1.37,2.94,3.15,6,6,8s6.18,3.18,9.31,5.22a23.83,23.83,0,0,1,4.3,3.54,26.44,26.44,0,0,1,3.37,4.45,33.86,33.86,0,0,1,4.22,10.25,47.87,47.87,0,0,1,1,10.82,68,68,0,0,1-1,10.67h-.4c-.74-3.51-1.19-7-1.75-10.44s-1.18-6.79-2-10a47.52,47.52,0,0,0-3.36-9.39,35.47,35.47,0,0,0-2.56-4.27,26.67,26.67,0,0,0-3.19-3.87c-2.37-2.42-5.59-4-8.65-5.85a25.2,25.2,0,0,1-8.18-7.43,20.48,20.48,0,0,1-3.07-10.75,18,18,0,0,1,3.05-10.51Z" transform="translate(-44.35 -83.52)"/><path class="cls-3" d="M157.22,292a6,6,0,0,1-1,1.29,7.32,7.32,0,0,1-1.16.89,4.29,4.29,0,0,1-2.63.76l1-1.07a8.64,8.64,0,0,0-1.17,1.55,3,3,0,0,0-.2,1.79,9.28,9.28,0,0,0,.66,1.8,11.82,11.82,0,0,1,.53,1.7,9.56,9.56,0,0,1,.57,3.35c0,.29,0,.58,0,.89s-.06.54-.05,1a2.58,2.58,0,0,1-.13.89,1.77,1.77,0,0,1-.25.52,2.2,2.2,0,0,1-.2.23,1.5,1.5,0,0,1-.34.25,1,1,0,0,1-1.44-.6.5.5,0,0,1,.15-.52l.36.19c0,.07.13,0,.15-.07l.06-.16c0-.09,0-.25-.25-.21a1.38,1.38,0,0,0-.17.08l-.09,0-.14.07a.21.21,0,0,1-.23,0,3,3,0,0,1-.61-.73,9.2,9.2,0,0,1-.53-.9,6.81,6.81,0,0,1-.68-4,7.17,7.17,0,0,1,.36-2c.25-.66.6-1.3.81-1.92a4.62,4.62,0,0,0,.27-1.91c-.07-.66-.29-1.37-.39-2.08l0-.14,1-.94a4.25,4.25,0,0,1,2.59-.91,7.11,7.11,0,0,1,1.45.05,5.44,5.44,0,0,1,1.59.46Z" transform="translate(-44.35 -83.52)"/><path class="cls-3" d="M176.66,286.46a5.52,5.52,0,0,1-.84,1.57,6.22,6.22,0,0,1-1.1,1.08,3.41,3.41,0,0,1-1.3.66,6.12,6.12,0,0,1-1.61,0l.58-1.06a3.12,3.12,0,0,0,.31,3.12,14.66,14.66,0,0,1,.85,1.47c.21.5.34,1,.51,1.52a6.22,6.22,0,0,1,.21,3.12,8,8,0,0,1-1.3,3.3l-.39.05a7.92,7.92,0,0,1-2-2.92,6.24,6.24,0,0,1-.51-3.09c.05-.53.07-1.06.15-1.59a15.31,15.31,0,0,1,.5-1.64,3.13,3.13,0,0,0-.4-3.1l-.09-.12.66-.94a6.77,6.77,0,0,1,1-1.26,3.75,3.75,0,0,1,1.32-.63,6.19,6.19,0,0,1,1.52-.22,5.31,5.31,0,0,1,1.76.28Z" transform="translate(-44.35 -83.52)"/><path class="cls-3" d="M193.62,284.49c-.24.45-.43.74-.59,1a7.66,7.66,0,0,1-.46.72c-.31.38-.51.76-1,.88s-1.33.15-1.71.59a1.42,1.42,0,0,0-.12,1.61,6.89,6.89,0,0,0,.44.74c.13.22.22.39.32.59a4.7,4.7,0,0,1,.59,1.65,4.87,4.87,0,0,1-.32,2.35,3,3,0,0,1-.85,1.22,1.85,1.85,0,0,1-.66.36,1.56,1.56,0,0,1-.71.08l-.24-.32a2.1,2.1,0,0,0-.68-1.54,3.66,3.66,0,0,1-.72-1.28,5.56,5.56,0,0,1-.15-1.94A3.76,3.76,0,0,1,187,290a4.08,4.08,0,0,1,.63-1.09,5.58,5.58,0,0,0,1.13-1.81,12.15,12.15,0,0,1,.49-2.33,2.69,2.69,0,0,1,1.93-1.29,2.88,2.88,0,0,1,1.24,0,2.41,2.41,0,0,1,1.19.62Z" transform="translate(-44.35 -83.52)"/><path class="cls-3" d="M458.69,265.38a18.19,18.19,0,0,1-1.3-4.29c-.13-.7-.25-1.4-.32-2.09a9.92,9.92,0,0,1-.07-2.11,25.5,25.5,0,0,0,.4-4.35,8.49,8.49,0,0,0-.46-2.1,4.89,4.89,0,0,1-.37-2.69,4.42,4.42,0,0,1,.63-1.42,10.82,10.82,0,0,1,.7-1,12,12,0,0,1,1.63-1.71,14.23,14.23,0,0,1,3.92-2.64,12.75,12.75,0,0,1,9.27-.43l0,.4c-2.78,1.45-5.14,2.61-7.45,3.88-1.15.62-2.35,1.15-3.51,1.82l-1.72,1c-.28.18-.61.36-.87.5a6,6,0,0,0-.59.36,1.87,1.87,0,0,0-.34,1.59,13.15,13.15,0,0,0,.41,2.15c.38,1.42,1.23,2.78,1.65,4.24a8,8,0,0,1,.3,2.22,14.14,14.14,0,0,1-.12,2.25,11.46,11.46,0,0,1-1.41,4.39Z" transform="translate(-44.35 -83.52)"/><path class="cls-3" d="M456.39,209.37c-.08-1.75,0-3.23,0-4.71a26.58,26.58,0,0,1,.35-4.35,9.16,9.16,0,0,0,.21-4.56,8.7,8.7,0,0,0-2.44-3.83l-.71-.7,1.2-1.17a15.27,15.27,0,0,1,3.7-2.48,14.84,14.84,0,0,1,4.19-1.53,16.26,16.26,0,0,1,4.46-.24,12.73,12.73,0,0,1,4.36,1.1v.4c-1.39.62-2.71,1-4,1.52l-3.77,1.3c-1.24.42-2.49.75-3.75,1.1s-2.49.84-3.83,1.19l.5-1.86c.52,1.67.76,3.32,1.25,4.86s1.27,3.07,1.74,4.76a9.91,9.91,0,0,1-3.14,9.37Z" transform="translate(-44.35 -83.52)"/><path class="cls-3" d="M415.26,231.5a8.48,8.48,0,0,1-1.72-4,4,4,0,0,1,.16-2.06,7.54,7.54,0,0,0,.49-2.13,4.19,4.19,0,0,0-.54-2c-.35-.64-.82-1.23-1.17-1.84s-.59-1.25-.89-1.86a11.12,11.12,0,0,1-.72-1.89l-.34-1.37.86-.78a6.59,6.59,0,0,1,3.1-1.57,5.85,5.85,0,0,1,1.72-.07,4.25,4.25,0,0,1,1.65.49l.05.4-1.11,1.08c-.33.34-.63.64-.9,1-.56.6-1,1.17-1.46,1.71l.51-2.15a8.48,8.48,0,0,1,.48,2.12,13.29,13.29,0,0,1,.15,2.19c0,.75-.21,1.52-.29,2.26a5.38,5.38,0,0,0,.18,2.12,11.47,11.47,0,0,0,1.06,2,3.92,3.92,0,0,1,.55,2.11,6.67,6.67,0,0,1-1.42,4.31Z" transform="translate(-44.35 -83.52)"/><path class="cls-3" d="M426.34,281a16.72,16.72,0,0,1-2.15.7c-.68.17-1.34.32-2,.45s-1.29.23-1.94.32a8.71,8.71,0,0,1-2,0l-1.35-.13-.21-.51a3.47,3.47,0,0,1-.15-2.16,5.06,5.06,0,0,1,.76-1.62,8.57,8.57,0,0,1,2.25-2.28,24.3,24.3,0,0,1,2.62-1.66,20,20,0,0,1,2.63-1.1,14.85,14.85,0,0,1,5.62-1.15,12.56,12.56,0,0,1,5.87,1.2v.4a36.08,36.08,0,0,1-5.26,2.18,22.49,22.49,0,0,1-5.32,1.13,21.43,21.43,0,0,1-2.8.24,10.61,10.61,0,0,0-2.67.12,2.27,2.27,0,0,0-1.71,1.52,1.58,1.58,0,0,0,.07,1.06.86.86,0,0,0,.58.5l-1.57-.64a6.15,6.15,0,0,1,2.19-.69,9.66,9.66,0,0,1,2.28,0,9.06,9.06,0,0,1,2.23.53,6.87,6.87,0,0,1,2.06,1.17Z" transform="translate(-44.35 -83.52)"/></g></g></svg>