<svg id="Layer_1" data-name="Layer 1" xmlns="http://www.w3.org/2000/svg" xmlns:xlink="http://www.w3.org/1999/xlink" viewBox="0 0 457.77 368.76"><defs><style>.cls-1{fill:none;}.cls-2{clip-path:url(#clip-path);}.cls-3{fill:#231f20;}</style><clipPath id="clip-path" transform="translate(-69.29 -112.8)"><rect class="cls-1" x="14.17" y="14.17" width="566.93" height="566.93"/></clipPath></defs><title>grad2</title><g class="cls-2"><g class="cls-2"><path class="cls-3" d="M344.72,234.49c-.47,10.25-.54,20.51-.35,30.75q.17,7.69.46,15.38l.58,15.37c.41,10.25.83,20.52,1,30.8s0,20.57-.24,30.84-.61,20.52-.81,30.76-.22,20.48,0,30.69c.51,20.42,2.7,40.81,8,60.49l-1.56-1q8.72-1,17.35-2.62l4.3-.84a9.29,9.29,0,0,0,3.63-1.27,2.44,2.44,0,0,0,.89-1.2,5.49,5.49,0,0,0,.21-1.81l-.11-4.38a326.6,326.6,0,0,0-3-35.05l-.64-4.35c-.25-1.45-.4-2.94-.77-4.26a5.81,5.81,0,0,0-1.95-3.33,2.39,2.39,0,0,0-1.65-.4,2.25,2.25,0,0,0-1.46.84,7.23,7.23,0,0,0-1.33,3.74,22.11,22.11,0,0,0,.08,4.29l.65,8.8,2.74,35.18-.68-.65a78.55,78.55,0,0,0,36.26-8.11c.94-.44,1.85-.94,2.77-1.43a9.69,9.69,0,0,0,2.39-1.56c1.12-1.06,1-3.29,1.25-5.39l2.2-25.16c.3-4.19,1-8.43.06-12.08A8.48,8.48,0,0,0,414,415a7.52,7.52,0,0,0-1.83-1.9,4.84,4.84,0,0,0-4.54-.89l-4.72,1.84,3-4.14a340.83,340.83,0,0,1,39.92-46.28l1.06-1,1.24.81a191.28,191.28,0,0,1,26.53,20.77c4.09,3.85,8,7.86,11.78,12.07,1.92,2.09,3.6,4.35,5.45,5.52a5.85,5.85,0,0,0,3,.94,20.18,20.18,0,0,0,3.76-.23l.11,0h.14a110.91,110.91,0,0,0,14.79-1.11,61.13,61.13,0,0,0,7.15-1.45c.57-.16,1.15-.33,1.64-.51a6.48,6.48,0,0,0,.65-.27s.18-.09.15-.09h0a.52.52,0,0,0-.12.13l-.06.1a1.28,1.28,0,0,0-.11.2,2.31,2.31,0,0,0-.11.47,1.15,1.15,0,0,0,.13.64s.05.06,0,0a1.81,1.81,0,0,0-.17-.19,16.19,16.19,0,0,0-1.26-1.05,45,45,0,0,0-12.59-7.05c-4.57-1.71-9.48-2.93-14.37-4.72a57.74,57.74,0,0,1-13.82-7.33,146.62,146.62,0,0,1-12-9.62l-1.42-1.24c-.45-.35-.87-.73-1.34-1a23.87,23.87,0,0,0-3-1.77,34.61,34.61,0,0,0-6.72-2.42c-4.72-1.22-9.69-1.79-14.73-2.58l-1.79-.28.24-1.77a102.29,102.29,0,0,0,.48-22.4l-.16-1.86h1.84l11.11.05h1.63v1.6A92.06,92.06,0,0,0,458,360.43l-1.39-1.05a9,9,0,0,1,6.61,3l-2.38,1.07-2.74-27.78.81.93a72,72,0,0,0-21.9-2.16l-3.09.17,2.59-1.65A38.56,38.56,0,0,0,450,318.24l.44-.83.46.8,9.23,16-.34.2L450,318.73l.9,0a40,40,0,0,1-13.52,15.62l-.5-1.48a71.82,71.82,0,0,1,22.53,1.68l.72.17.09.76,3.32,27.71.51,4.21-2.89-3.15a6.22,6.22,0,0,0-4.57-2l-1.07,0-.31-1.07a92.45,92.45,0,0,1-3.6-24.25l1.62,1.6-11.11.11,1.68-1.86a105.78,105.78,0,0,1-.2,23.19l-1.55-2.05c4.94.71,10,1.22,15.12,2.46a37.78,37.78,0,0,1,7.53,2.61,24.87,24.87,0,0,1,3.55,2.07c.57.39,1.1.84,1.65,1.27l1.44,1.24c7.59,6.55,15.36,12.87,24.57,16,4.61,1.67,9.54,2.83,14.43,4.67A49.41,49.41,0,0,1,524.09,396a19.7,19.7,0,0,1,1.63,1.39,4.88,4.88,0,0,1,.47.51,4.73,4.73,0,0,1,.52.76,3,3,0,0,1,.34,1.54,2.42,2.42,0,0,1-.2.93,3.29,3.29,0,0,1-.21.42,2,2,0,0,1-.21.28,2.89,2.89,0,0,1-.44.47l-.37.29a6.25,6.25,0,0,1-.66.38,9.62,9.62,0,0,1-1.11.47c-.69.26-1.32.43-2,.61a61.5,61.5,0,0,1-7.68,1.56,107.17,107.17,0,0,1-15.4,1.1l.25,0a23,23,0,0,1-4.56.22,10.07,10.07,0,0,1-4.89-1.61,17.66,17.66,0,0,1-3.51-3.14L483.33,399c-3.62-4.14-7.46-8.1-11.45-11.9A186.71,186.71,0,0,0,446,366.55l2.3-.21a349.1,349.1,0,0,0-40.06,45.38l-1.75-2.3a7.06,7.06,0,0,1,4-.23,8.77,8.77,0,0,1,3.38,1.62,10.33,10.33,0,0,1,2.48,2.67,11.76,11.76,0,0,1,1.38,3.32,21.22,21.22,0,0,1,.41,6.7c-.16,2.17-.42,4.23-.64,6.33l-2.67,25.11c-.12,1.06-.19,2.06-.36,3.2a7.92,7.92,0,0,1-.47,1.74,5,5,0,0,1-1.08,1.62,11.1,11.1,0,0,1-2.88,1.87c-1,.49-1.9,1-2.87,1.42a80.48,80.48,0,0,1-11.92,4.52,83.76,83.76,0,0,1-25.17,3.32l-.63,0-.05-.63-2.57-35.19-.68-8.8-.16-2.21a13.72,13.72,0,0,1,.06-2.31,8.39,8.39,0,0,1,1.61-4.44,3.57,3.57,0,0,1,2.28-1.29,3.76,3.76,0,0,1,2.55.58,5.2,5.2,0,0,1,1.66,1.88,10.75,10.75,0,0,1,.89,2.18c.43,1.51.58,3,.86,4.41l.7,4.36c1.77,11.65,3.07,23.39,3.68,35.18l.2,4.44a7.79,7.79,0,0,1-.27,2.55,4.87,4.87,0,0,1-1.63,2.34,11.29,11.29,0,0,1-4.56,1.8l-4.33.94q-8.69,1.82-17.49,3l-1.21.16-.35-1.19A207,207,0,0,1,344.25,450c-.73-5.12-1.21-10.26-1.64-15.4l-.47-7.73c-.14-2.57-.2-5.15-.3-7.72-.56-20.62.53-41.17,1.2-61.65q.54-15.37.59-30.73c0-10.24-.22-20.49-.44-30.75l-.27-15.4c-.06-5.13,0-10.27,0-15.41.12-10.27.48-20.55,1.4-30.78Z" transform="translate(-69.29 -112.8)"/><path class="cls-3" d="M436.59,478.7a72.79,72.79,0,0,1-1.88-20.56,137.14,137.14,0,0,1,2.65-20.52c.68-3.38,1.42-6.73,2.19-10.08a55.9,55.9,0,0,1,3.05-10.11,24.55,24.55,0,0,1,2.72-4.79,16.27,16.27,0,0,1,9.27-6.37,13.08,13.08,0,0,1,5.91-.14,10.85,10.85,0,0,1,5.25,3,13.08,13.08,0,0,1,3,5,33.64,33.64,0,0,1,1.36,10.62q.09,10.31-.25,20.59c-.1,3.42-.2,6.85-.34,10.27s-.25,6.85-.42,10.28l-.24,5.13-.14,2.57a5.45,5.45,0,0,0,.17,2.26c.38,1.23,2.29,1.21,4,1.47l5.08.63c3.38.38,6.82.95,10.05.7a14.06,14.06,0,0,0,2.35-.39c.2,0,.38-.11.57-.16a1,1,0,0,0,.21-.08l.16-.07a2.5,2.5,0,0,0,.58-.59,11,11,0,0,0,1.31-4.35,64.27,64.27,0,0,0,.29-10c-.1-3.4-.33-6.77-.45-10.26,0-.44,0-.9,0-1.36l0-1.28,0-2.57.09-5.13L493.4,432l.24-10.26c.05-1.74.06-3.37.14-5.19a15.26,15.26,0,0,1,.39-2.93,6.59,6.59,0,0,1,1.72-3.22,5.55,5.55,0,0,1,1.72-1.14,6.7,6.7,0,0,1,.93-.3,5.67,5.67,0,0,1,1-.16,13.44,13.44,0,0,1,3,.29,5.78,5.78,0,0,0,1,.08,6.56,6.56,0,0,0,1-.06,12.15,12.15,0,0,0,2.11-.51c1.47-.48,3-1.19,4.73-1.81a12.22,12.22,0,0,1,6.06-.88,7.93,7.93,0,0,1,3.21,1.2,8.08,8.08,0,0,1,2.42,2.38,13.77,13.77,0,0,1,2,5.65,32.93,32.93,0,0,1,.33,5.45l0,5.13c-.14,13.69-.25,27.38-.62,41.07l0,1.14-1.05.08a19.41,19.41,0,0,0-6.83,2.09c-2.22,1.08-4.37,2.4-6.63,3.59a29.5,29.5,0,0,1-7.21,2.84,12.75,12.75,0,0,1-7.68-.4l.14-.38a12.46,12.46,0,0,0,7.28-.22,28,28,0,0,0,6.67-3.2c2.12-1.34,4.21-2.79,6.49-4a21.52,21.52,0,0,1,7.5-2.71l-1.09,1.22c-.47-13.68-.69-27.37-.93-41.06l-.06-5.14a29.49,29.49,0,0,0-.35-4.79,9.7,9.7,0,0,0-1.42-3.92,4,4,0,0,0-2.79-1.74,8.3,8.3,0,0,0-4,.66c-1.48.52-3.07,1.26-4.85,1.84a15.75,15.75,0,0,1-2.88.68,10.25,10.25,0,0,1-1.58.09,8.79,8.79,0,0,1-1.58-.13,12,12,0,0,0-2.09-.28,1.2,1.2,0,0,0-.28,0c-.09,0-.21.05-.29.09a1.11,1.11,0,0,0-.42.26c-.5.37-.87,1.84-1,3.41s-.15,3.38-.23,5.07l-.43,10.26-.89,20.44c0,6.75.48,13.71-.7,20.72a12.75,12.75,0,0,1-2,5.28,4.35,4.35,0,0,1-1.29,1.14,6.46,6.46,0,0,1-.82.32l-.68.16a16.83,16.83,0,0,1-2.72.33c-3.63.11-7-.63-10.37-1.14l-5.09-.78c-.86-.15-1.66-.22-2.59-.45a3.92,3.92,0,0,1-1.39-.63,2.82,2.82,0,0,1-1-1.31,6.76,6.76,0,0,1-.23-2.81l.16-2.56.28-5.12c.14-3.42.24-6.83.31-10.25s.05-6.84,0-10.25c-.13-6.84-.41-13.67-.8-20.49a31,31,0,0,0-1.68-9.59,10.36,10.36,0,0,0-2.36-3.68,7.2,7.2,0,0,0-3.63-1.91,9.52,9.52,0,0,0-4.27.14,13,13,0,0,0-4,1.87,16.93,16.93,0,0,0-5.64,7.24,59.35,59.35,0,0,0-3,9.48q-1.28,4.95-2.44,9.93a157.21,157.21,0,0,0-3.56,20,90.55,90.55,0,0,0-.52,10.15,84.9,84.9,0,0,0,.77,10.18Z" transform="translate(-69.29 -112.8)"/><path class="cls-3" d="M450.06,377.29c-1.64.79-3.18,1.32-4.51,2a13.17,13.17,0,0,0-1.79,1c-.52.39-1,.76-1.44,1.18a5.35,5.35,0,0,0-1.27,1.52,3.66,3.66,0,0,0,.42,4.21,3.86,3.86,0,0,0,1.84,1.11,5.9,5.9,0,0,0,2,.15,5.68,5.68,0,0,0,1.76-.41,2.61,2.61,0,0,0,1.12-.85.59.59,0,0,0,.11-.26,1,1,0,0,0,0-.29,9.18,9.18,0,0,0-.2-.94l-.27-1.16c-.19-.74-.35-1.46-.57-2.1a4.55,4.55,0,0,0-.91-1.6,3.35,3.35,0,0,0-2-.87l-.1-.39a3.54,3.54,0,0,1,2.93-.61,5.21,5.21,0,0,1,2.72,1.78,11.38,11.38,0,0,1,1.57,2.45c.2.41.38.82.54,1.22a7.14,7.14,0,0,1,.48,1.48,4.42,4.42,0,0,1-.08,2.21,4.59,4.59,0,0,1-1.13,1.9,6.24,6.24,0,0,1-3.16,1.66,6.73,6.73,0,0,1-5.94-1.47,9.41,9.41,0,0,1-2.9-4.81,11.33,11.33,0,0,1-.43-2.85,6,6,0,0,1,.73-3,5.87,5.87,0,0,1,2.23-2.22,8.29,8.29,0,0,1,2.78-1,9.54,9.54,0,0,1,5.43.6Z" transform="translate(-69.29 -112.8)"/><path class="cls-3" d="M415.35,397.78l-.27-29-.39-29q-.22-14.49-.59-29l-.75-29a25,25,0,0,0-.77-6.73A10.89,10.89,0,0,0,409,270c-3.38-2.84-8-4.44-12.38-6.49a230.6,230.6,0,0,1-25.81-13.68c-4.16-2.55-8.23-5.18-12.23-8a18,18,0,0,1-5.56-5.68,22,22,0,0,1-2-7.54,225.27,225.27,0,0,1-2.22-29.1l0-2.53,2.1,1.36a422.17,422.17,0,0,1,36.18,26.28q8.69,7,17.05,14.45t16.33,15.24l-1,.51c-.75-5.66-3.4-10.91-6.67-15.61a155.44,155.44,0,0,0-11.07-13.35c-7.69-8.72-15.49-17.34-23.24-26l-23.31-25.93-23.27-26,2.85-1a181.78,181.78,0,0,0,4.29,45l.38,1.73-1.78.5-4.32,1.21-2.16.61-2.13.72-4.25,1.44-4.18,1.67-2.09.83-2.05.93-4.09,1.87-4,2-2,1-2,1.11-3.92,2.21-3.85,2.37-1.92,1.18-1.88,1.25L289,217.11c-4.93,3.47-9.84,7-14.56,10.75-9.51,7.45-18.56,15.52-27.58,23.64a20.23,20.23,0,0,0-2.9,2.89,4.11,4.11,0,0,0-.66,1.37,8.43,8.43,0,0,0-.22,1.8l0,9.06,0,18.24L240.55,283c12.57-3.44,25.09-6.88,37.15-11.54a151.58,151.58,0,0,0,17.59-8A139,139,0,0,0,311.58,253a193.68,193.68,0,0,0,15-12.32c2.42-2.16,4.79-4.39,7.13-6.63s4.74-4.44,6-7.19,1.42-6,1.48-9.25,0-6.49-.06-9.74q-.32-9.73-1.6-19.44l.39-.06a178.55,178.55,0,0,1,2.32,19.45q.32,4.89.37,9.8c0,3.24.06,6.69-1.32,10a16.88,16.88,0,0,1-2.79,4.31c-1.11,1.27-2.28,2.43-3.43,3.58-2.3,2.32-4.63,4.61-7,6.85-4.76,4.49-9.7,8.81-14.9,12.83a130.59,130.59,0,0,1-16.42,11,153.81,153.81,0,0,1-17.84,8.46c-12.2,4.91-24.8,8.57-37.32,12.19l-2.47.71,0-2.6L239,266.63l0-9.19a12.43,12.43,0,0,1,.33-2.72,8.57,8.57,0,0,1,1.28-2.73,23.61,23.61,0,0,1,3.48-3.6c9-8.24,18.13-16.33,27.78-23.88,4.79-3.81,9.76-7.41,14.82-10.88l3.86-2.51,1.93-1.26,2-1.19,3.95-2.39,4-2.23,2-1.12,2.07-1,4.13-2.06,4.22-1.89,2.11-.94,2.15-.84,4.32-1.67L327.8,193l2.2-.72,2.23-.61,4.47-1.21-1.39,2.24a178.93,178.93,0,0,1-3.86-46l.19-4.09,2.66,3.07,22.82,26.37,22.77,26.4c7.61,8.79,15.18,17.61,22.85,26.34a154.54,154.54,0,0,1,11.08,13.55c3.32,4.81,6,10.27,6.8,16.19l.23,1.74-1.26-1.23q-8-7.75-16.36-15.1c-5.62-4.86-11.34-9.6-17.21-14.14a425.88,425.88,0,0,0-36.58-25.32l2.07-1.16a225.71,225.71,0,0,0,2.8,28.66,19,19,0,0,0,1.73,6.38,14.69,14.69,0,0,0,4.61,4.49c3.93,2.7,8,5.35,12.06,7.84a253.07,253.07,0,0,0,25.4,13.53c2.17,1,4.38,1.93,6.63,3a30.12,30.12,0,0,1,6.52,4.05,14.22,14.22,0,0,1,4.54,6.71,28.26,28.26,0,0,1,.84,7.64c.15,9.68.31,19.35.34,29s0,19.35,0,29-.16,19.35-.39,29-.44,19.35-.81,29Z" transform="translate(-69.29 -112.8)"/><path class="cls-3" d="M328.85,153.34a30.94,30.94,0,0,1-1.91,3.56c-.68,1.15-1.41,2.25-2.17,3.33s-1.54,2.14-2.36,3.16a29.3,29.3,0,0,1-2.59,3c-1.87,1.87-4,3.51-5.76,5.5a38.13,38.13,0,0,0-4.52,6.48c-1.3,2.32-2.66,4.58-4.16,6.74s-2.89,4.39-4.5,6.47a89.68,89.68,0,0,1-10.74,11.72l-.32-.23a68.5,68.5,0,0,1,7.62-14c1.51-2.17,3.22-4.19,4.93-6.21.85-1,1.71-2,2.62-3s1.88-1.88,2.82-2.83a42.77,42.77,0,0,0,5.25-5.94c1.55-2.13,2.7-4.59,4.18-6.8a42.77,42.77,0,0,1,5.14-6,40.46,40.46,0,0,1,6.17-5.14Z" transform="translate(-69.29 -112.8)"/><path class="cls-3" d="M128.83,449.1l-1.26-2.76.29.19c-3.82.13-7.64.16-11.45.24L105,447c-7.64.1-15.28.14-22.91.17H80.59l0-1.49.25-14.5q.12-7.26.32-14.5l.36-14.51L82,387.63l.06-1.68,1.65,0c3.82-.05,7.65-.07,11.47,0s7.65.25,11.46.46q11.46.63,22.84,2l.8.09,0,.77.52,15.51c.16,5.17.32,10.34.43,15.51s.22,10.34.32,15.51l.19,15.52-.9-.87,30.37-1.75c10.12-.6,20.25-1.09,30.38-1.62l30.4-1.44c5.06-.25,10.12-.45,15.23-.54,2.54,0,5.18,0,7.64.06s5-.15,7.65-.07a30.27,30.27,0,0,1,4.06.33,13,13,0,0,1,2.16.48,8.9,8.9,0,0,1,1.16.45,6.63,6.63,0,0,1,1.21.75,6.56,6.56,0,0,1,1.74,2.23,11.91,11.91,0,0,1,.77,2.21,25.86,25.86,0,0,1,.58,4.11c.1,1.31.14,2.6.21,3.83,0,.62.07,1.21.13,1.77l.25,1.87,1,7.5.48,3.76.25,1.82c0,.22.08.32,0,.25s-.23-.22-.25-.2a5,5,0,0,0,1.19,0l1.9,0,3.82,0c5.08,0,10.16,0,15.24.12,10.16.15,20.31.7,30.44,1.39,5.07.33,10.12.77,15.17,1.28l7.58.78,3.78.45a8.15,8.15,0,0,0,1.79.12c.24-.07.42-.2.39-.37s-.25-.4-.29-.3l-.29-.28a.53.53,0,0,1,.37-.16.61.61,0,0,1,.34.13.89.89,0,0,1,.32.53.71.71,0,0,1-.18.65,1.13,1.13,0,0,1-.52.31,3.15,3.15,0,0,1-1,.08l-.95-.05-3.8-.2-7.59-.35q-7.59-.32-15.18-.53c-10.12-.3-20.25-.3-30.36-.26-5.06,0-10.11.11-15.17.27l-3.79.11-1.89.07a6.94,6.94,0,0,1-2.58-.22,3.35,3.35,0,0,1-1.71-1.37,4.48,4.48,0,0,1-.56-1.54c-.14-.73-.21-1.29-.31-1.94l-.59-3.77-1.12-7.55-.28-1.9c-.09-.7-.14-1.37-.18-2-.09-1.29-.14-2.54-.25-3.75a21.62,21.62,0,0,0-.51-3.41,7,7,0,0,0-.49-1.37,2.28,2.28,0,0,0-.56-.75,6.51,6.51,0,0,0-2.57-.8,26.1,26.1,0,0,0-3.51-.29c-20.13-.31-40.41.73-60.67,1.32-10.13.27-20.25.6-30.39.81l-30.4.68-.93,0,0-.89c.14-5.16.19-10.32.19-15.49s-.08-10.33-.19-15.49-.32-10.33-.58-15.48-.58-10.32-1-15.47l.83.87q-11.37-.87-22.75-1-5.7-.09-11.38,0c-3.8.06-7.59.12-11.37.26l1.7-1.69-.38,14.5-.49,14.5q-.24,7.25-.55,14.5l-.6,14.49-1.42-1.48q11.45.3,22.9.7l11.45.46c3.82.17,7.63.29,11.45.5h.22l.07.19,1,2.85Z" transform="translate(-69.29 -112.8)"/><path class="cls-3" d="M85.18,383.6c3.21-5,6.44-9.94,9.58-14.94,1.58-2.49,3.15-5,4.67-7.51s3.08-5,4.57-7.57l1.28-2.17,1.52,2.08c2.09,2.85,4.22,5.66,6.43,8.42s4.43,5.49,6.67,8.22,4.54,5.41,6.88,8.07,4.72,5.28,7.2,7.81l2.68,2.73-3.56-1.18a75,75,0,0,0-16.16-3.26,141,141,0,0,0-16.58-.46c-2.75.07-5.57.11-8.29.25a15.53,15.53,0,0,0-7.35,1.83c-2,1.2-3.47,3.49-5.66,5.6A11.9,11.9,0,0,1,75,394.13a7.07,7.07,0,0,1-5.43-.1l1.6-3.34a1.77,1.77,0,0,0-1.29-.11,2.38,2.38,0,0,0-.38.16l0,0-.14.11s0,0,0,0l.17-.18.4-.5.84-1.07,1.68-2.24,3.29-4.58L82.2,373l13-18.47q1.62-2.31,3.2-4.63c1-1.54,2.11-3.16,2.92-4.61.15-.26.32-.73.48-1.11s.3-.81.42-1.23a18.43,18.43,0,0,0,.57-2.55,19.37,19.37,0,0,0-1.16-10.36,2.26,2.26,0,0,0-.48-.76.59.59,0,0,0-.5-.16,1.26,1.26,0,0,0-1,1.05,2,2,0,0,0,.92,1.69,2.94,2.94,0,0,0,2.25.37c1.68-.31,3.09-1.64,4.41-3l.3.27a18.22,18.22,0,0,1-1.86,2.2,6.55,6.55,0,0,1-2.58,1.58,4.23,4.23,0,0,1-3.24-.22,3.52,3.52,0,0,1-1.93-2.91,2.82,2.82,0,0,1,.65-1.9,3.22,3.22,0,0,1,1.67-1.1,2.68,2.68,0,0,1,2.19.4,4.23,4.23,0,0,1,1.24,1.46,20.73,20.73,0,0,1,1.94,5.71,21.82,21.82,0,0,1,.28,6,23.62,23.62,0,0,1-.5,3c-.11.5-.27,1-.41,1.47a15.37,15.37,0,0,1-.56,1.52,55.69,55.69,0,0,1-2.89,5.11c-1,1.63-2,3.23-3,4.83q-6.2,9.54-12.81,18.75c-2.19,3.09-4.47,6.11-6.74,9.14l-3.46,4.53-1.78,2.25-.93,1.13-.51.59-.32.32-.23.22a1.94,1.94,0,0,1-.29.21l-.08.05a1.71,1.71,0,0,1-.41.18,2,2,0,0,1-1.38-.09l1.6-3.34c1.39.79,3.86-.08,5.61-1.68.94-.83,1.86-1.84,2.89-2.85a15,15,0,0,1,3.63-2.81A18,18,0,0,1,92,381.74l8.35.31c5.56.27,11.13.49,16.67,1.05a115.45,115.45,0,0,1,16.56,2.7l-.89,1.55c-2.68-2.38-5.33-4.78-7.91-7.27s-5.09-5.05-7.49-7.72-4.69-5.42-6.91-8.24-4.31-5.74-6.35-8.69l2.8-.09q-2.42,3.75-4.93,7.43c-1.7,2.44-3.42,4.86-5.2,7.24-3.56,4.76-7.27,9.4-11.23,13.83Z" transform="translate(-69.29 -112.8)"/><path class="cls-3" d="M331.46,145.21a107.36,107.36,0,0,1-.67-15.32c0-2.55.21-5.11.39-7.66.09-1.28.23-2.55.37-3.82a11.35,11.35,0,0,1,.43-2.2,5.28,5.28,0,0,1,1.48-2.41,4,4,0,0,1,3.1-1,6.86,6.86,0,0,1,2.44.79c.66.36,1.17.66,1.72,1l1.63,1c2.16,1.32,4.29,2.71,6.42,4.11l6.38,4.17c.53.35,1.07.68,1.61,1a7.33,7.33,0,0,0,1.57.76,3.76,3.76,0,0,0,1.59.24,1.19,1.19,0,0,0,1-.66l0,.54c-.38-.74-.74-1.48-1.14-2.21l1.12-.09a25.75,25.75,0,0,0-1,4.76,25.47,25.47,0,0,0-.16,4.86,29.18,29.18,0,0,0,2.06,9.36l1.17,2.91-3.07-1.23c-3.65-1.46-7.28-3-10.9-4.5s-7.26-3-10.91-4.47c-1.83-.71-3.64-1.46-5.46-2.21s-3.64-1.46-5.44-2.24l-10.89-4.52-4.5-1.87,4.51-1.55c2.06-.71,4.15-1.29,6.24-1.87s4.2-1,6.3-1.53,4.22-.89,6.35-1.25,4.24-.74,6.37-1l.1.38c-2,.76-4.06,1.43-6.08,2.15l-6.07,2.11c-2,.68-4,1.43-6,2.15s-4,1.52-5.92,2.31v-3.42l5.6,1.95,5.56,2.08c1.85.69,3.68,1.45,5.51,2.2s3.65,1.52,5.45,2.34q5.42,2.41,10.78,4.95c3.57,1.69,7.11,3.46,10.59,5.35l-1.9,1.68A33.79,33.79,0,0,1,358,133.12a40.72,40.72,0,0,1,.55-5.07,35.86,35.86,0,0,1,1.22-4.93l.47-1.4.65,1.3c.37.74.77,1.46,1.16,2.19l.14.27-.13.27a2.49,2.49,0,0,1-.8,1,3.12,3.12,0,0,1-1.16.44,5.9,5.9,0,0,1-2.16-.2,8.93,8.93,0,0,1-1.92-.76c-.56-.3-1.12-.59-1.69-.87L347.47,122c-2.28-1.12-4.56-2.24-6.81-3.43l-1.68-.9c-.56-.28-1.13-.64-1.6-.86a3.33,3.33,0,0,0-1.15-.4.61.61,0,0,0-.44.11c-.75.44-1,3.75-1.32,6.07-.35,2.5-.63,5-.94,7.51l-1.67,15.12Z" transform="translate(-69.29 -112.8)"/><path class="cls-3" d="M249.68,289.65a108.82,108.82,0,0,1,4.92,19c.58,3.22,1,6.46,1.35,9.71s.59,6.5.7,9.76c.18,6.53-.21,13.05-.12,19.54.05,3.25.13,6.5.3,9.74s.45,6.48.67,9.72.55,6.48.76,9.72.38,6.49.53,9.73c.3,6.48.64,13,.75,19.46s.1,13-.06,19.48-.39,13-.87,19.5h-.4c-.82-6.47-1.41-12.95-1.88-19.43s-.79-13-1-19.45-.23-13-.25-19.48c0-3.24,0-6.49,0-9.74s.18-6.49.26-9.74c.18-6.5.28-13-.08-19.48s-1.23-12.93-1.91-19.35c-.16-1.61-.35-3.22-.47-4.83s-.29-3.21-.42-4.82-.27-3.21-.44-4.81-.28-3.22-.47-4.82c-.63-6.42-1.44-12.81-2.23-19.29Z" transform="translate(-69.29 -112.8)"/><path class="cls-3" d="M291.5,326.92a16.71,16.71,0,0,1,2.12,4.64,22.43,22.43,0,0,1,.9,4.92,21.41,21.41,0,0,1-.56,5,19.54,19.54,0,0,0-.24,4.94l-1.26-.4a10.16,10.16,0,0,1,5.27-4.52,14,14,0,0,1,1.64-.5c.28-.06.55-.13.83-.18s.48-.12.34-.11a.88.88,0,0,0-.36.2,1.31,1.31,0,0,0-.34.44c-.12.33-.08.41-.11.37l-.16-.34-.32-.74a19.32,19.32,0,0,1-1.36-6.44,16.38,16.38,0,0,1,.9-6.48h.4c.73,2.06,1.33,4,2,5.86s1.37,3.68,2.06,5.47l.26.69a6,6,0,0,1,.33,1.14,3.46,3.46,0,0,1-.16,1.9,2.89,2.89,0,0,1-1.79,1.67,4.65,4.65,0,0,1-1.18.18c-.24,0-.47,0-.71,0-.46,0-.93.09-1.38.15a15.18,15.18,0,0,0-2.7.53,4.93,4.93,0,0,0-2.31,1.44l-1.53,1.77.28-2.18a13,13,0,0,0-.25-4.84A44.94,44.94,0,0,1,291,336.8a45.17,45.17,0,0,1-.25-4.81,27.87,27.87,0,0,1,.4-5Z" transform="translate(-69.29 -112.8)"/><path class="cls-3" d="M270.29,304.78A11.42,11.42,0,0,1,266,308a2.37,2.37,0,0,0-.41.19.57.57,0,0,0,.14-.1.92.92,0,0,0,.27-.42c.13-.39,0-.5,0-.38s0,.42,0,.62c-.06.89-.22,1.81-.22,2.68a7,7,0,0,0,.53,2.51,22.09,22.09,0,0,0,1.24,2.35,13.17,13.17,0,0,1,1.05,2.38c.3.81.6,1.62.83,2.44h-4.17a4.8,4.8,0,0,1,1.7-2.77,5.89,5.89,0,0,1,2.52-1.2,7.72,7.72,0,0,1,2.43-.11,7.57,7.57,0,0,1,2.27.61l0,.4c-.65.46-1.28.83-1.86,1.2a18.25,18.25,0,0,0-1.56,1.07,5.2,5.2,0,0,0-1,1,4,4,0,0,0-.38.78l-2.79,7.33-1.37-7.34c-.16-.84-.23-1.7-.32-2.56a13.3,13.3,0,0,1-.09-2.61,21.57,21.57,0,0,0,.1-2.65,7.17,7.17,0,0,0-.61-2.49c-.38-.79-.92-1.54-1.36-2.32a4.14,4.14,0,0,1-.3-.63,2.42,2.42,0,0,1,0-1.64,2.36,2.36,0,0,1,.65-.94,3.3,3.3,0,0,1,.67-.44,5.66,5.66,0,0,1,.79-.27,11.35,11.35,0,0,1,5.35-.25Z" transform="translate(-69.29 -112.8)"/><path class="cls-3" d="M300.39,293.3a34.13,34.13,0,0,1-1.36-4.49l-.25-1.07-.12-.51a.5.5,0,0,0-.08-.19s0,.07.18.25a1.17,1.17,0,0,0,.88.25c.2-.05.15-.07,0,0s-.37.13-.56.18c-1.49.45-3.16.55-4.62,1.08a13.41,13.41,0,0,0-4,2.34c-.25.22-.32.44-.23.48s.15.11.22.36a8.73,8.73,0,0,1,.33,1l.3,1.12a35.72,35.72,0,0,1,1,4.51,28.51,28.51,0,0,1,.24,4.63,24.76,24.76,0,0,1-.51,4.78l-.71.12.1-.39.39-.06.22.34-.71.12a24,24,0,0,1-2-4.36,29.89,29.89,0,0,1-1.25-4.51,35.78,35.78,0,0,1-.47-4.63l-.07-1.17a9.52,9.52,0,0,1,0-1.3,3.48,3.48,0,0,1,.62-1.88,2.86,2.86,0,0,1,1.52-1,14.75,14.75,0,0,0,4.39-1.67c1.32-.8,2.44-2,3.73-2.93l.49-.31a2.74,2.74,0,0,1,1.05-.4,2.48,2.48,0,0,1,1.95.57,2.83,2.83,0,0,1,.81,1.21,3.63,3.63,0,0,1,.2.93l0,.64c0,.41,0,.82,0,1.23a10.67,10.67,0,0,1-1.33,4.77Z" transform="translate(-69.29 -112.8)"/><path class="cls-3" d="M317.64,284.51a17.24,17.24,0,0,1-1.25-4.25c-.07-.36-.11-.71-.17-1.07a5.75,5.75,0,0,1-.05-1.35,2.93,2.93,0,0,1,1.22-2,6.15,6.15,0,0,1,1.21-.66,16.88,16.88,0,0,1,4.17-1.13,13.25,13.25,0,0,0,4-1.39l.65-.36.23.78c.54,1.88,1.53,3.68,2.18,5.57.33.95.54,1.92.78,2.88s.44,1.95.58,2.93a19.68,19.68,0,0,1,.21,3v.76a5.52,5.52,0,0,1-.12,1.21,3,3,0,0,1-.95,1.6,3.23,3.23,0,0,1-1.24.65c-.34.09-.56.11-.8.16s-.49.09-.74.11c-.49.06-1,.14-1.48.18a22.11,22.11,0,0,1-3.06.09l-.13-.38a22,22,0,0,1,2.45-1.83c.41-.29.84-.53,1.26-.8.21-.13.43-.24.65-.36a4.48,4.48,0,0,0,.56-.34c.12-.09.12-.16,0-.1a1.07,1.07,0,0,0-.3.33s0-.05-.09-.24l-.11-.69c-.17-.94-.29-1.89-.37-2.83s-.12-1.9-.17-2.86-.14-1.9-.15-2.87a34.62,34.62,0,0,0-.19-5.85l.87.43a13.39,13.39,0,0,0-3.68,2.18,16.85,16.85,0,0,1-3.55,2.46l-.68.31s0,0,.07-.13.05-.19,0-.17a2.47,2.47,0,0,0-.12.77c-.05.35-.09.71-.16,1.06A17.09,17.09,0,0,1,318,284.5Z" transform="translate(-69.29 -112.8)"/><path class="cls-3" d="M364.21,278.65a10.9,10.9,0,0,1-2.47.1,16.19,16.19,0,0,1-2.32-.32l2.11-1.05a27.61,27.61,0,0,1-.51,3.74,9.84,9.84,0,0,0-.4,4.28,27.5,27.5,0,0,0,1.36,4.29,10.56,10.56,0,0,1,.28,4.9l-3.1-2.19a7.8,7.8,0,0,1,3.1-1.48,8.41,8.41,0,0,1,3.35-.05,8.13,8.13,0,0,1,3,1.22,6.13,6.13,0,0,1,2.09,2.35l-.26.31a14.28,14.28,0,0,0-2.68-.33,12,12,0,0,0-2.36.14,12.39,12.39,0,0,0-2.1.5,13.82,13.82,0,0,0-1.92.73l-5,2.4,1.87-4.59a23.36,23.36,0,0,0,.89-3.72,11.26,11.26,0,0,0,.23-4.29,27.36,27.36,0,0,0-1.43-4.33,6.92,6.92,0,0,1,.42-4.84l.78-1.76,1.33.71a16,16,0,0,1,2,1.24,10.87,10.87,0,0,1,1.83,1.66Z" transform="translate(-69.29 -112.8)"/><path class="cls-3" d="M387.66,290.09a5.69,5.69,0,0,1,1.92,3.56c.29,1.22-1,2.6-.87,3.83,0,1.24,1.17,2.4,1.5,3.62a8.68,8.68,0,0,1,.56,3.72l-.49,3.16-2.1-1.09a8.9,8.9,0,0,1-1.68-1.14,7.83,7.83,0,0,1-.78-.75,6.6,6.6,0,0,1-.73-.95l.11-.39a7.33,7.33,0,0,1,1.13-.4,8.42,8.42,0,0,1,1.07-.21,8.66,8.66,0,0,1,2,0l-2.59,2.07a8.44,8.44,0,0,1-.08-3.71c.11-1.24,1.07-2.56.85-3.79-.06-1.24-1.59-2.34-1.51-3.58a5.78,5.78,0,0,1,1.27-3.87Z" transform="translate(-69.29 -112.8)"/><path class="cls-3" d="M405.51,296.29a4.45,4.45,0,0,1-1.5.69,5.63,5.63,0,0,1-1.64.2,6.92,6.92,0,0,1-3.23-.9l1.82-3a21,21,0,0,1,4.14,1.4,3.56,3.56,0,0,1,1.86,2.45c.1.48.13.93.19,1.35s.12.82.21,1.23c.18.82.39,1.64.5,2.46s.13,1.62.19,2.43.08,1.63.05,2.43a17.79,17.79,0,0,1-.28,2.41l-.38,2.19-1.72-.3a12.43,12.43,0,0,1-3.25-1,9,9,0,0,1-2.79-2l.13-.37c1.15-.18,2.19-.26,3.2-.34l2.92-.26-2.1,1.88a17.92,17.92,0,0,1,0-2.43c.05-.8.18-1.61.31-2.41s.25-1.6.45-2.4.5-1.59.76-2.39a5.94,5.94,0,0,0,.43-2.25,1,1,0,0,0-1.18-1c-.62,0-1.33.38-2.19.54a4.67,4.67,0,0,1-1.46.05,4.58,4.58,0,0,1-1.72-.61l1.83-3a20.63,20.63,0,0,0,1.95,1.3c.36.21.74.42,1.15.63l1.33.66Z" transform="translate(-69.29 -112.8)"/><path class="cls-3" d="M380.59,295.72a4.07,4.07,0,0,1-1.61-2.13,2.18,2.18,0,0,1-.11-1.1,3.64,3.64,0,0,1,.57-1.13,1.91,1.91,0,0,0,.18-2.22c-.19-.36-.46-.72-.69-1.07a3.9,3.9,0,0,1-.47-1.08l-.54-2,2.94.1a7.67,7.67,0,0,1,1.37.12,3.55,3.55,0,0,1,1.24.56,5.9,5.9,0,0,1,1.12,1,6,6,0,0,1,1,1.47l-.11.38a5.84,5.84,0,0,1-1.61.71,6,6,0,0,1-1.46.22,3.78,3.78,0,0,1-1.35-.19,7.91,7.91,0,0,1-1.22-.64l2.4-1.89a3.81,3.81,0,0,1-.35,1.12c-.19.38-.42.76-.58,1.13a1.91,1.91,0,0,0,.4,2.19,3.8,3.8,0,0,1,.69,1.07,2.32,2.32,0,0,1,0,1.11A4,4,0,0,1,381,295.7Z" transform="translate(-69.29 -112.8)"/><path class="cls-3" d="M249.53,426.94c-1.44.49-2.88,1-4.33,1.44l.41-.72a17.58,17.58,0,0,1,1.23,6.84l0,.68-.76.21c-1.78.47-3.59.88-5.41,1.21-.92.15-1.83.29-2.75.4-.47.06-.89.12-1.44.16a4.87,4.87,0,0,1-1.91-.22,3.15,3.15,0,0,1-1.8-1.67,6.81,6.81,0,0,1-.45-1.73l-.42-2.69c-.27-1.8-.57-3.59-.82-5.39l1.72,1.49a53.22,53.22,0,0,0-7.67.71,64.57,64.57,0,0,0-7.52,1.63l.9-2.64a12.24,12.24,0,0,1,2.11,7.51l-.09,1.6-1.47-.13a12.93,12.93,0,0,0-7.7,1.79l-1.74,1,.06-1.92.17-5.06c.07-1.69.07-3.37.1-5.06h1.39a.78.78,0,0,1-.16.47.93.93,0,0,1-.18.16,1.08,1.08,0,0,1-.21.11l-.23.06-.36.06-.63.05-1.2,0c-.8,0-1.59,0-2.38,0l-4.72-.05-4.72-.05c-1.56,0-3.17,0-4.67,0l.72-1a61.28,61.28,0,0,1,2.34,8.08l.16.89-.93.29a26.14,26.14,0,0,1-6.64.94c-2.16.1-4.27.13-6.23.41l-1.43.2-.31-1.52a53.06,53.06,0,0,1-1-8.63l1.77,1.77q-7.47,0-14.92.46l1.54-3.25a16.37,16.37,0,0,1,3.27,8l.32,2.81-2.79-.46a39.92,39.92,0,0,0-6.73-.53,41,41,0,0,0-6.74.52l-1.7.28L152,435a8.66,8.66,0,0,1,2.47-9.58l1.24,3.34q-9.44-.22-18.88-.66l1-2.13a13.56,13.56,0,0,1,2.49,4.62,13.06,13.06,0,0,1,.57,5.11l-.05.51-.39.16a11.35,11.35,0,0,1-4.34.8,16.23,16.23,0,0,1-4.24-.56l.07-.39a19.44,19.44,0,0,0,4.11-.05,10.44,10.44,0,0,0,3.74-1.18l-.44.67a12.71,12.71,0,0,0-1-4.36,12,12,0,0,0-2.43-3.63l-1.94-2,2.89-.12q9.45-.4,18.89-.6l5-.1L157,428.3a4.94,4.94,0,0,0-1.15,5.22l-2.27-1.28a44.15,44.15,0,0,1,7.43-.76,43.33,43.33,0,0,1,7.46.61L166,434.44a13.31,13.31,0,0,0-2.31-6.05l-2.26-3.14,3.8-.11c5.05-.16,10.12-.17,15.17,0l1.79.06,0,1.71a60.37,60.37,0,0,0,.53,8.17l-1.74-1.31a55,55,0,0,1,6.57.07,23.34,23.34,0,0,0,6.07-.34l-.77,1.18a63.39,63.39,0,0,0-1.7-8l-.24-1,1,0,4.74.19c1.57.07,3.14.1,4.71.14s3.14.06,4.7,0c.78,0,1.56,0,2.34-.05.38,0,.77,0,1.15-.08l.54-.07.22,0,.05,0-.08,0a.63.63,0,0,0-.12.11.67.67,0,0,0-.14.41h1.39c.08,1.68.12,3.37.22,5l.27,5.05-1.67-.87a15.26,15.26,0,0,1,9-3l-1.56,1.48a9.79,9.79,0,0,0-1.92-5.48l-1.38-1.87,2.29-.77a49.68,49.68,0,0,1,8-1.9,57.48,57.48,0,0,1,8.18-.57h1.53l.18,1.48c.23,1.81.4,3.62.6,5.42l.29,2.71a4.15,4.15,0,0,0,.15.92c.07.14,0,.09.11.17a5.22,5.22,0,0,0,2.05.08c.89,0,1.78-.11,2.67-.19,1.78-.15,3.56-.37,5.32-.66l-.77.89a17.46,17.46,0,0,0-.34-6.35l-.15-.63.55-.09c1.5-.27,3-.5,4.5-.73Z" transform="translate(-69.29 -112.8)"/></g></g></svg>