<svg id="Layer_1" data-name="Layer 1" xmlns="http://www.w3.org/2000/svg" viewBox="0 0 1984.25 684.16"><defs><style>.cls-1{opacity:0.05;}.cls-2{isolation:isolate;}.cls-3{fill:#1d5b6a;}.cls-4{fill:#0f3c4a;}.cls-5{fill:#1f2628;}</style></defs><g id="Hišne_Mešanice" data-name="Hišne Mešanice" class="cls-1"><g class="cls-2"><path class="cls-3" d="M-93.57,397.43l2.8-9.8q2.79-9.09,4.9-18.55t4.9-22.75Q-78.18,333-76.42,318a247.5,247.5,0,0,0,1.75-28.35V6.83a247.77,247.77,0,0,0-1.75-28.35q-1.76-15-4.55-28.35t-4.9-22.75q-2.1-9.45-4.9-18.55l-2.8-9.8v-2.8H52v2.8q0,1.41-3.15,13.65t-6.3,25.55q-3.15,13.31-5.95,32.9a253.86,253.86,0,0,0-2.8,35.7v124.6H227V6.83a255.38,255.38,0,0,0-2.8-35.7q-2.8-19.59-5.95-32.9T212-87.32q-3.15-12.24-3.15-13.65v-2.8h144.9v2.8q0,1.41-3.15,13.65t-6.3,25.55q-3.15,13.31-5.95,32.9a253.86,253.86,0,0,0-2.8,35.7v282.8a253.64,253.64,0,0,0,2.8,35.7q2.79,19.6,5.95,32.9t6.3,25.55q3.15,12.25,3.15,13.65v2.8H208.83v-2.8q0-1.4,3.15-13.65t6.3-25.55q3.15-13.29,5.95-32.9a255.15,255.15,0,0,0,2.8-35.7V162.93H33.83v126.7a253.64,253.64,0,0,0,2.8,35.7q2.79,19.6,5.95,32.9t6.3,25.55Q52,396,52,397.43v2.8H-93.57Z"/><path class="cls-3" d="M408.32-68.77q0-25.89,19.25-44.45t45.85-18.55q26.59,0,45.5,18.55t18.9,44.45q0,26.61-19.25,45.15T473.42-5.07a63.77,63.77,0,0,1-45.85-18.55Q408.31-42.16,408.32-68.77Zm3.5,452.2q2.79-11.9,5.95-25.2t6-32.9a255.15,255.15,0,0,0,2.8-35.7V158q0-35-18.2-107.8v-2.8H528v242.2A245.25,245.25,0,0,0,529.77,318q1.74,15.06,4.55,28.35t4.9,22.75q2.1,9.45,4.9,18.55l2.8,9.8v2.8H408.32v-2.8Q408.32,396,411.82,383.43Z"/><path class="cls-3" d="M629.52,71.23q39.9-28,106.4-28,63.69,0,126.7,25.9v93.8h-2.8q-37.11-42-69-66.5t-64.75-24.5q-21,0-36,10.15T675,111.13q0,21.7,20.3,34t67.9,28.35a22.79,22.79,0,0,1,4.9,1.4q60.2,21,85.4,49t25.2,67.2q0,57.41-41,86.8t-100.45,29.4q-61.61,0-138.6-30.1v-98h2.8q2.1,2.81,15.4,16.1l17.5,16.8q3.5,4.2,15.75,15.75t18.55,16.1q6.3,4.56,17.5,12.6t19.25,11.2a183.11,183.11,0,0,0,18.2,5.95,74.54,74.54,0,0,0,20,2.8q22.38,0,37.8-11.2t15.4-32.2q0-11.89-5.25-20.65T772,295.58a230.72,230.72,0,0,0-26.6-12.95q-12.25-4.89-39.55-14.7-58.11-21-87.15-49t-29-68.6Q589.62,99.93,629.52,71.23Zm-15.4-179.9,8.4-7.7,111.3,40.6,110.6-40.6,8.4,7.7-119,111.3Z"/><path class="cls-3" d="M916.51,50.23v-2.8h119.7v60.9q42-65.1,113.4-65.1,49,0,81.9,30.45t32.9,87.15v128.8a253.64,253.64,0,0,0,2.8,35.7q2.79,19.6,6,32.9t6.3,25.55q3.15,12.25,3.15,13.65v2.8H1144v-2.8q18.2-72.8,18.2-107.8V174.83q0-34.29-17.15-50.75t-43.75-17.15h-2.1q-30.81,0-63,23.8v158.9A245.25,245.25,0,0,0,1038,318q1.74,15.06,4.55,28.35t4.9,22.75q2.1,9.45,4.9,18.55l2.8,9.8v2.8H916.51v-2.8q0-1.4,3.15-13.65t6.3-25.55q3.15-13.29,5.95-32.9a255.15,255.15,0,0,0,2.8-35.7V158a255.38,255.38,0,0,0-2.8-35.7q-2.8-19.59-5.95-32.9t-6.3-25.55Q916.51,51.64,916.51,50.23Z"/><path class="cls-3" d="M1365.2,91.53q49-48.3,128.8-48.3,80.49,0,120.4,50.05t39.9,122.85H1428.2q5.6,57.41,32.55,90.65T1538.1,340q53.89,0,109.2-40.6l2.8,1.4q-16.11,42.71-57.4,74.55t-100.1,31.85q-71.4,0-123.9-48t-52.5-134.75Q1316.2,140.53,1365.2,91.53Zm187.6,86.8q-2.8-107.1-60.9-107.1-34.31,0-49.7,34.3t-15.4,83.3v10.5Z"/></g><g class="cls-2"><path class="cls-3" d="M-103.37,1096.73l9.8-27.3a605.71,605.71,0,0,0,17.85-62.65q8-34.65,8-65.45V706.83a171.72,171.72,0,0,0-4.2-35.7,274.34,274.34,0,0,0-8.75-32.55q-4.56-12.95-9.8-25.55t-5.25-14v-2.8H38.73l145.6,362.6,135.8-362.6h126V599q0,1.41-3.15,13.65t-6.3,25.55q-3.15,13.31-5.95,32.9a253.86,253.86,0,0,0-2.8,35.7v282.8a253.64,253.64,0,0,0,2.8,35.7q2.79,19.61,5.95,32.9t6.3,25.55q3.15,12.26,3.15,13.65v2.8H301.23v-2.8l2.8-9.8q2.79-9.09,4.9-18.55t4.9-22.75q2.79-13.29,4.55-28.35a247.5,247.5,0,0,0,1.75-28.35V686.53l-153.3,413.7h-35v-.7l-4.2.7-163.1-411.6a164.36,164.36,0,0,0-.7,18.2v234.5q0,30.81,8.05,65.45a600.77,600.77,0,0,0,17.85,62.65l9.8,27.3v3.5h-102.9Z"/><path class="cls-3" d="M906,771.23q39.9-28,106.4-28,63.69,0,126.7,25.9v93.8h-2.8q-37.11-42-68.95-66.5t-64.75-24.5q-21,0-36,10.15t-15.05,29q0,21.71,20.3,34t67.9,28.35a22.43,22.43,0,0,1,4.9,1.4q60.19,21,85.4,49t25.2,67.2q0,57.4-41,86.8t-100.45,29.4q-61.61,0-138.6-30.1v-98H878q2.1,2.8,15.4,16.1l17.5,16.8q3.5,4.2,15.75,15.75t18.55,16.1q6.3,4.56,17.5,12.6t19.25,11.2a183.11,183.11,0,0,0,18.2,6,74.6,74.6,0,0,0,20,2.8q22.39,0,37.8-11.2t15.4-32.2q0-11.9-5.25-20.65t-19.6-16.8a230.72,230.72,0,0,0-26.6-13q-12.25-4.89-39.55-14.7-58.11-21-87.15-49t-29-68.6Q866.13,799.93,906,771.23Zm-15.4-179.9,8.4-7.7,111.3,40.6,110.6-40.6,8.4,7.7-119,111.3Z"/></g></g><g id="Hišne_Mešanice-2" data-name="Hišne Mešanice-2"><g class="cls-2"><path class="cls-4" d="M179.93,358.43l.8-2.8q.79-2.6,1.4-5.3t1.4-6.5c.53-2.53,1-5.23,1.3-8.1a71.16,71.16,0,0,0,.5-8.1v-80.8a71.16,71.16,0,0,0-.5-8.1c-.33-2.87-.77-5.57-1.3-8.1s-1-4.7-1.4-6.5-.87-3.57-1.4-5.3l-.8-2.8v-.8h41.6v.8a36.92,36.92,0,0,1-.9,3.9c-.6,2.33-1.2,4.77-1.8,7.3s-1.17,5.67-1.7,9.4a73.08,73.08,0,0,0-.8,10.2v35.6h55.2v-35.6a73.08,73.08,0,0,0-.8-10.2c-.53-3.73-1.1-6.87-1.7-9.4s-1.2-5-1.8-7.3a36.92,36.92,0,0,1-.9-3.9v-.8h41.4v.8a36.92,36.92,0,0,1-.9,3.9c-.6,2.33-1.2,4.77-1.8,7.3s-1.17,5.67-1.7,9.4a73.08,73.08,0,0,0-.8,10.2v80.8a73.08,73.08,0,0,0,.8,10.2c.53,3.73,1.1,6.87,1.7,9.4s1.2,5,1.8,7.3a36.92,36.92,0,0,1,.9,3.9v.8h-41.4v-.8a36.92,36.92,0,0,1,.9-3.9c.6-2.33,1.2-4.77,1.8-7.3s1.17-5.67,1.7-9.4a73.08,73.08,0,0,0,.8-10.2v-36.2h-55.2v36.2a73.08,73.08,0,0,0,.8,10.2c.53,3.73,1.1,6.87,1.7,9.4s1.2,5,1.8,7.3a36.92,36.92,0,0,1,.9,3.9v.8h-41.6Z"/><path class="cls-4" d="M323.33,225.23a17,17,0,0,1,5.5-12.7,18.22,18.22,0,0,1,13.1-5.3,17.91,17.91,0,0,1,13,5.3,17.76,17.76,0,0,1-.1,25.6,18,18,0,0,1-12.9,5.3,18.22,18.22,0,0,1-13.1-5.3A17.22,17.22,0,0,1,323.33,225.23Zm1,129.2q.8-3.4,1.7-7.2c.6-2.53,1.16-5.67,1.7-9.4a73.08,73.08,0,0,0,.8-10.2V290q0-10-5.2-30.8v-.8h34.2v69.2a68.93,68.93,0,0,0,.5,8.1q.5,4.31,1.3,8.1t1.4,6.5c.4,1.8.86,3.57,1.4,5.3l.8,2.8v.8h-39.6v-.8A35.53,35.53,0,0,1,324.33,354.43Z"/><path class="cls-4" d="M386.53,265.23q11.4-8,30.4-8a94.59,94.59,0,0,1,36.2,7.4v26.8h-.8a146.55,146.55,0,0,0-19.7-19q-9.11-7-18.5-7a18,18,0,0,0-10.3,2.9,9.4,9.4,0,0,0-4.3,8.3q0,6.19,5.8,9.7t19.4,8.1a6.37,6.37,0,0,1,1.4.4q17.19,6,24.4,14a27.7,27.7,0,0,1,7.2,19.2q0,16.39-11.7,24.8t-28.7,8.4q-17.61,0-39.6-8.6v-28h.8c.4.53,1.86,2.07,4.4,4.6l5,4.8q1,1.2,4.5,4.5a60.18,60.18,0,0,0,5.3,4.6c1.2.87,2.86,2.07,5,3.6a26.36,26.36,0,0,0,5.5,3.2,51.35,51.35,0,0,0,5.2,1.7,21.47,21.47,0,0,0,5.7.8,17.92,17.92,0,0,0,10.8-3.2,10.69,10.69,0,0,0,4.4-9.2,11.25,11.25,0,0,0-1.5-5.9,14.73,14.73,0,0,0-5.6-4.8,66,66,0,0,0-7.6-3.7q-3.51-1.39-11.3-4.2-16.6-6-24.9-14a26.15,26.15,0,0,1-8.3-19.6Q375.13,273.43,386.53,265.23Zm-4.4-51.4,2.4-2.2,31.8,11.6,31.6-11.6,2.4,2.2-34,31.8Z"/><path class="cls-4" d="M468.52,259.23v-.8h34.2v17.4q12-18.6,32.4-18.6,14,0,23.4,8.7t9.4,24.9v36.8a73.08,73.08,0,0,0,.8,10.2c.54,3.73,1.11,6.87,1.7,9.4s1.2,5,1.8,7.3a34.17,34.17,0,0,1,.9,3.9v.8h-39.6v-.8q5.21-20.81,5.2-30.8v-32.8q0-9.79-4.89-14.5a18.06,18.06,0,0,0-12.5-4.9h-.61q-8.79,0-18,6.8v45.4a71.16,71.16,0,0,0,.5,8.1q.51,4.31,1.3,8.1c.54,2.53,1,4.7,1.4,6.5s.87,3.57,1.41,5.3l.79,2.8v.8h-39.6v-.8a36.92,36.92,0,0,1,.9-3.9c.6-2.33,1.2-4.77,1.8-7.3s1.17-5.67,1.7-9.4a71.59,71.59,0,0,0,.8-10.2V290a71.59,71.59,0,0,0-.8-10.2c-.53-3.73-1.09-6.87-1.7-9.4s-1.2-5-1.8-7.3A36.92,36.92,0,0,1,468.52,259.23Z"/><path class="cls-4" d="M596.72,271q14-13.8,36.8-13.8,23,0,34.4,14.3t11.4,35.1h-64.6q1.6,16.39,9.3,25.9t22.1,9.5q15.4,0,31.2-11.6l.8.4q-4.61,12.19-16.4,21.3t-28.6,9.1a50.78,50.78,0,0,1-35.4-13.7q-15-13.69-15-38.5Q582.72,285,596.72,271Zm53.6,24.8q-.8-30.6-17.4-30.6-9.79,0-14.2,9.8t-4.4,23.8v3Z"/></g><g class="cls-2"><path class="cls-4" d="M177.13,558.23l2.8-7.8a170.85,170.85,0,0,0,5.1-17.9,82.94,82.94,0,0,0,2.3-18.7v-67a49,49,0,0,0-1.2-10.2,77.71,77.71,0,0,0-2.5-9.3q-1.31-3.7-2.8-7.3a26.86,26.86,0,0,1-1.5-4v-.8h38.4l41.6,103.6,38.8-103.6h36v.8a36.92,36.92,0,0,1-.9,3.9c-.6,2.33-1.2,4.77-1.8,7.3s-1.17,5.67-1.7,9.4a73.08,73.08,0,0,0-.8,10.2v80.8a73.08,73.08,0,0,0,.8,10.2c.53,3.73,1.1,6.87,1.7,9.4s1.2,5,1.8,7.3a36.92,36.92,0,0,1,.9,3.9v.8h-41.4v-.8l.8-2.8q.8-2.6,1.4-5.3t1.4-6.5c.53-2.53,1-5.23,1.3-8.1a71.16,71.16,0,0,0,.5-8.1V441l-43.8,118.2h-10V559l-1.2.2-46.6-117.6a48.09,48.09,0,0,0-.2,5.2v67a82.94,82.94,0,0,0,2.3,18.7,170.85,170.85,0,0,0,5.1,17.9l2.8,7.8v1h-29.4Z"/><path class="cls-4" d="M359.53,471q14-13.8,36.8-13.8,23,0,34.4,14.3t11.4,35.1h-64.6q1.61,16.39,9.3,25.9t22.1,9.5q15.4,0,31.2-11.6l.8.4q-4.6,12.2-16.4,21.3t-28.6,9.1a50.78,50.78,0,0,1-35.4-13.7q-15-13.69-15-38.5Q345.53,485,359.53,471Zm53.6,24.8q-.79-30.6-17.4-30.6-9.8,0-14.2,9.8t-4.4,23.8v3Z"/><path class="cls-4" d="M465.53,465.23q11.4-8,30.4-8a94.59,94.59,0,0,1,36.2,7.4v26.8h-.8a146,146,0,0,0-19.7-19q-9.11-7-18.5-7a18,18,0,0,0-10.3,2.9,9.4,9.4,0,0,0-4.3,8.3q0,6.19,5.8,9.7t19.4,8.1a6.2,6.2,0,0,1,1.4.4q17.19,6,24.4,14a27.7,27.7,0,0,1,7.2,19.2q0,16.4-11.7,24.8t-28.7,8.4q-17.61,0-39.6-8.6v-28h.8c.4.53,1.87,2.07,4.4,4.6l5,4.8q1,1.2,4.5,4.5a60.18,60.18,0,0,0,5.3,4.6c1.2.87,2.86,2.07,5,3.6a26.61,26.61,0,0,0,5.5,3.2,52.19,52.19,0,0,0,5.2,1.7,21.47,21.47,0,0,0,5.7.8,17.88,17.88,0,0,0,10.8-3.2,10.69,10.69,0,0,0,4.4-9.2,11.25,11.25,0,0,0-1.5-5.9,14.73,14.73,0,0,0-5.6-4.8,65.23,65.23,0,0,0-7.6-3.7q-3.5-1.39-11.3-4.2-16.6-6-24.9-14a26.18,26.18,0,0,1-8.3-19.6Q454.13,473.43,465.53,465.23Zm-4.4-51.4,2.4-2.2,31.8,11.6,31.6-11.6,2.4,2.2-34,31.8Z"/><path class="cls-4" d="M548.13,529.43q0-15.6,12.4-23.9a48.53,48.53,0,0,1,27.6-8.3c1.73,0,3.53.07,5.4.2a53.35,53.35,0,0,1,16.2,3v-11.8q0-22.61-10.4-22.6-7.61,0-23.6,11t-19,15.2h-1v-27.6q26-7.39,45.4-7.4,19,0,28.4,9t9.4,24.2v41.4q0,13.6,7.2,13.6a13,13,0,0,0,5.4-1.4l.4.6a17.75,17.75,0,0,1-6.4,11.5q-5.4,4.5-13.8,4.5-16.61,0-21-15.6-10.2,16-30.4,16-15,0-23.6-9.5A31.87,31.87,0,0,1,548.13,529.43Zm30.4-4q0,8.6,4.9,14.1a16.42,16.42,0,0,0,12.9,5.5q7.59,0,13.4-6.2v-32.4a35.84,35.84,0,0,1-4.2-.2,37.78,37.78,0,0,0-5.4-.4,23.87,23.87,0,0,0-15.3,5Q578.53,515.82,578.53,525.43Z"/><path class="cls-4" d="M659.92,459.23v-.8h34.2v17.4q12-18.6,32.41-18.6,14,0,23.39,8.7t9.41,24.9v36.8a73,73,0,0,0,.79,10.2c.54,3.73,1.11,6.87,1.71,9.4s1.2,5,1.79,7.3a35.63,35.63,0,0,1,.91,3.9v.8H724.92v-.8q5.21-20.8,5.2-30.8v-32.8q0-9.79-4.89-14.5a18.06,18.06,0,0,0-12.5-4.9h-.61q-8.79,0-18,6.8v45.4a71.16,71.16,0,0,0,.5,8.1q.51,4.31,1.3,8.1c.54,2.53,1,4.7,1.41,6.5s.86,3.57,1.4,5.3l.8,2.8v.8H659.92v-.8a38.63,38.63,0,0,1,.91-3.9c.59-2.33,1.2-4.77,1.79-7.3s1.17-5.67,1.71-9.4a73,73,0,0,0,.79-10.2V490a73,73,0,0,0-.79-10.2c-.54-3.73-1.1-6.87-1.71-9.4s-1.2-5-1.79-7.3A38.63,38.63,0,0,1,659.92,459.23Z"/><path class="cls-4" d="M777.12,425.23a17,17,0,0,1,5.5-12.7,18.24,18.24,0,0,1,13.1-5.3,17.9,17.9,0,0,1,13,5.3,17.76,17.76,0,0,1-.1,25.6,18,18,0,0,1-12.9,5.3,18.24,18.24,0,0,1-13.1-5.3A17.25,17.25,0,0,1,777.12,425.23Zm1,129.2q.79-3.4,1.7-7.2c.6-2.53,1.17-5.67,1.7-9.4a73.08,73.08,0,0,0,.8-10.2V490q0-10-5.2-30.8v-.8h34.2v69.2a71.16,71.16,0,0,0,.5,8.1c.33,2.87.77,5.57,1.3,8.1s1,4.7,1.4,6.5.87,3.57,1.4,5.3l.8,2.8v.8h-39.6v-.8A38.33,38.33,0,0,1,778.12,554.43Z"/><path class="cls-4" d="M841.32,471q14-13.8,37-13.8,14.8,0,38.4,9.2l.4,30.2h-1a106.24,106.24,0,0,0-17.2-21.7q-10-9.71-20-9.7-10.2,0-15.2,10t-5,25q.4,19.39,8.2,30.6t23.6,11.2q15.4,0,30.4-11l.6.4q-4.6,12.2-16.2,21t-28,8.8a50.7,50.7,0,0,1-35.2-13.6q-15-13.61-15-38.6Q827.12,484.84,841.32,471Z"/><path class="cls-4" d="M944.52,471q14-13.8,36.8-13.8,23,0,34.4,14.3t11.4,35.1h-64.6q1.61,16.39,9.3,25.9t22.1,9.5q15.41,0,31.2-11.6l.8.4q-4.61,12.2-16.4,21.3t-28.6,9.1a50.78,50.78,0,0,1-35.4-13.7q-15-13.69-15-38.5Q930.52,485,944.52,471Zm53.6,24.8q-.79-30.6-17.4-30.6-9.79,0-14.2,9.8t-4.4,23.8v3Z"/></g></g><rect id="Sidebar-2" class="cls-5" y="684.16" width="1984.25" height="1300.09"/></svg>