<svg id="Layer_1" data-name="Layer 1" xmlns="http://www.w3.org/2000/svg" xmlns:xlink="http://www.w3.org/1999/xlink" viewBox="0 0 306.2 445.38"><defs><style>.cls-1{fill:none;}.cls-2{fill:#b9b69b;}.cls-3{clip-path:url(#clip-path);}.cls-4{fill:#231f20;}</style><clipPath id="clip-path" transform="translate(-155.02 -74.52)"><rect class="cls-1" x="31.36" y="31.36" width="532.56" height="532.56"/></clipPath></defs><title>holandka</title><path class="cls-2" d="M317.07,152c39.63,53.34,23.83,111.61,54.4,115.18,28.76,3.37,69.77-38.91,86.39-88,4.76-14.05,6.91-51.39-10.76-62.59-28.91-18.34-44.86,4.1-65.06,1.34-30.38-4.15-58.27-28.5-84.4-6.22C290.44,117.85,306.44,137.67,317.07,152Z" transform="translate(-155.02 -74.52)"/><g class="cls-3"><g class="cls-3"><path class="cls-4" d="M342.33,255.34a28.76,28.76,0,0,0,1.22,16.2,45.12,45.12,0,0,0,8.34,14A70.45,70.45,0,0,0,364,296.65,140.77,140.77,0,0,0,378,305.53c4.8,2.74,9.73,5.3,14.64,8s9.8,5.44,14.53,8.5a96.51,96.51,0,0,1,13.45,10.36,59.55,59.55,0,0,1,10.73,13.32,56.1,56.1,0,0,1,6.06,16,104.56,104.56,0,0,1,2.19,16.74c.32,5.59.48,11.16.53,16.75s0,11.17-.41,16.75a124.43,124.43,0,0,1-2.25,16.63,74.85,74.85,0,0,1-5.12,16,62.24,62.24,0,0,1-9.2,14.12,154.7,154.7,0,0,1-11.52,12.23,148.75,148.75,0,0,1-26.75,20.38,151.59,151.59,0,0,1-14.95,7.82,73.53,73.53,0,0,1-16.13,5.54,39.76,39.76,0,0,1-8.68.86,25,25,0,0,1-8.79-1.57,22.08,22.08,0,0,1-7.65-4.92,30.34,30.34,0,0,1-5.1-7.31c-2.68-5.24-4.11-10.75-5.66-16.1s-2.9-10.8-4.3-16.18c-2.76-10.77-5.71-21.44-9.91-31.59a95.94,95.94,0,0,0-7.45-14.6A72,72,0,0,0,286,400.46a63.31,63.31,0,0,0-12.93-9.92,52.15,52.15,0,0,0-7.37-3.48,45.45,45.45,0,0,0-7.88-2.15c-5.34-.94-11-1.09-16.13.64a19.81,19.81,0,0,0-3.68,1.7,17.48,17.48,0,0,0-3.18,2.51,17.89,17.89,0,0,0-4.15,7l-.36-.11a17.11,17.11,0,0,1,7.14-10.26,20.22,20.22,0,0,1,3.81-2c5.37-2.08,11.26-2.2,16.86-1.39a48.29,48.29,0,0,1,8.29,2,53.8,53.8,0,0,1,7.83,3.39,61.86,61.86,0,0,1,13.8,10,75.83,75.83,0,0,1,10.93,13,100.76,100.76,0,0,1,8,15c4.56,10.36,7.56,21.23,10.46,32,1.43,5.39,2.79,10.78,4.28,16.12s2.95,10.67,5.29,15.41a25.77,25.77,0,0,0,4.34,6.4,18.26,18.26,0,0,0,6.24,4.12,21.49,21.49,0,0,0,7.55,1.42,36,36,0,0,0,7.92-.7A63.71,63.71,0,0,0,360.9,499c2.58-.88,5.1-1.92,7.64-3a148.67,148.67,0,0,0,14.79-7.37,150.47,150.47,0,0,0,38.55-31.09c.92-1,1.86-2.06,2.67-3.16l1.27-1.62.63-.81.56-.87c.72-1.17,1.52-2.29,2.18-3.5L431.1,444c4.69-10,6.68-21.11,7.35-32.15a243.2,243.2,0,0,0-1-33.27,104.23,104.23,0,0,0-2.67-16.29,54.6,54.6,0,0,0-6.19-15,59.84,59.84,0,0,0-10.33-12.47,103.38,103.38,0,0,0-13-10c-9.18-6.07-19.19-11-28.82-16.72a124.36,124.36,0,0,1-14-9.42,72.81,72.81,0,0,1-12.13-11.8,44.27,44.27,0,0,1-8-14.88,32.91,32.91,0,0,1-1.43-8.34,25.9,25.9,0,0,1,1.07-8.36Z" transform="translate(-155.02 -74.52)"/><path class="cls-4" d="M305.3,197.57a489,489,0,0,0-27.51-61.41q-3.94-7.41-8.18-14.68c-1.38-2.43-2.84-4.82-4.27-7.23l-4.41-7.18c-1.47-2.42-2.92-4.88-4.21-7.45-.65-1.29-1.25-2.6-1.82-3.94a18.94,18.94,0,0,1-1.37-4.42,6.37,6.37,0,0,1,.13-2.79A5.48,5.48,0,0,1,255.22,86a9.64,9.64,0,0,1,1-.84c.35-.21.69-.44,1-.63.69-.37,1.38-.69,2.06-1a53.2,53.2,0,0,1,8.28-2.66,73.66,73.66,0,0,1,17.09-1.65,154.33,154.33,0,0,1,16.95,1.2c5.6.66,11.17,1.5,16.73,2.24s11.14,1.34,16.74,1.56a85.63,85.63,0,0,0,16.71-.82,68.5,68.5,0,0,0,16-4.66,74.59,74.59,0,0,1,8-2.86,28.39,28.39,0,0,1,8.56-1.09,33.7,33.7,0,0,1,16.37,5.08,46.38,46.38,0,0,1,12.73,11.56A83.21,83.21,0,0,1,422.43,106a160.68,160.68,0,0,1,6.74,15.65,82.15,82.15,0,0,1,4.23,16.65,80.17,80.17,0,0,1-2.84,34.15A100.05,100.05,0,0,1,415.09,203a138.07,138.07,0,0,1-23.73,24.51c-4.4,3.59-9,7-13.66,10.14a136.55,136.55,0,0,1-14.58,8.84,57.3,57.3,0,0,1-16.25,5.63A19.26,19.26,0,0,1,338,252a21.06,21.06,0,0,1-7.45-4.69,97.31,97.31,0,0,1-11.69-12.33,96.21,96.21,0,0,1-9.37-14.08l.32-.19a102.78,102.78,0,0,0,22,25.15,19.09,19.09,0,0,0,6.83,4,16.88,16.88,0,0,0,7.83-.12,58.42,58.42,0,0,0,15.35-5.81A135.9,135.9,0,0,0,375.83,235c4.56-3.23,9-6.63,13.22-10.24a139.85,139.85,0,0,0,22.81-24.1,105.34,105.34,0,0,0,8.71-14,98.73,98.73,0,0,0,6.24-15.26,76.53,76.53,0,0,0,3.09-32.53,82.37,82.37,0,0,0-3.86-16,153.75,153.75,0,0,0-6.3-15.44A86.79,86.79,0,0,0,411.47,93a44,44,0,0,0-11.76-11.36,31.9,31.9,0,0,0-15.36-5.21,26.33,26.33,0,0,0-8.13.83A70.85,70.85,0,0,0,368.33,80,69.77,69.77,0,0,1,352,84.54a94,94,0,0,1-16.92.9c-5.65-.15-11.28-.66-16.88-1.25S307,83,301.44,82.5a153.52,153.52,0,0,0-16.72-.65,73.31,73.31,0,0,0-16.37,2.06,50.11,50.11,0,0,0-7.72,2.62,11.45,11.45,0,0,0-3.1,1.85,2,2,0,0,0-.66,1,3.12,3.12,0,0,0,0,1.38,15.93,15.93,0,0,0,1.16,3.6c.53,1.25,1.11,2.49,1.73,3.72,1.25,2.44,2.61,4.86,4,7.25,5.9,9.56,11.5,19.42,16.6,29.47a385.32,385.32,0,0,1,25.27,62.63Z" transform="translate(-155.02 -74.52)"/><path class="cls-4" d="M159.35,496.71c-1.17-8.2-1.95-16.41-2.64-24.63l-.49-6.17-.41-6.17q-.44-6.17-.59-12.36c-.11-4.12-.14-8.25-.17-12.38l0-3.1a16.47,16.47,0,0,1,.25-3.25,9.55,9.55,0,0,1,1.19-3.1,19.19,19.19,0,0,1,1.9-2.59c1.34-1.59,2.66-3.11,3.85-4.79s2.36-3.36,3.47-5.1a110.61,110.61,0,0,1,7.12-10.25,44.67,44.67,0,0,1,9.36-8.54c3.47-2.41,7.12-4.43,10.72-6.44l10.8-6c1.8-1,3.61-2,5.43-3l2.72-1.47.34-.19.43-.22a7.5,7.5,0,0,1,1-.39,4.3,4.3,0,0,1,1.38-.19,3.24,3.24,0,0,1,3,2.13,4.59,4.59,0,0,1,.26,1.37c0,.41,0,.69,0,1a6.61,6.61,0,0,1-.14,1,10.4,10.4,0,0,1-1.47,3.5,19.54,19.54,0,0,1-4.79,4.81c-.85.65-1.71,1.25-2.55,1.84s-1.64,1.16-2.42,1.79a59,59,0,0,0-4.62,3.89,70.63,70.63,0,0,0-14.71,19.34l-.35-.15a59.17,59.17,0,0,1,13-21.29,61.08,61.08,0,0,1,4.58-4.38c.79-.7,1.64-1.35,2.46-2s1.61-1.25,2.37-1.89a17.83,17.83,0,0,0,3.8-4,6.36,6.36,0,0,0,.86-2.18,5.15,5.15,0,0,0,.08-1.07c0-.12,0-.19,0-.14a.72.72,0,0,0,.26.33.8.8,0,0,0,.35.14l-.14,0a2.46,2.46,0,0,0-.42.17l-.25.12-.34.19L211,382.37c-1.81,1-3.63,1.95-5.46,2.89l-11,5.69c-3.66,1.91-7.29,3.76-10.74,5.86a45.21,45.21,0,0,0-9.47,7.37c-5.6,5.85-9.66,13.25-15,19.55a10.51,10.51,0,0,0-2.51,5.17,32.56,32.56,0,0,0,.33,6c.43,4.1.87,8.21,1.22,12.32s.61,8.22.79,12.34l.28,6.18.2,6.19c.23,8.24.37,16.49.12,24.77Z" transform="translate(-155.02 -74.52)"/><path class="cls-4" d="M202.86,519.9a18.49,18.49,0,0,1-9.34-6,23.33,23.33,0,0,1-4.47-10.3,51,51,0,0,1-.78-11.22c.1-3.74.46-7.46.88-11.16,1.7-14.74,3.6-29.54,7.27-44a154.4,154.4,0,0,1,7-21.3,169.14,169.14,0,0,1,38-55.14c5.4-5.21,11.12-9.93,15.92-15.35a42.5,42.5,0,0,0,6.15-8.74,28.1,28.1,0,0,0,3.08-10c.84-7-1-14.21-4.17-20.6a63.61,63.61,0,0,0-13.26-17.11c-2.65-2.53-5.45-4.92-8.3-7.25a18,18,0,0,0-9.51-4,88,88,0,0,0-11-.35,90.41,90.41,0,0,1-11.25-.36c-3.74-.45-7.63-1.38-10.85-3.73a13.48,13.48,0,0,1-3.89-4.41,14.51,14.51,0,0,1-1.17-2.69,12,12,0,0,1-.63-2.89,9,9,0,0,1,.22-3,16.45,16.45,0,0,1,1-2.74c.38-.85.74-1.67,1-2.51.15-.42.27-.85.38-1.27a2.27,2.27,0,0,0,0-.51c0-.22,0-.44,0-.67-.12-1.8-.35-3.64-.65-5.44-.15-.9-.33-1.8-.56-2.66a8.44,8.44,0,0,0-.4-1.23,2.5,2.5,0,0,0-.25-.47s-.07-.08,0,0,.23.07.31,0l-.64-1.2A21.7,21.7,0,0,1,204.36,239l1,.06-.51.89a10,10,0,0,1-13.35,3.46l-.22-.14-.05-.26a2.65,2.65,0,0,1,.31-1.83,3.78,3.78,0,0,1,1.22-1.26A5.26,5.26,0,0,1,196,239c2.13.16,4,1,5.79.82a3.33,3.33,0,0,0,2.14-1.22,1.56,1.56,0,0,0,.18-2,5.39,5.39,0,0,0-2.35-1.17l-2.82-.94c-1.89-.64-3.79-1.29-5.64-2.1a2.2,2.2,0,0,0-1.07-.33.65.65,0,0,0-.3.13s.08-.13.09-.19,0-.14,0-.09a.59.59,0,0,0,.08.16,3.86,3.86,0,0,0,1,.77c.41.26.83.47,1.3.78a30.5,30.5,0,0,0,5.09,2.88c.44.2.89.38,1.35.56.21.08.49.19.64.23l.7.18,1.46.37.74.21.39.13.23.09.15.08.05,0,.12.11a1,1,0,0,1,.18.29l-1.28.4a9.23,9.23,0,0,0-5.1-5.47,9.06,9.06,0,0,0-7.45-.16l.21-1.2a30.64,30.64,0,0,0,12.65,7.19l-1.07.89a11.47,11.47,0,0,0-11.59-9.85l.88-1.27A12.86,12.86,0,0,0,204,238l-.95,1.76a38,38,0,0,0-11.62-10.12l-2.26-1.26,2.4-1c1.61-.64,2.38-2.78,2.15-4.79a6.1,6.1,0,0,0-.32-1.48,6.86,6.86,0,0,0-.65-1.38,14.29,14.29,0,0,0-2-2.58c-1.58-1.65-3.5-3.11-5.23-5.06a16.3,16.3,0,0,1-2.26-3.24,10.06,10.06,0,0,1-1.14-4,8.2,8.2,0,0,1,1-4.23,10.56,10.56,0,0,1,2.71-3.16,34,34,0,0,1,6.53-3.77,34.93,34.93,0,0,0,11.11-8.13,35.59,35.59,0,0,0,7.21-11.66,46.6,46.6,0,0,0,2.58-13.65c.36-4.75.57-9.7,1.83-14.61A67.08,67.08,0,0,1,220.79,132a81.19,81.19,0,0,0,5.76-12.86,24.48,24.48,0,0,0,.35-13.2,14.94,14.94,0,0,0-2.81-5.7,10.84,10.84,0,0,0-4.93-3.43,6.34,6.34,0,0,0-5.26.41A3.34,3.34,0,0,0,212.54,99a5.1,5.1,0,0,0-.09,2.53,7.33,7.33,0,0,0,1.11,2.57,7.48,7.48,0,0,0,2.11,2,26.15,26.15,0,0,0,5.84,3.23,25.45,25.45,0,0,0,13.11,1.59,17.81,17.81,0,0,0,6.09-2.08,16.34,16.34,0,0,0,4.71-4.25,18.22,18.22,0,0,0,3.35-12.27A17.09,17.09,0,0,0,247,86.17a15.8,15.8,0,0,0-4-5,12.86,12.86,0,0,0-5.59-2.69,10.85,10.85,0,0,0-6,.61,9.17,9.17,0,0,0-4.52,3.75,12.29,12.29,0,0,0-1.49,6,41,41,0,0,0,2.32,13.53c3,8.83,8.49,16.73,14.77,23.8S256.06,139.67,263,146.4c3.47,3.37,6.86,6.85,10,10.56a102.63,102.63,0,0,1,8.64,11.78,99,99,0,0,1,11.63,26.65c.61,2.35,1.17,4.71,1.61,7.1a51.42,51.42,0,0,1,.93,7.27,22.53,22.53,0,0,1-.76,7.38,13.46,13.46,0,0,1-1.53,3.45,10,10,0,0,1-2.56,2.83,10.87,10.87,0,0,1-7.19,2,8.19,8.19,0,0,1-3.6-1.2,6.25,6.25,0,0,1-2.43-2.94,6.92,6.92,0,0,1-.36-3.74,10.85,10.85,0,0,1,1.27-3.48,26.55,26.55,0,0,1,4.54-5.68l.26.27a26.4,26.4,0,0,0-4.27,5.69,10.2,10.2,0,0,0-1.1,3.3,6.33,6.33,0,0,0,.42,3.34,5.41,5.41,0,0,0,2.15,2.48,7.25,7.25,0,0,0,3.2,1,9.82,9.82,0,0,0,6.41-1.91,10.7,10.7,0,0,0,3.49-5.71,20.89,20.89,0,0,0,.52-6.93,51.35,51.35,0,0,0-1.07-7c-.47-2.33-1.07-4.64-1.7-6.94A97.23,97.23,0,0,0,279.65,170,98.86,98.86,0,0,0,271,158.69c-3.15-3.57-6.55-6.92-10-10.22-6.95-6.59-14.28-12.9-20.87-20.1S227.75,113,224.41,103.59a45.08,45.08,0,0,1-2.67-14.76A16,16,0,0,1,223.66,81,13,13,0,0,1,230,75.62a14.54,14.54,0,0,1,8.15-.87,16.61,16.61,0,0,1,7.31,3.45,19.64,19.64,0,0,1,5,6.17A21.07,21.07,0,0,1,252.7,92a22.05,22.05,0,0,1-.67,7.84,21.14,21.14,0,0,1-3.37,7.15,20,20,0,0,1-5.93,5.36,21.88,21.88,0,0,1-7.48,2.57,30.05,30.05,0,0,1-22-5.58,11.52,11.52,0,0,1-3-3,11.34,11.34,0,0,1-1.72-4,8.83,8.83,0,0,1,.22-4.6,7.38,7.38,0,0,1,2.94-3.83,8.89,8.89,0,0,1,4.38-1.39,11.84,11.84,0,0,1,4.28.55,14.91,14.91,0,0,1,6.75,4.72A19.07,19.07,0,0,1,230.6,105a28.2,28.2,0,0,1-.47,15.3,84.88,84.88,0,0,1-6.1,13.42,63.28,63.28,0,0,0-5.52,12.87c-1.18,4.43-1.44,9.16-1.82,14-.2,2.41-.44,4.86-.88,7.32a39.5,39.5,0,0,1-2,7.26,39.46,39.46,0,0,1-13.67,17.6,40.44,40.44,0,0,1-6.48,3.74,31.47,31.47,0,0,0-6,3.34,7.75,7.75,0,0,0-2,2.24,5.37,5.37,0,0,0-.67,2.71,9.52,9.52,0,0,0,2.63,5.54c1.44,1.67,3.34,3.2,5.07,5a17.27,17.27,0,0,1,2.36,3.12,9.35,9.35,0,0,1,.84,1.9,9.09,9.09,0,0,1,.41,2,8.59,8.59,0,0,1-.64,4.16,6.65,6.65,0,0,1-1.24,1.86,6,6,0,0,1-1.9,1.29l.14-2.21a40.29,40.29,0,0,1,12.16,10.94l1.4,1.91-2.34-.15a15,15,0,0,1-13-10.26l-.37-1.21,1.25-.06a13.28,13.28,0,0,1,13.37,11.64l.11,1.24-1.19-.35a32.35,32.35,0,0,1-13.2-7.75l-.79-.77,1-.44a10.69,10.69,0,0,1,8.62.25,10.54,10.54,0,0,1,5.81,6.33l-1.28.4a.65.65,0,0,0,.11.22.39.39,0,0,0,.1.08h0l-.12,0-.31-.11-.7-.19-1.43-.37-.74-.2c-.33-.1-.5-.18-.76-.27q-.7-.28-1.41-.6a31.41,31.41,0,0,1-5.26-3c-.36-.24-.82-.48-1.26-.76a4.87,4.87,0,0,1-1.32-1.11,2,2,0,0,1-.26-.5,1.11,1.11,0,0,1-.06-.45.87.87,0,0,1,.24-.52,1.76,1.76,0,0,1,1-.52,2.17,2.17,0,0,1,1,.12c.29.1.5.21.73.31,1.79.79,3.65,1.45,5.53,2.09l2.82,1c.47.17.94.32,1.45.54a3.79,3.79,0,0,1,1.43,1,2.49,2.49,0,0,1,.53,1.82,3.19,3.19,0,0,1-.72,1.65,4.52,4.52,0,0,1-2.92,1.65c-2.24.2-4.14-.76-6-.83a4.17,4.17,0,0,0-2.48.68,1.92,1.92,0,0,0-1,1.92l-.28-.4a8.73,8.73,0,0,0,11.63-3.08l.52,1a20.45,20.45,0,0,0-10.63,2.38l-.64-1.2a1.11,1.11,0,0,1,.5-.12,1.05,1.05,0,0,1,.48.13,1.54,1.54,0,0,1,.47.43,3.51,3.51,0,0,1,.41.75,10.21,10.21,0,0,1,.48,1.41c.25.92.44,1.85.61,2.78.32,1.85.56,3.7.7,5.6,0,.24,0,.47,0,.72a3.58,3.58,0,0,1,0,.88c-.13.47-.25.94-.41,1.4-.31.92-.7,1.79-1.06,2.64a14.06,14.06,0,0,0-.89,2.49,7.3,7.3,0,0,0-.14,2.51,13.12,13.12,0,0,0,1.69,4.91,11.94,11.94,0,0,0,3.47,3.81c2.86,2,6.46,2.84,10,3.2,7.25.71,14.64-.41,22.28.32a21.57,21.57,0,0,1,5.7,1.38,20.21,20.21,0,0,1,5.11,3c2.93,2.3,5.82,4.69,8.59,7.24,5.51,5.09,10.6,10.86,14.15,17.69a45.89,45.89,0,0,1,4,10.8,35.22,35.22,0,0,1,.73,11.59,31.33,31.33,0,0,1-3.4,11.16,46.16,46.16,0,0,1-6.6,9.44c-5,5.73-10.89,10.4-16.19,15.48a163.56,163.56,0,0,0-27.52,34.3,156.09,156.09,0,0,0-17.39,40.4c-1.93,7.12-3.43,14.36-4.69,21.65s-2.26,14.64-3.31,22c-.51,3.67-1,7.33-1.16,11a50.24,50.24,0,0,0,.47,11,22.8,22.8,0,0,0,4,10,17.89,17.89,0,0,0,8.86,6.16Z" transform="translate(-155.02 -74.52)"/></g></g></svg>