<svg id="Layer_1" data-name="Layer 1" xmlns="http://www.w3.org/2000/svg" xmlns:xlink="http://www.w3.org/1999/xlink" viewBox="0 0 282.42 339.94"><defs><style>.cls-1{fill:none;}.cls-2{fill:#e9e9f0;}.cls-3{clip-path:url(#clip-path);}.cls-4{fill:#231f20;}</style><clipPath id="clip-path" transform="translate(-156.44 -117.15)"><rect class="cls-1" x="101.94" y="101.94" width="391.39" height="391.39"/></clipPath></defs><title>ivana</title><path class="cls-2" d="M239.1,125.63c-28.63,23-11.26,53.93-25.53,73.85-39.84,55.65-25.42,111-11.81,116.5,17.84,7.21,25.44,44.54,45.12,32.83,25.57-15.22,22.78-104.36,72.61-130.19,16.17-8.38,22.7-6.18,32.77-18.06,11.91-14,16.05-37.84,8.72-57.26-11-29.15-46.28-21.82-56.25-23.66C268.86,113,244.64,121.19,239.1,125.63Z" transform="translate(-156.44 -117.15)"/><g class="cls-3"><g class="cls-3"><path class="cls-4" d="M438.64,457.09a69.91,69.91,0,0,0-16.3-14.2A116.26,116.26,0,0,0,403,433.11c-6.71-2.69-13.61-4.92-20.51-7.19s-13.86-4.46-20.68-7.11c-1.7-.67-3.41-1.34-5.09-2.07s-3.39-1.47-5-2.35A30,30,0,0,1,347,411.3,18.17,18.17,0,0,1,343,407a13,13,0,0,1-2-5.61,14.72,14.72,0,0,1,.56-5.85,33.22,33.22,0,0,1,5.27-9.94,62.72,62.72,0,0,0,5.89-9,13.5,13.5,0,0,0-.66-14.61c-.46-.65-1.13-1.29-1.74-2a7.07,7.07,0,0,1-.86-1.23,3.71,3.71,0,0,1-.49-1.59,3.64,3.64,0,0,1,.81-2.37,5.46,5.46,0,0,1,.53-.54,4.61,4.61,0,0,0,.78-.91,3.71,3.71,0,0,0,.46-1.06,3.8,3.8,0,0,0-1.57-4.12l-.84-.56.9-.43A6.71,6.71,0,0,0,352,346a1.86,1.86,0,0,0,.54-1.79,2.88,2.88,0,0,0-1.47-1.47,8.37,8.37,0,0,0-2.23-.8,13.45,13.45,0,0,0-4.86,0c-1.63.24-3.26.64-4.9,1-3.3.65-6.47,1.74-9.84,2.34a19.29,19.29,0,0,1-5.15.24,11.72,11.72,0,0,1-5-1.59l.54-.74a11.83,11.83,0,0,0,5.48,2.37,46.42,46.42,0,0,0,6.16.66c4.15.24,8.33.08,12.54.24,2.1.07,4.22.21,6.31.49a48.81,48.81,0,0,0,6.19.08c1.06,0,2.16.1,3.18.14l3.1.17,1.59.08c.56,0,1.07.09,1.58.13a12.38,12.38,0,0,0,1.47.05,2.43,2.43,0,0,0,1-.2l0,1.45a21.17,21.17,0,0,0-7.24-3.11,32.17,32.17,0,0,0-7.95-.84l0-2.13a1,1,0,0,0-1,.75.74.74,0,0,0,0,.25v.07l0-.12c0-.1-.08-.23-.12-.35l-.31-.78c-.23-.53-.46-1.06-.7-1.59l-1.51-3.24a16.67,16.67,0,0,1-1.17-7.43,15.91,15.91,0,0,1,.72-3.72c.35-1.17.73-2.25,1-3.3a5.38,5.38,0,0,0,0-2.82,4,4,0,0,0-1.69-2.06,10.08,10.08,0,0,0-5.9-1.7,7.7,7.7,0,0,0-2.89.59c-.74.39-.9.79-.78,1.4a4.35,4.35,0,0,0,1.57,2.07,5.39,5.39,0,0,0,.6.43,2.49,2.49,0,0,0,.48.25c.23.05.27,0,.53-.1a4.09,4.09,0,0,0,.9-.94c.17-.21.34-.45.54-.7l.65-.76a13.11,13.11,0,0,1,3.14-2.42,14,14,0,0,1,3.69-1.34,13.41,13.41,0,0,1,3.9-.27,12.66,12.66,0,0,1,3.86.88,9.34,9.34,0,0,1,.91.41,6.83,6.83,0,0,1,.88.49A7.77,7.77,0,0,1,362,318a4.55,4.55,0,0,1,.76,1.1,3.43,3.43,0,0,1,.31,1.54,3.24,3.24,0,0,1-.49,1.57,2.58,2.58,0,0,1-1.58,1.12,2.53,2.53,0,0,1-2-.35,3.21,3.21,0,0,1-1.06-1.24,3.66,3.66,0,0,1-.38-1.42,3.3,3.3,0,0,1,.28-1.55,5.47,5.47,0,0,1,1.5-1.87c.52-.44,1-.78,1.4-1.1a6.82,6.82,0,0,0,1.75-2.28,10.26,10.26,0,0,0,.74-6,21,21,0,0,0-2.24-6.18c-1-2-2.28-4-3.43-6.14a26.07,26.07,0,0,1-2.72-6.92,25,25,0,0,1-.35-7.45,49.7,49.7,0,0,1,1.21-7.17,20.07,20.07,0,0,1,1.24-3.56,14.2,14.2,0,0,1,2.09-3.27,16.63,16.63,0,0,1,6.2-4.39,20.39,20.39,0,0,1,7.31-1.49,30.54,30.54,0,0,1,7.29.75,35.43,35.43,0,0,1,3.53.94,13,13,0,0,1,3.45,1.69,7.18,7.18,0,0,1,2.57,3.2,6.46,6.46,0,0,1,0,4.12,10.86,10.86,0,0,1-1.8,3.42,13.83,13.83,0,0,1-2.73,2.67,7.22,7.22,0,0,1-3.76,1.32,5.19,5.19,0,0,1-2.06-.3,6.24,6.24,0,0,1-1.76-1c-.5-.38-.95-.78-1.38-1.14-.22-.18-.45-.32-.67-.48a4.49,4.49,0,0,0-.69-.44,11.07,11.07,0,0,0-3.05-1.22,12.41,12.41,0,0,0-6.59.3,11.52,11.52,0,0,0-3,1.52,5.1,5.1,0,0,0-.6.46c-.1.15-.09.06-.06.29a10.11,10.11,0,0,0,.59,1.54,7.2,7.2,0,0,0,4.79,4.25,4.86,4.86,0,0,0,3.19-.33,4.23,4.23,0,0,0,2.06-2.44,3.67,3.67,0,0,0,.13-1.61,3.58,3.58,0,0,0-.66-1.51,7.79,7.79,0,0,0-2.68-2.12l.13-.25a8.21,8.21,0,0,1,2.9,2.11,4.07,4.07,0,0,1,.81,1.67,4.12,4.12,0,0,1-.08,1.88,4.8,4.8,0,0,1-2.28,2.89,5.63,5.63,0,0,1-3.69.52,7,7,0,0,1-3.34-1.64,9.73,9.73,0,0,1-2.25-2.94,11.21,11.21,0,0,1-.72-1.73,1.51,1.51,0,0,1-.05-.69,1.41,1.41,0,0,1,.33-.66,5.92,5.92,0,0,1,.76-.66,12.28,12.28,0,0,1,3.25-1.79,13.88,13.88,0,0,1,7.34-.52,12.69,12.69,0,0,1,3.51,1.3,11,11,0,0,1,1.58,1c.49.37.94.75,1.38,1.07a3.86,3.86,0,0,0,2.73.87,5.41,5.41,0,0,0,2.78-1.07,10.45,10.45,0,0,0,3.64-5.14,4.37,4.37,0,0,0-.06-2.82,5,5,0,0,0-1.84-2.18,17.53,17.53,0,0,0-6.2-2.17,27.87,27.87,0,0,0-6.73-.59,17.91,17.91,0,0,0-6.43,1.41,14.1,14.1,0,0,0-5.18,3.78,13.36,13.36,0,0,0-2.67,5.79c-.95,4.45-1.68,9.12-.74,13.36a23.62,23.62,0,0,0,2.5,6.15c1.1,2,2.37,4,3.5,6.17a23.34,23.34,0,0,1,2.54,7.05,13.19,13.19,0,0,1-1,7.78,9.61,9.61,0,0,1-2.52,3.26c-.53.44-1,.77-1.38,1.08a2.54,2.54,0,0,0-.72.85.56.56,0,0,0,.05.44.54.54,0,0,0,.06.1.5.5,0,0,0-.32,0,.42.42,0,0,0-.19.12s0,0,0-.1,0-.05,0-.17a1.22,1.22,0,0,0-.24-.35,5.15,5.15,0,0,0-1.09-.83,4.28,4.28,0,0,0-.66-.37,4.77,4.77,0,0,0-.69-.32,9.6,9.6,0,0,0-3-.71,11.14,11.14,0,0,0-6,1.22,10.39,10.39,0,0,0-2.45,1.85l-.5.58c-.17.2-.35.44-.54.69a6.9,6.9,0,0,1-1.59,1.54,3.35,3.35,0,0,1-1.36.51,3.09,3.09,0,0,1-1.49-.14,5,5,0,0,1-1.09-.54c-.29-.19-.55-.38-.83-.6a6.9,6.9,0,0,1-2.47-3.57,3.76,3.76,0,0,1,.34-2.64,4.15,4.15,0,0,1,1.86-1.71,7.28,7.28,0,0,1,2-.63,11.74,11.74,0,0,1,2-.2,12.61,12.61,0,0,1,7.43,2.21,7.84,7.84,0,0,1,1.54,1.41,5.76,5.76,0,0,1,1.07,2,7.59,7.59,0,0,1,0,4.15c-.3,1.24-.73,2.37-1.07,3.45a13.83,13.83,0,0,0-.67,3.2,14.32,14.32,0,0,0,.91,6.41l1.42,3.18c.24.55.47,1.1.7,1.66.11.28.23.56.33.86s.11.31.16.49,0,.18.08.31,0,.14,0,.28a1.13,1.13,0,0,1,0,.36,1.14,1.14,0,0,1-1.05.83l0-2.13a32.65,32.65,0,0,1,8.46,1.06,22.91,22.91,0,0,1,7.79,3.59l1.09.8-1.11.65a3.68,3.68,0,0,1-2,.47,14.72,14.72,0,0,1-1.66-.09c-.54-.06-1.06-.13-1.54-.17l-1.55-.11-3.15-.25c-1.08-.07-2.06-.19-3.08-.2a50.73,50.73,0,0,1-6.35-.23c-2.05-.31-4.11-.49-6.18-.6-4.15-.22-8.35-.21-12.55-.46a47.89,47.89,0,0,1-6.29-.72,12.86,12.86,0,0,1-5.89-2.62l.54-.74a10.73,10.73,0,0,0,4.57,1.49,18,18,0,0,0,4.91-.19c3.26-.55,6.47-1.7,9.78-2.36,1.63-.38,3.28-.79,5-1.05a14.77,14.77,0,0,1,5.18,0,9.44,9.44,0,0,1,2.51.86,3.84,3.84,0,0,1,2,2,2.45,2.45,0,0,1,0,1.56,3.51,3.51,0,0,1-.74,1.29,7.77,7.77,0,0,1-2.25,1.52l.06-1a5.1,5.1,0,0,1,1.95,2.33,4.93,4.93,0,0,1,.24,3.06,5.24,5.24,0,0,1-.58,1.43,5.81,5.81,0,0,1-1,1.19,5.5,5.5,0,0,0-.42.44,2,2,0,0,0-.26.45,1.66,1.66,0,0,0-.19,1,3.76,3.76,0,0,0,1.07,2c.56.65,1.24,1.24,1.86,2.06a16,16,0,0,1,2.5,5.15,14,14,0,0,1,.35,5.76,19.33,19.33,0,0,1-1.67,5.46,64,64,0,0,1-5.85,9.39,32.22,32.22,0,0,0-4.78,9.3,11.41,11.41,0,0,0,1.22,9.5,15.67,15.67,0,0,0,3.41,3.69,29.58,29.58,0,0,0,4.37,2.85c1.56.84,3.16,1.59,4.83,2.29s3.32,1.4,5,2.07c13.44,5.3,27.54,9.15,41,14.94A109.66,109.66,0,0,1,423,441.93a67.36,67.36,0,0,1,15.88,15Z" transform="translate(-156.44 -117.15)"/><path class="cls-4" d="M326.92,346.84c1.73.61,3.3,1.29,4.9,1.91s3.19,1.18,4.76,1.89a31.11,31.11,0,0,0,4.82,2,18.14,18.14,0,0,0,5.2.58c1.77,0,3.51-.07,5.26,0l2.61,0a14.16,14.16,0,0,0,2.26-.09,5.38,5.38,0,0,0,1.85-.76c.64-.4,1.3-.93,2-1.47a13.89,13.89,0,0,1,2.34-1.53,4.67,4.67,0,0,1,2.82-.51l0,.27c-1.66.65-2.55,2-3.68,3.33a14.54,14.54,0,0,1-1.92,2.05,6.77,6.77,0,0,1-2.86,1.51,9.36,9.36,0,0,1-3,.08c-.88-.1-1.77-.19-2.65-.32s-1.77-.25-2.64-.42-1.75-.42-2.61-.66a46,46,0,0,0-5.2-1.21c-1.75-.28-3.59-.34-5.37-.73a17.26,17.26,0,0,1-9.08-5.76Z" transform="translate(-156.44 -117.15)"/><path class="cls-4" d="M410.93,200a58.75,58.75,0,0,0-2.42,5.94,28.41,28.41,0,0,0-1.47,9.22c0,1,0,2.09.07,3.14l.24,3.17c0,.25,0,.55,0,.86s0,.61,0,.91a16.57,16.57,0,0,1-.25,1.76c-.49,2.26-1.39,4.17-1.52,6.16a14.62,14.62,0,0,0,1.24,6.06c.8,2,1.67,4,2.29,6.11a53.4,53.4,0,0,1,1.54,6.38,61.54,61.54,0,0,1,1,13.07,68.39,68.39,0,0,1-1.53,13.07c-.26,1.07-.53,2.14-.82,3.2l-.46,1.58a13.6,13.6,0,0,1-.59,1.65,15,15,0,0,1-4.17,5.58,17.57,17.57,0,0,1-5.95,3.24l-1.55.48a7.39,7.39,0,0,1-1.71.37c-1.33,0-2.19-.71-3.23-.7l0-.27c1.14-.25,2.29.31,3.15.08a6.56,6.56,0,0,0,1.38-.56l.74-.37.72-.34a18.13,18.13,0,0,0,5-3.53,13.76,13.76,0,0,0,3.16-5c.16-.47.28-.9.41-1.42l.39-1.54c.25-1,.47-2.07.68-3.11a96.34,96.34,0,0,0,1.81-12.57c.15-2.12.22-4.24.24-6.37s0-4.27-.14-6.4a37.25,37.25,0,0,0-.94-6.31,27,27,0,0,0-1-3c-.37-1-.84-2-1.26-3s-.88-2-1.22-3.06a13.06,13.06,0,0,1-.71-3.34c-.16-2.37.54-4.57.77-6.55a10.47,10.47,0,0,0,.11-1.46c0-.24,0-.48,0-.71s0-.46-.06-.74c-.11-1.09-.21-2.19-.23-3.29s0-2.22,0-3.33.21-2.23.38-3.34a26.16,26.16,0,0,1,5.63-11.88Z" transform="translate(-156.44 -117.15)"/><path class="cls-4" d="M351.51,384.54a38.5,38.5,0,0,0,8.07-3.12,13.14,13.14,0,0,0,3.16-2.61,23.9,23.9,0,0,0,2.35-3.49c.72-1.24,1.49-2.58,2.37-3.81s1.8-2.38,2.69-3.53,1.77-2.29,2.55-3.45a36.86,36.86,0,0,0,2.14-3.66,77.75,77.75,0,0,0,3.48-7.94c1.07-2.73,2.1-5.49,3.07-8.25s1.91-5.56,2.73-8.36a48.53,48.53,0,0,0,1.64-8.55,77.74,77.74,0,0,1,1.38-8.78c.62-2.89,1.35-5.72,1.91-8.54.28-1.42.52-2.83.67-4.24a30.93,30.93,0,0,0,.18-4.2c0-1.4-.14-2.81-.31-4.22s-.42-2.91-.56-4.39a42.7,42.7,0,0,1-.2-4.55,32.47,32.47,0,0,1,.41-4.55c.45-2.95,1.11-5.82,1.5-8.64a33.05,33.05,0,0,0-.29-8.51c-.19-1.46-.36-2.93-.45-4.41a22.82,22.82,0,0,1,.1-4.45h.27a27.38,27.38,0,0,0,.52,4.33c.27,1.42.63,2.84.95,4.27a30.23,30.23,0,0,1,1.06,9c-.19,3-.7,5.92-1,8.78a35.43,35.43,0,0,0-.24,4.21,40.28,40.28,0,0,0,.3,4.23c.16,1.44.36,2.82.55,4.35a34.42,34.42,0,0,1,.27,4.55,33.35,33.35,0,0,1-.34,4.57c-.22,1.5-.51,3-.85,4.43-.67,2.91-1.51,5.74-2.3,8.54-.4,1.4-.78,2.8-1.12,4.2s-.62,2.84-.92,4.28-.58,2.89-1,4.33-.82,2.86-1.28,4.26c-.94,2.79-1.89,5.56-2.77,8.36s-1.69,5.62-2.47,8.45a61,61,0,0,1-2.86,8.46,27.72,27.72,0,0,1-2.16,4,39.5,39.5,0,0,1-2.69,3.62c-.93,1.14-1.86,2.26-2.71,3.4s-1.64,2.3-2.45,3.55a22,22,0,0,1-2.8,3.62,12.47,12.47,0,0,1-1.82,1.51,14.92,14.92,0,0,1-2,1.14,28.51,28.51,0,0,1-8.69,2.09Z" transform="translate(-156.44 -117.15)"/><path class="cls-4" d="M410,201.34a13.21,13.21,0,0,0,.59-5.41,28.55,28.55,0,0,0-1.1-5.38,10.08,10.08,0,0,0-4.41-6.54c-.74-.52-1.52-1-2.3-1.49a49.24,49.24,0,0,1-4.71-3.07c-1.47-1.16-2.88-2.39-4.23-3.67a108.81,108.81,0,0,1-7.62-8.18c-2.41-2.82-4.78-5.66-7.3-8.32a51.79,51.79,0,0,0-8.2-7.2,36.7,36.7,0,0,0-9.72-4.65,50,50,0,0,0-10.69-1.85c-3.64-.24-7.32-.19-11-.07-1.85.06-3.68.17-5.56.21-1,0-1.89,0-2.83,0s-1.88-.06-2.82-.11c-7.52-.42-14.85-2-22.11-3.39-3.63-.73-7.25-1.42-10.87-2a45,45,0,0,0-10.77-.62,23.1,23.1,0,0,0-5.17,1,27.07,27.07,0,0,0-4.84,2.15,59.71,59.71,0,0,0-8.81,6.38,81.38,81.38,0,0,0-15,15.94,52.72,52.72,0,0,0-2.88,4.64c-.44.8-.87,1.6-1.25,2.42a26.89,26.89,0,0,0-1.09,2.47,20.8,20.8,0,0,0-1.27,5.17,11.63,11.63,0,0,0,.5,5.13,7.46,7.46,0,0,0,3.16,3.82,14.41,14.41,0,0,0,5,1.67,33.31,33.31,0,0,0,10.87.24,43.14,43.14,0,0,0,19.93-8.62,48.27,48.27,0,0,0,7.92-7.6,42,42,0,0,0,5.89-9.26A28.16,28.16,0,0,0,300,154.65a15.34,15.34,0,0,0-.57-5.33,7.6,7.6,0,0,0-3-4.17,9.8,9.8,0,0,0-5-1.5,17.75,17.75,0,0,0-5.36.58,29,29,0,0,0-9.88,4.48,44.33,44.33,0,0,0-8.11,7.32,69,69,0,0,0-6.55,8.82c-3.91,6.22-7.07,12.93-10.79,19.39a88.23,88.23,0,0,1-6.14,9.41,34.27,34.27,0,0,1-3.84,4.24c-1.39,1.3-2.86,2.49-4.33,3.63a62.92,62.92,0,0,0-8.28,7.1c-.61.65-1.15,1.35-1.69,2s-1,1.43-1.49,2.23c-1,1.56-1.9,3.13-2.79,4.73a66.39,66.39,0,0,0-4.56,9.89A39.8,39.8,0,0,0,215.34,238a28.82,28.82,0,0,0,1.13,10.5c.13.43.23.86.39,1.27l.5,1.23.49,1.23c.19.4.41.79.61,1.19a24.93,24.93,0,0,0,2.8,4.48,23.41,23.41,0,0,0,8,6.64,21.6,21.6,0,0,0,10.11,2.13,32.19,32.19,0,0,0,5.26-.58c.88-.18,1.74-.38,2.6-.62s1.73-.51,2.6-.77a46.41,46.41,0,0,0,9.79-4.41,35.57,35.57,0,0,0,8.14-6.83,43.67,43.67,0,0,0,6-8.89c3.34-6.43,5.93-13.55,10.26-19.87a55.09,55.09,0,0,1,7.39-8.65,75.46,75.46,0,0,1,8.77-7.13c3.07-2.16,6.25-4.15,9.49-6l2.43-1.38,1.22-.68,1.27-.65c.43-.21.85-.44,1.29-.64l1.31-.56c.87-.4,1.78-.71,2.68-1a39.88,39.88,0,0,1,22.54-1.08,33.63,33.63,0,0,1,10.44,4.59l1.19.8a11.4,11.4,0,0,1,1.15.93c.72.64,1.37,1.28,2,1.83a5.92,5.92,0,0,0,2.08,1.19,13.08,13.08,0,0,0,2.54.42c.9.07,1.82.1,2.78.19s1.87.25,2.81.4a30.16,30.16,0,0,1,5.54,1.39,16.5,16.5,0,0,1,5,2.92,20.55,20.55,0,0,1,3.69,4.4c1,1.6,1.89,3.25,2.77,4.87s1.77,3.27,2.59,4.95a32.79,32.79,0,0,1,3.45,10.68,57.83,57.83,0,0,1-.2,11.17l-.45,5.53a33.21,33.21,0,0,0,.57,5.49l-.28,0a33.87,33.87,0,0,1-.74-5.54c.08-1.86.19-3.7.29-5.56a56.22,56.22,0,0,0-.08-11A31.48,31.48,0,0,0,386,226.32c-.84-1.63-1.75-3.24-2.67-4.85s-1.8-3.22-2.81-4.73a18.82,18.82,0,0,0-3.49-4,14.85,14.85,0,0,0-4.59-2.55,27.84,27.84,0,0,0-5.25-1.22c-.89-.12-1.84-.26-2.7-.33s-1.81-.08-2.76-.14a14.85,14.85,0,0,1-2.94-.44,7.71,7.71,0,0,1-2.74-1.48c-.78-.62-1.46-1.27-2.13-1.84a10.84,10.84,0,0,0-1-.79l-1.13-.74a32.66,32.66,0,0,0-9.86-4.17,37.66,37.66,0,0,0-21.23,1.26c-.85.3-1.7.6-2.51,1l-1.23.54-1.2.62-1.19.62-1.2.69L311,205.11c-3.17,1.87-6.26,3.85-9.22,6a61.51,61.51,0,0,0-15.37,15.2c-4.06,6-6.56,12.92-10,19.64a45.37,45.37,0,0,1-6.4,9.48,38.61,38.61,0,0,1-8.83,7.39,49,49,0,0,1-10.42,4.7c-.91.26-1.81.55-2.73.8s-1.87.46-2.81.65a34.84,34.84,0,0,1-5.77.59A24.39,24.39,0,0,1,228,267.06a26.13,26.13,0,0,1-8.92-7.47,28,28,0,0,1-3-4.94c-.21-.43-.45-.85-.65-1.29l-.54-1.35-.53-1.35c-.17-.45-.28-.92-.42-1.38a31.78,31.78,0,0,1-1.17-11.47,42.59,42.59,0,0,1,2.51-11.14,65.88,65.88,0,0,1,4.81-10.23c.94-1.63,1.9-3.24,2.92-4.81.48-.78,1.05-1.58,1.61-2.37s1.21-1.51,1.87-2.21a65.07,65.07,0,0,1,8.64-7.26c1.47-1.12,2.89-2.25,4.23-3.46a31.68,31.68,0,0,0,3.64-4,87.24,87.24,0,0,0,6.15-9.09c3.79-6.32,7.06-13,11.15-19.26a71.55,71.55,0,0,1,6.81-8.9,46.33,46.33,0,0,1,8.46-7.41,13.24,13.24,0,0,1,1.19-.75l1.22-.72c.83-.45,1.68-.85,2.53-1.26a29.86,29.86,0,0,1,5.37-1.76,18.74,18.74,0,0,1,5.65-.58,10.85,10.85,0,0,1,5.49,1.69,8.57,8.57,0,0,1,3.34,4.7,16.24,16.24,0,0,1,.58,5.66,29.06,29.06,0,0,1-2.83,10.84,47.85,47.85,0,0,1-14,17.27,44.52,44.52,0,0,1-20.35,9,34.59,34.59,0,0,1-11.26,0A15.66,15.66,0,0,1,247,190a8,8,0,0,1-1.24-.85,13.51,13.51,0,0,1-1.08-1.06,9.5,9.5,0,0,1-1.54-2.6,13.06,13.06,0,0,1-.7-5.82,22.81,22.81,0,0,1,1.27-5.62,28,28,0,0,1,1.1-2.63c.39-.86.82-1.7,1.26-2.54a53.74,53.74,0,0,1,2.89-4.84A81.67,81.67,0,0,1,264,147.42a61.75,61.75,0,0,1,9.11-6.72,28.83,28.83,0,0,1,5.27-2.39,25.58,25.58,0,0,1,5.71-1.14,47.8,47.8,0,0,1,11.37.62c3.7.57,7.34,1.32,11,2.06,7.26,1.49,14.48,3.05,21.77,3.5.91.06,1.82.11,2.73.12s1.82,0,2.73,0c1.81,0,3.69-.11,5.54-.16,3.72-.1,7.46-.12,11.22.15a48.37,48.37,0,0,1,11.14,2.05,37.9,37.9,0,0,1,10.16,5.07,53.3,53.3,0,0,1,8.36,7.57c2.52,2.76,4.85,5.66,7.21,8.5s4.77,5.63,7.36,8.23c1.3,1.3,2.66,2.54,4.06,3.71a46.43,46.43,0,0,0,4.53,3.12c.78.51,1.56,1,2.31,1.6a12.8,12.8,0,0,1,2.13,1.92,13.57,13.57,0,0,1,2.39,5.14,27.14,27.14,0,0,1,1,5.52,13.92,13.92,0,0,1-.8,5.54Z" transform="translate(-156.44 -117.15)"/><path class="cls-4" d="M216.28,263a23.38,23.38,0,0,0,1.84,8.8,35.23,35.23,0,0,0,4.66,7.68,59,59,0,0,0,6.16,6.59,64,64,0,0,0,7,5.68,30.58,30.58,0,0,0,7.83,4c.69.25,1.39.39,2.09.57a17,17,0,0,0,2.11.3,18.8,18.8,0,0,0,2.12,0,16.06,16.06,0,0,0,2.08-.32,8.2,8.2,0,0,0,1.93-.59,5.47,5.47,0,0,0,1.52-1,2.27,2.27,0,0,0,.43-2.81,4.83,4.83,0,0,0-2.68-2.33,7,7,0,0,0-3.85-.23,7.75,7.75,0,0,0-1.88.65,9.09,9.09,0,0,0-.86.49c-.25.21-.52.39-.76.63a9.39,9.39,0,0,0-2.3,3.41,15.31,15.31,0,0,0-.66,8.53,27.17,27.17,0,0,0,3.16,8.32,66.35,66.35,0,0,0,5.11,7.52c1.87,2.42,3.76,4.82,5.57,7.3a43.51,43.51,0,0,1,4.72,7.95,22.89,22.89,0,0,1,1.47,4.44,19.73,19.73,0,0,1,.52,4.67,20.56,20.56,0,0,1-.13,2.35c-.09.78-.24,1.56-.39,2.33a27.73,27.73,0,0,1-1.44,4.47,59.44,59.44,0,0,1-4.32,8.22c-1.57,2.63-3.19,5.2-4.53,7.87-2.67,5.38-4.66,11.16-7.08,16.82a85.9,85.9,0,0,1-4,8.39c-.76,1.37-1.59,2.71-2.47,4-.44.65-.92,1.28-1.38,1.92l-.8.95-.39.47-.44.43-.87.86-.94.79c-.61.55-1.3,1-2,1.45a33.19,33.19,0,0,1-4.21,2.3,74.82,74.82,0,0,1-8.75,3.26c-1.45.47-2.9.92-4.32,1.42-.72.23-1.41.5-2.11.75l-2.14.82c-2.85,1.1-5.68,2.2-8.49,3.35a120.34,120.34,0,0,0-16.26,8c-10.43,6.19-19.95,13.91-29.55,21.47l-.18-.21c9-8.25,18.22-16.4,28.59-23.11,2.59-1.66,5.27-3.21,8-4.67s5.53-2.74,8.35-4,5.66-2.39,8.51-3.52l2.13-.85c.73-.27,1.46-.57,2.19-.82,1.46-.53,2.92-1,4.37-1.49a76.48,76.48,0,0,0,8.42-3.13,32.17,32.17,0,0,0,3.84-2.08l.88-.62a9,9,0,0,0,.85-.64l.83-.68.77-.74.38-.37.35-.4.69-.79c.44-.6.9-1.18,1.33-1.78.84-1.22,1.65-2.46,2.39-3.76a83.07,83.07,0,0,0,4-8.07c2.44-5.54,4.59-11.3,7.51-16.8s6.94-10.21,9.41-15.68a26.23,26.23,0,0,0,1.52-4.19c.16-.72.33-1.44.44-2.17a18.31,18.31,0,0,0,.2-2.22,20,20,0,0,0-1.66-8.71,39.6,39.6,0,0,0-4.54-7.83c-1.77-2.47-3.71-4.82-5.6-7.24a76,76,0,0,1-5.38-7.49,28.65,28.65,0,0,1-3.68-8.59,16.93,16.93,0,0,1,.35-9.53,11.48,11.48,0,0,1,2.63-4.24,10,10,0,0,1,1-.86A9.82,9.82,0,0,1,249,287.1a9.3,9.3,0,0,1,5.17.21,7.08,7.08,0,0,1,4.09,3.52,5.06,5.06,0,0,1,.5,2.94,4.83,4.83,0,0,1-1.39,2.68,7.28,7.28,0,0,1-2.25,1.52,10.44,10.44,0,0,1-2.45.75,18.26,18.26,0,0,1-2.45.33,20.16,20.16,0,0,1-2.46-.06,21.56,21.56,0,0,1-2.41-.37A23,23,0,0,1,243,298a32.48,32.48,0,0,1-8.33-4.49,58.58,58.58,0,0,1-7-6.1,54.32,54.32,0,0,1-6.06-7,33.76,33.76,0,0,1-4.36-8.22A22.34,22.34,0,0,1,216,263Z" transform="translate(-156.44 -117.15)"/></g></g></svg>