<svg id="Layer_1" data-name="Layer 1" xmlns="http://www.w3.org/2000/svg" xmlns:xlink="http://www.w3.org/1999/xlink" viewBox="0 0 313.01 366.64"><defs><style>.cls-1{fill:none;}.cls-2{fill:#d8bea0;}.cls-3{clip-path:url(#clip-path);}.cls-4{clip-path:url(#clip-path-2);}.cls-5{fill:#010101;}</style><clipPath id="clip-path" transform="translate(-141.13 -113.56)"><rect class="cls-1" x="96.46" y="101.86" width="402.35" height="402.35"/></clipPath><clipPath id="clip-path-2" transform="translate(-141.13 -113.56)"><rect class="cls-1" x="96.46" y="101.86" width="402.35" height="402.35"/></clipPath></defs><title>kofetarica</title><path class="cls-2" d="M237.53,156.78c.16-22.7,47.32-51.82,84.41-40.82,42.08,12.47,51.54,70.77,51,99.55-.43,22.58-7.59,58.08-22.73,60.57-15.9,2.62-37.58-22.18-67.63-76.35C263.58,165.5,237.43,170.22,237.53,156.78Z" transform="translate(-141.13 -113.56)"/><path class="cls-2" d="M169,322.41c20.53,33.94,50.67-10,53.54-21.43,7.06-28-51.38-43.3-60.13-17.86C158,295.85,159.91,307.43,169,322.41Z" transform="translate(-141.13 -113.56)"/><g class="cls-3"><g class="cls-4"><path class="cls-5" d="M383.41,336.88c-.28,1-.61,2-.84,3a19,19,0,0,0-.49,3.08,29.56,29.56,0,0,0,.25,6.23c.14,1,.29,2.08.41,3.12l.44,3.12a29,29,0,0,1,.27,6.39c0,.53-.11,1.07-.2,1.6a14.83,14.83,0,0,0-.17,1.51c-.07,1-.09,2.08-.11,3.13-.05,2.09-.05,4.19-.05,6.29l0,6.3v1.57c0,.52,0,1.08,0,1.54.08,1,.24,2,.42,3,.35,2.07.82,4.08,1,6.29s.27,4.21.36,6.32c.18,4.22.25,8.45,0,12.69-.13,2.12-.33,4.25-.66,6.36A9.73,9.73,0,0,1,383,421.8a9.49,9.49,0,0,1-2.3,2.66,16.43,16.43,0,0,1-6.05,2.84,41.34,41.34,0,0,1-6.38,1.1c-4.25.42-8.48.46-12.69.51s-8.49-.42-12.57-.3a20.83,20.83,0,0,0-5.87.9,8.76,8.76,0,0,0-4.49,3.12,18.79,18.79,0,0,0-2.39,5.36,37.82,37.82,0,0,0-1.26,6,22.74,22.74,0,0,0-.1,5.93,7,7,0,0,0,.32,1.22,1.55,1.55,0,0,0,.21.36s.05.07.06.05,0,0,0,0a.3.3,0,0,0-.18-.06c-.29,0-.29,0-.22,0a1.88,1.88,0,0,0,.32-.32,6.74,6.74,0,0,0,.71-1.1,20,20,0,0,0,1.8-5.6,23.33,23.33,0,0,0,.31-5.95,20.06,20.06,0,0,0-.47-2.91c-.06-.24-.11-.48-.19-.71l-.11-.35-.05-.17-.05-.12a3.2,3.2,0,0,0-.6-.93,9.3,9.3,0,0,0-2.22-1.62c-.85-.49-1.78-.91-2.71-1.34-3.78-1.63-7.76-3-11.71-4.36s-7.93-2.67-11.95-3.76c-2-.54-4-1.05-6.07-1.45a49,49,0,0,0-6.1-.9,18.67,18.67,0,0,0-3,0,5.63,5.63,0,0,0-2.55.68c-1.68,1.17-3.31,2.47-4.91,3.81s-3.17,2.72-4.69,4.14c-.76.71-1.51,1.43-2.22,2.17-.35.37-.7.75-1,1.11a2.11,2.11,0,0,0-.18.24,1.67,1.67,0,0,0-.14.27,5.84,5.84,0,0,0-.26.67c-.64,1.9-1.06,4-1.54,6-.12.52-.24,1-.38,1.56-.08.27-.18.58-.28.82l-.3.74a16.68,16.68,0,0,0-1,2.87,3.91,3.91,0,0,0,.09,2.6,2.4,2.4,0,0,0,2.19.91,9.41,9.41,0,0,0,5.53-1.82,13.86,13.86,0,0,0,2.3-2c.37-.35.68-.76,1-1.14s.58-.8.88-1.25a7.23,7.23,0,0,1,1.09-1.3,2.54,2.54,0,0,1,.36-.29l.35-.23c.2-.13.39-.27.58-.42a12.88,12.88,0,0,0,2-2.26,16.32,16.32,0,0,1,1-1.3,1.52,1.52,0,0,1,.47-.36.74.74,0,0,1,.64,0,1,1,0,0,1,.33.28,1.77,1.77,0,0,1,.28,1.06,9.49,9.49,0,0,1-.74,3.25,17.16,17.16,0,0,1-3.53,5.41,23.17,23.17,0,0,1-2.35,2.19,28.11,28.11,0,0,1-2.62,1.85,34.83,34.83,0,0,1-5.67,2.9,55.46,55.46,0,0,1-12.25,3.29c-2.09.3-4.2.55-6.31.65-1.07.07-2.11.09-3.13.19a28.74,28.74,0,0,0-3.07.45,17.28,17.28,0,0,0-5.71,2.08,3,3,0,0,0-1,.92,4.3,4.3,0,0,0-.48,1.32,1.86,1.86,0,0,0,.2,1.21,2.69,2.69,0,0,0,1,.91,8.73,8.73,0,0,0,2.78,1,17.92,17.92,0,0,0,3,.36,56.9,56.9,0,0,0,6.25-.16l3.15-.19c1.07,0,2.08-.11,3.22-.05a5.73,5.73,0,0,1,3.21,1.22c.9.7,1.58,1.49,2.36,2.06a6,6,0,0,0,2.65,1,16.94,16.94,0,0,0,3,.25,37,37,0,0,0,6.15-.67l3.11-.54,1.58-.24c.55-.06,1.09-.11,1.63-.14,2.14-.12,4.28,0,6.24-.18a4.52,4.52,0,0,0,1.29-.31l1.38-.7c.94-.44,1.82-1,2.72-1.49a41,41,0,0,0,5.06-3.54c1.61-1.29,3.12-2.7,4.66-4.15a21.72,21.72,0,0,1,5.28-3.92,11.23,11.23,0,0,1,3.34-.88l.86-.07c.28,0,.55,0,.82,0,.54,0,1.09,0,1.63,0A26.39,26.39,0,0,1,323,454a22.33,22.33,0,0,1,5.94,2.87,14.76,14.76,0,0,1,2.58,2.18,31.34,31.34,0,0,1,2.07,2.52c.64.84,1.26,1.65,1.92,2.4a23.71,23.71,0,0,0,2.17,2.07c.39.33.74.7,1.15,1l1.23.91c.42.29.8.62,1.24.87l1.31.79a44.84,44.84,0,0,0,11.32,4.62c8,2.14,16.34,2.77,24.67,3.1q6.27.2,12.56.18c4.18,0,8.35-.1,12.51-.37A110.36,110.36,0,0,0,416,475.65c2-.38,4-.8,6-1.36a43.54,43.54,0,0,0,5.76-2,25.37,25.37,0,0,0,9.62-6.82,23.2,23.2,0,0,0,4.79-10.69,60.88,60.88,0,0,0,.75-6.1l.56-6.27c.37-4.19.72-8.38,1.14-12.57s.86-8.4,1.54-12.6S447.42,409,448,404.8c1.11-8.3,1.94-16.63,2.56-25q.47-6.27.77-12.55c.24-4.19.34-8.36.37-12.55a134.23,134.23,0,0,0-1.66-24.9l-.27-1.53c-.09-.51-.23-1-.35-1.51l-.72-3c-.27-1-.6-2-.9-3l-.45-1.49-.55-1.45a56.39,56.39,0,0,0-5.49-11.09l-.84-1.3c-.28-.44-.57-.87-.88-1.28l-1.85-2.5c-1.33-1.59-2.63-3.21-4.08-4.71a101.19,101.19,0,0,0-9.1-8.58c-1.57-1.38-3.22-2.67-4.84-4s-3.32-2.55-5-3.82c-3.35-2.53-6.73-5-10.11-7.52s-6.79-5-10.2-7.41-6.82-4.92-10.3-7.26a.14.14,0,1,1,.16-.24c7.09,4.54,14,9.36,20.87,14.17,3.45,2.41,6.88,4.83,10.3,7.29,1.7,1.23,3.41,2.46,5.09,3.75s3.33,2.57,4.94,3.94a102.44,102.44,0,0,1,9.38,8.55c1.5,1.5,2.86,3.14,4.25,4.75l1.94,2.54a15.27,15.27,0,0,1,.93,1.3l.89,1.33a58.16,58.16,0,0,1,5.86,11.36l.59,1.49.5,1.52c.32,1,.67,2,1,3.05l.78,3.1c.12.52.27,1,.37,1.56l.29,1.57c1.62,8.37,1.92,16.9,2,25.31,0,4.22-.05,8.45-.24,12.66s-.38,8.42-.65,12.63q-.78,12.62-2.4,25.18c-.53,4.18-1.13,8.35-1.77,12.52S448,426,447.63,430.13l-1.13,12.54-.57,6.29c-.1,1.06-.19,2.08-.31,3.16s-.28,2.16-.49,3.24a26.17,26.17,0,0,1-5.45,12.05,27.94,27.94,0,0,1-10.77,7.6,46,46,0,0,1-6.15,2.1c-2.07.58-4.18,1-6.28,1.38a113.47,113.47,0,0,1-12.69,1.41c-4.23.25-8.47.32-12.69.3s-8.43-.1-12.65-.25-8.45-.47-12.67-1a80.88,80.88,0,0,1-12.56-2.4,47.47,47.47,0,0,1-11.89-5l-1.38-.86a15.18,15.18,0,0,1-1.32-.95l-1.31-1c-.44-.32-.81-.72-1.22-1.08a24.24,24.24,0,0,1-2.35-2.3c-.73-.84-1.38-1.7-2-2.54s-1.25-1.65-1.91-2.37a13.08,13.08,0,0,0-2.2-1.9A20.46,20.46,0,0,0,322.3,456a24.68,24.68,0,0,0-5.93-1.13,11.92,11.92,0,0,0-5.72.66,19.74,19.74,0,0,0-4.83,3.51c-1.55,1.41-3.13,2.85-4.82,4.16a42.37,42.37,0,0,1-5.32,3.59c-.93.52-1.86,1.06-2.83,1.5l-1.45.7a6.07,6.07,0,0,1-1.76.42c-2.22.21-4.3,0-6.35.11-.52,0-1,.06-1.52.11l-1.54.21-3.1.5a38.52,38.52,0,0,1-6.38.61,18.64,18.64,0,0,1-3.25-.32,7.79,7.79,0,0,1-1.63-.45,6.35,6.35,0,0,1-1.51-.84c-.91-.69-1.61-1.51-2.36-2.11a4.61,4.61,0,0,0-2.58-1c-1-.06-2.05,0-3.08,0l-3.14.15a58.49,58.49,0,0,1-6.36.13,19.7,19.7,0,0,1-3.21-.4,9.91,9.91,0,0,1-3.09-1.18,3.79,3.79,0,0,1-1.28-1.27,2.83,2.83,0,0,1-.3-1.84,5.36,5.36,0,0,1,.59-1.63,3.93,3.93,0,0,1,1.28-1.26,17.88,17.88,0,0,1,6.07-2.19,28.14,28.14,0,0,1,3.17-.46c1.07-.09,2.13-.11,3.16-.17,2.09-.09,4.16-.33,6.23-.62a51.06,51.06,0,0,0,12-3.25,35.52,35.52,0,0,0,5.51-2.86c.89-.53,1.69-1.19,2.52-1.8a24.9,24.9,0,0,0,2.23-2.12l.53-.56.47-.61a13.37,13.37,0,0,0,.89-1.24l.79-1.31a14.11,14.11,0,0,0,.61-1.38,9,9,0,0,0,.66-2.87,1.12,1.12,0,0,0-.07-.44s0,0,0,0a.32.32,0,0,0,.25,0,.66.66,0,0,0-.13.12c-.3.33-.6.79-.91,1.21a13.92,13.92,0,0,1-2.17,2.46,7.09,7.09,0,0,1-.68.51l-.31.2-.26.21a6.52,6.52,0,0,0-.91,1.12c-.29.42-.57.88-.93,1.33s-.69.83-1.07,1.21a17.31,17.31,0,0,1-2.45,2.15,10.66,10.66,0,0,1-6.22,2.13,5.37,5.37,0,0,1-1.77-.27,2.89,2.89,0,0,1-1.54-1.25,3.78,3.78,0,0,1-.47-1.83,7.44,7.44,0,0,1,.17-1.72,19.44,19.44,0,0,1,1-3.11l.29-.73a5.39,5.39,0,0,0,.22-.68c.12-.48.23-1,.34-1.5.44-2.05.82-4.12,1.48-6.21.1-.27.18-.53.31-.81a3.7,3.7,0,0,1,.49-.83c.36-.47.72-.86,1.09-1.26.73-.79,1.48-1.53,2.24-2.27Q276,425,278.41,423c1.61-1.39,3.24-2.74,5-4a7.31,7.31,0,0,1,3.44-1.05,20.29,20.29,0,0,1,3.3-.05,49.67,49.67,0,0,1,6.38.83c2.1.38,4.17.87,6.22,1.39,4.1,1.05,8.17,2.29,12.15,3.63s8,2.67,11.95,4.34c1,.44,2,.88,2.94,1.43a11,11,0,0,1,2.85,2.08,5.49,5.49,0,0,1,1.09,1.72l.1.24.06.2.13.41c.08.27.15.54.22.81a20.74,20.74,0,0,1,.53,3.31,25.56,25.56,0,0,1-.32,6.6,22.29,22.29,0,0,1-2.05,6.36,9.35,9.35,0,0,1-1,1.54c-.1.12-.22.25-.35.38a3.75,3.75,0,0,1-.46.39,2,2,0,0,1-.3.18,1.73,1.73,0,0,1-.36.17,3.23,3.23,0,0,1-.47.11,2,2,0,0,1-1.1-.2,2.22,2.22,0,0,1-.34-.22,3,3,0,0,1-.51-.49,3.8,3.8,0,0,1-.58-1,8,8,0,0,1-.49-1.82,25.32,25.32,0,0,1,.13-6.64,40.62,40.62,0,0,1,1.38-6.35,21.05,21.05,0,0,1,2.79-6.08,11.15,11.15,0,0,1,5.69-3.94,23,23,0,0,1,6.55-1c4.33-.1,8.5.42,12.63.37s8.38,0,12.49-.42a38.84,38.84,0,0,0,6-1,14.9,14.9,0,0,0,5.32-2.39,7.32,7.32,0,0,0,2.78-4.66c.34-2,.57-4.1.73-6.17.3-4.14.29-8.33.18-12.51-.05-2.09-.15-4.19-.27-6.27s-.61-4.08-.93-6.16c-.16-1-.32-2.09-.39-3.2,0-.59,0-1.08,0-1.62v-1.57q0-3.17.1-6.31c0-2.11.1-4.21.19-6.32,0-1.05.1-2.1.2-3.17l.08-.8c0-.26.09-.57.13-.82a14.84,14.84,0,0,0,.23-1.51c.45-4.08-.48-8.28-.82-12.46a28.67,28.67,0,0,1-.07-6.35,20.7,20.7,0,0,1,.6-3.12c.27-1,.63-2,.94-3a.14.14,0,0,1,.17-.09.14.14,0,0,1,.1.17" transform="translate(-141.13 -113.56)"/><path class="cls-5" d="M298.7,268.28a20.07,20.07,0,0,0-4.09,6.09c-1.1,2.19-2.27,4.52-4.26,6.17a13.88,13.88,0,0,1-3.2,2,27.79,27.79,0,0,1-3.49,1.43,22.49,22.49,0,0,1-7.47,1.16,21,21,0,0,1-3.78-.44,17.62,17.62,0,0,1-3.61-1.3,51.25,51.25,0,0,1-6.52-3.75c-1-.69-2.06-1.4-3.08-2.14s-2-1.52-3-2.25-2-1.44-3-2.2a10.54,10.54,0,0,1-2.71-2.86c-.72-1.06-1.34-2.14-2-3.22a29.35,29.35,0,0,0-1.9-3.08,11.55,11.55,0,0,0-2.56-2.39,13.82,13.82,0,0,1-2.72-2.84,24,24,0,0,1-3.35-6.92,32,32,0,0,1-.9-3.72,25.8,25.8,0,0,1-.42-3.82,24.82,24.82,0,0,0-.37-3.57,15.38,15.38,0,0,0-.94-3.37,27.27,27.27,0,0,0-1.68-3.18,14.07,14.07,0,0,1-1.52-3.68,15.12,15.12,0,0,1-.43-4c0-.68.13-1.33.18-1.88a10.6,10.6,0,0,0,0-1.69,11.42,11.42,0,0,0-.72-3.3,9.94,9.94,0,0,0-.78-1.47c-.31-.48-.69-1-1-1.66a6.12,6.12,0,0,1-.42-1l-.26-.94c-.15-.64-.3-1.27-.4-1.91a29.42,29.42,0,0,1-.4-3.84,35.63,35.63,0,0,1,.57-7.65,29.32,29.32,0,0,1,2.33-7.36,18.28,18.28,0,0,1,4.89-6.16,26.86,26.86,0,0,1,6.63-4,34.47,34.47,0,0,1,7.38-2.21,26.33,26.33,0,0,1,3.84-.4c1.27,0,2.54-.13,3.81,0l1.91.07,1.9.19c1.28.09,2.53.36,3.78.56a45.51,45.51,0,0,1,14.25,5.39,55.12,55.12,0,0,1,6.24,4.3l3,2.41c.92.88,1.86,1.75,2.75,2.65a60.87,60.87,0,0,1,9,12.19c.65,1.08,1.2,2.21,1.8,3.32s1.12,2.26,1.61,3.41c1.05,2.29,2,4.64,2.81,7l1.23,3.49c.42,1.13.89,2.27,1.39,3.38a56.67,56.67,0,0,0,3.38,6.46,61.91,61.91,0,0,0,9.09,11.42,32.07,32.07,0,0,0,5.49,4.66,10.19,10.19,0,0,0,6.46,1.78,8.22,8.22,0,0,0,3.16-1.06,16.18,16.18,0,0,0,2.8-2.11,31.59,31.59,0,0,0,4.55-5.63,84.72,84.72,0,0,0,6.75-13.09c1.93-4.54,3.63-9.19,5.24-13.87.41-1.17.74-2.35,1.11-3.52s.61-2.38.92-3.57.47-2.4.65-3.62.32-2.43.35-3.65a48.69,48.69,0,0,0-1.51-14.6c-1.15-4.79-2.68-9.52-3.9-14.35a81.76,81.76,0,0,0-4.87-14,69.57,69.57,0,0,0-7.51-12.7,61.16,61.16,0,0,0-4.76-5.64,52.15,52.15,0,0,0-5.48-4.92,40.77,40.77,0,0,0-6.17-4,43.56,43.56,0,0,0-6.79-2.77,59.78,59.78,0,0,0-14.49-2.5,86.59,86.59,0,0,0-14.75.47,100.7,100.7,0,0,0-14.5,2.74,73.1,73.1,0,0,0-7,2.24c-1.14.43-2.27.9-3.35,1.43A12.6,12.6,0,0,0,261,136.7a1.84,1.84,0,0,0-.32.4,0,0,0,0,0,0,0,.18.18,0,0,0,0-.13c0-.08-.05-.08,0,0l.08,0,.21.07.4.15c.28.1.53.22.83.3,1.15.36,2.33.67,3.53,1,2.4.62,4.81,1.23,7.21,1.94a99.55,99.55,0,0,1,14.1,5.14,77.55,77.55,0,0,1,13,7.59,69.94,69.94,0,0,1,11.12,10.22,114.59,114.59,0,0,1,9,12,161.89,161.89,0,0,1,14,26.5A135.91,135.91,0,0,1,339.19,216a66.91,66.91,0,0,1,1.73,7.4,26,26,0,0,1,.38,3.91,10.1,10.1,0,0,1-.17,2.14,4.66,4.66,0,0,1-.42,1.24,1.63,1.63,0,0,1-.19.33,2,2,0,0,1-.36.44,1.7,1.7,0,0,1-1.08.47,1.79,1.79,0,0,1-1-.26,2.65,2.65,0,0,1-.7-.63,5.77,5.77,0,0,1-.37-.51c-.2-.32-.37-.62-.53-.92-.31-.6-.57-1.18-.83-1.77-.51-1.16-1-2.32-1.44-3.48l-2.72-6.93c-1.82-4.6-3.69-9.17-5.72-13.66-4.08-8.95-8.67-17.71-14.58-25.48S298.7,163,290.93,157.19A57.32,57.32,0,0,0,278.38,150a54.3,54.3,0,0,0-14-3.63,52.86,52.86,0,0,0-7.23-.44c-1.21,0-2.42.06-3.63.11s-2.42.16-3.62.34a64.39,64.39,0,0,0-7.17,1.26,65.63,65.63,0,0,0-7,2.09,57.71,57.71,0,0,0-6.65,2.91c-1.09.53-2.13,1.16-3.18,1.75-.53.31-1,.65-1.54,1s-1,.65-1.5,1l-1.48,1.06c-.48.36-.94.75-1.41,1.13-1,.73-1.83,1.58-2.73,2.37a44.8,44.8,0,0,0-14,32.42,125,125,0,0,0,.68,14.71,132.82,132.82,0,0,0,2.32,14.58,102.21,102.21,0,0,0,10.17,27.61,76.31,76.31,0,0,0,8.31,12.15,55.81,55.81,0,0,0,10.87,9.89,42.19,42.19,0,0,0,27.94,7.55.15.15,0,0,1,.16.13.15.15,0,0,1-.13.16,43,43,0,0,1-14.85-1,43.54,43.54,0,0,1-13.64-6.08,56.32,56.32,0,0,1-11.26-9.87A74.29,74.29,0,0,1,215.23,251a104.12,104.12,0,0,1-10.72-27.9A134.33,134.33,0,0,1,202,208.3a118.83,118.83,0,0,1-.85-15,47.16,47.16,0,0,1,14.42-34.2c.94-.85,1.85-1.75,2.85-2.53.5-.4,1-.82,1.49-1.2l1.54-1.13c.5-.39,1-.72,1.57-1.07s1.05-.71,1.6-1c1.1-.64,2.18-1.31,3.32-1.87a58.3,58.3,0,0,1,6.94-3.11,65,65,0,0,1,14.73-3.61c1.25-.19,2.52-.26,3.78-.37s2.53-.15,3.8-.13a53.79,53.79,0,0,1,7.61.44,57.12,57.12,0,0,1,14.75,3.76,59.78,59.78,0,0,1,13.23,7.5A83.82,83.82,0,0,1,304,164.9a139,139,0,0,1,9.63,11.55c6.11,8,10.79,17,14.87,26.09,2,4.56,3.9,9.18,5.7,13.82l2.69,6.93c.45,1.15.9,2.29,1.39,3.4.24.55.48,1.09.74,1.6.13.26.26.49.39.7a1.86,1.86,0,0,0,.18.24c0,.07.08.07,0,0a1,1,0,0,0-.57-.13,1.2,1.2,0,0,0-.68.28c-.16.18-.06.06-.07.07a.1.1,0,0,0,0-.06,2.36,2.36,0,0,0,.17-.53,7.47,7.47,0,0,0,.13-1.55,24.92,24.92,0,0,0-.33-3.49,66,66,0,0,0-1.63-7.09,133.65,133.65,0,0,0-4.88-13.88,162.23,162.23,0,0,0-13.61-26.15,112.46,112.46,0,0,0-8.74-11.83,67.93,67.93,0,0,0-10.66-10,84.83,84.83,0,0,0-26.34-12.69c-2.36-.72-4.74-1.36-7.14-2-1.2-.34-2.4-.67-3.61-1.07-.3-.08-.62-.23-.93-.34l-.46-.18-.23-.09-.32-.19a1.69,1.69,0,0,1-.63-.72,1.87,1.87,0,0,1-.12-.58,2.18,2.18,0,0,1,.09-.51,2.94,2.94,0,0,1,.77-1.09,14.09,14.09,0,0,1,3.39-2.08c1.16-.55,2.33-1,3.51-1.45,2.36-.86,4.77-1.57,7.19-2.2a102.61,102.61,0,0,1,14.75-2.61,87.92,87.92,0,0,1,15-.31,60.72,60.72,0,0,1,14.74,2.71,44.22,44.22,0,0,1,7,2.87,42.82,42.82,0,0,1,6.31,4.09,54.25,54.25,0,0,1,5.56,5,62.85,62.85,0,0,1,4.81,5.75,70.26,70.26,0,0,1,7.55,12.89,88.33,88.33,0,0,1,5,14.1c1.24,4.78,2.79,9.5,4,14.34A49.36,49.36,0,0,1,360,203.46c0,1.26-.21,2.5-.34,3.75s-.41,2.48-.64,3.71-.55,2.44-.92,3.64-.69,2.41-1.09,3.58c-1.55,4.72-3.19,9.42-5.07,14a87,87,0,0,1-6.69,13.42,33.72,33.72,0,0,1-4.72,6,17.8,17.8,0,0,1-3.09,2.39,9.77,9.77,0,0,1-3.83,1.33,12,12,0,0,1-7.65-2,33.59,33.59,0,0,1-5.9-4.85,64.3,64.3,0,0,1-9.55-11.68,57.18,57.18,0,0,1-3.6-6.67c-.53-1.15-1-2.29-1.49-3.49l-1.27-3.51c-3.36-9.19-8.09-18-14.81-25-.86-.86-1.75-1.67-2.62-2.51l-2.81-2.28a54.74,54.74,0,0,0-6-4.13,43.93,43.93,0,0,0-13.44-5.15c-1.19-.19-2.37-.45-3.57-.54l-1.8-.2-1.81-.06c-1.2-.09-2.41,0-3.62,0a23.21,23.21,0,0,0-3.55.35,28,28,0,0,0-12.92,5.65,16.16,16.16,0,0,0-4.33,5.37,27,27,0,0,0-2.17,6.77,33.76,33.76,0,0,0-.57,7.16,27.89,27.89,0,0,0,.34,3.55c.09.59.23,1.16.36,1.74l.23.85a3.44,3.44,0,0,0,.27.68,25.14,25.14,0,0,1,1.88,3.31,13.2,13.2,0,0,1,.85,3.94,12.51,12.51,0,0,1,0,2c-.06.68-.16,1.27-.18,1.82a12.73,12.73,0,0,0,.32,3.4,12,12,0,0,0,1.27,3.18,28.58,28.58,0,0,1,1.75,3.41,17.49,17.49,0,0,1,1,3.8,26,26,0,0,1,.35,3.82,28.61,28.61,0,0,0,1.15,7.1,22.14,22.14,0,0,0,3,6.45,12.2,12.2,0,0,0,2.37,2.55c.46.37,1,.75,1.47,1.21a10.5,10.5,0,0,1,1.34,1.5,30.84,30.84,0,0,1,2,3.27c.61,1.07,1.21,2.15,1.86,3.16a9.14,9.14,0,0,0,2.35,2.53c1,.74,2,1.47,3,2.24,2,1.56,3.87,3.05,5.91,4.46a52.48,52.48,0,0,0,6.29,3.79,16.61,16.61,0,0,0,3.36,1.29,19.51,19.51,0,0,0,3.58.48,21.43,21.43,0,0,0,7.19-1,26.25,26.25,0,0,0,3.42-1.32,13.06,13.06,0,0,0,3.09-1.87c3.82-3.09,4.69-8.64,8.59-12a.14.14,0,0,1,.2,0,.13.13,0,0,1,0,.19" transform="translate(-141.13 -113.56)"/><path class="cls-5" d="M268.18,283.67a11.8,11.8,0,0,0-5,5.13,9.5,9.5,0,0,0-1.07,3.31,16.21,16.21,0,0,1-1,3.76l-1.28,3.5c-.2.58-.4,1.15-.54,1.7s-.28,1.17-.39,1.75-.19,1.18-.25,1.78l-.1.91c0,.31-.06.65-.07.9a5.23,5.23,0,0,0,.68,3,20.68,20.68,0,0,0,2.06,2.88,34.49,34.49,0,0,1,2.22,3.12,37.81,37.81,0,0,1,1.92,3.35c.58,1.14,1.05,2.43,1.5,3.45a9.47,9.47,0,0,0,1.89,2.69,11.44,11.44,0,0,0,2.57,2.15,12.51,12.51,0,0,0,3.15,1.21,26,26,0,0,1,3.7,1.19c2.27,1,4.53,1.93,6.85,2.75,1.15.4,2.32.79,3.47,1.08.28.07.57.14.83.18a2.19,2.19,0,0,0,.36,0H291l.89-.08a14.06,14.06,0,0,0,3.43-.82,20.81,20.81,0,0,0,3.23-1.63,55.41,55.41,0,0,1,6.53-3.71,34.6,34.6,0,0,1,7.21-2.19,45.93,45.93,0,0,0,7.11-2,24.93,24.93,0,0,0,3.31-1.55c1-.6,2.18-1.26,3.28-1.82,2.24-1.15,4.51-2.17,6.77-3.21a87.31,87.31,0,0,0,13-7,32.11,32.11,0,0,0,2.8-2.22c.45-.38.89-.83,1.3-1.23a9.13,9.13,0,0,0,1-1.26,35,35,0,0,0,1.68-3.15c.56-1.11,1.14-2.22,1.72-3.33,1.18-2.23,2.36-4.38,3.64-6.59a42,42,0,0,1,4.55-6.21,16.92,16.92,0,0,0,2.08-2.69,26.7,26.7,0,0,0,1.51-3.2c.44-1.1.82-2.24,1.22-3.44a25,25,0,0,1,1.5-3.64,22.51,22.51,0,0,1,2.14-3.36c.83-1.07,1.57-1.94,2.3-2.92a46.31,46.31,0,0,0,3.88-6.08,23.3,23.3,0,0,0,1.42-3.19,7.27,7.27,0,0,0,.05-3.1,18.93,18.93,0,0,0-2.44-6.53c-.15-.25-.28-.52-.44-.77l-.51-.74c-.35-.48-.65-1-1-1.46L373,243c-.4-.45-.83-.88-1.24-1.32l-.63-.66c-.21-.21-.45-.4-.67-.61l-1.36-1.21c-.47-.39-1-.74-1.45-1.11s-1-.76-1.48-1.08l-1.55-1a17.78,17.78,0,0,0-1.57-1l-1.62-.88a15.81,15.81,0,0,0-1.64-.84c-1.13-.49-2.23-1-3.39-1.5l-3.48-1.32h0a.15.15,0,0,1-.09-.19.14.14,0,0,1,.17-.08l3.61,1c1.2.36,2.36.84,3.54,1.25a17.68,17.68,0,0,1,1.74.72l1.72.78a14.83,14.83,0,0,1,1.68.87l1.66.92c.55.3,1.06.69,1.59,1s1.07.69,1.57,1.08l1.5,1.18.74.6.7.66a27.82,27.82,0,0,1,5,5.87,21,21,0,0,1,3,7.25,9.71,9.71,0,0,1,0,4.29,24.7,24.7,0,0,1-1.5,3.67,43.41,43.41,0,0,1-4,6.57c-.73,1-1.59,2.06-2.27,3a20,20,0,0,0-1.81,2.95,27.23,27.23,0,0,0-1.33,3.25c-.39,1.16-.79,2.38-1.28,3.59a29.22,29.22,0,0,1-1.68,3.53,7.19,7.19,0,0,1-.59.94,9.2,9.2,0,0,1-.65.81c-.42.51-.85,1-1.26,1.43a39.12,39.12,0,0,0-4.36,5.72c-1.25,2.07-2.51,4.25-3.7,6.4-.59,1.08-1.18,2.16-1.76,3.26a34.29,34.29,0,0,1-1.92,3.38,12.43,12.43,0,0,1-1.37,1.57c-.49.46-.93.88-1.45,1.3a28.7,28.7,0,0,1-3.12,2.29,81.47,81.47,0,0,1-13.6,6.52c-2.31.94-4.61,1.86-6.85,2.89-1.13.51-2.18,1.07-3.32,1.65a29,29,0,0,1-3.47,1.53,55.25,55.25,0,0,1-7.26,1.95,30.21,30.21,0,0,0-7,2.17,48.69,48.69,0,0,0-6.3,3.87,22.05,22.05,0,0,1-3.32,1.91,15.74,15.74,0,0,1-3.75,1.12l-1,.13c-.32,0-.65,0-1,.07l-.49,0a3.62,3.62,0,0,1-.57,0,9.51,9.51,0,0,1-1-.16c-1.28-.25-2.49-.58-3.7-.93-2.42-.72-4.81-1.54-7.13-2.46a25.12,25.12,0,0,0-3.43-1,18.92,18.92,0,0,1-1.9-.54,12.5,12.5,0,0,1-1.9-.87,14.16,14.16,0,0,1-3.16-2.59,14.39,14.39,0,0,1-1.29-1.57,10.46,10.46,0,0,1-1-1.84c-.53-1.26-.89-2.33-1.42-3.4a34.73,34.73,0,0,0-1.74-3.15c-.65-1.05-1.28-2-2-3a24.18,24.18,0,0,1-2.18-3.25,7.43,7.43,0,0,1-.79-4.19c0-.37.08-.65.13-1l.13-.94c.1-.63.22-1.27.36-1.9s.32-1.25.5-1.87.44-1.24.68-1.82l1.49-3.43a17.58,17.58,0,0,0,1.16-3.35,10.28,10.28,0,0,1,1.47-3.66,11.87,11.87,0,0,1,5.72-4.9.14.14,0,0,1,.18.08.14.14,0,0,1-.06.18" transform="translate(-141.13 -113.56)"/><path class="cls-5" d="M273,421.45a45.35,45.35,0,0,0-6.44-2,67,67,0,0,0-6.61-1.27c-2.22-.34-4.45-.56-6.69-.76s-4.48-.27-6.72-.33a108.34,108.34,0,0,0-26.63,2.48,45.6,45.6,0,0,0-6.35,1.91,23,23,0,0,0-5.71,3.12,12.34,12.34,0,0,0-2.24,2.27,15.84,15.84,0,0,0-1.62,2.82,8.83,8.83,0,0,0-.42,6.29,11.77,11.77,0,0,0,3.84,5.2,25.75,25.75,0,0,0,5.69,3.46A56.24,56.24,0,0,0,226,448.47,98.56,98.56,0,0,0,239.34,450a83.8,83.8,0,0,0,13.36-.36,36.17,36.17,0,0,0,6.39-1.29,8.54,8.54,0,0,0,2.57-1.24,1.4,1.4,0,0,0,.49-.62c0-.12,0-.25-.13-.54a5.89,5.89,0,0,0-1.93-1.76,16.33,16.33,0,0,0-2.77-1.4,24.42,24.42,0,0,0-3-1c-1-.28-2.07-.45-3.18-.64a54.58,54.58,0,0,0-13.18-.67,32.46,32.46,0,0,0-12.5,3.53,14.84,14.84,0,0,0-2.67,1.7,6.2,6.2,0,0,0-1.81,2.27,3.63,3.63,0,0,0-.31,1.32,3.94,3.94,0,0,0,.22,1.35,6,6,0,0,0,1.77,2.4,18.93,18.93,0,0,0,5.71,3.18,50.21,50.21,0,0,0,6.48,1.87.15.15,0,0,1,.11.17.15.15,0,0,1-.16.11,41.91,41.91,0,0,1-6.72-1.28,18.48,18.48,0,0,1-6.34-2.94,7.63,7.63,0,0,1-2.38-2.89,5.44,5.44,0,0,1-.44-2,5.6,5.6,0,0,1,.33-2c.94-2.53,3.13-4.11,5.12-5.25a32.78,32.78,0,0,1,6.43-2.87,37,37,0,0,1,6.89-1.45,54.37,54.37,0,0,1,13.91.42,28.64,28.64,0,0,1,6.89,1.82,19.09,19.09,0,0,1,3.27,1.68,10,10,0,0,1,1.55,1.19,6.44,6.44,0,0,1,1.36,1.73,4.15,4.15,0,0,1,.42,1.26,4.41,4.41,0,0,1,0,.73,3,3,0,0,1-.14.74,4.13,4.13,0,0,1-1.49,2.06,10.78,10.78,0,0,1-3.54,1.66,37.43,37.43,0,0,1-6.93,1.26,74.84,74.84,0,0,1-13.8,0A91.25,91.25,0,0,1,225.65,450a63.4,63.4,0,0,1-12.94-4.5,30.1,30.1,0,0,1-5.84-3.66,13.13,13.13,0,0,1-4.15-5.58,9.56,9.56,0,0,1-.53-3.52,11.37,11.37,0,0,1,.73-3.48,17.55,17.55,0,0,1,1.57-3.16,12.78,12.78,0,0,1,2.36-2.71,24,24,0,0,1,6-3.75,44,44,0,0,1,6.53-2.37A70.82,70.82,0,0,1,232.92,415a101.49,101.49,0,0,1,13.73-.11,87.5,87.5,0,0,1,13.59,1.8,55.78,55.78,0,0,1,6.62,1.8,37.27,37.27,0,0,1,6.28,2.73.14.14,0,0,1,.06.19.14.14,0,0,1-.18.06" transform="translate(-141.13 -113.56)"/><path class="cls-5" d="M180.09,322.13a12.64,12.64,0,0,1-2.75,3.33c-1,1-2.12,1.92-3.16,2.87a11.45,11.45,0,0,0-2.64,3.14,1.91,1.91,0,0,0-.19.83,1.15,1.15,0,0,0,.33.67,4.45,4.45,0,0,0,1.69.88,20.85,20.85,0,0,1,7.73,4.06,9.56,9.56,0,0,1,2.58,3.74,8.77,8.77,0,0,1,.34,4.59,13.18,13.18,0,0,1-1.55,4.26,8.66,8.66,0,0,1-3.38,3.22,10.53,10.53,0,0,1-4.51,1,16.57,16.57,0,0,1-4.46-.55,31.76,31.76,0,0,1-8.13-3.38,40.58,40.58,0,0,1-7.08-5.16,30.15,30.15,0,0,1-3-3.23,15.06,15.06,0,0,1-2.38-4l-.21-.58c-.06-.2-.09-.42-.14-.63a4.63,4.63,0,0,1-.1-.65v-.69a4.51,4.51,0,0,1,0-.58l0-.5a8.53,8.53,0,0,0,0-1,14.08,14.08,0,0,0-.47-3.9,12.75,12.75,0,0,0-1.58-3.56,26.22,26.22,0,0,0-2.51-3.22,18.07,18.07,0,0,1-2.74-3.68,6.14,6.14,0,0,1-.68-2.54,6.75,6.75,0,0,1,.4-2.56,15.1,15.1,0,0,1,2.35-4,37.46,37.46,0,0,1,3-3.28c.52-.54,1-1,1.47-1.49a11.83,11.83,0,0,0,1.23-1.49,7.31,7.31,0,0,0,.84-1.65c.24-.61.47-1.3.72-2s.52-1.38.8-2.06c.16-.34.29-.66.46-1a6.53,6.53,0,0,1,.71-1.13,8.5,8.5,0,0,1,4.13-2.72,15.34,15.34,0,0,1,4.57-.71,18.38,18.38,0,0,1,4.54.5,14.1,14.1,0,0,1,2.22.74c.68.31,1.34.63,2,1a15.49,15.49,0,0,1,3.71,2.73,6.93,6.93,0,0,1,1.4,2.12,4,4,0,0,1-1.66,5,4.17,4.17,0,0,1-2.72.58,3.36,3.36,0,0,1-1.41-.58,4.82,4.82,0,0,1-1-1,8.44,8.44,0,0,1-1-2.2,20.14,20.14,0,0,1-.71-4.43,35.34,35.34,0,0,1,.64-8.72,27.88,27.88,0,0,1,1.19-4.24,13.29,13.29,0,0,1,2.21-3.92,5.78,5.78,0,0,1,1.88-1.49,5.16,5.16,0,0,1,2.34-.44c.72,0,1.45-.05,2.17,0l2.17.1a54.5,54.5,0,0,1,8.52,1.42,63.62,63.62,0,0,1,8.18,2.69,67.44,67.44,0,0,1,7.74,3.77l1.84,1.11.92.56.89.61,1.78,1.21,1.72,1.29c.59.42,1.13.89,1.68,1.35s1.12.91,1.64,1.4l1.57,1.48.4.37a4.31,4.31,0,0,1,.39.46,3.75,3.75,0,0,1,.55,1.07,5.37,5.37,0,0,1,.23,2.31,10.69,10.69,0,0,1-.48,2.19,20.73,20.73,0,0,1-1.85,4,45.55,45.55,0,0,1-5.18,6.92q-1.42,1.61-2.95,3.14a21.87,21.87,0,0,1-3.31,2.87,18.25,18.25,0,0,1-8.24,3,26.71,26.71,0,0,1-8.74-.49,36.09,36.09,0,0,1-8.26-2.86,30.76,30.76,0,0,1-3.81-2.19,14.75,14.75,0,0,1-3.42-3,4.75,4.75,0,0,1-.65-1.21,2.38,2.38,0,0,1-.14-.89,2,2,0,0,1,.76-1.41,3.26,3.26,0,0,1,.4-.24l.42-.16.36-.07A7,7,0,0,1,174,309a26.29,26.29,0,0,1,4.43.57,55.11,55.11,0,0,1,8.37,2.48,38.9,38.9,0,0,1,7.85,4,16.59,16.59,0,0,1,3.45,3,19,19,0,0,1,2.49,3.84,16.16,16.16,0,0,1,1.38,4.41,21,21,0,0,1,.2,4.54c-.19,3-.77,5.79-1.05,8.55a24.46,24.46,0,0,0,.31,8.07,24.06,24.06,0,0,0,3.11,7.43c.35.58.75,1.13,1.13,1.71s.83,1.29,1.21,2a17.61,17.61,0,0,1,1.63,4.36c.07.38.17.76.23,1.14l.12,1.16.06.58c0,.2,0,.39,0,.59v1.16c-.06.77-.13,1.54-.25,2.29a20.77,20.77,0,0,1-.5,2.24,31,31,0,0,1-3.69,8.16,50.09,50.09,0,0,1-5.36,7,67.87,67.87,0,0,1-6.27,6.08,64.28,64.28,0,0,1-7,5.26,35.63,35.63,0,0,1-3.89,2.2,14.07,14.07,0,0,1-2.21.83,10.41,10.41,0,0,1-1.13.3c-.38.08-.75.17-1.15.22a12.74,12.74,0,0,1-4.8-.11,10.34,10.34,0,0,1-4.41-2.18,12.64,12.64,0,0,1-3-3.76,18.46,18.46,0,0,1-1.62-4.33,28.42,28.42,0,0,1-.61-8.94,34.31,34.31,0,0,1,.65-4.37c.27-1.42.55-2.83.9-4.24a61.55,61.55,0,0,1,2.5-8.36c.26-.68.57-1.36.86-2s.64-1.35,1-2l.58-1c.21-.31.45-.63.67-.94a10.16,10.16,0,0,1,1.66-1.76,3,3,0,0,1,.53-.39c.2-.11.37-.24.59-.34l.68-.26a3.75,3.75,0,0,1,.77-.14,3.09,3.09,0,0,1,1.64.33l.19.09.12.08.24.15.5.34a7.22,7.22,0,0,1,1.74,1.79,10.16,10.16,0,0,1,1.12,2.1,34.67,34.67,0,0,1,1.83,8.63c.3,2.87.48,5.75.57,8.59l.67,17.1.34,8.54c.15,2.83.44,5.66.83,8.47s.88,5.61,1.54,8.37c.36,1.37.71,2.75,1.19,4.08a15.23,15.23,0,0,0,1.82,3.79.14.14,0,0,1-.22.18,15.55,15.55,0,0,1-2-3.81,42.34,42.34,0,0,1-1.35-4.08c-.76-2.77-1.35-5.57-1.84-8.39s-.88-5.66-1.13-8.52-.38-5.69-.57-8.54l-1.09-17.07c-.16-2.86-.41-5.66-.77-8.46a34.57,34.57,0,0,0-1.83-8,6.38,6.38,0,0,0-2.15-2.89l-.39-.26-.21-.13-.11-.06h-.05a.73.73,0,0,0-.43-.07c-.09,0-.17,0-.27.05l-.31.13c-.11.05-.22.15-.33.21a1.84,1.84,0,0,0-.34.25,10.91,10.91,0,0,0-2.28,3c-.34.58-.61,1.21-.91,1.82s-.53,1.27-.77,1.92a60.3,60.3,0,0,0-2.27,8c-.32,1.37-.57,2.75-.82,4.14a32.54,32.54,0,0,0-.54,4.09,26.08,26.08,0,0,0,.65,8.05,12.25,12.25,0,0,0,3.7,6.54,8.27,8.27,0,0,0,6.88,1.6c.32,0,.63-.12.95-.19s.63-.16.94-.26a10.06,10.06,0,0,0,1.78-.68,35.15,35.15,0,0,0,3.53-2,67.86,67.86,0,0,0,12.67-10.83,48.13,48.13,0,0,0,5-6.56,29,29,0,0,0,3.39-7.34,15.72,15.72,0,0,0,.37-7.75,14.58,14.58,0,0,0-1.32-3.64c-.32-.57-.68-1.11-1-1.68s-.83-1.23-1.21-1.87a26.66,26.66,0,0,1-3.39-8.31,27.74,27.74,0,0,1-.29-8.94c.33-2.92.93-5.71,1.11-8.42a15.29,15.29,0,0,0-1.25-7.72,16.79,16.79,0,0,0-2.09-3.35,14.64,14.64,0,0,0-2.94-2.63,36.36,36.36,0,0,0-7.32-3.83,52.32,52.32,0,0,0-8-2.5,24.13,24.13,0,0,0-4-.61,4.89,4.89,0,0,0-.88,0l-.17,0a.11.11,0,0,1-.07,0l-.07,0s0,0,0,0,0-.06,0-.05a1.54,1.54,0,0,0,0,.16,2.8,2.8,0,0,0,.36.67,13.12,13.12,0,0,0,2.9,2.67,30.11,30.11,0,0,0,3.55,2.14,34.44,34.44,0,0,0,7.81,2.9,25.22,25.22,0,0,0,8.25.63,16.85,16.85,0,0,0,7.71-2.65A19.5,19.5,0,0,0,206.6,315c1-1,2-2,3-3a44.77,44.77,0,0,0,5.11-6.72,19.32,19.32,0,0,0,1.79-3.76,6.4,6.4,0,0,0,.29-3.89,3,3,0,0,0-.42-.82,3.37,3.37,0,0,0-.3-.36l-.38-.36-1.54-1.46c-.51-.5-1.07-.93-1.6-1.39s-1.07-.93-1.64-1.35a59.25,59.25,0,0,0-7.05-4.71,67.08,67.08,0,0,0-7.65-3.67,54.36,54.36,0,0,0-16.44-3.81l-2.11-.05c-.7,0-1.4.05-2.1.07a3.88,3.88,0,0,0-1.81.36,4.7,4.7,0,0,0-1.42,1.19,12,12,0,0,0-1.86,3.54,24.92,24.92,0,0,0-1,4,33.09,33.09,0,0,0-.41,8.31,18.42,18.42,0,0,0,.72,4,6.46,6.46,0,0,0,.79,1.67,2.52,2.52,0,0,0,.51.52,1.15,1.15,0,0,0,.55.21,2.13,2.13,0,0,0,1.37-.35,1.92,1.92,0,0,0,.86-1.08,2,2,0,0,0-.11-1.36,4.92,4.92,0,0,0-1-1.4,13.2,13.2,0,0,0-3.22-2.24c-.6-.31-1.23-.59-1.85-.86a12.32,12.32,0,0,0-1.84-.58,14.85,14.85,0,0,0-7.78.26,6.15,6.15,0,0,0-2.91,1.9,1.27,1.27,0,0,0-.23.34l-.2.34c-.14.28-.28.62-.41.93-.27.64-.52,1.27-.76,1.93s-.45,1.32-.72,2a11,11,0,0,1-1.11,2.15,14.85,14.85,0,0,1-1.47,1.81c-.51.55-1.06,1.07-1.53,1.55a37.72,37.72,0,0,0-2.78,3.05,12.32,12.32,0,0,0-2,3.29,3.82,3.82,0,0,0,.14,3.19,16.41,16.41,0,0,0,2.35,3.16,26.38,26.38,0,0,1,2.72,3.53A15.13,15.13,0,0,1,151,329.3a15.73,15.73,0,0,1,.5,4.56,8.47,8.47,0,0,1-.06,1.13l0,.56a3.23,3.23,0,0,0,0,.49c0,.13,0,.25,0,.38a3,3,0,0,0,.06.4c0,.14,0,.28.09.42l.15.43a12.68,12.68,0,0,0,2,3.35,28.26,28.26,0,0,0,2.79,3,40,40,0,0,0,6.63,5,29.86,29.86,0,0,0,7.54,3.35,14.81,14.81,0,0,0,4,.58,8.71,8.71,0,0,0,3.77-.75,7,7,0,0,0,2.78-2.55,11.36,11.36,0,0,0,1.43-3.7,7.18,7.18,0,0,0-.18-3.85,8.49,8.49,0,0,0-2.14-3.28,19.74,19.74,0,0,0-7.18-4.07,5.49,5.49,0,0,1-2-1.17,2.08,2.08,0,0,1-.53-1.24,2.62,2.62,0,0,1,.3-1.22,12.13,12.13,0,0,1,2.94-3.29L177,325.1a12.56,12.56,0,0,0,2.82-3.1h0a.15.15,0,0,1,.2-.05.14.14,0,0,1,.05.19" transform="translate(-141.13 -113.56)"/></g></g></svg>