<svg id="Layer_1" data-name="Layer 1" xmlns="http://www.w3.org/2000/svg" viewBox="0 0 1984.25 684.16"><defs><style>.cls-1{opacity:0.05;}.cls-2{isolation:isolate;}.cls-3{fill:#1d5b6a;}.cls-4{fill:#0f3c4a;}.cls-5{fill:#1f2628;}</style></defs><g id="Hišne_Mešanice" data-name="Hišne Mešanice" class="cls-1"><g class="cls-2"><path class="cls-3" d="M-87.27,376.43Q-81,358.24-75,339.33a418.52,418.52,0,0,0,11.2-46.55,276.82,276.82,0,0,0,5.25-51.45V16.63a200.58,200.58,0,0,0-4.2-39.2,284.76,284.76,0,0,0-9.1-35.35q-4.91-14.34-10.15-28t-6-15v-2.8H44.33l247.8,365.4V55.13q0-30.79-8.05-65.45a559.63,559.63,0,0,0-17.85-61.95q-9.81-27.3-9.8-28v-3.5H360v3.5q-.7,2.1-7,20.3t-12.25,37.1a416.84,416.84,0,0,0-11.2,46.55,277,277,0,0,0-5.25,51.45v345.1H255l-281.4-413v254.1q0,30.81,8.05,65.45a555.32,555.32,0,0,0,17.85,62q9.79,27.3,9.8,28v3.5H-94.27v-3.5Q-93.58,394.63-87.27,376.43Z"/><path class="cls-3" d="M383.83,223.13q0-86.79,52.15-133.35T566.53,43.23q78.39,0,131.25,46.9t52.85,133q0,86.81-53.2,135.1-53.2,49-130.9,49t-130.2-48.65Q383.83,309.93,383.83,223.13Zm119.7,74.2q6.3,33.6,22.4,57.4t40.6,23.8q35,0,52.5-45.5t17.5-109.9q0-63-17.5-107.45t-52.5-44.45q-35,0-52.15,44.45T497.23,223.13Q497.23,263.74,503.53,297.33Z"/><path class="cls-3" d="M787,150.33q0-50.4,39.9-78.75T933.33,43.23q63.67,0,126.69,25.9v93.8h-2.8q-37.11-42-69-66.5t-64.75-24.5q-21,0-36,10.15t-15.05,29.05q0,21.7,20.3,34t67.9,28.35a22.43,22.43,0,0,1,4.9,1.4q60.19,21,85.4,49t25.2,67.2q0,57.41-40.95,86.8t-100.45,29.4q-61.61,0-138.6-30.1v-98h2.8q2.12,2.81,15.41,16.1l17.5,16.8q3.48,4.2,15.75,15.75t18.54,16.1q6.32,4.56,17.5,12.6t19.26,11.2a181.4,181.4,0,0,0,18.2,5.95,74.47,74.47,0,0,0,19.94,2.8q22.4,0,37.81-11.2T994.22,333q0-11.89-5.25-20.65t-19.59-16.8a231.6,231.6,0,0,0-26.61-12.95q-12.25-4.89-39.55-14.7-58.11-21-87.14-49T787,150.33Z"/><path class="cls-3" d="M1102.72,78.23v-28q50.4-21.69,85.4-51.45a410.16,410.16,0,0,0,64.4-69.65h3.5V47.43h95.2v30.8H1256v207.9q0,53.21,48.3,53.2,25.89,0,53.2-14.7-32.2,82.61-109.2,82.6-44.1,0-69.3-29.4t-25.2-81.9V78.23Z"/><path class="cls-3" d="M1386.21,295.93q0-54.6,43.4-83.65t96.6-29.05q9.09,0,18.9.7,32.19,1.41,56.7,10.5v-41.3q0-79.09-36.4-79.1-26.61,0-82.6,38.5t-66.5,53.2h-3.5V69.13q91-25.89,158.9-25.9,66.49,0,99.4,31.5t32.9,84.7v144.9q0,47.61,25.2,47.6,8.4,0,18.9-4.9l1.4,2.1a62.13,62.13,0,0,1-22.4,40.25q-18.9,15.75-48.3,15.75-58.11,0-73.5-54.6-35.7,56-106.4,56-52.5,0-82.6-33.25T1386.21,295.93Zm106.4-14q0,30.1,17.15,49.35t45.15,19.25q26.6,0,46.9-21.7V215.43a122.69,122.69,0,0,1-14.7-.7,134.32,134.32,0,0,0-18.9-1.4q-31.5,0-53.55,17.5T1492.61,281.93Z"/><path class="cls-3" d="M1774-108.67l122.5-14v412.3a253.64,253.64,0,0,0,2.8,35.7q2.79,19.6,6,32.9t6.3,25.55q3.15,12.25,3.15,13.65v2.8H1776.1v-2.8q0-1.4,3.15-13.65t6.3-25.55q3.15-13.29,6-32.9a255.15,255.15,0,0,0,2.8-35.7V-.17q0-44.79-20.3-105.7Z"/><path class="cls-3" d="M1974.91,405.83q-23.1-20.29-23.1-53.9,0-60.19,69.3-78.4-70.71-35-70.7-106.4,0-58.8,46.9-91.35t105-32.55q45.49,0,82.6,18.2,28-65.79,91.7-65.8a134.32,134.32,0,0,1,18.9,1.4l-14.7,79.1-2.1,1.4q-23.1-12.6-47.6-12.6a108.06,108.06,0,0,0-31.5,4.9q56.7,35,56.7,97.3,0,58.8-47.6,92.05t-106.4,33.25a182.43,182.43,0,0,1-58.1-9.1q-29.4,9.1-29.4,27.3,0,12.6,11.9,16.45t35,3.85h114.1q53.89,0,83.65,25.9t29.75,73.5q0,32.19-16.45,55.3t-44.8,34.3a269.32,269.32,0,0,1-57.75,15.75,412.74,412.74,0,0,1-63,4.55,353.66,353.66,0,0,1-96.25-13q-27.66-7.35-44.45-24.5t-16.8-41.65Q1949.71,429.63,1974.91,405.83Zm56.7,81.9q26.6,23.1,84.7,23.1,43.39,0,76-12.95t32.55-35.35q0-33.6-52.5-33.6h-116.9q-29.4,0-49.7-6.3v7Q2005.71,465.33,2031.61,487.73Zm32.2-249.9q13.29,28,38.5,28,25.89,0,39.9-28.35t14-69.65q0-41.29-14-69.3t-39.9-28q-25.2,0-38.85,28t-13.65,69.3Q2049.81,209.83,2063.81,237.83Z"/></g><g class="cls-2"><path class="cls-3" d="M-98.47,739q0-61.59,50.4-105.7t138.6-44.1q74.9,0,174.3,39.2v114.1h-3.5q-2.81-2.79-16.45-16.1T226,708.23q-5.25-4.89-18.55-17.5a250.55,250.55,0,0,0-21.35-18.55q-8.06-5.94-21-15.75a164.43,164.43,0,0,0-22.4-14.7q-9.45-4.89-21.7-10.5a117.47,117.47,0,0,0-23.45-8.05,104.83,104.83,0,0,0-22.4-2.45q-35,0-56.35,19.6t-21.35,46.2q0,39.9,60.9,71.4,21,10.5,84.7,35.7,142.8,58.8,142.8,163.8,0,72.81-55.3,112t-135.1,39.2q-80.51,0-186.9-44.1V947.63h4.9q62.29,64.41,91.7,86.1,55.29,42,101.5,42,33.6,0,57.05-19.25t23.45-53.55q0-39.9-33.6-64.4T52,888.83q-71.4-25.2-110.95-60.55T-98.47,739Z"/><path class="cls-3" d="M448.24,577.33v412.3a253.64,253.64,0,0,0,2.8,35.7q2.79,19.61,5.95,32.9t6.3,25.55q3.15,12.26,3.15,13.65v2.8H327.84v-2.8q18.2-72.79,18.2-107.8V699.83q0-44.79-20.3-105.7v-2.8Zm87.5,268.8q19.59-17.49,25.55-36.75t6-31.15a77.76,77.76,0,0,0-1.4-11.55,51.33,51.33,0,0,0-5.6-15.75v-3.5h128.1v3.5l-140,122.5,143.5,224v2.8H572.14L458.74,914Z"/><path class="cls-3" d="M1101.32,923.83q0-86.79,41.3-133.7t100.8-46.9q66.49,0,101.5,53.2v-96.6a181.93,181.93,0,0,0-3.85-35.35,253.51,253.51,0,0,0-8-31.5q-4.2-12.24-9.1-25.55l-6.3-15.4,129.5-14.7v412.3q0,35,18.2,107.8v2.8h-93.8q-1.41-2.79-10.15-21t-11.55-30.8q-39.9,58.8-107.1,58.8-57.4,0-99.4-48.3T1101.32,923.83Zm128.8,92.4q17.49,38.51,57.4,38.5,28.7,0,58.8-25.9a159.16,159.16,0,0,1-1.4-19.6V825.13q-27.3-23.79-56-23.8-38.51,0-57.75,33.6t-19.25,87.5Q1211.92,978.44,1230.12,1016.23Z"/><path class="cls-3" d="M1874.12,591.33l122.5-14v412.3a253.64,253.64,0,0,0,2.8,35.7q2.79,19.61,5.95,32.9t6.3,25.55q3.15,12.26,3.15,13.65v2.8h-138.6v-2.8q0-1.4,3.15-13.65t6.3-25.55q3.15-13.29,5.95-32.9a255.15,255.15,0,0,0,2.8-35.7V699.83q0-44.79-20.3-105.7Z"/></g></g><g id="Hišne_Mešanice-2" data-name="Hišne Mešanice-2"><g class="cls-2"><path class="cls-4" d="M181.73,352.43q1.8-5.21,3.5-10.6a119.82,119.82,0,0,0,3.2-13.3,79.16,79.16,0,0,0,1.5-14.7v-64.2a57.28,57.28,0,0,0-1.2-11.2,81.41,81.41,0,0,0-2.6-10.1q-1.4-4.1-2.9-8c-1-2.6-1.57-4-1.7-4.3v-.8h37.8l70.8,104.4v-59a82.94,82.94,0,0,0-2.3-18.7,158.05,158.05,0,0,0-5.1-17.7q-2.81-7.8-2.8-8v-1h29.6v1q-.19.6-2,5.8t-3.5,10.6a119.82,119.82,0,0,0-3.2,13.3,79.16,79.16,0,0,0-1.5,14.7v98.6h-19.8l-80.4-118v72.6a82.94,82.94,0,0,0,2.3,18.7,158.05,158.05,0,0,0,5.1,17.7q2.81,7.8,2.8,8v1h-29.6v-1Q179.93,357.63,181.73,352.43Z"/><path class="cls-4" d="M316.33,308.63q0-24.79,14.9-38.1t37.3-13.3q22.39,0,37.5,13.4t15.1,38q0,24.8-15.2,38.6-15.19,14-37.4,14t-37.2-13.9Q316.33,333.43,316.33,308.63Zm34.2,21.2a43,43,0,0,0,6.4,16.4q4.6,6.79,11.6,6.8,10,0,15-13t5-31.4q0-18-5-30.7t-15-12.7q-10,0-14.9,12.7t-4.9,30.7A115.37,115.37,0,0,0,350.53,329.83Z"/><path class="cls-4" d="M431.53,287.83q0-14.4,11.4-22.5t30.4-8.1a94.59,94.59,0,0,1,36.2,7.4v26.8h-.8a146.55,146.55,0,0,0-19.7-19q-9.11-7-18.5-7a18,18,0,0,0-10.3,2.9,9.4,9.4,0,0,0-4.3,8.3q0,6.19,5.8,9.7t19.4,8.1a6.37,6.37,0,0,1,1.4.4q17.19,6,24.4,14a27.7,27.7,0,0,1,7.2,19.2q0,16.39-11.7,24.8t-28.7,8.4q-17.61,0-39.6-8.6v-28h.8c.4.53,1.86,2.07,4.4,4.6l5,4.8q1,1.2,4.5,4.5a60.18,60.18,0,0,0,5.3,4.6c1.2.87,2.86,2.07,5,3.6a26.36,26.36,0,0,0,5.5,3.2,51.35,51.35,0,0,0,5.2,1.7,21.47,21.47,0,0,0,5.7.8,17.92,17.92,0,0,0,10.8-3.2,10.69,10.69,0,0,0,4.4-9.2,11.25,11.25,0,0,0-1.5-5.9,14.73,14.73,0,0,0-5.6-4.8,66,66,0,0,0-7.6-3.7q-3.51-1.39-11.3-4.2-16.61-6-24.9-14A26.15,26.15,0,0,1,431.53,287.83Z"/><path class="cls-4" d="M521.73,267.23v-8a95.88,95.88,0,0,0,24.4-14.7,117.59,117.59,0,0,0,18.4-19.9h1v33.8h27.2v8.8h-27.2v59.4q0,15.19,13.8,15.2a32,32,0,0,0,15.2-4.2q-9.21,23.6-31.2,23.6-12.6,0-19.8-8.4t-7.2-23.4v-62.2Z"/><path class="cls-4" d="M602.72,329.43q0-15.6,12.4-23.9a48.57,48.57,0,0,1,27.6-8.3c1.74,0,3.53.07,5.4.2a53.35,53.35,0,0,1,16.2,3v-11.8q0-22.61-10.4-22.6-7.6,0-23.6,11t-19,15.2h-1v-27.6q26-7.39,45.4-7.4,19,0,28.4,9t9.4,24.2v41.4q0,13.6,7.2,13.6a13,13,0,0,0,5.4-1.4l.4.6a17.75,17.75,0,0,1-6.4,11.5q-5.4,4.5-13.8,4.5-16.61,0-21-15.6-10.2,16-30.4,16-15,0-23.6-9.5A31.92,31.92,0,0,1,602.72,329.43Zm30.4-4q0,8.6,4.9,14.1a16.44,16.44,0,0,0,12.9,5.5q7.61,0,13.4-6.2v-32.4a36.08,36.08,0,0,1-4.2-.2,37.67,37.67,0,0,0-5.4-.4,23.87,23.87,0,0,0-15.3,5Q633.12,315.83,633.12,325.43Z"/><path class="cls-4" d="M713.52,213.83l35-4v117.8a73.08,73.08,0,0,0,.8,10.2c.53,3.73,1.1,6.87,1.7,9.4s1.2,5,1.8,7.3a36.92,36.92,0,0,1,.9,3.9v.8h-39.6v-.8a36.92,36.92,0,0,1,.9-3.9c.6-2.33,1.2-4.77,1.8-7.3s1.17-5.67,1.7-9.4a73.08,73.08,0,0,0,.8-10.2v-82.8q0-12.79-5.8-30.2Z"/><path class="cls-4" d="M770.92,360.83q-6.6-5.81-6.6-15.4,0-17.21,19.8-22.4-20.19-10-20.2-30.4,0-16.8,13.4-26.1a51.39,51.39,0,0,1,30-9.3,52.78,52.78,0,0,1,23.6,5.2q8-18.8,26.2-18.8a37.57,37.57,0,0,1,5.4.4l-4.2,22.6-.6.4a28.05,28.05,0,0,0-13.6-3.6,31,31,0,0,0-9,1.4q16.2,10,16.2,27.8,0,16.8-13.6,26.3a53.69,53.69,0,0,1-47,6.9q-8.4,2.6-8.4,7.8a4.52,4.52,0,0,0,3.4,4.7,34.57,34.57,0,0,0,10,1.1h32.6q15.4,0,23.9,7.4t8.5,21a26.48,26.48,0,0,1-4.7,15.8,27.81,27.81,0,0,1-12.8,9.8,77.11,77.11,0,0,1-16.5,4.5,117.38,117.38,0,0,1-18,1.3,101,101,0,0,1-27.5-3.7,27.07,27.07,0,0,1-12.7-7,16.37,16.37,0,0,1-4.8-11.9Q763.72,367.63,770.92,360.83Zm16.2,23.4q7.61,6.6,24.2,6.6a58.39,58.39,0,0,0,21.7-3.7q9.3-3.7,9.3-10.1,0-9.6-15-9.6h-33.4a48.44,48.44,0,0,1-14.2-1.8v2A20.93,20.93,0,0,0,787.12,384.23Zm9.2-71.4q3.81,8,11,8,7.39,0,11.4-8.1t4-19.9q0-11.81-4-19.8t-11.4-8q-7.2,0-11.1,8t-3.9,19.8Q792.32,304.83,796.32,312.83Z"/><path class="cls-4" d="M869.32,225.23a17,17,0,0,1,5.5-12.7,18.24,18.24,0,0,1,13.1-5.3,17.9,17.9,0,0,1,13,5.3,17.76,17.76,0,0,1-.1,25.6,18,18,0,0,1-12.9,5.3,18.24,18.24,0,0,1-13.1-5.3A17.25,17.25,0,0,1,869.32,225.23Zm1,129.2q.79-3.4,1.7-7.2c.6-2.53,1.17-5.67,1.7-9.4a73.08,73.08,0,0,0,.8-10.2V290q0-10-5.2-30.8v-.8h34.2v69.2a71.16,71.16,0,0,0,.5,8.1c.33,2.87.77,5.57,1.3,8.1s1,4.7,1.4,6.5.87,3.57,1.4,5.3l.8,2.8v.8h-39.6v-.8A38.33,38.33,0,0,1,870.32,354.43Z"/><path class="cls-4" d="M919.32,309q0-24.19,14.1-38t37.1-13.8q14.81,0,38.4,9.2l.4,30.2h-1a106.24,106.24,0,0,0-17.2-21.7q-10-9.71-20-9.7-10.2,0-15.2,10t-5,25q.41,19.39,8.2,30.6t23.6,11.2q15.4,0,30.4-11l.6.4q-4.61,12.19-16.2,21t-28,8.8a50.7,50.7,0,0,1-35.2-13.6Q919.32,334,919.32,309Zm15.2-95.2,2.4-2.2,31.8,11.6,31.6-11.6,2.4,2.2-34,31.8Z"/><path class="cls-4" d="M1024.92,259.23v-.8h34.2v17.4q12-18.6,32.4-18.6,14,0,23.4,8.7t9.4,24.9v36.8a73.08,73.08,0,0,0,.8,10.2c.53,3.73,1.1,6.87,1.7,9.4s1.2,5,1.8,7.3a36.92,36.92,0,0,1,.9,3.9v.8h-39.6v-.8q5.2-20.81,5.2-30.8v-32.8q0-9.79-4.9-14.5a18,18,0,0,0-12.5-4.9h-.6q-8.8,0-18,6.8v45.4a71.16,71.16,0,0,0,.5,8.1c.33,2.87.77,5.57,1.3,8.1s1,4.7,1.4,6.5.87,3.57,1.4,5.3l.8,2.8v.8h-39.6v-.8a36.92,36.92,0,0,1,.9-3.9c.6-2.33,1.2-4.77,1.8-7.3s1.17-5.67,1.7-9.4a73.08,73.08,0,0,0,.8-10.2V290a73.08,73.08,0,0,0-.8-10.2c-.53-3.73-1.1-6.87-1.7-9.4s-1.2-5-1.8-7.3A36.92,36.92,0,0,1,1024.92,259.23Z"/><path class="cls-4" d="M1153.12,271q14-13.8,36.8-13.8,23,0,34.4,14.3t11.4,35.1h-64.6q1.59,16.39,9.3,25.9t22.1,9.5q15.39,0,31.2-11.6l.8.4q-4.61,12.19-16.4,21.3t-28.6,9.1a50.78,50.78,0,0,1-35.4-13.7q-15-13.69-15-38.5Q1139.12,285,1153.12,271Zm53.6,24.8q-.81-30.6-17.4-30.6-9.81,0-14.2,9.8t-4.4,23.8v3Z"/></g><g class="cls-2"><path class="cls-4" d="M178.53,456q0-17.59,14.4-30.2t39.6-12.6q21.41,0,49.8,11.2V457h-1c-.53-.53-2.1-2.07-4.7-4.6s-4.4-4.27-5.4-5.2-2.77-2.6-5.3-5a70.38,70.38,0,0,0-6.1-5.3q-2.29-1.69-6-4.5a46.26,46.26,0,0,0-6.4-4.2q-2.7-1.39-6.2-3a33.32,33.32,0,0,0-6.7-2.3,29.66,29.66,0,0,0-6.4-.7q-10,0-16.1,5.6a17.35,17.35,0,0,0-6.1,13.2q0,11.4,17.4,20.4,6,3,24.2,10.2,40.8,16.8,40.8,46.8,0,20.8-15.8,32t-38.6,11.2q-23,0-53.4-12.6v-33.4h1.4q17.81,18.4,26.2,24.6,15.8,12,29,12a24.84,24.84,0,0,0,16.3-5.5q6.7-5.51,6.7-15.3,0-11.4-9.6-18.4t-29-14.2q-20.4-7.2-31.7-17.3A32.73,32.73,0,0,1,178.53,456Z"/><path class="cls-4" d="M334.73,409.83v117.8a73.08,73.08,0,0,0,.8,10.2c.53,3.73,1.1,6.87,1.7,9.4s1.2,5,1.8,7.3a36.92,36.92,0,0,1,.9,3.9v.8h-39.6v-.8q5.21-20.8,5.2-30.8v-82.8q0-12.79-5.8-30.2v-.8Zm25,76.8q5.59-5,7.3-10.5a31.91,31.91,0,0,0,1.7-8.9,21.52,21.52,0,0,0-.4-3.3,14.73,14.73,0,0,0-1.6-4.5v-1h36.6v1l-40,35,41,64v.8h-34.2L337.73,506Z"/><path class="cls-4" d="M405.13,508.63q0-24.79,14.9-38.1t37.3-13.3q22.4,0,37.5,13.4t15.1,38q0,24.79-15.2,38.6-15.19,14-37.4,14t-37.2-13.9Q405.13,533.42,405.13,508.63Zm34.2,21.2a43,43,0,0,0,6.4,16.4q4.61,6.79,11.6,6.8,10,0,15-13t5-31.4q0-18-5-30.7t-15-12.7q-10,0-14.9,12.7t-4.9,30.7A115.37,115.37,0,0,0,439.33,529.83Z"/><path class="cls-4" d="M521.33,508.83q0-24.79,11.8-38.2t28.8-13.4q19,0,29,15.2v-27.6a52.07,52.07,0,0,0-1.1-10.1,73.05,73.05,0,0,0-2.3-9c-.8-2.33-1.67-4.77-2.6-7.3l-1.8-4.4,37-4.2v117.8q0,10,5.2,30.8v.8h-26.8q-.4-.79-2.9-6a42.17,42.17,0,0,1-3.3-8.8q-11.4,16.8-30.6,16.8-16.41,0-28.4-13.8T521.33,508.83Zm36.8,26.4q5,11,16.4,11,8.19,0,16.8-7.4a45.18,45.18,0,0,1-.4-5.6v-52.6q-7.8-6.79-16-6.8-11,0-16.5,9.6t-5.5,25Q552.93,524.44,558.13,535.23Z"/><path class="cls-4" d="M649.33,471q14-13.8,36.79-13.8,23,0,34.4,14.3t11.4,35.1H667.33q1.59,16.39,9.29,25.9t22.1,9.5q15.4,0,31.2-11.6l.8.4q-4.59,12.2-16.39,21.3t-28.61,9.1a50.75,50.75,0,0,1-35.39-13.7q-15-13.69-15-38.5Q635.33,485,649.33,471Zm53.59,24.8q-.79-30.6-17.4-30.6-9.79,0-14.19,9.8t-4.41,23.8v3Z"/><path class="cls-4" d="M742.13,413.83l35-4v117.8a71.59,71.59,0,0,0,.8,10.2c.53,3.73,1.1,6.87,1.7,9.4s1.2,5,1.8,7.3a36.92,36.92,0,0,1,.9,3.9v.8h-39.6v-.8a36.92,36.92,0,0,1,.9-3.9c.6-2.33,1.2-4.77,1.8-7.3s1.16-5.67,1.7-9.4a73.08,73.08,0,0,0,.8-10.2v-82.8q0-12.79-5.8-30.2Z"/><path class="cls-4" d="M795.13,425.23a17,17,0,0,1,5.5-12.7,18.22,18.22,0,0,1,13.1-5.3,17.91,17.91,0,0,1,13,5.3,17.76,17.76,0,0,1-.1,25.6,18,18,0,0,1-12.9,5.3,18.22,18.22,0,0,1-13.1-5.3A17.22,17.22,0,0,1,795.13,425.23Zm1,129.2q.79-3.4,1.7-7.2c.6-2.53,1.16-5.67,1.7-9.4a73.08,73.08,0,0,0,.8-10.2V490q0-10-5.2-30.8v-.8h34.2v69.2a68.93,68.93,0,0,0,.5,8.1q.49,4.31,1.3,8.1t1.4,6.5c.4,1.8.86,3.57,1.4,5.3l.8,2.8v.8h-39.6v-.8A35.53,35.53,0,0,1,796.13,554.43Z"/><path class="cls-4" d="M859.32,471q14-13.8,37-13.8,14.8,0,38.4,9.2l.4,30.2h-1a106.24,106.24,0,0,0-17.2-21.7q-10-9.71-20-9.7-10.2,0-15.2,10t-5,25q.4,19.39,8.2,30.6t23.6,11.2q15.4,0,30.4-11l.6.4q-4.59,12.2-16.2,21t-28,8.8a50.72,50.72,0,0,1-35.2-13.6q-15-13.61-15-38.6Q845.12,484.84,859.32,471Z"/><path class="cls-4" d="M962.52,471q14-13.8,36.8-13.8,23,0,34.4,14.3t11.4,35.1h-64.6q1.61,16.39,9.3,25.9t22.1,9.5q15.41,0,31.2-11.6l.8.4q-4.59,12.2-16.4,21.3t-28.6,9.1a50.78,50.78,0,0,1-35.4-13.7q-15-13.69-15-38.5Q948.52,485,962.52,471Zm53.6,24.8q-.79-30.6-17.4-30.6-9.79,0-14.2,9.8t-4.4,23.8v3Z"/></g></g><rect id="Sidebar-2" class="cls-5" y="684.16" width="1984.25" height="1300.09"/></svg>