<svg id="Layer_1" data-name="Layer 1" xmlns="http://www.w3.org/2000/svg" viewBox="0 0 275.64 314.86"><defs><style>.cls-1{fill:#f4ebda;}.cls-2{fill:#c6d8c9;}.cls-3{fill:#cbc4bc;}.cls-4{fill:#231f20;}</style></defs><title>otrociTrava</title><path class="cls-1" d="M164,354c4.76,7.12,35.63.58,49-5,27.33-11.4,2-22,49-25,14.5-.93,19.26,0,36,6,8.41,3,7.72,14.77,18,16,37.17,4.46,53.23,25,63,19,7.93-4.89,5.66-14.22,1-22-2.34-3.9-20.48-8.12-41-18-9.65-4.64-19.08-21.14-29-20-26,3-3-15-37-10-21.9,3.22-23.47,9.7-49,19-24.11,8.78-39.1-3.71-53,9C164.3,329.12,161.37,350.07,164,354Z" transform="translate(-157.12 -135.9)"/><path class="cls-2" d="M277,432c-26.09-34,17-75,15-64-1.53,8.41-2.79,38.4,2,38s-6.75-38.65,35-47c10-2-22,18,0,36,3.12,2.56-2.26.17,19-14,18-12-7.05,17.53,3,21,3,1,14.09-16.89,19-18,5.36-1.21,4,36.54,10,31,14.4-13.21,3.84-38.44,12-40s46.63,32.1,40,52c-8.58,25.77-54.66,19.54-67,20C344.07,447.77,299.44,461.24,277,432Z" transform="translate(-157.12 -135.9)"/><path class="cls-3" d="M282.46,148.81C289.2,141.65,289,135,316,136c7.6.28,16.78,3.06,17.65,4.55a36.78,36.78,0,0,1,2.86,6.29c2.65,8,2.38,12.56,5.49,18.16,5,9-1.82,18.46-5,28-1.72,5.15-5.84-6.83-8.15-6.39-1,.19-9.25,1.06-11.17-.86-8.59-8.59-9.09-9.81-18-9.45-9.42.38-17.18,6-15.46-6C284.62,167.22,259,173.72,282.46,148.81Z" transform="translate(-157.12 -135.9)"/><g id="otroci_v_travi" data-name="otroci v travi"><path class="cls-4" d="M303.61,225.39c.2-.17.82-.12,1.09-.27a3.13,3.13,0,0,0,.94-.91,4.68,4.68,0,0,0,.59-2.92.63.63,0,0,0-1.25,0,3.15,3.15,0,0,1-.61,2.5c-.47.45-1.14.27-1.64.72s.28,1.41.88.88Z" transform="translate(-157.12 -135.9)"/><path class="cls-4" d="M286.84,226.34c2.74-.16,4.22,2.4,6.07,3.92,1.53,1.27,3.58,1.6,5.49,1.86.79.11.79-1.15,0-1.25a8.81,8.81,0,0,1-5.1-2c-.77-.71-1.39-1.51-2.22-2.16a6.33,6.33,0,0,0-4.24-1.67c-.8,0-.8,1.3,0,1.25Z" transform="translate(-157.12 -135.9)"/><path class="cls-4" d="M335.16,207.54c-1.52,3-4.37,5.34-5.87,8.32-1.78,3.51-3.86,7.56-7.53,9.52a68.87,68.87,0,0,0-10.39,6.23,42.24,42.24,0,0,1-6.31,4.49c-2,1-4.2,1.44-6.2,2.38-3,1.41-5.25,2.21-8.49,1a29.41,29.41,0,0,1-6.3-2.94c-3.64-2.38-3.7-6.84-5.89-10.4a17.17,17.17,0,0,0-2.64-2.75,16.6,16.6,0,0,1-3.7-6.58c-2-5.7-.69-10,1.59-15.24.32-.73-.76-1.37-1.08-.64-1.65,3.82-3.6,7.64-3,11.91.48,3.41,1.92,8,4.34,10.59a23.2,23.2,0,0,1,4.84,6.74c.81,1.82,1.33,4,2.41,5.67a6.88,6.88,0,0,0,3.06,2.64,36.18,36.18,0,0,0,7.8,3c4.15.81,8.9-2.14,12.49-3.71,5.35-2.33,9.1-7.16,14.37-9.58a23.43,23.43,0,0,0,10.58-8.55c1.25-1.72,2-3.95,3.19-5.75a57,57,0,0,0,3.8-5.78c.36-.72-.72-1.35-1.08-.63Z" transform="translate(-157.12 -135.9)"/><path class="cls-4" d="M269,177.53l-.15.07.61,1c.3-.38.95-1.27,1.43-1.25q3.33-2.34,6.57,1.66l-.09,1c.6,1.57,0,2.8,1.58,4.1a2.71,2.71,0,0,0,1.54.87,11.73,11.73,0,0,0,2.53-1c2.67-.81.2-.25,6.09-.75,5.32-.45,11.08-2.94,16.6-1.18,3,.94,5.16,3.54,7.82,5s5,1.6,7.65,3.16c1.66,1,3.87,4.16,6.12,2.45.78-.58.82-1.93,1-2.75a35.74,35.74,0,0,1,.93-4.44c.64-1.77,2.12-3.16,2.68-4.92a4.8,4.8,0,0,0,0-3.48c-.57-2.13-1.62-3.56-1.67-5.92s.8-3.49,1.24-5.55c.67-3.07,1.34-6.48-1.15-8.72-.59-.54-1.48.34-.88.88,3.62,3.27-1.11,10.35-.71,14.2s3,5.63,1,9.8a25,25,0,0,0-2.44,6.26c-.08.41-.42,2.64-.41,2.63-1,.9-3.15-.53-3.89-.91-1.76-.91-2.78-1.9-4.56-2.55-2.83-1-4.79-1.59-7.33-3.39a19.57,19.57,0,0,0-5.1-3c-4.21-1.31-9.26-.52-13.37.52-2.27.58-4.46-.15-6.65.23-3,.52-5.83,4-7.4-1.62-.67-2.44,0-4.54-3.25-5.16-2.31-.43-5.39,1.13-6.8,2.88-.33.42,0,1.32.61,1l.15-.06c.73-.31.41-1.52-.33-1.21Z" transform="translate(-157.12 -135.9)"/><path class="cls-4" d="M327.39,193.67l0-.35-1.16.32c2.31,3.82,4,8.25,6.32,11.94,1,1.58,1.92,2,3.65.91,3.67-2.38,3-6.24,4.31-9.7,1-2.8,3.93-3.5,5.25-6,1.19-2.21.84-4.93,1-7.32.22-4,2.13-6.48,3.63-10,.63-1.47,1.46-3.41,1.15-5.08s-1.92-2.83-2.88-4.16c-2.41-3.36-2.43-7.57-3.13-11.48-.92-5.1-3.23-5.9-7.55-8.34a40.47,40.47,0,0,0-16.4-5c-.8-.08-.79,1.17,0,1.25a39.2,39.2,0,0,1,15.77,4.84c2.16,1.23,3.78,1.95,5.31,4,1.92,2.57,1.76,5.46,2.37,8.52.79,4,3,6.69,4.23,10.37,1.62,4.76-2.74,8-3.57,12.58a39.42,39.42,0,0,0-.2,4.86c-.2,3.46-1.57,5.15-3.93,7.35-2.54,2.37-2,4.72-3,7.78-.65,1.84-2.34,5.26-4.69,3.52-.25-.19-.07-1-.34-1.32-2.51-3-4.16-6.86-6.17-10.19-.3-.49-1.25-.34-1.17.31l0,.35c.1.79,1.35.8,1.25,0Z" transform="translate(-157.12 -135.9)"/><path class="cls-4" d="M321.51,139.46c-3.71-.11-6.59-1.49-10.47-.89a32.85,32.85,0,0,1-8.86.42,10.4,10.4,0,0,0-2.73,0c-6.55,1.08-12.52,7.21-16.11,12.44-2.29,3.33-3.53,7-6,10.17-2.25,2.88-4.22,5.8-6.31,8.77-1.57,2.24-3.9,4.64-4.25,7.45-.27,2.09,1.46,4,1.06,5.72-.17.78,1,1.12,1.21.33.57-2.56-.68-1.51-1.05-4.58-.34-2.78,4.6-8.21,5.9-10.36,1.63-2.69,3.43-5,5.25-7.61a54.81,54.81,0,0,0,3.37-6.2c3.53-6.69,11.57-15.6,19.89-14.82a28.26,28.26,0,0,0,8.09-.36c4-.64,7.16.68,11,.79a.63.63,0,0,0,0-1.25Z" transform="translate(-157.12 -135.9)"/><path class="cls-4" d="M271.77,198.85c.24,0-.42-3.6-.55-3.93-.9-2.52-2.49-3.27-2.39-6.39a21.36,21.36,0,0,1,.44-2.4c.11-.69.28-4.57.86-5.32,3.76-4.84,4.67,1.88,4.55,3.78-.06.93-.46,1.95-.55,2.9-.4,4.5.43,8.53-2,12.69a.63.63,0,0,0,1.08.63,15.48,15.48,0,0,0,2.05-6.52c.19-1.81,0-3.61.11-5.41s.7-3.38.91-5.07c.33-2.61-.94-6-4.13-6.42-4-.52-3.64,5.32-4,7.59-.3,2-1.17,4.34-.51,6.3.27.83,1,1.4,1.4,2.15a18.68,18.68,0,0,1,1.52,6.09.6.6,0,0,0,.44.44l.43.09c.79.16,1.12-1,.33-1.2Z" transform="translate(-157.12 -135.9)"/><path class="cls-4" d="M270.48,217.14c.25,3.11-2,5.62-4.2,7.48-2.69,2.29-3.13,1.75-6.23,1.39-4.31-.5-8.09,3.84-11.49,6-6.47,4.11-13.15,2.39-20.07,4.51-2.61.8-5.19,1.89-7.79,2.64-3.17.93-6.53.67-9.74,1.39-5.39,1.2-8.52,6.88-12,10.79a36,36,0,0,0-8.63,15.87,29.83,29.83,0,0,1-6.06,12c-2.15,2.66-4.37,5-5.92,8.13-1.63,3.25-1.72,6.41-2.61,9.83-1,3.92-4,6.45-5.84,9.9a.63.63,0,0,0,.86.85c1.47-.76,2.38-2.34,3.38-3.62,3.82-4.91,7.21-7.68,13.24-9.41,4.59-1.31,7.65.66,11.22,3.06,1.2.81,5.83,3,1.19,4-1.07.23-2.82-.74-3.92-1-2.14-.49-5.07-1.39-7.17-.21-.75.42-1.07,1.09-1.63,1.63-3.09,2.95-3.16,2.34-6.73,2.43-5.39.14-13.12,4.45-16.11,9.06-1.37,2.12-1.11,4.9-1.79,7.3-1.16,4.05-3.35,8-4.81,12-.82,2.24-.78,4.7,2,2.92,2.07-1.32,3.35-4.19,4.71-6.11,2.17-3.06,5.78-4.67,7.69-7.8,1.14-1.88,1.08-4,2.71-5.79,2.58-2.78,6.05-2.26,9.36-1.85,3.15.38,4.69-.32,7.56-1.25,3.58-1.15,6,1.45,9.19.4.85-.28,1.53-1,2.36-1.36a28.64,28.64,0,0,1,5.8-.87c1.53-.11,3-.21,4.53-.39,4.47-.51,7.73,0,11.91-1.67,3.93-1.59,8.26-1,11.82-3.3.67-.44.05-1.52-.63-1.08-3.11,2-7.08,1.28-10.54,2.67-2.5,1-4.36,1.92-7.09,2a56,56,0,0,0-5.8.2,81.81,81.81,0,0,0-11.37,1.68c-.25.07-.46.39-.66.44a11.45,11.45,0,0,1-4.52-.31,7.81,7.81,0,0,0-2.91-.42,13.66,13.66,0,0,0-2.66.9c-3.58,1.31-5.49,1-9.06.74a10.22,10.22,0,0,0-7.06,1.64c-2.24,1.64-2.43,3.61-3.58,5.91-1.63,3.26-5.91,5.7-8.13,8.9-.48.7-3.2,5.45-3.81,5.25-.77-.25.75-4.13.89-4.55,1.36-3.92,3.14-7.53,4-11.62,1-4.68,3.6-7.23,8-9.53a26.12,26.12,0,0,1,6.1-2.39c2.08-.47,4.65.29,6.61-.38a5.25,5.25,0,0,0,1.22-.51c2-1.31,1.09-1.91,4.34-2.95,4.18-1.34,6,.52,10.05.7,3,.14,4-1.82,2-4.08-1.7-1.87-4.63-3.36-6.74-4.71a8.77,8.77,0,0,0-7.56-1.24c-3.77.91-7.78,2.37-10.75,4.94-2.68,2.31-4.31,6.95-7.45,8.57l.86.86c1.57-3,4.13-5.22,5.37-8.43,1.45-3.74,1.22-7.6,3.08-11.3,3.28-6.52,9.46-10.81,11.54-18,1.14-3.95,2-8.28,4.15-11.88s5.37-6.23,8-9.27c3.21-3.63,4.61-6.61,10-7.28,2.36-.3,4.89-.2,7.2-.79,3.33-.85,6.51-2.59,9.89-3.4s7.15-.58,10.61-1.08c5.87-.84,9.69-4.59,14.69-7.41,2.06-1.16,3-1.69,5.43-1.41.73.09,1.66.65,2.4.55a6.79,6.79,0,0,0,3-1.78c2.73-2.17,5.72-5.26,5.41-9.07-.06-.8-1.31-.81-1.25,0Z" transform="translate(-157.12 -135.9)"/><path class="cls-4" d="M236.33,306.53c2.77-2.46,8.09-3,11.71-4,4.55-1.27,8.8-3.17,13.32-4.51,4.15-1.24,8.21-2.51,12.41-3.56,2.69-.67,5-1.31,7.82-1,2.94.38,4.49,1.74,6.81,3.5,2.85,2.17,5.06,3.68,5.59,7.35.12.84.5,3.71.12,4.62-.64,1.52-2.91,1.78-4.06,2.68-1.88,1.47-3.85,4.74-5.95,5.81-2.63,1.35-8-1-10.75-.9a.63.63,0,0,0-.44,1.07,11.92,11.92,0,0,0,6.88,3.75l-.17-1.23a29.9,29.9,0,0,1-6,1.05c-4.87.37-6.21-1.21-10.29-2.62-3.37-1.17-5.54,0-8.5,1.4-5.9,2.86-12.06-.14-17.69,3.74-4.67,3.22-8.9,6.57-13.93,9.28-5.86,3.17-11.32,6.15-17.65,8.35-5.59,1.95-11.64,2.72-17.38,4.24s-12.4,3.48-18.55,2.95c-4.9-.43-6.06-5.51-6.7-9.6-.26-1.67-1.49-5.32-.71-6.16.55-.59-.33-1.47-.88-.88-2.85,3.07-.52,5.33.45,8.76s2.23,8.47,6.47,9.09c5.61.81,12.51-.77,17.92-2.29,7.11-2,14.44-3.05,21.39-5.52,6.63-2.35,12.35-5.67,18.5-9.06,6.55-3.6,12.08-10.3,19.85-10.45,2.44-.05,5.16.77,7.53-.07,1.28-.46,2.05-1.53,3.22-2.14,4.11-2.16,6.8.22,10.38,1.67,4.35,1.76,8.61.68,12.88-.53a.63.63,0,0,0-.17-1.23c-1.83-.18-4.83-2.14-6-3.39l-.44,1.07c2.91-.09,5.77,1,8.53,1.59,1,.21,1.57.56,2.57.12,1.23-.55,3-3.29,4.06-4.3a18.79,18.79,0,0,1,2.2-2c1.17-.84,2.3-.94,3.38-1.72,1.83-1.3,1.71-4.6,1.47-6.63-.5-4.24-2.06-5.42-5.34-8.05-2.81-2.25-6.07-5.35-9.92-5.1-5.14.34-10.78,2.34-15.63,3.94-5.87,1.95-11.71,4.1-17.63,5.85-3.93,1.16-8.37,1.26-11.6,4.13-.6.54.29,1.42.89.88Z" transform="translate(-157.12 -135.9)"/><path class="cls-4" d="M315.57,230.37l-.44.08a.62.62,0,0,0-.43.44c-.64,2.54-1.28,4.51,1.09,6.34,2.73,2.1,7.53,2.78,10.66,4.05,3.81,1.55,8.26,2,12.31,2.32,3.06.27,5.09,1.34,7.66,2.84,1.8,1.06,4.08,1.64,5.8,2.72,4.08,2.57,5.94,8.43,8,12.52,1,2,2.54,3.92,3.45,5.94,1.37,3,.52,3.54-2,5.34-8.07,5.74-14.74,12.83-21.58,20l.88.89c3-3.12,4.65-6.08,8.95-7.82,2.56-1,5.27-1.67,7.64-3.15a9.26,9.26,0,0,0,4-4,10.47,10.47,0,0,0,.43-2.16q5.57-3.27,7.81,1.27c2.57,4.41,1,4.45.66,7.52-.64,6.7,1.89,12.75,5,18.35,2.57,4.59,1.9,8-3.61,8.08-1.25,0-1.6-.44-2.88-.36a35.69,35.69,0,0,0-9.08,1.86c-.63.23-.58,1.24.16,1.23,5.15-.13,9.77-.57,13.58,3.48a62.29,62.29,0,0,1,7.57,10.33c3.41,5.57,3.12,7.44,2.52,13.81,0-.47-.85,5,.24,4,.38-.32-8.55-8.93-9.81-9.44-4.81-1.95-9.92-3.83-15.13-3.42-3.86.3-6-2.49-9-4.3-3.46-2-7.33-3.34-10.75-5.48-2.21-1.38-4.21-3.11-6.36-4.56-4.2-2.83-3.52-2.18-5.75-5a43.25,43.25,0,0,0-3.19-3.3c-2.58-2.63-6.09-5.55-10-4.69-2.87.63-5.2,3-7.71,4.28-1.66.88-3,.81-3.33,2.71a.64.64,0,0,0,.43.77c5.22,1.71,11.52-1.28,16.35,2.31l.15-1.14c-1.71.48-22.56-3.61-16.4,3.65,3.06,3.6,9.23,0,12.2,3.05,1.19,1.23.41.9-1.2,1.1-2,.26-3.52-.74-5.23-1.54s-4.35-.66-5.68-1.39a.63.63,0,0,0-.92.37,7.93,7.93,0,0,0,.66,6.54c1.92,3.82,4.64,7,6.51,10.93,2.9,6.06,6.71,6.77,12.74,4.76,1.95-.65,3.41-1.48,4.17-3.47.69-1.82.39-3.53,1.73-5.14.7-.84,1.73-1.27,2.36-2.23a4.67,4.67,0,0,0,.67-3.5,19.26,19.26,0,0,0-.95-5c-.67-1.21-.92-1.09-2.3-.82-.79.15-.46,1.36.33,1.21s.93,1.9.95,2.5a11.86,11.86,0,0,1-2.37,7.29c-1.14,1.55-1.66,1.89-2.34,3.66-.14.36.48.94.38,1.27-.9,2.77-3.38,3.23-5.64,3.71-5.4,1.12-7.59-2.52-9.54-6.91-1.39-3.12-4-5.31-5.36-8.34-.72-1.57-2.35-4.24-.56-5.11-.07,0,2.18,0,1.24.09,2.35-.32,4.08,1.64,6.15,2.21a11.24,11.24,0,0,0,7-.4.62.62,0,0,0,.23-.85c-2.17-3.3-6.5-3.09-9.93-3.32-4.65-.3-1.52-3.43,1.47-3.68a19.93,19.93,0,0,1,3.83.57,14.56,14.56,0,0,0,6.13,0,.63.63,0,0,0,.15-1.14c-2.55-1.89-6.83-2.43-9.94-2.14-.88.09-3,.78-3.87.32-1.55-.84-.89-.85-.32-1.51,1.05-1.22,4-2.65,5.56-3.31,6.51-2.75,11.54,2.6,15.12,7.46,2.54,3.43,5.66,4.56,9.18,7.07,4.17,3,8.9,4.69,13.31,7.25,2.84,1.65,5.08,4.45,8.56,4.67,2.59.17,4.86-.6,7.5.21,2,.63,4.1,1.7,6.13,2.4,4.87,1.68,9,6.15,12,10.32a.67.67,0,0,0,.86.23l.59-.28a.62.62,0,0,0,.31-.54c0,.52-.12-1.65-.17-1.32a13.3,13.3,0,0,0-.52-1.37l.91-3c.48-1.87.79-1.45.67-3.52-.31-5-3-8.85-5.61-12.88-2.34-3.67-5-7.53-8.47-10.26s-8.12-1.54-12.05-1.44l.17,1.22a34.65,34.65,0,0,1,9.47-1.53c2.78,0,4.94,1.14,7.65.26a.61.61,0,0,0,.44-.44c.6-3.3.82-6-.76-9-1.27-2.42-2.89-4.13-3.77-6.84a37.93,37.93,0,0,1-1.27-7.85c-.4-3.64,1.26-6.9-.24-10.32a11.58,11.58,0,0,0-4.8-5.47,4.39,4.39,0,0,0-4.39,0,3.47,3.47,0,0,0-1.58,1.95c-1.12,2.65-1.21,4.67-4,6.45-3.09,2-6.79,2.37-10,4.05s-4.52,4.65-6.87,7.11c-.56.58.32,1.47.88.89,4.12-4.31,8.33-8.51,12.48-12.78,3.26-3.35,7.42-5.48,11-8.44,1.68-1.39,2.57-2.25,1.73-4.17s-3-3.84-4.08-5.87c-1.47-2.77-2.69-5.67-4.13-8.45-1.34-2.57-3-5-5.65-6.27-2.37-1.19-4.28-1.9-6.41-3.63a6.82,6.82,0,0,0-3.1-1.76c-5.74-1.26-11.53-.33-17.09-2.86-1.39-.63-2.67-1.26-4.1-1.78a17,17,0,0,1-3.08-1l-1.09-.22c-1.84-1.61-2.36-3.27-1.54-5,.79-.16.46-1.36-.33-1.2Z" transform="translate(-157.12 -135.9)"/><path class="cls-4" d="M323,341.29c-.07,3.6,7.8,4.15,10.31,4.33,9.6.67,17,7,25.4,11.1a28.26,28.26,0,0,0,11.35,3.44c3.76.39,6.65-.87,10-2.48,6.68-3.22,3.83-9.29.32-14.08-.47-.64-1.56,0-1.08.63A27.18,27.18,0,0,1,382,348c1.88,3.92.87,6.19-2.34,8.43a14.26,14.26,0,0,1-10.85,2.24c-6.22-1.1-11.52-4.17-17-7.11-4.8-2.57-8.17-5.19-13.48-6.6-1.6-.43-14.15-.73-14.09-3.67a.63.63,0,0,0-1.25,0Z" transform="translate(-157.12 -135.9)"/><path class="cls-4" d="M277.39,337.51c-3.22,0-9.19,1.37-8.81,5.89.48,5.74,7.07-.76,9-.23a.64.64,0,0,0,.77-.44c.81-2.32-.41-.84,1.67-3.6.67-.88.67-.06,1-1.39.18-.79-1-1.3-.74-2.49.14-.64,1.28-1.4,1.62-1.94.85-1.34,1.24-2,.89-3.56a.62.62,0,0,0-.77-.44l.12-1.26a.64.64,0,0,0-.38-.92,5.48,5.48,0,0,1-3.24-2.52q4.41-2.13,3.18.42c0,1.45-.41,1.81-1.57,1.76-2.14-.09-4.26-2-6.58-.77-3.62,2-.62,4.62,1.85,5.46a4.8,4.8,0,0,0,5.13-.79c.66-.47,1.24-1.41,1.95-1.77q1.56-2.4,3.7,1.32a4.9,4.9,0,0,1-2.5-.72c-2.72-.93-4.5-1.36-4.24,2.31.05.8,1.3.81,1.25,0-.23-3.32,3.14-.65,4.46-.41a4.93,4.93,0,0,0,3.37-.48c1.82-1.46.68-3.42-1-4.55-2.72-1.84-3.86.05-5.94,1.65-.7.54-7.21,3.06-7.56,1.44l2.22-2.43a5.94,5.94,0,0,1,2.6.56c1.18.37,2.19,1.09,3.42.71a.6.6,0,0,0,.44-.43c.28-1.69,1.55-5.35-.12-6.72-1.27-1.05-4.35-.27-5.25,1-1.14,1.65.25,3.58,1.51,4.7.52.47,1.53.89,1.84,1.39s-.23,1.36.34,2.16a.65.65,0,0,0,.7.29,41.13,41.13,0,0,0-2.3,3.57,5.07,5.07,0,0,0-.62,1.89c-.2,1.08.79.42-.16,2.07-.42.73-1.26.42-1.68,1.38-.14.34.14.84,0,1.11-.26.49,0,.58-.24.88-.09.09-.44-.19-.59-.09s-2,1-2.06,1l-.79.73q-4.41-1.2-1.71-2.77c1.23-1.55,4-1.77,5.86-1.77a.63.63,0,0,0,0-1.25Z" transform="translate(-157.12 -135.9)"/><path class="cls-4" d="M280,338.45c3-5.3,11.71-2.59,14.86-8.16a5.46,5.46,0,0,0,.22-4.39c-.66-1.51-6.17-4.43-1.81-6.15a.64.64,0,0,0,.44-.77c-1.09-4.07,6.68-6.52,5-2.25-.89,2.2-2,.42-3.94.68s-2.47,1.22-2.86,3.09l1.14-.15c-1.36-1.93-2.28-3.21-4.76-3.26-2,0-5,1.12-5.27,3.55-.49,5.51,8.52,1.19,10.3.77.78-.19.45-1.4-.33-1.21s-3.12,1.11-4,1c1.67.14,1.47-2.35,2.94-.26.29.41,1,.43,1.15-.14.88-4.27,5.18-.21,7.35-1.78,1.22-.88.91-2.53.34-3.6-1.85-3.5-8.05-4.44-9.4,0-.16.54.3,1.17.26,1.69-.22,2.92.3,1-1.37,2.9-1.15,1.28-1,2.06,0,3.32.38.49,1,.64,1.43,1.09.92,1,2.32,4.27,1.55,5.83-1.2,2.45-5.49,2.59-7.7,3.27-2.62.81-5.24,1.8-6.63,4.26a.63.63,0,0,0,1.08.63Z" transform="translate(-157.12 -135.9)"/><path class="cls-4" d="M295.87,328.68c0-1.64.89-2.22,2.62-1.74a5.75,5.75,0,0,1,1,1c.41.43.81.88,1.19,1.33,1.48,1.73,2.17,3.23.41,5.15l.76-.09c-.77-.42-1.56-.82-2.29-1.31a4,4,0,0,1-1.7-2.78c-.43-1.64-1.91-3.32-1.52-5.06.17-.78-1-1.12-1.21-.33-.48,2.18,1.06,4.2,1.64,6.22.68,2.39,2.34,3.19,4.45,4.34a.65.65,0,0,0,.76-.1c2.85-3.12.83-5.64-1.6-8.25-1-1.09-2.21-2-3.78-1.49a3,3,0,0,0-2,3.12c0,.8,1.29.81,1.25,0Z" transform="translate(-157.12 -135.9)"/><path class="cls-4" d="M298,311.43l-.41.32h.88c-2.31-1.81-.43-4.07,1.23-5.06a10.49,10.49,0,0,1,3.62-1.14c.89-.17,1.59-.26,2.12-1.06,1.11-1.69-.1-6.19-1.69-7.38-1.39-1-4.13,0-4.73,1.55a3.94,3.94,0,0,0,2.73,5l-.43-.77c-.49,1.19-.92,2.4-1.38,3.59-.29.75.92,1.08,1.2.33.46-1.19.89-2.4,1.38-3.58a.62.62,0,0,0-.44-.77c-.84-.21-2.17-1.89-2-2.86a1.76,1.76,0,0,1,2.63-1.22c1.07.54,1.75,2.61,1.72,3.83-.06,2.28-1.38,2-3,2.4a9.56,9.56,0,0,0-2.78,1.26c-2.3,1.53-3.81,4.7-1.13,6.79a.65.65,0,0,0,.88,0l.41-.32c.64-.49-.25-1.37-.88-.88Z" transform="translate(-157.12 -135.9)"/><path class="cls-4" d="M298.48,313.81c-.7-3.13,3.4-3.81,5.11-5.43,1.31-1.25,1.17-2.39,1.84-4a5.12,5.12,0,0,1,2.64-2.4,3.31,3.31,0,0,1,1.58-.48c.59-.22.9.06.94.86.68.61.64,1.06-.11,1.36-1.19,1.56-4.13,1.61-5.69,2.94-.62.52.27,1.41.88.89,1.48-1.27,8.3-2.43,7.05-5.8-.77-2.11-3.69-1.63-5.21-.91a6.9,6.9,0,0,0-3,2.53c-.81,1.4-.51,2.87-1.81,4.08-2.39,2.26-6.35,2.52-5.43,6.65.18.78,1.38.45,1.21-.33Z" transform="translate(-157.12 -135.9)"/><path class="cls-4" d="M298,306c.78.16-1.78-7.22-1.8-7.26-.14-.33-.38-.65-.52-1-1.83-4.23-.42-.95-.62-2.89-.09-.78.12-.88-.24-1.58s-2.19-1.53-.56-2.25c.62-.27,1.86,2.34,2.05,3.31.28,1.42-.12,2.88-.12,4.28a21.7,21.7,0,0,0,.52,3.93c.14.79,1.34.46,1.2-.33-.41-2.25-.12-4.41-.24-6.65-.07-1.29.07-3.29-.77-4.43s-3.37-2.61-4.58-1.42a1.93,1.93,0,0,0-.5,1.88,2.85,2.85,0,0,0,.41.77c.92,1.56,1.29.63,1.38,3a5.09,5.09,0,0,0,.65,2.66c.49,1.05,1,2,1.46,3.12a21,21,0,0,1,1.05,5.38.66.66,0,0,0,.46.6l.44.09c.78.16,1.12-1,.33-1.2Z" transform="translate(-157.12 -135.9)"/><path class="cls-4" d="M334.22,319.23c.44-7.49,7.83-3.57,11.79-3.11a.63.63,0,0,0,.44-1.07c-2.28-1.76-6.51-2.84-9.36-3.16-2.35-.26-2.92.12-3.93-2.15-.47-1.07-.25-2.05-1-3.08-1.73-2.44-3.66-2.15-5.28-5.64-1.15-2.48-.62-4.63-.22-7.24a8.21,8.21,0,0,0,.06-3.69c-.33-1.24-1.37-2.35-1.78-3.58a21.68,21.68,0,0,1-.71-6.16.63.63,0,0,0-1.25,0,21.22,21.22,0,0,0,1,7.26c1.14,2.84.72,4.06.63,7.84-.08,3.3.71,7.2,3.3,9.53a13.29,13.29,0,0,1,4.09,5.59c.36.86.32,1.77,1.2,2.31,1.15.73,3.51.16,4.84.46,1.84.4,6,1.44,7.47,2.6l.45-1.07c-3.26-.38-6.26-2.94-9.79-1.28-2.08,1-3.12,3.5-3.25,5.64,0,.8,1.21.8,1.25,0Z" transform="translate(-157.12 -135.9)"/><path class="cls-4" d="M229,330.78c0,4-3.4,9.9-6.51,12.35-3.34,2.64-6.7,3.87-9.7,7.16-5.43,6-7.1,14.38-9.51,21.83-.24.77,1,1.1,1.21.33,3.39-10.53,5.89-21.09,16.29-26.84,5-2.78,9.4-8.88,9.47-14.83a.63.63,0,0,0-1.25,0Z" transform="translate(-157.12 -135.9)"/><path class="cls-4" d="M226.22,305.55c-.74-.43,3.06-9,3.29-10.1.76-3.48.46-7.06,1.1-10.55,1.14-6.17,6-10.64,7.61-16.82.68-2.67,3-6.83,2.42-9.74-.39-2.08-2.16-3.42-3.22-5.23-2.88-5-4.65-9.74-11-9.63a.63.63,0,0,0,0,1.25c5.85-.1,7.45,4.81,9.91,9,1.24,2.11,2.63,3.74,2.64,6.17,0,3.38-2.12,9.8-3.63,12.83-1.07,2.17-2.95,3.69-4.06,5.79-2.88,5.43-1.75,11.61-3.17,17.35a28.6,28.6,0,0,1-2.56,6.72c-.35.64-1.23,1.24-1.26,2-.06,1.15.37,1.47,1.29,2a.63.63,0,0,0,.63-1.08Z" transform="translate(-157.12 -135.9)"/><path class="cls-4" d="M262.69,228.66l.17-.32-1.08-.63c-.75,1.76-3.08,1.76-1.85,4.2,1.11,2.2,4.75,2.27,6.74,2.89,3.23,1,4,4.75,7.5,4.8,1.75,0,3.33-1,5-1.29,2.19-.4,3,.67,4.87,1.14a.62.62,0,0,0,.33-1.2c-1.79-.45-2.53-1.62-4.4-1.49-4.19.32-4.58,2.65-8.7-.72a12.92,12.92,0,0,0-5.44-2.74c-1.63-.44-4.93-.62-4.29-3.61-.17.81,1.39-1.55,1.31-1.35.3-.72-.69-1.36-1.08-.63l-.17.32c-.38.71.7,1.34,1.08.63Z" transform="translate(-157.12 -135.9)"/><path class="cls-4" d="M336.52,207.3a2.11,2.11,0,0,1,.37-1.12,3.51,3.51,0,0,1,.74-1l-1.05-.61c-.19.89-.65,1.69-.85,2.58s1,1.12,1.2.33.67-1.69.86-2.58a.63.63,0,0,0-1-.6,4.4,4.4,0,0,0-1,1.38,3.09,3.09,0,0,0-.48,1.63c.08.8,1.33.8,1.25,0Z" transform="translate(-157.12 -135.9)"/><path class="cls-4" d="M302.61,206.38l0-.13a.64.64,0,0,0-.92-.38,10.76,10.76,0,0,1-1.82,1,8.05,8.05,0,0,1-4.36-.67,11.51,11.51,0,0,1-3.31-1.95c-.76-.68-.88-1.14-1.91-1-.79.09-.8,1.34,0,1.25.63-.06,2.11,1.5,2.77,1.89a11.87,11.87,0,0,0,2.89,1.34,9.8,9.8,0,0,0,3.94.5,8.86,8.86,0,0,0,2.43-1.24l-.92-.37,0,.14c.18.78,1.38.45,1.21-.34Z" transform="translate(-157.12 -135.9)"/><path class="cls-4" d="M295.39,206.63h-.06c-.56,0-.78.7-.44,1.06a6.65,6.65,0,0,0,1,.81,1.91,1.91,0,0,0,.87.55c.81.15,1.72-.54,2.4-.89s.08-1.44-.63-1.07c-.36.18-1.23.82-1.64.66-.1,0-.28-.28-.38-.35a3.85,3.85,0,0,1-.69-.59l-.45,1.07h.06c.8.07.8-1.18,0-1.25Z" transform="translate(-157.12 -135.9)"/><path class="cls-4" d="M302.88,206.35a5,5,0,0,1,.92-.48,8.29,8.29,0,0,1,1.26-.55,2.55,2.55,0,0,0,1.51-1.22.63.63,0,0,0-1.08-.63c-.39.67-1.1.69-1.74,1a9.72,9.72,0,0,0-1.76,1c-.62.51.27,1.39.89.89Z" transform="translate(-157.12 -135.9)"/><path class="cls-4" d="M324.66,214.67a9.9,9.9,0,0,1-5.18-.14c-1.09-.36-1.41-1.07-2.05-1.89a6,6,0,0,0-1.31-1l-.63,1.08c.26.14,2.63,2.23,2.89,2h.88l-.41-.41a.63.63,0,0,0-1.07.44,2.26,2.26,0,0,0,1.48,2.27c1.55.65,2.48-.21,3.92-.41l-.7-.29.09.19c.34.72,1.42.09,1.08-.63l-.09-.19a.65.65,0,0,0-.71-.29c-.93.13-3.93,1.7-3.82-.65l-1.07.44.42.42a.65.65,0,0,0,.88,0c1.51-1.39-2.23-3.44-3.14-4-.72-.41-1.26.6-.63,1.08,1.68,1.27,1.88,2.72,4.09,3.14a11.51,11.51,0,0,0,5.41.07.63.63,0,0,0-.33-1.21Z" transform="translate(-157.12 -135.9)"/><path class="cls-4" d="M327,211.18c-2.76-2.68-7.84-4.65-11.43-2.59a16.85,16.85,0,0,0-4.72,4.08c-1.27,1.74-1.21,4.24-2.24,6.16-.38.7.7,1.34,1.08.63,1.44-2.67,1.43-5.6,3.86-7.65,1.77-1.49,3.66-3.14,6.18-2.79a13.32,13.32,0,0,1,6.38,3c.58.56,1.47-.32.89-.88Z" transform="translate(-157.12 -135.9)"/><path class="cls-4" d="M315.6,211.39a3.78,3.78,0,0,0-1.51-.91.63.63,0,0,0-.7.92c.43.8,1.11,2,2.2,1.92.79-.09.79-1.35,0-1.25-.52.06-.92-.93-1.12-1.3l-.71.91a2.51,2.51,0,0,1,.95.6c.6.53,1.49-.35.89-.89Z" transform="translate(-157.12 -135.9)"/><path class="cls-4" d="M299,222.24l0-.19a.61.61,0,0,0-.44-.44c-.19-.05-.39-.07-.59-.12s-.49-.22-.53-.07l-.43.43c1-.2,1.27.93,1.69,1.51a4.4,4.4,0,0,0,1,1,8.06,8.06,0,0,0,3.06,1c.78.16,1.12-1,.33-1.2-1.6-.32-2.83-.67-3.73-2.1-.66-1-1.42-1.72-2.72-1.44a.62.62,0,0,0-.43.44c-.35,1.29,1.07,1.49,2,1.73l-.44-.44,0,.2c.17.78,1.37.45,1.21-.34Z" transform="translate(-157.12 -135.9)"/><path class="cls-4" d="M304.74,205a.63.63,0,0,0,0-1.25.63.63,0,0,0,0,1.25Z" transform="translate(-157.12 -135.9)"/><path class="cls-4" d="M304.9,203.7h-.32l.32,1.16a3.67,3.67,0,0,0,.82-.65.64.64,0,0,0-.45-1.07,3.84,3.84,0,0,0-1.6.38c-.73.39-.51.21-.49.22s-.32-.45-.48-.57-.61,0-.9-.22c-.78-.5-1-1.48-2-2a12.91,12.91,0,0,0-4.52-1.25c-.79-.11-1.13,1.09-.33,1.2a15.67,15.67,0,0,1,3.18.68,4.44,4.44,0,0,1,2,1.31c.23.27.29.63.54.9a2.43,2.43,0,0,0,.82.52c.73.36.17-.45.65.48a.63.63,0,0,0,.54.31c.88,0,1.62-.66,2.52-.71l-.44-1.07-.56.46a.63.63,0,0,0,.31,1.17h.32c.8,0,.8-1.28,0-1.25Z" transform="translate(-157.12 -135.9)"/><path class="cls-4" d="M300.83,180.26c-4.72-.15-8.73.57-11.56-4.72-1.29-2.4-.86-5.29-2-7.7-.72-1.49-1.81-1.86-2.85-3-4.35-4.69,1-7.6,4.6-9.81a.63.63,0,0,0-.63-1.08c-4.6,2.85-10,6.53-5,11.7a13.14,13.14,0,0,1,3.24,4.5c.46,1.26.43,2.74.81,4a12.18,12.18,0,0,0,1.83,4c2.9,3.71,7.48,3.17,11.58,3.3.81,0,.81-1.22,0-1.25Z" transform="translate(-157.12 -135.9)"/><path class="cls-4" d="M327.6,350l-.68.17a.64.64,0,0,0-.38.92c1.72,3.32,6.84,5.45,10.3,6.42,2.73.76,5.7.8,8.49,1.35,2.32.47,4.47,1.35,6.37-.1.63-.48,0-1.57-.63-1.08-1.12.85-5.32,0-6.56-.26-2.13-.38-4.62-.47-6.68-.91a21.55,21.55,0,0,1-4.71-1.88c-.53-.26-5.16-3.43-5.18-3.43.78-.19.45-1.4-.34-1.2Z" transform="translate(-157.12 -135.9)"/><path class="cls-4" d="M378.9,357.83c-1.11,4.83,7.29,7.84,10.26,9.68a36.44,36.44,0,0,1,7.54,6.87,12.2,12.2,0,0,1,3.14,4.95c.33,1.29-.2,1.43.57,2.72,1.92,3.24,5.48,6.91,8.1,9.63,3,3.15,7.62,3.16,10.88,6,11.86,10.31-7.56,25.85-16.53,30.09-.72.34-.09,1.42.64,1.08,4.42-2.09,7.94-5.19,11.66-8.3,3.24-2.7,7.47-6.88,8.64-11.11a13.6,13.6,0,0,0-1.9-11c-2.34-3.19-5.83-3.69-9.11-5.33-4.49-2.25-10.08-9-11.7-13.78a15.68,15.68,0,0,0-3.51-5.83,42,42,0,0,0-6.61-6.31c-2.41-1.72-11.81-4.93-10.86-9,.18-.78-1-1.11-1.21-.33Z" transform="translate(-157.12 -135.9)"/><path class="cls-4" d="M203.23,372.12c-1.72,4.21-4.7,7.91-6.3,12.12s-.68,8.61,1,12.72c2.85,7,7.92,11.78,15.1,13.7,11.74,3.13,23.2,9.13,34.12,14.39.72.35,1.35-.73.63-1.08-9.82-4.73-19.84-9.32-30.06-13.11-2-.72-3.92-1.19-5.93-1.76-4.87-1.39-8.58-5.11-11.14-9.4-3.31-5.56-4.46-11.87-1.17-17.67a85.09,85.09,0,0,0,5-9.58c.3-.74-.9-1.07-1.21-.33Z" transform="translate(-157.12 -135.9)"/><path class="cls-4" d="M277.39,430.9c-9.18-.17-19.37-2.26-27.33-6.71-7.72-4.31-14.13-10.15-20-16.79a17.21,17.21,0,0,1-2.09-2.64c.49-3.66,2.06-5.3,4.69-4.93,1.58-.21,3.23.28,4.83.07a13.1,13.1,0,0,0,6.2-2.72c2.36-1.85,2-3.06,6-3.16,1,0,2.19.54,3.2.56,2,.05,3.77-.8,5.71-.71,2.34.11,5.48,1.89,7.51,3.19,3,1.95,4.86,4.07,8.18,5.56,11.16,5,17.67,13.93,23.17,24.7.37.71,1.45.08,1.08-.64-4.86-9.51-11-19-20.81-23.87-2.5-1.23-5.12-2.07-7.32-3.81-4-3.12-7.91-6.51-13.23-6.28a53.5,53.5,0,0,1-7.16.09c-1-.08-2.11-.59-3.08-.32-2.26.63-3.19,3.31-5.22,4.5-4.26,2.5-7.43.82-11.71,1.75a5.31,5.31,0,0,0-3.66,2.28c-1.94,3.68,3.43,7.84,5.57,10a118,118,0,0,0,9.22,9.09c3,2.41,6.41,4,9.7,5.93,4.18,2.4,8.09,3.27,12.87,4.14,4.46.81,9.13,1.88,13.68,2a.63.63,0,0,0,0-1.25Z" transform="translate(-157.12 -135.9)"/><path class="cls-4" d="M284.35,427.67c-3.13-.07-7.25-5.81-8.68-8.08-1.68-2.66-3.34-5.26-5.19-7.82-2.42-3.35-5.2-7-6.3-11-1-3.69.56-6.9.27-10.54-.47-5.88-3.92-12.75-6.84-17.77-3.17-5.45-7.49-9.43-12.55-13.22-.65-.48-1.27.6-.63,1.08,7.46,5.58,13,12.28,16.12,21.16,1.66,4.73,2.86,8.24,2.22,13.34a14.83,14.83,0,0,0,.77,7.85c2.45,6.39,7.45,11.82,11,17.59,2,3.25,5.59,8.61,9.76,8.7a.63.63,0,0,0,0-1.25Z" transform="translate(-157.12 -135.9)"/><path class="cls-4" d="M245.18,359.61c.53-.49,9.45,10.17,10.41,11.41,3,4,4.3,8.4,5.71,13.1.78,2.59,1.46,5.25,3.6,7a.63.63,0,0,0,1-.13c1.6-2.91.54-5.84.17-8.95-.45-3.82-.56-7.42-1.53-11.17-.35-1.37-1.6-4.38-1.16-5.68s.9,2.29,1,2.84c.84,5.46,1.18,11.51,3,16.76a43.53,43.53,0,0,0,2.27,5.41c.8,1.54,2.12,2.83,2.18,4.43.1,3.24-1.81,6.25-1.28,9.7.66,4.24,3.41,8.15,6,11.48a20.61,20.61,0,0,0,4,4.46c1.41,1,3.08,1.13,4.12,2.66a.63.63,0,0,0,1.08-.64,28.3,28.3,0,0,1-3-13.88,105.54,105.54,0,0,1,1.12-15.88A58.55,58.55,0,0,1,288,378.33c1.44-3.3,3.53-6.32,4.26-9.89.1-.48-.43-1-.91-.7-4.37,3-2.35,11.95-2.66,16.42-.34,4.78-.36,9.48-.33,14.27a31.38,31.38,0,0,1-.6,7.8c-.49,2-1.83,3.53-2.44,5.4-2.89,8.8,13.11,14.51,16.73,20.79a.63.63,0,0,0,1.08-.63c-2.06-3.59-5.92-6-9.06-8.6a53.43,53.43,0,0,1-5.27-4.7c-2.76-3-2.87-4.61-1.19-8.31,2.44-5.38,1.9-10.95,1.9-16.73,0-3.74.38-7.44.59-11.17.19-3.46-1.35-11.21,1.88-13.46l-.92-.71c-1,4.66-4,9-5.73,13.47A60.27,60.27,0,0,0,282,396a118,118,0,0,0-.67,15.61c.07,4.41,1.34,7.46,3.2,11.36l1.08-.64a5.54,5.54,0,0,0-2.48-2c-3.79-2.25-6.23-5.5-8.51-9.28s-3.5-7.51-2.65-11.87c.28-1.46,1.76-3.74,1.44-5.26-.27-1.33-2.12-3.17-2.74-4.28a36.28,36.28,0,0,1-3.78-13c-.36-2.72-.8-5.39-1.24-8.1-.37-2.22-.16-4.51-1.36-6.46a.64.64,0,0,0-.86-.22c-3.09,2-.5,7.82.15,10.47,1,3.9.86,7.91,1.48,11.86.21,1.32.91,2.84-.17,3.84-1.24,1.15-1.24-.7-1.69-1.94-.85-2.36-1.32-4.83-2.11-7.21-2-6.12-6.22-10.15-10.07-15.06-.91-1.16-4.62-7.07-6.76-5-.59.55.3,1.43.88.88Z" transform="translate(-157.12 -135.9)"/><path class="cls-4" d="M303.08,431.66c-8.23-7.76-3.09-22.58-.79-31.8,1.42-5.72,3-11.42,4.11-17.2.74-3.71,1.6-8.07,0-11.69-.61-1.43-1.85-3.31-3.7-2.63s-1.59,3.82-1.53,5.35c.21,5.49,1.61,10.7,3.17,15.95.76,2.58,1.51,5.17,2.2,7.77.8,3,2.77,7.72,2.12,10.81l1.14-.15c-.9-1.46.05-5.73.15-7.22A65.69,65.69,0,0,1,311.41,390a73.09,73.09,0,0,1,6.69-18,43.84,43.84,0,0,1,4.17-6.42c1.26-1.55-1.71,2.35-2,2.68s-.65.79-.94,1.21a37.49,37.49,0,0,0-5.44,15.07,50.94,50.94,0,0,0,4.5,29.22,35.83,35.83,0,0,0,8.5,11.7c3.88,3.43,8.59,5.37,13.07,7.86a.62.62,0,0,0,.75-1c-7-6.68-7.27-18.49-4.4-27.15a43.38,43.38,0,0,1,6.41-11.88c1.61-2.19,3.66-4,4.56-6.6a.63.63,0,0,0-1.05-.61c-1.7,1.86-1.72,4.71-2.12,7.1a88.64,88.64,0,0,0-1.08,13.42,75,75,0,0,0,1.12,13.55c.37,2.19.59,4.08,2.28,5.62a.61.61,0,0,0,.6.16c3.54-1.45,4.68-5.24,5.9-8.58,2.57-7,4.52-14.19,9.73-19.75,1.05-1.11,3.09-3.67,4.49-3.7,3.28-.05,2.07,2.53,1.2,4.18-1.13,2.15-2.36,4.14-3.38,6.35-2.28,5-5,10.08-4.09,15.73,1.12,7.14,7.87,18,16.57,16.36,5.22-1,3.14-6.14,4.08-9.83,1.68-6.57,7.38-12.79,12.12-17.51,3.34-3.34,2.45-.62,1.94,2.44-.28,1.69-.72,3.36-1,5.05a12.28,12.28,0,0,0,0,6.17c1.22,3.62,4.78,7.34,8.77,6,.75-.26.43-1.47-.34-1.21-3.2,1.1-6-2.13-7-4.64s-.35-5,.11-7.39c.6-3.13,1.42-6.08,1-9.28a.63.63,0,0,0-.94-.54c-2.68,1.27-4.38,3.69-6.26,5.9a76.62,76.62,0,0,0-6.15,7.54,29.73,29.73,0,0,0-4,10c-.59,2.54,3.31,4.92-3.43,6.22-1.39.27-3.59-.68-4.85-1.31-8.48-4.27-11-15.27-7.8-23.48a85.44,85.44,0,0,1,5.24-10.86c.84-1.48,2.36-3.67,2.25-5.49-.25-4-4-1.87-5.94-.46-4.89,3.53-8,8.67-10.21,14.19-1.45,3.63-2.52,7.39-4,11-.84,2.13-3.8,6.54-5.44,2.22a32,32,0,0,1-.74-5.13,75.39,75.39,0,0,1-.33-15.17c.23-3.54,0-11,2.64-13.94l-1.05-.6c-1.37,4-5.71,7.86-7.83,11.59A33.09,33.09,0,0,0,334,409.88c-1.11,8.21-.54,17.32,5.86,23.4l.76-1c-6.07-3.37-12-5.95-16.48-11.53S316.89,408,315.54,401a45.94,45.94,0,0,1,.92-21.92,33.73,33.73,0,0,1,5.64-10.93,16.73,16.73,0,0,0,2.9-4.87.63.63,0,0,0-.77-.77c-2.88,1.06-4.41,4.37-6,6.86a64,64,0,0,0-6,13.38,61.87,61.87,0,0,0-3.26,14.2c-.29,3-1,6.64-.82,9.58a3.39,3.39,0,0,0,.58,2.2.63.63,0,0,0,1.14-.15c.7-3.29-.85-6.6-1.68-9.77-1.2-4.61-2.63-9.16-3.88-13.75a52.07,52.07,0,0,1-1.79-9.49,9,9,0,0,1-.12-2.79c.22-.74,1.06-2.8,2.49-2.08,2.13,1.06.89,8.32.58,10.08-.44,2.59-1.06,5.16-1.66,7.71-2.14,9.05-5.17,18.14-6.13,27.41-.61,5.87,0,12.43,4.48,16.68.59.55,1.47-.33.89-.89Z" transform="translate(-157.12 -135.9)"/><path class="cls-4" d="M257.25,429.92c-.23,2.47-7.31,1.95-8.34,1.8-3.58-.5-6.76-1.84-10.14-3-5.81-2-11.45-1.83-17.5-1.84a43.35,43.35,0,0,0-10.31.8c-2.85.68-5,2.19-7.7,3.07-5.47,1.8-6.89-2-11.41-3-.88-.19-1.34-.5-2.18.07-1.37.92-1.21,3.13-.17,4.15,1.63,1.61,5.35,1.07,7.3.87,3-.31,6-1.12,9-1.56a20.62,20.62,0,0,1,12.08,1.92,13.25,13.25,0,0,0,6.83,1.6.63.63,0,0,0,0-1.25c-3.41.09-5.77-1.47-8.82-2.64A18.89,18.89,0,0,0,208,429.8a59.33,59.33,0,0,0-7.26,1.17,42.53,42.53,0,0,1-5.73.72c-.74,0-7.49-.5-2.89-2.48,1-.42,5.95,3.23,7.13,3.48a4.94,4.94,0,0,0,3.35-.18c2.75-.88,5.08-2.73,8-3.47,4.24-1.08,8.28-.88,12.58-.91a51.87,51.87,0,0,1,18.58,3.07,26.87,26.87,0,0,0,12.87,1.62c2.55-.33,3.64-.06,3.9-2.9.08-.8-1.17-.8-1.25,0Z" transform="translate(-157.12 -135.9)"/></g></svg>