<svg id="Layer_1" data-name="Layer 1" xmlns="http://www.w3.org/2000/svg" viewBox="0 0 455.28 508.47"><defs><style>.cls-1{fill:#dbdbd2;}.cls-2{fill:#231f20;}</style></defs><title>parizanka</title><path class="cls-1" d="M314.19,402.58c43.2,44.81,73.88,107.32,42.17,107.32-147.68,0-114.87-143.33-180.91-197.61-30-24.65-86.47-33-91-65.33-4.91-34.88,12.84-75.69,37.73-79.75C284.43,140.75,251.35,337.41,314.19,402.58Z" transform="translate(-70 -43.4)"/><path class="cls-2" d="M346.72,225.75l-.78,3.46a30.77,30.77,0,0,0-10.44-.75l.43-2.91a22.58,22.58,0,0,0,10.92,2.08l-.56,2.31a11.3,11.3,0,0,0-9.89-1.14V227a27,27,0,0,0,11,2l-.75.83c-1.47-1.45-3.31-1.73-5.41-1.85a9,9,0,0,0-5.94,1.69l-.29-1.26a8.53,8.53,0,0,1,6.61,8.7l0,.2-.52.72a2,2,0,0,1-1.86.85l-1.09-.1-.19-.37s-6.33-6.55-4.91-9.84c.84-2,.82-1.2.82-1.2a10.15,10.15,0,0,1,6.31,3.07,9.92,9.92,0,0,1,2,3,8.58,8.58,0,0,1,.58,1.73,4.1,4.1,0,0,1,0,2.14,2.25,2.25,0,0,1-.84,1.2,2.35,2.35,0,0,1-1.35.47,4,4,0,0,1-2.15-.58,8.79,8.79,0,0,1-2.72-2.6,9.43,9.43,0,0,1-1.42-7.2l.33-1.53,1.48.65a18.82,18.82,0,0,1,3.42,1.8,8.37,8.37,0,0,1,1.6,1.45,5.95,5.95,0,0,1,1.37,4.44,4.43,4.43,0,0,1-2,3.36l-.77.5-1.49,1c-1.9,1.27-3.72,2.75-4.5,4.31a2.84,2.84,0,0,0-.21,2.2,26.31,26.31,0,0,1,1.26,3.6,6.82,6.82,0,0,1-1.06,4.73,11,11,0,0,1-3,3.14,16.3,16.3,0,0,1-7.67,2.69,29.64,29.64,0,0,1-7.71-.21c-2.5-.38-4.85-.91-7.2-1.39-4.65-1-9.31-1.9-13.71-1.79a19.42,19.42,0,0,0-3.13.38,9.45,9.45,0,0,0-2.64,1,5.51,5.51,0,0,0-1.86,1.76,7.28,7.28,0,0,0-1,2.51c-1,3.87.18,8.28,1.75,12.65a72.38,72.38,0,0,0,5.95,12.55,74.67,74.67,0,0,0,8.19,11.27c3.08,3.51,6.5,6.82,9.9,10.23s6.77,7,10,10.58,6.23,7.45,9.1,11.35A182,182,0,0,1,357.26,383l-.44.16a204.67,204.67,0,0,0-29-49.18A202.59,202.59,0,0,0,308.46,313c-3.47-3.29-7-6.61-10.32-10.28a80.51,80.51,0,0,1-8.87-11.88,72.15,72.15,0,0,1-6.38-13.43,43.35,43.35,0,0,1-2-7.35,19.22,19.22,0,0,1,.23-8.15,11.21,11.21,0,0,1,5.19-7.14,14.11,14.11,0,0,1,4.06-1.54,23.25,23.25,0,0,1,4-.42c5.23,0,10,1.07,14.76,2.11,2.35.53,4.68,1.09,6.92,1.47a27.58,27.58,0,0,0,6.65.31,12.36,12.36,0,0,0,5.84-1.8,7.44,7.44,0,0,0,2-2,3.05,3.05,0,0,0,.61-2.1c-.07-.72-.64-1.74-1.07-3.21a11.31,11.31,0,0,1-.2-1.21,7.59,7.59,0,0,1,0-1.26,8.15,8.15,0,0,1,.27-1.21,7.16,7.16,0,0,1,.47-1.09,10.72,10.72,0,0,1,2.75-3.23,26.27,26.27,0,0,1,3.14-2.2l1.56-.94.75-.45a1.18,1.18,0,0,0,.33-.26,2.31,2.31,0,0,0,.31-2,2.81,2.81,0,0,0-.55-1.09,5.74,5.74,0,0,0-1-1A16.38,16.38,0,0,0,335,230l1.81-.88a6.93,6.93,0,0,0,.86,5.3,6.57,6.57,0,0,0,1.88,2,2.09,2.09,0,0,0,.94.33c.21,0,.17,0,.26-.14a2.24,2.24,0,0,0,0-1.08,6.79,6.79,0,0,0-.4-1.38,8,8,0,0,0-1.54-2.47,8.14,8.14,0,0,0-5.1-2.68l.83-1.2,4.73,9.94-.59-.41a1.87,1.87,0,0,0,1.64-.73l-.13.37a6.87,6.87,0,0,0-1.42-4.59,6.69,6.69,0,0,0-4-2.61l-.77-.41.49-.85a10.48,10.48,0,0,1,6.87-2c2.41.13,3,.26,4.83,1.94l0,1.48c-4,.25-6.65.3-10.43-1l-2.41-.85,2.4-1a20.25,20.25,0,0,1,8.25-1.17c.9-.09,4.85-1.54,3.47,3.12-1,3.32-8.79,1.06-12.7-.57l-5.08-2.11,5.51-.8a34.21,34.21,0,0,1,11.59.32l-.78,3.46a2.42,2.42,0,0,1-1.07-.6,3,3,0,0,1-.47-.65,4.08,4.08,0,0,1-.31-.88,6.56,6.56,0,0,1-.16-1.29,15.83,15.83,0,0,1,.08-2.2,13.26,13.26,0,0,1,.39-2.23,2.52,2.52,0,0,1,.12-.36l.07-.2a2.8,2.8,0,0,1,.18-.33,1.6,1.6,0,0,1,.31-.41l.24-.27a5.07,5.07,0,0,1,1.07-.91,9.94,9.94,0,0,1,4.52-1.46,27.84,27.84,0,0,1,4.16-.1c1.34,0,2.66.15,3.88.23a8.23,8.23,0,0,0,2.89-.14c.12-.07.12,0,.25-.19s.24-.18.3-.34a1.46,1.46,0,0,0,.23-.45l.1-.25.06-.31a9,9,0,0,0-.09-3.07,54,54,0,0,0-2-7.17c-.43-1.41-.66-2.53-1-3.74s-.74-2.38-1.18-3.54a58.47,58.47,0,0,0-3-6.82c-.57-1.11-1.18-2.19-1.83-3.26a9.69,9.69,0,0,1-1-2.14,4.75,4.75,0,0,1,0-3.07,5.26,5.26,0,0,1,1.71-2.33,9.44,9.44,0,0,1,2-1.23c1.27-.63,2.56-1.06,3.56-1.54a11.81,11.81,0,0,0,4.89-4.53c2.52-4,3-9.06,2.71-14.07-.12-2.52-.39-5.09-.6-7.66l-.61-7.71c-.41-5.14-.83-10.28-1.16-15.43l.46-.05c.83,5.09,1.57,10.19,2.33,15.29S369.42,154,370,159.17a35.73,35.73,0,0,1,0,8,20.86,20.86,0,0,1-2.53,7.89,14.89,14.89,0,0,1-6.11,6c-1.31.66-2.47,1.07-3.49,1.61s-1.76,1.17-1.83,1.56a.86.86,0,0,0,0,.33,1,1,0,0,0,.07.39,7.07,7.07,0,0,0,.71,1.29c.71,1.11,1.4,2.26,2,3.43a56.53,56.53,0,0,1,3.35,7.24c.48,1.25.91,2.51,1.31,3.78s.72,2.65,1.06,3.69a56.21,56.21,0,0,1,2.24,7.68,12.67,12.67,0,0,1,0,4.61l-.14.64-.24.64a5.29,5.29,0,0,1-.67,1.26,5.63,5.63,0,0,1-1,1.09,4.57,4.57,0,0,1-1.35.88,7.12,7.12,0,0,1-2.64.49c-.39,0-.7,0-1.07,0l-1.05,0-3.83-.29a23.53,23.53,0,0,0-3.56,0c-1.11.09-2.29.19-2.8.75-1,1.07-1.37,3.37-1.79,3.65" transform="translate(-70 -43.4)"/><path class="cls-2" d="M291.63,166.59a40.41,40.41,0,0,1,5.32,3.77,13.71,13.71,0,0,1,3.95,5.32,8.43,8.43,0,0,1-.37,6.76,7.78,7.78,0,0,1-2.19,2.76,5.45,5.45,0,0,1-3.48,1.2,6.08,6.08,0,0,1-3.46-1.23,10.57,10.57,0,0,1-2.42-2.54c-1.3-1.88-2.24-3.8-3.3-5.69a63.92,63.92,0,0,1-5.29-12,29.71,29.71,0,0,1-1.09-13.37,21.18,21.18,0,0,1,2.19-6.55,20.23,20.23,0,0,1,1.88-2.89,14.83,14.83,0,0,1,1.06-1.34,14.05,14.05,0,0,1,1.17-1.29,11.7,11.7,0,0,1,1.32-1.2l.71-.56c.25-.19.54-.34.8-.5a7.87,7.87,0,0,1,3.79-1.17,7.36,7.36,0,0,1,3.91.94,12.66,12.66,0,0,1,3,2.2,32.93,32.93,0,0,1,4.28,5.3c1.24,1.84,2.38,3.7,3.5,5.54s2.24,3.66,3.42,5.4a29.67,29.67,0,0,0,3.8,4.74,12.29,12.29,0,0,0,2.25,1.75,8.36,8.36,0,0,0,1.24.73l.61.32.6.21a5,5,0,0,0,1.08.26l.4,0c.14,0,.2-.08.31-.08a2.42,2.42,0,0,0,1.06-1.32c1.28-3.18.89-7.81,1.37-12.18a56.38,56.38,0,0,1,1-6.64c.2-1.11.55-2.2.84-3.3s.71-2.18,1.2-3.23a27.18,27.18,0,0,1,8.42-11,28.65,28.65,0,0,1,2.83-2,30.15,30.15,0,0,1,3-1.67,55.7,55.7,0,0,1,6.17-2.66,45,45,0,0,1,26.61-1.77,37.23,37.23,0,0,1,12.27,5.68,31.4,31.4,0,0,1,2.69,2.06,21.34,21.34,0,0,1,2.52,2.35,20.51,20.51,0,0,1,3.89,5.83,11.47,11.47,0,0,1,.76,7.32,9.09,9.09,0,0,1-1.68,3.45,9.72,9.72,0,0,1-6.5,3.6,9.48,9.48,0,0,1-1.92,0,11.21,11.21,0,0,1-1.83-.38,9.84,9.84,0,0,1-5.66-4.57,20.92,20.92,0,0,1-2.3-6.47,56.93,56.93,0,0,1-.87-6.54c-.39-4.33-.41-8.69-1.19-12.77a16.61,16.61,0,0,0-.92-2.94c-.37-1-.79-2-1.22-2.94-.86-2-1.84-3.84-2.89-5.7A84.88,84.88,0,0,0,361,95c-2.67-3.35-5.54-6.54-8.53-9.62s-6.09-6.09-9.36-8.85a56.65,56.65,0,0,0-10.49-7.24,45.58,45.58,0,0,0-12-4,73,73,0,0,0-25.45-.08,62.86,62.86,0,0,0-23.74,8.55l-2.55,1.81c-.84.63-1.57,1.37-2.35,2-1.55,1.36-3,3-4.46,4.55l-8.7,9.59A111.56,111.56,0,0,1,244,101a55.63,55.63,0,0,1-11.09,7.42,39.76,39.76,0,0,1-12.92,4,28.44,28.44,0,0,1-6.9,0,32.21,32.21,0,0,1-3.45-.57,8.85,8.85,0,0,1-2-.71,5.14,5.14,0,0,1-2-1.79,6.42,6.42,0,0,1-.81-2.25,13.07,13.07,0,0,1-.18-1.86,24.62,24.62,0,0,1,.07-3.54,29.77,29.77,0,0,1,1.52-6.78A47.57,47.57,0,0,1,212.64,83a93.49,93.49,0,0,1,18.21-19.15c3.42-2.77,7-5.33,10.65-7.74a131.6,131.6,0,0,1,11.33-6.74,58.27,58.27,0,0,1,12.54-4.91,33.59,33.59,0,0,1,6.89-1.06,19.32,19.32,0,0,1,7.3,1,13.48,13.48,0,0,1,6.28,4.6,11,11,0,0,1,2.31,7.81,10.52,10.52,0,0,1-1.28,4A11.39,11.39,0,0,1,284.18,64a46.46,46.46,0,0,1-5.81,3.59c-3.4,2-6.48,4.88-9.75,7.76s-6.75,5.56-10.18,8.24c-6.88,5.3-13.93,10.35-21.06,15.25s-14.24,9.53-19,16.32a50.11,50.11,0,0,0-8.7,23.09,73.93,73.93,0,0,0,1.56,25.12c.48,2.07,1,4.15,1.63,6.12a34.4,34.4,0,0,0,2.44,5.72,39.26,39.26,0,0,0,3.41,5.25c.64.84,1.31,1.66,2,2.47s1.4,1.7,2.06,2.57a79.15,79.15,0,0,1,7,11.07,62,62,0,0,1,2.8,5.94,42.14,42.14,0,0,0,2.64,5.77,9.22,9.22,0,0,0,4.31,4.07l.7.26.73.18a5.7,5.7,0,0,0,1.48.17,8,8,0,0,0,2.95-.6,12.39,12.39,0,0,0,4.92-3.74,39,39,0,0,0,3.55-5.34l.4.22a38.89,38.89,0,0,1-3.36,5.59,13.08,13.08,0,0,1-5.11,4.22,9.18,9.18,0,0,1-3.33.79,6.7,6.7,0,0,1-1.73-.13l-.85-.17-.82-.28a10.64,10.64,0,0,1-5.11-4.45,42.15,42.15,0,0,1-3-5.89,60.69,60.69,0,0,0-2.93-5.66A83.66,83.66,0,0,0,221,186.94c-.66-.83-1.35-1.63-2.05-2.43s-1.45-1.65-2.14-2.51a42.73,42.73,0,0,1-3.78-5.49,37.29,37.29,0,0,1-2.79-6.1c-.74-2.12-1.31-4.22-1.87-6.34a74.49,74.49,0,0,1-2.22-26.25,53.93,53.93,0,0,1,9-25,48.29,48.29,0,0,1,9.19-9.84c3.42-2.84,7-5.3,10.51-7.8,7-5,14-10.07,20.71-15.35,3.35-2.65,6.77-5.32,9.88-8.11s6.4-6,10.43-8.39a48,48,0,0,0,5.2-3.18,5.5,5.5,0,0,0,2.2-3.85c.37-2.83-2.16-6.16-5.36-7.21-3.33-1.21-7.39-.83-11.32.16A55,55,0,0,0,255,53.69a140.41,140.41,0,0,0-21.32,13.76,89.58,89.58,0,0,0-17.52,18.08,43.74,43.74,0,0,0-5.88,10.8,25.39,25.39,0,0,0-1.36,5.81,20.55,20.55,0,0,0-.1,2.93,4.9,4.9,0,0,0,.34,2.15.89.89,0,0,0,.4.35,4.68,4.68,0,0,0,1,.39,28.51,28.51,0,0,0,2.93.53,25.16,25.16,0,0,0,6,.05,35.88,35.88,0,0,0,11.73-3.45c7.53-3.56,13.83-9.36,19.78-15.5L260,80.21c1.54-1.55,3-3.12,4.71-4.57.86-.71,1.68-1.49,2.59-2.14l2.77-1.87a65.11,65.11,0,0,1,24.8-8.38c2.15-.38,4.33-.48,6.5-.7,1.09-.06,2.18-.07,3.27-.11l1.64-.06,1.63,0a69.48,69.48,0,0,1,13,1.28,47.51,47.51,0,0,1,12.43,4.21,58.54,58.54,0,0,1,10.71,7.51,156.42,156.42,0,0,1,18.13,18.63,91.41,91.41,0,0,1,7.47,10.7,65.29,65.29,0,0,1,3.05,5.8c.47,1,.91,2,1.31,3a18.5,18.5,0,0,1,1.07,3.2c1,4.39,1.07,8.71,1.57,13a55,55,0,0,0,1,6.25,18.4,18.4,0,0,0,2.15,5.63,7.09,7.09,0,0,0,4.22,3.28,9,9,0,0,0,1.34.25,6.36,6.36,0,0,0,1.31,0,7.08,7.08,0,0,0,2.51-.87,6.21,6.21,0,0,0,3-4.1,8.32,8.32,0,0,0-.73-5.29A17.35,17.35,0,0,0,388.1,130a18.24,18.24,0,0,0-2.27-2,29.25,29.25,0,0,0-2.49-1.81,35,35,0,0,0-11.19-4.88c-8-1.95-16.5-.95-24.27,1.9a40.68,40.68,0,0,0-10.83,5.7,23.37,23.37,0,0,0-7.21,9.31c-.44.9-.72,1.88-1.07,2.82s-.59,1.95-.78,3a51.51,51.51,0,0,0-1,6.15c-.21,2.11-.31,4.14-.42,6.37a34.25,34.25,0,0,1-.36,3.42,14.46,14.46,0,0,1-1,3.6,4.92,4.92,0,0,1-.49.93,4.5,4.5,0,0,1-.66.92,5.12,5.12,0,0,1-2,1.48,5.38,5.38,0,0,1-1.25.33c-.4,0-.81,0-1.21,0a9.48,9.48,0,0,1-2.05-.48l-.92-.36c-.29-.13-.55-.29-.82-.43a11,11,0,0,1-1.54-.93,16.13,16.13,0,0,1-2.81-2.25,33.4,33.4,0,0,1-4.22-5.39c-1.22-1.85-2.33-3.73-3.43-5.59-2.2-3.68-4.34-7.44-7.07-10.28a9.44,9.44,0,0,0-2.16-1.71,4.23,4.23,0,0,0-2.27-.63c-1.53,0-3.16,1-4.57,2.4a10.61,10.61,0,0,0-1,1.08,12.43,12.43,0,0,0-1,1.18,17.16,17.16,0,0,0-1.71,2.48,18.23,18.23,0,0,0-2,5.63,27.26,27.26,0,0,0,.72,12.22A67.05,67.05,0,0,0,287.51,176c1,1.9,1.88,3.91,3,5.62s2.6,3.12,4.44,3.21,3.52-1.24,4.43-3a7.28,7.28,0,0,0,.54-5.79,13.33,13.33,0,0,0-3.47-5.11,41.85,41.85,0,0,0-5.05-4Z" transform="translate(-70 -43.4)"/><path class="cls-2" d="M525.26,479a47.51,47.51,0,0,1-13.16-1.6,97.51,97.51,0,0,1-24.26-10.47c-7.57-4.46-14.78-9.25-22.36-13.23s-15.46-7.25-23.68-8.09l-3.07-.22h-3.07a19,19,0,0,0-5.64,1.07,10.36,10.36,0,0,0-4.38,2.78,5.43,5.43,0,0,0-1.33,4.23,13.34,13.34,0,0,0,.58,2.71c.3,1,.68,1.93,1,2.89s.8,1.89,1.26,2.81.9,1.84,1.47,2.7a42.36,42.36,0,0,0,7.82,9.54,41.13,41.13,0,0,0,22.16,10.36A42.72,42.72,0,0,0,483,480a41.73,41.73,0,0,0,10.23-7.43c3-3,5.64-6.49,6.56-10.53a9.78,9.78,0,0,0-.42-6,15.93,15.93,0,0,0-3.65-5,69.14,69.14,0,0,0-10.16-7.93,69.91,69.91,0,0,0-23.78-9.52,71.39,71.39,0,0,0-12.7-1.43c-4.27-.11-8.56.12-12.88.37-8.62.5-17.45,1.24-26.37.23a63,63,0,0,1-13.13-3,59.38,59.38,0,0,1-6.19-2.65,62.26,62.26,0,0,1-5.88-3.25c-1-.58-1.85-1.26-2.77-1.88a26.37,26.37,0,0,1-2.68-2l-2.59-2.13-2.42-2.3L373,414.43l-1.12-1.24c-.74-.83-1.51-1.63-2.22-2.49-1.34-1.77-2.78-3.47-3.94-5.36a58,58,0,0,1-9.32-24.51l.46-.08.85,3.14c.15.52.27,1,.44,1.55l.54,1.53c.37,1,.68,2,1.09,3l1.31,2.95a63.23,63.23,0,0,0,6.64,11,65.11,65.11,0,0,0,18.82,16.92A63.12,63.12,0,0,0,398,426.08a58.58,58.58,0,0,0,12.29,2.66c8.42.84,17,.24,25.77,0,4.37-.11,8.79-.08,13.21.24a73.48,73.48,0,0,1,13.11,2.15,77,77,0,0,1,12.48,4.41,79.44,79.44,0,0,1,21.87,14.54,17.18,17.18,0,0,1,4,5.45,11.67,11.67,0,0,1,.62,6.85,18.92,18.92,0,0,1-2.59,6.27,26.2,26.2,0,0,1-1.91,2.77c-.71.85-1.41,1.72-2.16,2.55a44.17,44.17,0,0,1-10.46,8.28,44.65,44.65,0,0,1-12.5,4.9,42.71,42.71,0,0,1-13.49.95,43.8,43.8,0,0,1-24.66-10.75,46.76,46.76,0,0,1-8.85-10.42c-.65-.95-1.13-2-1.7-3s-1-2.08-1.47-3.12a28,28,0,0,1-2-6.9,10.85,10.85,0,0,1,.35-4.17,10.29,10.29,0,0,1,2-3.72,15.17,15.17,0,0,1,6.45-4.24,24,24,0,0,1,7.12-1.38h3.45c1.15.06,2.29.17,3.44.27,9.14,1.11,17.59,4.72,25.27,9.05,3.86,2.16,7.58,4.51,11.25,6.89s7.25,4.87,10.87,7.17c7.26,4.58,14.83,8.77,23,11.33a51.14,51.14,0,0,0,12.55,2.36" transform="translate(-70 -43.4)"/><path class="cls-2" d="M94.27,551.88a106.51,106.51,0,0,1-6.16-12.73l-2.47-6.55-1.22-3.28L83.34,526a233.71,233.71,0,0,1-7.21-27l-1.34-6.86-1.1-6.9-.53-3.45-.43-3.46c-.27-2.31-.59-4.62-.82-6.93-1-9.26-1.53-18.54-1.78-27.82-.44-18.56.25-37.11,1.52-55.56a279,279,0,0,1,8.78-55,241.32,241.32,0,0,1,8.81-26.46,230.76,230.76,0,0,1,12.1-25.1,201.72,201.72,0,0,1,15.34-23.22,95.63,95.63,0,0,1,19.43-19.94,69.11,69.11,0,0,1,25.08-12c9-2.2,18.8-2.34,27.7.9a32.21,32.21,0,0,1,11.94,7.48A28.41,28.41,0,0,1,207.77,247a23.83,23.83,0,0,1-.37,14.25l-.69,1.7-.87,1.62a13.57,13.57,0,0,1-2.23,3,8.83,8.83,0,0,1-3.35,2.17,8.14,8.14,0,0,1-4.06.24,12.68,12.68,0,0,1-6.61-3.83,44.4,44.4,0,0,1-4.25-5.74,24.36,24.36,0,0,0-4.21-5,23.85,23.85,0,0,0-5.41-3.55,31.49,31.49,0,0,0-12.7-2.94,37.49,37.49,0,0,0-13,2.11c-8.5,2.74-16.49,7.7-25.84,10.21-1.16.31-2.36.55-3.55.79s-2.42.4-3.66.42a22.86,22.86,0,0,1-7.54-.61,15.86,15.86,0,0,1-6.87-3.82,19.23,19.23,0,0,1-4.32-6.38,38.54,38.54,0,0,1-2.62-14.32,76.76,76.76,0,0,1,1.24-14.15,82.07,82.07,0,0,1,3.65-13.69,60,60,0,0,1,6.67-12.6,66.54,66.54,0,0,1,20.49-19.36,72.66,72.66,0,0,1,26.45-9.36,85.1,85.1,0,0,1,14-.94A99.36,99.36,0,0,1,182,168.5a109.53,109.53,0,0,1,13.56,3.21,112.23,112.23,0,0,1,13,5l-.18.42a121.66,121.66,0,0,0-13.08-4.38,109.13,109.13,0,0,0-13.49-2.69,96.31,96.31,0,0,0-13.68-.78,89.67,89.67,0,0,0-13.59,1.27,70,70,0,0,0-25.23,9.55,65.81,65.81,0,0,0-19.13,18.77,56.88,56.88,0,0,0-6.1,11.89,80.6,80.6,0,0,0-3.32,13.08,72,72,0,0,0-1.09,13.4A34.61,34.61,0,0,0,102,250a15.1,15.1,0,0,0,3.41,5,11.93,11.93,0,0,0,5.12,2.81,18.52,18.52,0,0,0,6.18.5c1.07,0,2.15-.25,3.22-.36s2.14-.43,3.21-.7c8.55-2.28,16.61-7,25.71-9.9a40,40,0,0,1,14.28-2,34.82,34.82,0,0,1,14,3.6,26.6,26.6,0,0,1,6,4.17,27.48,27.48,0,0,1,4.58,5.66,43.09,43.09,0,0,0,3.84,5.48,10,10,0,0,0,5.09,3.17,5.44,5.44,0,0,0,2.78-.08,6.16,6.16,0,0,0,2.44-1.52,11.36,11.36,0,0,0,1.93-2.48l.81-1.42.64-1.49a21.73,21.73,0,0,0,.62-13,26.22,26.22,0,0,0-6.3-11.64,30.07,30.07,0,0,0-11.25-7.23c-8.51-3.13-18-3.16-26.85-.92a67.41,67.41,0,0,0-24.43,11.94,83.41,83.41,0,0,0-10.18,9.16c-.78.83-1.53,1.7-2.29,2.55l-2.19,2.64-4.16,5.49a197.94,197.94,0,0,0-14.71,23.25,228,228,0,0,0-11.38,25A268.12,268.12,0,0,0,84,333.93a288.61,288.61,0,0,0-8,54.34c-1.12,18.39-1.64,36.79-1,55.15.36,9.17.92,18.33,1.86,27.44.23,2.28.56,4.55.83,6.82l.42,3.41.53,3.39,1.08,6.78L81,498a232,232,0,0,0,6.88,26.52l1,3.27L90.05,531l2.38,6.42a106,106,0,0,0,5.72,12.26" transform="translate(-70 -43.4)"/><path class="cls-2" d="M223.09,353.65c2.93,6.33,5.66,12.77,8,19.37s4.46,13.26,6.33,20,3.46,13.56,4.82,20.43,2.5,13.77,3.32,20.72c.42,3.47.74,6.95,1,10.43s.52,7,.77,10.46q.57,10.45.94,20.91c.16,3.48.3,7,.31,10.47a50,50,0,0,1-1,10.54,27.36,27.36,0,0,1-1.6,5.12,20.62,20.62,0,0,1-2.71,4.73,19.52,19.52,0,0,1-8.79,6.52,14.93,14.93,0,0,1-5.62.95,12.45,12.45,0,0,1-5.65-1.53,13.1,13.1,0,0,1-4.43-3.94,15.9,15.9,0,0,1-2.36-5.35,18,18,0,0,1,1-11.47,16.8,16.8,0,0,1,3.36-4.87,20,20,0,0,1,4.6-3.54c6.75-3.81,14.86-4.12,22-2.09a46.6,46.6,0,0,1,10.11,4.25,97.29,97.29,0,0,1,9,5.74c11.43,8.16,22.09,17,33.87,24.09A92.7,92.7,0,0,0,319,524.27a72.47,72.47,0,0,0,10,2.5,58.14,58.14,0,0,0,10.31.8l0,.46a50.08,50.08,0,0,1-10.53.22,59.82,59.82,0,0,1-10.45-1.73,89.12,89.12,0,0,1-19.71-7.76c-12.53-6.62-23.57-15.4-34.92-23.21-5.62-3.94-11.4-7.5-17.64-9.41a26.65,26.65,0,0,0-9.48-1.19,21.46,21.46,0,0,0-9.06,2.45,14.94,14.94,0,0,0-6.36,6.33,14.63,14.63,0,0,0-1.09,8.94,10.84,10.84,0,0,0,4.74,7.36,10.72,10.72,0,0,0,8.91.92,17.41,17.41,0,0,0,8-5.37,21.07,21.07,0,0,0,4.33-8.95c1.61-6.65,1.1-13.67.7-20.59-.19-3.47-.52-6.93-.82-10.39s-.77-6.91-1.19-10.36c-.89-6.88-1.87-13.75-3-20.59-2.16-13.69-4.69-27.3-7.81-40.8s-7-26.81-11.26-40.08Z" transform="translate(-70 -43.4)"/></svg>