<svg id="Layer_1" data-name="Layer 1" xmlns="http://www.w3.org/2000/svg" viewBox="0 0 245.34 307.77"><defs><style>.cls-1{fill:#bbcfc9;}.cls-2{fill:#e8e5d1;}.cls-3{fill:#231f20;}</style></defs><title>poletjeGirl</title><path class="cls-1" d="M330,357c3.65-21.41,45.66-40.42,70-23.63,4.48,3.09-21.24,4.59-18,12.63,1.13,2.83,24.66,1,34.63,24.12,2.26,5.23-8.63-1.27-13.29,3.15-1.11,1.05,21,4.2,11.08,25.2-.67,1.39-23.1-9.71-28.8-4.2-6.19,6,25,28.58,15.51,29.4-18.9,1.63-30.48-19.63-28.8-2.1C375.66,456.21,324.75,387.82,330,357Z" transform="translate(-171.66 -140.43)"/><path class="cls-2" d="M191.53,361.54c-11.74-23.58,1.76-18.91-12-47-7.28-14.82,1.21-41,7.51-49.52,17-23,24.81,9.32,57,2,22-5,3,21,13,35,8.32,11.65-11.86,33,11,51,14,11-4.76,25.11,2,33,12,14-5.24,13.73-14,10C227.7,384,201.32,381.2,191.53,361.54Z" transform="translate(-171.66 -140.43)"/><g id="poletje_puncka" data-name="poletje puncka"><path class="cls-3" d="M269.34,215.75A55.12,55.12,0,0,1,266.17,234c-2.13,5.93-4.54,10.39-9,14.8-4,3.95-7.75,6.33-13.64,5.89-3-.23-5.8-.26-8.59-1.71-2.37-1.23-4.25-3-6.79-3.93s-5.15-1-7.56-2.05a18.93,18.93,0,0,1-7.54-6.43c-2.86-4-5-8.61-7.36-12.93-.91-1.65-2.27-3.13-2.5-5.13-.4-3.44,1.62-1.77,4.17-1.74a7.77,7.77,0,0,0,6.7-3.26.63.63,0,0,0-.54-.94c-2,.08-4,.78-6,.56-4.85-.56-6.43-3.38-8.27-7.19-2.54-5.24,3.17-.17,5.28-1.15,1.25-.58,1.18-1.3,1.07-2.59-.33-3.85-2.72-7.73-1.32-11.76,1.33-3.83,3.8-3.35,7-3.56,1.48-.09,2.09-.85,3.72-.44,2.39.59,3.62,2.47,6.46,1.94,2.66-.5,4.28-2.66,6.21-4.32,4.57-3.91,11.1-3.72,16.2-.74,3.21,1.88,4.58,4.94,6.19,8.09,1.85,3.63,2.41,5.15,1.18,9.28-.32,1.1-1.29,2.54-1,3.78.85,3.65,5.75,1.84,7.71.26,1-.8,4.49-6.56,4-1.76-.21,2.05-2.84,4.27-4.13,5.7-2.19,2.41-3.28,2.72-6.45,3.14a11.4,11.4,0,0,0-6.57,2.66c-.61.53.28,1.42.88.88,3.19-2.84,6.93-1.28,10.23-3,3.06-1.64,4.25-6.06,7.18-7.69a.64.64,0,0,0,.29-.71c-.34-1.84-.53-3.94-2-5.24a.64.64,0,0,0-1,.13c-.12.2-2.25,3.71-1.86,3.25l-3.24,2.68c-1.05.68-1.78.31-2.18-1.12-1.87-2.28.3-4.19.26-6.9-.06-3.6-2.81-8-4.81-10.82-4.32-6-14.66-8.16-20.67-3.68-1.65,1.24-2.94,3.2-4.77,4.18-4.6,2.44-5.43-.86-8.91-1.63-1.61-.35-4,.4-5.58.7-1.36.26-3.28.47-4.32,1.54-2,2-1.78,6.7-1.5,9.23.22,2.06,2.51,6.31-.78,6.85-1.71.28-3-1.37-4.81-.65a.65.65,0,0,0-.44.77c1.48,5.41,4.66,10.86,10.67,11.19.71,0,5.5-.77,2.34.75-1.88.9-3.9-.07-5.81-.08-1.16,0-2-.31-2.67.8-.48.77.82,5.36.91,5.59,1.06,2.61,3.33,5,4.76,7.5,3.38,6,6.4,12,12.88,15.14,3.88,1.85,8,2,11.73,4.31,2,1.27,4.21,2.78,6.65,3.24,5.66,1.07,11.92.94,16.71-2.82,11.26-8.83,15.26-23.26,15.56-37a.63.63,0,0,0-1.25,0Z" transform="translate(-171.66 -140.43)"/><path class="cls-3" d="M214.51,231.65c2.67.41,5,.68,7.64-.21a17.4,17.4,0,0,0,3.71-1.51c1.35-.85,2.28-2.15,3.74-2.86.72-.35.09-1.43-.64-1.08-2.34,1.14-3.82,3.06-6.39,4a14.59,14.59,0,0,1-7.73.48c-.79-.12-1.13,1.08-.33,1.2Z" transform="translate(-171.66 -140.43)"/><path class="cls-3" d="M236.84,238.88c-.19-.77-.71-.55-1.06-1.35l-1.08.63c1.6,2.3,2.3,2.08,4.91,1.84,2.87-.27,5.5,1.16,8.12-.48a16,16,0,0,0,2.92-2.9c.71-.76,2.71-1.76,3.09-2.65a1.44,1.44,0,0,0-1-2.13c-.77-.26-1.09.94-.34,1.21-.57-.2-4,4.44-4.72,4.92-1.37,1-10.7,1.3-11.91-.44a.63.63,0,0,0-1.08.63c-.17-.38,1,1.48.93,1.06.19.78,1.4.45,1.21-.34Z" transform="translate(-171.66 -140.43)"/><path class="cls-3" d="M301,241.33c1.92,1.06,4.07,1.23,6.13,2,4.22,1.58,5.58,4.83,8.23,8a43.5,43.5,0,0,1,6.21,9.57c1.27,2.64,2.31,5.05,4.37,7.16,2.46,2.52,5.14,4.55,6.25,8.08.74,2.36.73,4.94,2,7.12a68.18,68.18,0,0,1,3.92,6.82,87,87,0,0,0,5.44,9.63c1.89,3.07,3.57,5.38,3.56,9.21,0,4.21-1,7.93-5,9.89-4.43,2.17-8.76,1.07-13.24.19a4.85,4.85,0,0,0-4.45.87c-.44.36-.87,1.32-1.27,1.59-.6.41-.36,1.76-.84.15-.33-1.16.11-1,.44-2.09.76-2.43,2.75-4.24,3.47-6.63a6.25,6.25,0,0,0-3.89-7.51c-1.67-.68-3.4-.63-5.16-1-2.21-.42-4.42-1.45-6.68-1.55-2-.1-3.91,1.27-5.86.74-4.54-1.24,2.14-4.45,4.09-5,5-1.38,9.17,1.67,14,1.53.42,0,.83-.54.53-.94-2.09-2.82-7.22-2.94-10.35-3.92-2.44-.77-5.2-.54-7.52-1.27-.4-.12-1.16.45-1.49.26-2.38-1.4-.26-2.95.39-4.14,1.2-2.21,1.27-3.93-.19-6-.4-.55-1.26-.39-1.74-.75-2.68-2-2-3.16-2.27-5.67-.33-2.72-1.47-5-2.34-7.53a.63.63,0,0,0-1.23.16l0,1a.63.63,0,0,0,1.25,0l0-1-1.23.17a53.15,53.15,0,0,1,2.09,5.95c.35,1.7,0,3.66.37,5.32.57,2.29,1.56,1.5,3,2.8,5.68,5.06-2.64,6-1.23,9.94.3.85.76.88,1.56,1.11a6.92,6.92,0,0,0,1.87-.2,23,23,0,0,1,7.55.76c2.06.57,4,1.27,6.11,1.78.56.14,4.38,1.06.89.24-6.86-1.61-12.75-1.82-17.71,4a.64.64,0,0,0,0,.89,9.46,9.46,0,0,0,5,2.21c.49.07.55-.33,1.06-.37,4.16-.34,4.63-.53,8.11.25,1.75.39,4.52.41,6.15,1.09,7.69,3.25,3,7.17,1.27,10.13-1.34,2.31-2.8,5.3-2.95,8a.61.61,0,0,0,.45.6c1.35.21,1.81,0,2.81-1.06.54-.55.77-1.39,1.3-1.93,3.12-3.16,4.15-1.69,6.95-1.08,4.31.92,10.41.56,13.92-2.43,2.94-2.5,3.41-7.26,3.2-10.87-.3-5.26-4.22-9.93-6.91-14.28-1.58-2.57-2.35-5.46-3.87-8-.81-1.37-2-2.33-2.66-3.81a28,28,0,0,1-1.2-4.68c-1.43-5.75-6.42-7.95-9.19-12.81-1.54-2.68-2.51-5.68-4.05-8.36-1.84-3.19-4.57-5.74-6.66-8.75-3.3-4.77-7.37-4.13-12.13-6.77-.7-.39-1.33.69-.63,1.08Z" transform="translate(-171.66 -140.43)"/><path class="cls-3" d="M302.12,306.55c-.8,1.59-3.92,1.87-5.25,3a6.18,6.18,0,0,0-2,3.73c-.66,2.74-.6,5.53-2,8.06-.52.95-1.33,1.61-.87,2.8,1,2.61,4.34.37,5.46-.83a17,17,0,0,0,3-4.89c.22-.51.4-1.23.66-1.7,2.16-3.88,4.54-1.91,5.18,1.1a.64.64,0,0,0,.6.46,9.43,9.43,0,0,0,1.68,0,.63.63,0,0,0,0-1.25c-2.13.05-1.67-4.07-4.69-4-3.61.05-4,3.93-5.3,6.38a10.74,10.74,0,0,1-2,3q-1.1,1.61-3.12.19a5.71,5.71,0,0,0,.77-1.12c.49-1.91,1.21-3.8,1.56-5.79.66-3.67,1.54-5.21,5-6.68a3.94,3.94,0,0,0,2.42-1.81c.36-.72-.72-1.35-1.08-.63Z" transform="translate(-171.66 -140.43)"/><path class="cls-3" d="M221.44,231.72a10.33,10.33,0,0,0,4.24-.84,5.54,5.54,0,0,0,2.72-3.18c.18-.79-1-1.12-1.21-.34a5.18,5.18,0,0,1-2.18,2.5,10.8,10.8,0,0,1-3.57.61.63.63,0,0,0,0,1.25Z" transform="translate(-171.66 -140.43)"/><path class="cls-3" d="M245.78,218.21c.11-1,2.06-1.59,2.73-2,1-.59,2-.85,2.65-1.83.45-.66-.63-1.29-1.08-.63s-1.26.84-1.91,1.21l-1.85,1a3.3,3.3,0,0,0-1.79,2.22c-.08.8,1.17.79,1.25,0Z" transform="translate(-171.66 -140.43)"/><path class="cls-3" d="M257.06,213.61a3.35,3.35,0,0,1-1.62,2,3.6,3.6,0,0,1-2.25.36l.28,1,.2-.24a.63.63,0,0,0-.28-1,7.68,7.68,0,0,0-2.28.22c-.79.07-.8,1.33,0,1.25a8.25,8.25,0,0,1,1.95-.27l-.28-1-.2.24a.64.64,0,0,0,.28,1,4.69,4.69,0,0,0,3.31-.52,5,5,0,0,0,2.1-2.7c.29-.75-.91-1.07-1.21-.33Z" transform="translate(-171.66 -140.43)"/><path class="cls-3" d="M233.05,244.16H233l.16,1.23c2.1-.64,4.18.09,6.35.15a18.45,18.45,0,0,0,8.15-1.51c4.33-1.82,5.95-5.73,9.86-8.2.68-.42,0-1.51-.63-1.07-3.27,2.06-5.07,5.62-8.38,7.5a16.47,16.47,0,0,1-10.76,1.9c-2.65-.49-2.42-.73-4.92,0a.63.63,0,0,0,.17,1.23h.09a.63.63,0,0,0,0-1.25Z" transform="translate(-171.66 -140.43)"/><path class="cls-3" d="M227.05,294.92l-.38.07a.63.63,0,0,0-.43.77c1.25,3.85,2.25,7.85,3.86,11.58,1.73,4,4.68,7.19,6.57,11.08,2.39,4.93.29,10.23,1.9,15.21.89,2.77,3.5,3.43,2.66,6.44a.63.63,0,0,0,1.21.33c.45-1.64,1-2.27.15-3.6a4.28,4.28,0,0,1-2.27-2.66,4,4,0,0,1-.85-2.83,35.6,35.6,0,0,1-.12-5.06,21.12,21.12,0,0,0-.67-6.24c-1.18-3.79-4.09-6.65-5.92-10.09-.45-.85-5-13.86-5.38-13.8.79-.15.46-1.35-.33-1.2Z" transform="translate(-171.66 -140.43)"/><path class="cls-3" d="M238.83,331.4c4.45.4,7.9,3.64,12.64,3.35,2.22-.14,4.21-1,6.35-1.48,2.47-.59,4.95-.31,7.39-.86,7.63-1.72,15.14-5.14,22.37-7.91.74-.28.42-1.49-.33-1.2-6.9,2.64-13.95,5.57-21.14,7.51-2.28.62-4.47.46-6.78.82s-4.6,1.42-7,1.69c-5.19.59-8.66-2.74-13.47-3.17-.8-.07-.8,1.18,0,1.25Z" transform="translate(-171.66 -140.43)"/><path class="cls-3" d="M240.23,334.76c2.84,1.82,7.56,2.24,10.82,2.2,5.06-.06,9.79-1.92,14.5-3.44a13.43,13.43,0,0,1,6.13-.34c2.59.26,4.65-.66,7.06-1.37,4.18-1.25,6.25-2,9.11-5.32.53-.61-.35-1.49-.88-.88-2.77,3.21-6,4.48-10,5.59a12.28,12.28,0,0,1-4.46.77,12,12,0,0,1-3.8-.88c-.52,0-1.05.17-1.56.25-2.1.31-4.44,2-6.56,2.68a33.52,33.52,0,0,1-7.09,1.29c-3.26.27-9.56.32-12.6-1.63-.68-.44-1.3.64-.63,1.08Z" transform="translate(-171.66 -140.43)"/><path class="cls-3" d="M263.29,208.75c.79-.1,2.33,2.05,2.92,2.57,2.44,2.13,1.45.91,2.79,4.76a12.3,12.3,0,0,0,3.95,5.69c1.91,1.5,2.49.59,3,3.87.18,1.19-.14,2.42.14,3.62.63,2.79,3,5.25,4.23,7.78,2.58,5.14,8.55,6.52,14,7.07,4.39.44,7.78-3.55,8.78-7.68.1-.42-.3-1-.77-.77-3.93,1.61-8.59,7.09-11.9-1.71-1.47-3.9.31-8.61.79-12.49.24-2,.52-4-.2-5.91-.91-2.4-2.77-3-3.41-5.59-.87-3.63,1.57-5,1.7-8.23a9.51,9.51,0,0,0-1.21-3.87c-1.27-2.67-3.27-4.89-4.86-7.36s-2.67-5.28-4.31-7.75l-.86.85c2.7,1.26,6.76,2.51,9.34.27a.64.64,0,0,0-.13-1c-2.31-1.75-5.35-1.61-8.08-2.3-5.58-1.4-9.33-5-12-10-1.66-3.13-2.47-6.65-4-9.85-1.67-3.48-4.09-6.31-6.29-9.45-3.7-5.3-8.15-9.55-14.76-10.72-6.44-1.15-12.08,3.34-18.12,4.68a69.06,69.06,0,0,0-12.31,3.51c-3.93,1.61-7.11,2.1-11.18,3.07a18.62,18.62,0,0,0-8,4.17c-2.62,2.32-4.65,5.16-7.39,7.39a19.62,19.62,0,0,1-7,3.92c-1.46.42-4.43.24-5.54,1.13-1.77,1.44-.79,3.47,1.15,4.55a13.6,13.6,0,0,0,4.1,1.1c1,.15,3.84-.21,4.2.26.23.3-.45,1.62,0,2.39,2.57,4.1,12.48-2.69,15.13-3.21l-.61-1.05a16.08,16.08,0,0,1-9.93,6.21,13.51,13.51,0,0,1-5.07-.05c-.19,0-3.12-.89-2.18-1.36l-.86-.85c-1.48,2.13-1.09,6.65-1.25,9.06-.21,3.23-1.28,7.64-.9,10.82.4,3.42,3.54,5.47,3.93,9.17.4,3.88.15,7.65.87,11.53a16.84,16.84,0,0,0,.76,3.21c.36.89,1.23,1.68,1.56,2.53.65,1.71.61,4.74.47,6.53a7.07,7.07,0,0,0,.21,3.51,42.81,42.81,0,0,0,3.93,8.2c.55.84,1.21,1.55,1.84,2.34,1.75,2.17,2.42,4.3,3.6,6.74,2,4.07,5.06,7,9.68,6.17,3.94-.68,9.15-1.64,13.23-.75,3.6.78,6.86,2.94,10.5,3.68a47.1,47.1,0,0,0,8.64.72c.88,0,2.27-.49,2.82.4.85,1.36-4.09.64-5.3.57-5-.31-8.53-2.49-12.86-4.73-3-1.56-5.11-1.47-8.42-1.32-4.48.2-10,.49-12.26,5.09-.35.72.73,1.35,1.08.63,2-4.11,7.18-4.24,11.18-4.47,4.57-.26,7.38,1.07,11.35,3.25a23.4,23.4,0,0,0,17.24,2.34.65.65,0,0,0,.46-.6c.31-2.71-2.7-2.41-4.6-2.45-3.91-.1-7.89-.22-11.64-1.41-2.63-.84-5.17-2.29-7.86-2.91-6.75-1.54-17.08,3.62-21.44-3.37-1.53-2.45-1.94-5.12-3.68-7.48a36.38,36.38,0,0,1-3.54-5c-.76-1.49-1.05-3.22-1.78-4.69a8.32,8.32,0,0,1-1-5c.16-2.86.49-4-.76-6.6a29.84,29.84,0,0,1-3-12.54c-.1-2.7.39-5.51-.77-8-1.59-3.48-2.81-3.47-2.7-8.46,0-1.53.18-3.07.27-4.6.17-2.91-.46-8.94,1.26-11.41.39-.56-.34-1.11-.85-.86-3,1.47,1,3.32,2.48,3.64,6.26,1.4,12.34-1.7,16.21-6.47a.63.63,0,0,0-.61-1c-2.08.41-14.82,7.34-12.88,1.5a.63.63,0,0,0-.6-.79c-.64,0-11.95-.06-10.22-3.34.33-.63,3.68-.75,4.56-1a18.89,18.89,0,0,0,4.42-1.67c5.89-3.22,9.1-9.72,15.06-12.7,3.44-1.72,7.39-1.36,11-2.64,2.6-.92,5.28-2.09,7.8-2.94,1.45-.49,2.84-1.4,4.39-1.78,2.94-.72,5.64-.92,8.53-2.08,3.28-1.31,7.13-3.19,10.72-3.32,4.65-.16,9.61,2.64,12.73,5.84a56.12,56.12,0,0,1,12,19.66c1.64,4.52,4.16,9.16,8.18,12,2.94,2.09,6.25,2.63,9.73,3.3.43.08,3.09.23,3,1.13-.07,1.17-6.56-1-6.65-1.06-.51-.24-1.23.29-.85.86,1.91,2.88,3.15,6.1,5.12,9,1.65,2.39,4.68,5.39,4.9,8.37s-2.17,5.34-2.23,8.22c0,1.87.66,2.69,1.63,4.14a7.44,7.44,0,0,1,2.79,3.45,18,18,0,0,1-.34,6.38c-.2,1.24-.49,2.47-.66,3.72a17.94,17.94,0,0,0,.16,7.65c1.25,4.15,4.64,6.5,8.89,5,1.86-.64,4.75-2.59,1.6.62-3.45,3.51-8.62,2.4-12.92,1.12-4-1.18-5.85-5.56-7.84-8.93a11.6,11.6,0,0,1-1.77-5.35c-.05-.89.4-2.12.11-2.93-.77-2.17-3.27-2.82-4.68-4.59-1.64-2.07-1.81-4.15-2.89-6.43-.88-1.84-2.15-2.08-3.65-3.38-.84-.73-1.49-2.12-2.77-1.95-.79.1-.8,1.35,0,1.25Z" transform="translate(-171.66 -140.43)"/><path class="cls-3" d="M199.7,259.82c-1.22,1.57-3.38,1.56-4.53,3.27-1.36,2-1.37,6-1.53,8.41-.12,2,.11,4.05-.58,6-.49,1.36-1.69,2.42-2.27,3.71-1.38,3.13-1.37,7.41-1.49,10.75-.28,7.56-.21,14.28,1.22,21.72,1.49,7.75,1.6,15.61,3.82,23.22,8.28,28.34,35.5,49.46,61.87,60.23.74.31,1.07-.9.33-1.2-26.22-10.72-53.34-31.88-61.23-60.18-1.89-6.79-2-13.81-3.26-20.72-.68-3.89-1.76-7.73-1.92-11.7-.13-3.25.31-6.52.4-9.78.13-4.45.05-9,2.25-13a12.53,12.53,0,0,0,1.94-4.66c.47-3.2-.28-6.71.9-9.81,1-2.51-.14-1.26,3-3.79,1.6-1.26.63.13,1.93-1.53.49-.62-.39-1.51-.89-.88Z" transform="translate(-171.66 -140.43)"/><path class="cls-3" d="M220.44,224.58a13.1,13.1,0,0,1,4.08-1.89,13.91,13.91,0,0,1,4.65-1,.63.63,0,0,0,0-1.25,16.34,16.34,0,0,0-5.46,1.22,12.91,12.91,0,0,0-4.15,2c-.62.52.27,1.4.88.89Z" transform="translate(-171.66 -140.43)"/><path class="cls-3" d="M299.49,319.91c1.5-.52,4.89.71,6.41,1.54s1.68,2.93,3,3.61a6.2,6.2,0,0,0,1.09.22c1.66.53,3,.13,4.74,1,.8.41,1.46,1,2.23,1.48s1.72,1.25,2.63.42c1.49-1.35-1.14-3.5-1-4.82l-.94.54a16.89,16.89,0,0,1,2,2.77.64.64,0,0,0,1.15-.15c.1-.48.94-5.35.63-3.42-.15,1-.39,2-.53,2.94s-.49,2.51,0,1.91c-1.92,2.47-6.33-.31-7.72,2.82a.63.63,0,0,0,.1.75c1.45,1.13,1.91.23,3.76.28l-.44-1.06c-.75.74-4.4,2.24-3,3.94.9,1.07,2.91-.35,3.72-.83l-.86-.86c-1.07,1.9-4.34,5.33-2.59,7.58a.63.63,0,0,0,.76.09c2.36-1.27,3-4.93,4.08-7.12s3.18-4.65,3.38-7.15c.06-.8-1.19-.8-1.25,0-.24,3-3.34,6.82-4.64,9.49-.34.69-.56,1.27-1,2-1.37,2.41.08-.56.43-1.2.56-1,1.28-2,1.86-3a.63.63,0,0,0-.85-.85c-1.93,1.16.16-.54.78-1.15a.64.64,0,0,0-.45-1.07c-2.33-.06.18.25.81.18,1.29-.16,2.56-1.65,3.78-1.48a.63.63,0,0,0,.6-.79c-1-2.46,2.28-6.42-.76-8.15a.63.63,0,0,0-.92.37c-.31,1.84-.55,3.68-.93,5.51l1.14-.15c-1-1.41-1-2.32-2.45-3.22a.63.63,0,0,0-.94.54c0,.29.34,1.86.32,1.95-.33,1.12-.28.66-1,.62-1.14-.06-2.59-1.48-3.81-1.8s-2.18-.06-3.09-.76c-.66-.5-.67-1.32-1.22-1.86a8.82,8.82,0,0,0-2.79-1.52c-2.22-.93-4.22-2.12-6.6-1.3-.76.26-.44,1.47.33,1.21Z" transform="translate(-171.66 -140.43)"/><path class="cls-3" d="M321.71,329.16c.07-3.27,4.31-2.26,5.57-.28,1.38,2.17,0,4.53-1.16,6.45a7.93,7.93,0,0,1-3.67,3.37,2.47,2.47,0,0,1-3-.23,29.15,29.15,0,0,1-3.07-1.86c-.62-.5-1.51.38-.88.89a19.45,19.45,0,0,0,5,3.14c1.31.43,1.59-.18,2.56-.85,1.36-.94,3.07-1.45,4-2.89a16.58,16.58,0,0,0,2-5.42,4,4,0,0,0-.93-3.48c-.91-1.31-1.94-2.91-3.62-3.12-2.4-.29-4,2.07-4.09,4.28a.63.63,0,0,0,1.25,0Z" transform="translate(-171.66 -140.43)"/><path class="cls-3" d="M294.66,318.28c-.77.07-1.36-.57-2.08-.74a3.6,3.6,0,0,0-1.81.12,8.82,8.82,0,0,0-3.65,2c-.6.54.29,1.42.88.88a7.12,7.12,0,0,1,3.54-1.76c1.15-.17,2,.87,3.12.76.79-.07.8-1.32,0-1.25Z" transform="translate(-171.66 -140.43)"/><path class="cls-3" d="M292.15,334.61c1.76,2.84,4.73,2.38,7.44,1.33,2.92-1.13,5.91-2.64,8.71-4,1.86-.9,3.53-1.83,4.54-3.7.42-.79.51-1.69.86-2.5.88-2,2.45-2.72,3.86-4a15.55,15.55,0,0,0,4-4.7c1.89-3.83,2-7.65-.66-10.91-.52-.62-1.4.27-.88.89,2.14,2.59,2,5.25,1,8.1-1.47,4.07-3,4.15-5.85,6.43a6.24,6.24,0,0,0-2.22,2.66c-1,2-1.21,3.88-3,5.38-1.39,1.14-3.16,1.54-4.77,2.26-3,1.32-9.4,6-11.84,2.11-.43-.69-1.51-.06-1.08.63Z" transform="translate(-171.66 -140.43)"/><path class="cls-3" d="M301.71,316.74h-.24V318c2.71-.17,5.25-.95,8-1a10.47,10.47,0,0,0,3.34-.48c.57-.19,2.08-.76.66-.29a60.28,60.28,0,0,1-6.47,1.82c-1.39.29-2.88,1-4.31.56a11.13,11.13,0,0,0-2.63-.87c-.8-.07-.8,1.18,0,1.25,1.43.12,2.28,1.29,3.66,1.27s3-.92,4.36-1.17a24.72,24.72,0,0,0,7.74-2.5.64.64,0,0,0,.28-.71c-.46-1.54-1.6-1.32-2.94-.88-2.21.75-4.06.59-6.33.8-1.82.17-3.52.83-5.35.94a.63.63,0,0,0,0,1.25h.24a.63.63,0,0,0,0-1.25Z" transform="translate(-171.66 -140.43)"/><path class="cls-3" d="M304.86,321.29c1.2.31,2.8,3.37,3.56,4.36.44.58.95,1.19,1.39,1.78a26.78,26.78,0,0,1,1.57,3.06c.1.16,1,1.22,1.05,1.31.06.79-1.19-1.07-1.45-1.4s-.74-.93-1.09-1.4c-1-1.36-1.33-2.79-2.21-4.16a7.88,7.88,0,0,0-2.62-2.28,6.31,6.31,0,0,1-2.15-1.93c-.29-.43-.37-1-.75-1.35a2.35,2.35,0,0,0-2.11-.55c-.8,0-.81,1.3,0,1.25,1.52-.09,2.05,2,3.14,2.88s2.56,1.35,3.41,2.62a23.49,23.49,0,0,1,1.15,2.73,25.88,25.88,0,0,0,3.16,4.41,2.18,2.18,0,0,0,2.65.84,1.32,1.32,0,0,0,.65-1.66c-.15-.43-.49-.5-.74-.8a20.42,20.42,0,0,1-1.71-3.1c-1.08-1.87-2.78-3.4-4-5.22-.73-1.12-1.24-2.24-2.61-2.6a.63.63,0,0,0-.33,1.21Z" transform="translate(-171.66 -140.43)"/><path class="cls-3" d="M297.79,322.18c.33,1.34,1.21,3.14.45,4.44s-2.45,1.29-3.47,2.42c-.87,1-1.32,2-.47,3.08s3.54,1.23,4.71.37c1.48-1.09.94-3.38,1.45-5a.64.64,0,0,0-.44-.77l-.7-.26c-.61-.22-1,.63-.61,1.05,2.42,2.39,3.21,8.64,7.52,9,3.31.25,4.09-2.76,2.41-5.09a.64.64,0,0,0-.85-.23c-2.32,1.46-6,2-7.11-1.32l-1.15.48a16.83,16.83,0,0,1,3.53,10.76c-.09,1.42-1.9,4.32-3.85,3.28-2.44-1.3,2.3-4.19,3.16-4.18a.63.63,0,0,0,0-1.25c-4.83-.06-9.23,7.77-1.45,6.34,7.38-1.37,2.39-12.06-.31-15.58-.39-.52-1.38-.26-1.14.48a5.49,5.49,0,0,0,2.21,2.83c2.48,1.72,2.77.68,5.19.15.93-.2,1.37-1.48.93.58s-2.35.58-3.57-.5c-.34-.3-.84-1.34-1.18-1.76-1.23-1.51-2-3.4-3.46-4.85l-.61,1c.49.18-2.49,6.73-2.15,2.78.18-2.06.6-1,1.86-2.23.18-.17.48-.28.62-.5,1.12-1.79.13-4.14-.32-5.92-.19-.78-1.4-.45-1.2.34Z" transform="translate(-171.66 -140.43)"/><path class="cls-3" d="M303.86,338.21c.7.29.67,2.35,1.19,3,1,1.25,2.29,1,3.64,1.55,1.54.59,3.59,2.27,4.42-.19a1.71,1.71,0,0,0-.43-2,3.77,3.77,0,0,0-1.2-.56,4.37,4.37,0,0,1-1.79-1.36,3.72,3.72,0,0,0-2.83-1.41c-.7,0-1.55.27-2.05-.38a5.84,5.84,0,0,1-.49-2.61c0-.81-1.22-.81-1.25,0,0,1.14.22,3.57,1.43,4.13s2.37-.26,3.47.36c.89.51,1.3,1.58,2.21,2.09.24.14.74.21,1,.38.81.09.9.57.29,1.44a5.17,5.17,0,0,1-.83-.38,10.73,10.73,0,0,0-2.78-1,2.34,2.34,0,0,1-2.21-2,9.94,9.94,0,0,0-.28-1.2A1.94,1.94,0,0,0,304.2,337c-.75-.31-1.07.9-.34,1.21Z" transform="translate(-171.66 -140.43)"/><path class="cls-3" d="M298.61,320.46c1.76,1.51,1.82,3.92,3.28,5.62,1.09,1.28,2.21,3.14,3.84,3.8a.62.62,0,0,0,.77-.76c-1.25-3.62-2.31-7.87-6.29-9.37-.75-.28-1.08.92-.33,1.2,3.45,1.3,4.34,5.41,5.41,8.5l.77-.77c-1-.42-1.67-1.65-2.31-2.47a11.82,11.82,0,0,1-1.67-2.17c-.79-1.63-1.16-3.24-2.59-4.46-.6-.52-1.49.36-.88.88Z" transform="translate(-171.66 -140.43)"/><path class="cls-3" d="M295.06,315.5c-.46-.21-.93-.37-1.39-.55a6.6,6.6,0,0,1-1.37-.81,3,3,0,0,0-1-.37c-.56-.15-1-.49-1.61-.62a.63.63,0,0,0-.61,1,3.78,3.78,0,0,0,1.44.92c.52.2,1.18.31,1.5.81s.25,1.51.61,2.18a4.93,4.93,0,0,0,1.36,1.37c.6.52,1.49-.36.88-.89a3,3,0,0,1-1.39-2,3.23,3.23,0,0,0-.6-1.62c-.78-.9-2.12-.81-2.91-1.67l-.61,1a12.28,12.28,0,0,1,1.3.54,2.9,2.9,0,0,1,1.13.5,12.63,12.63,0,0,0,2.65,1.19c.73.33,1.37-.75.64-1.08Z" transform="translate(-171.66 -140.43)"/><path class="cls-3" d="M293.08,319.73c-1.41-.1-2.57-1.23-4-1.48s-2.71-1-4.14-1.16c-.78-.11-1.12,1.1-.33,1.21a10.56,10.56,0,0,1,2.26.7,21.38,21.38,0,0,0,2.37.54c1.39.34,2.35,1.34,3.83,1.44.8,0,.8-1.2,0-1.25Z" transform="translate(-171.66 -140.43)"/><path class="cls-3" d="M241.65,338.77c-3.12,7.64,2.26,14.69,8.56,18.58,3.07,1.89,5.52,4.16,8.81,5.41l3.44,1.38a13,13,0,0,0,.69,1.21c.36.29.47.9.91,1.15a2.35,2.35,0,0,0,2.21.26c.66-.14.53-1,0-1.2l-.77-.3c-.76-.28-1.08.92-.34,1.21l.78.29v-1.2c-1,.21-3.28-3.18-4.35-3.85-1.6-1-4.08-.89-5.84-2.06-.76-.5-1.48-1.16-2.24-1.68-6.23-4.36-14.24-10.08-10.66-18.86.31-.75-.9-1.07-1.2-.34Z" transform="translate(-171.66 -140.43)"/><path class="cls-3" d="M256.92,397.07c1.52-3.53.69-8.13,2-11.94a22.85,22.85,0,0,1,5.74-9.24c1.87-1.76,4.3-2.39,6.23-4,1.6-1.35,2.32-2.37.89-4.06-1.86-2.19-4.42-3.95-7.22-3.11a.63.63,0,0,0,.33,1.21c1.56-.47,3.38.68,4.41,1.8,2.26,2.44,1.34,2.95-1.39,4.58a20.07,20.07,0,0,0-6.48,5.41,25.48,25.48,0,0,0-4.31,9c-.78,3-.09,7-1.26,9.72-.32.73.76,1.37,1.08.63Z" transform="translate(-171.66 -140.43)"/><path class="cls-3" d="M258.75,391.87l-.6,0a.64.64,0,0,0-.44,1.07c5.43,4.89,11.88,5.25,18.75,6.17,4.05.53,10,3.52,12.56-1.4a.6.6,0,0,0,0-.63c-1.08-1.46-3.3-1.25-5-1.47a53.21,53.21,0,0,1-8.14-2,.62.62,0,0,0-.33,1.2c3.81,1.19,8.26,1,12.19,1.56,3.09.47,5,1.59,7.8-.46.76-.55,2.4-1.91,1.94-3.12-.35-.94-.95-.75-1.75-1-2.82-1-7.31-.2-10-1.52-3.65-1.81,3.12-1.68,4.79-1.89a31.05,31.05,0,0,0,4.85-.8,13.59,13.59,0,0,0,6.82-3.73.63.63,0,0,0,0-.88c-2-1.8-6.61-.21-9,.13-1.69.24-6,1-2.41-1.15,1.18-.7,3-.35,4.36-.7a12.08,12.08,0,0,0,5.73-3.06.62.62,0,0,0,0-.88l-.15-.15c-.59-.55-1.47.33-.89.88,0,0-6.66,2.22-7.11,2.29a13.84,13.84,0,0,0-2.28.42,5.09,5.09,0,0,0-3.38,3,.62.62,0,0,0,.37.91c1.94.67,4.12,0,6.09-.32,1.2-.18,2.42-.37,3.62-.52s3.11-1.07,2.5.72c-1,2.92-11,2.37-12.71,2.66a10.08,10.08,0,0,0-5.25,2.69.62.62,0,0,0,.12,1c2.18,1.14,4.77.59,7.14,1.06.74.15,4.6.68,5.1,1.15,1.87-.21,1.42.73-1.35,2.8a4.37,4.37,0,0,1-3-.33c-2.28-.34-4.73-.42-7-.88-.71-.15-2.6-.93-3.22-1-1.21-.19-2.42.38-3.63,0l-.33,1.2c2.3.68,3.92,1.58,6.42,1.86.95.1,5.09.13,5.28.68.62,1.84-3.82,1.81-4.83,1.69-3.79-.45-7.86-1.06-11.65-1.66a23.48,23.48,0,0,1-7.57-2.86c-1.39-.75-3.59-1.5-4.64-2.44l-.45,1.06.6,0c.81,0,.81-1.22,0-1.25Z" transform="translate(-171.66 -140.43)"/><path class="cls-3" d="M267.88,372.54l-.22,0,.31,1.16a9.38,9.38,0,0,1,2.39-.82,39.26,39.26,0,0,0,3.64-2.13c3.21-1.69,6.15-2.68,9.76-2.11.79.12,1.13-1.08.33-1.21a14.22,14.22,0,0,0-8.71,1.29,36.72,36.72,0,0,0-3.83,2c-1.34.75-3,1-4.21,1.89-.43.33-.38,1.23.32,1.17l.22,0c.79-.07.8-1.33,0-1.25Z" transform="translate(-171.66 -140.43)"/><path class="cls-3" d="M301.61,377.49l.21-.37a.64.64,0,0,0-.22-.86c-1.52-1-2.65-.81-4.34-.6-2.14.27-10.72,2.47-12.41.61-.86-.94,0-5.47.24-7.22.23-2.06.55-4.5,1.85-6.21,2.35-3.12,3.3-1.83,5.66-3.32,1.72-1.08,1.71-2.71,3-4.1,2.42-2.67,1.8-.18,2.32,1.21.38,1,1.31,2.11,1.64,3.12,2.89,9-4.65,7-9.05,10-1.64,1.15-2.85,3-4.33,4.38a.63.63,0,0,0-.09.76l.24.38c.42.68,1.5.06,1.08-.63.2.33,1.81-1.72,1.95-1.86a10.34,10.34,0,0,1,4.71-3.06c2.31-.73,4.38-.94,6.06-2.82,4.16-4.68-.86-8.23-1.37-13.25a.62.62,0,0,0-.62-.62c-1.52-.07-1.9-.1-3,.9-.89.8-1,2.06-1.7,3-1.59,2-2.71,1.71-4.56,2.6-3.23,1.57-4.62,5.3-5.19,8.61-.44,2.61-1.9,7.62,1,9.41,1.34.84,2.38.52,3.84.46,1.61-.06,3-.2,4.54-.39.3,0,7.7-1,7.53-.74-.39.7.69,1.34,1.08.63Z" transform="translate(-171.66 -140.43)"/><path class="cls-3" d="M290,374.29a6.9,6.9,0,0,0,1.53-1.33c.53-.46-.05-1.13-.6-1a5.38,5.38,0,0,0-3.84,3.81.64.64,0,0,0,.92.71,4.72,4.72,0,0,0,2-1.71.63.63,0,0,0-.38-.92l-.39-.09c-.78-.19-1.11,1-.33,1.2l.39.09-.37-.91a3.64,3.64,0,0,1-1.59,1.26l.92.7a4.15,4.15,0,0,1,3-2.94l-.61-1c-.44.38-.74.88-1.28,1.13-.73.34-.09,1.42.63,1.08Z" transform="translate(-171.66 -140.43)"/><path class="cls-3" d="M286.92,361.81c.13-6.26,1.36-13.64,5.9-18.27a.63.63,0,0,0-.76-1,6.21,6.21,0,0,0-3,4.54,9.86,9.86,0,0,0,.08,3.51c.63,3.31,2.94,5.8.12,9.05-.52.61.36,1.5.89.89,1.31-1.51,2.3-3.15,2-5.23-.54-3.48-4.4-9.29.57-11.69l-.75-1c-4.87,5-6.13,12.4-6.27,19.16a.63.63,0,0,0,1.25,0Z" transform="translate(-171.66 -140.43)"/><path class="cls-3" d="M301.52,362.25c2.25-2.32,6.81-3.94,10.05-4.32,5.24-.61.7,1-.55,1.78a17.8,17.8,0,0,0-3.25,2.46c-2.28,2.31-3.64,5.44-5.68,8-.62.77-1.07,1.35-1.66,2.16-1.69,2.35-1.87,4.25-5,4.24a.63.63,0,0,0,0,1.25c5.15,0,5.71-3.88,8.49-7.81,2.43-3.43,4.09-6.83,7.77-9.19,1.54-1,3.72-1.36,4.22-3.26a.63.63,0,0,0-.44-.77c-4.6-.89-11.49,1.2-14.8,4.61-.56.58.33,1.46.89.88Z" transform="translate(-171.66 -140.43)"/><path class="cls-3" d="M298.11,383.86l.57-.57c.56-.57-.32-1.46-.89-.89l-.57.57a.63.63,0,0,0,.89.89Z" transform="translate(-171.66 -140.43)"/><path class="cls-3" d="M242.92,399l-.08-.53a.6.6,0,0,0-.44-.43c-4.91-1-9.72,1.46-13.75,4.1a37,37,0,0,0-6.1,5.07c-2.4,2.45-3.92,5.58-6.37,7.95l1,.61c1.32-4.7,3.17-9.08,6.48-12.74,2.09-2.32,5.47-4,6.89-6.71a.61.61,0,0,0-.1-.75c-1.79-1.41-3-1.58-5.22-.83-2.64.91-5.87,4.48-8.58,4.57-5.52.18-.92-7.75.31-9.71,2.22-3.53,6.25-8.72,10.81-8.72a.63.63,0,0,0,0-1.25c-5.11,0-9.41,5.35-11.89,9.34-1.32,2.13-5.41,9.4-2.64,11.86,1.07.94,2.11.4,3.27,0a43.92,43.92,0,0,0,5.1-2.74c1.15-.63,8.33-3.64,5.93-.46-2.12,2.81-5.27,4.71-7.27,7.73a35.78,35.78,0,0,0-4.3,10.12.63.63,0,0,0,1,.61c3.2-3.1,5.2-7.12,8.63-10.1,1.42-1.24,15.51-10,16-6.62.12.79,1.32.46,1.21-.33Z" transform="translate(-171.66 -140.43)"/><path class="cls-3" d="M400.84,392.19c-2.33-3.34-4.22-6.84-8.54-7.64a20.23,20.23,0,0,0-11.53,1.84c-.54.25-.3,1,.15,1.15,3.24,1.25,6.8,1.86,8.4,5.36l.85-.85c-3.75-1.74-6.72-3.73-11-2.06-2.53,1-3.1,2.17-2.83,4.66.6,5.6,3.58,10.27,6.23,15.1,2.09,3.81,3.93,7.63,7.57,10.17l.63-1.08c-3.57-2.35-7.63-5-10.55-8-2.76-2.88-7.29-5.31-9.19-8.75a.63.63,0,0,0-1.17.32c-.08,1.58,1.12,4,.84,5.27-.49,2.16-2.53,1-4.27,1.61a7.13,7.13,0,0,0-4.47,5.67,21.38,21.38,0,0,0-.24,5.3c.08,1.54,1.63,6.43,1,7.32-1.46,2.09-3.07-3.83-3.65-4.78a4,4,0,0,0-1.52-1.66.64.64,0,0,0-.92.71,28.78,28.78,0,0,0,1,3.16c.21.64,1.28.58,1.22-.16l-.07-1h-1.25c.7,5.43,1.23,10.91,3.08,16.1a36.51,36.51,0,0,0,2.7,6.1c.17.29,1.1.69.29,0-.65-.59-1.4-1.7-1.92-2.28-3.83-4.24-8.47-7.41-12.73-11.19-6-5.34-8.1-10.93-8.38-18.82h-1.25a18.06,18.06,0,0,1-.84,6.06c-.1.32-1.28,4.52-1.55,4.61s-4.59-5.24-5.27-5.8a.65.65,0,0,0-1,.13c-2.72,3.63-2.11,9.6-5.8,12.7-4.24,3.57-2.75-4.42-5.34-5.79-2.34-1.24-4.67,1.32-5.91,3a17.34,17.34,0,0,0-2.21,4.11c-.48,1.19-.81,2.45-1.3,3.64q-.44,3.06-3.63,2.91-2.84,2-4.8-.86c-2.33-1.77-4.83-3.39-6.19-6-1.78-3.46-.43-5.66.4-8.94.54-2.13.85-4.82-1.83-5.53s-6.26,2.78-8,4.53c-4.2,4.24-4.15,8.41-4.62,14l1.16-.32c-.75-1.33-1.47-5.39-1.79-7-.29-1.41.2-2.5-.74-3.6a.63.63,0,0,0-1,.13c-1.25,2.72-1.83,6.09-3.78,8.42-2.41,2.9-4.37,1.3-6.12-1.32a13.6,13.6,0,0,1-1.89-11.85c1.29-4.37,7.17-13.5,12.9-9.32.65.48,1.28-.61.63-1.08-5.44-4-11.24,2.48-13.61,7.22a15.35,15.35,0,0,0,1.67,16.73c2.68,3.47,5,5,7.28.73a43.86,43.86,0,0,0,2.36-4.57c0-.14,1.27-3,.88-3.35.13.11-.14.69,0,.89,1.36,2.63.69,6.05,2.14,8.62a.63.63,0,0,0,1.17-.31c.41-5,.52-9.39,4.26-13.15.92-.93,2.81-3,4.1-3.34,5.47-1.64,3.9,2.16,3.3,4.21-1,3.47-1.87,6.21.27,9.51,1.82,2.81,6.66,7.11,9.93,8.11s5-1.22,6.27-3.93c1.2-2.52,1.68-5.28,3.2-7.66,1.31-2.06,1.58-2.76,4-1.81,2.68,1,1.69.89,2.08,3.15.28,1.57.66,3.19,2.61,3.11,2.86-.11,5-5.25,6-7.31.65-1.41,1.3-6.39,2.31-7,1.21-.73,4.76,5.06,5.71,6.13a.63.63,0,0,0,1-.28c1.1-4.2,3.05-8.06,2.82-12.48-.05-.8-1.28-.8-1.25,0,.13,3.72,0,6.69,1.55,10.16a27.35,27.35,0,0,0,7.2,9.54c3.6,3.2,7.63,5.91,11,9.36,1.57,1.6,3.32,4.92,5.65,5.43.44.09.94-.29.77-.77-1.1-3.24-3.15-6-4.18-9.38-1.43-4.62-1.91-9.44-2.52-14.22-.1-.78-1.32-.82-1.25,0l.07,1,1.23-.17a31.86,31.86,0,0,1-.95-3.16l-.92.7c1.49,1,2.72,4.94,3.76,6.42a8,8,0,0,0,2.81,2.91c.37.2,1,0,.94-.54-.45-3.89-1.4-7.75-1.49-11.66-.15-5.93,2-9.28,8.43-9a.64.64,0,0,0,.61-.46c.43-2.55-1-4.8-.88-7.44l-1.16.31c2.11,3.82,6.42,5.9,9.38,9s7.08,5.77,10.81,8.23c.68.44,1.29-.63.63-1.08-4.67-3.26-7.36-9.89-9.95-14.82-1.38-2.63-3.33-6-3.18-9.11.35-7.5,8.66-3.3,11.93-1.78a.63.63,0,0,0,.86-.86c-1.8-3.94-5.41-4.49-9.15-5.94l.15,1.14a18.26,18.26,0,0,1,9.87-1.73c4.27.71,6.2,3.79,8.49,7.08.46.65,1.55,0,1.08-.63Z" transform="translate(-171.66 -140.43)"/><path class="cls-3" d="M400.84,393.24c-1.54-2.47-.08-6.36-1.17-9.17a17,17,0,0,0-5.8-7.09,25.62,25.62,0,0,0-9.68-4.57c-3.75-.86-6.9.16-10.65.38l.44,1.07c1-.86,3.73-.89,5-1.08,2.4-.36,4.74-1,7.13-1.39,4.55-.75,9.17-.85,13.74-1.48a.64.64,0,0,0,.28-1.05c-2.32-2.13-5.24-3.12-8.24-3.93-2.76-.75-5.63-.94-8.39-1.64a8.06,8.06,0,0,1-4.7-2.5c-.32-.38-.19-1.11-.56-1.46-5-4.72-11.07.8-15.28,3.85-.65.47,0,1.55.63,1.08a48,48,0,0,1,6.43-4.44c3-1.51,5.3-.68,7.81,1.92.18.19.15.7.39.89,3.75,2.88,9.46,2.34,13.94,3.67,1.16.34,3.27.66,4.18,1.47,1.34.28,1.53.6.55,1a2.7,2.7,0,0,1-2.3.52c-2.61.42-5.29.39-7.92.8-3.52.54-7,1.26-10.54,1.82a4.82,4.82,0,0,0-3,1.11.63.63,0,0,0,.44,1.06c3.54-.21,6.72-1.23,10.32-.43a24.14,24.14,0,0,1,9.91,4.92,13.48,13.48,0,0,1,5.28,10.94c0,1.65-.18,3,.71,4.4.43.68,1.51.05,1.08-.63Z" transform="translate(-171.66 -140.43)"/><path class="cls-3" d="M242.06,399c-4.28,3.76-5.8,7.92-6.54,13.54-.28,2.13-1.43,9.41,1.72,10.59,2.72,1,5.79-3.93,7.06-5.43a81.93,81.93,0,0,1,6.85-7.57c1.94-1.77,4.57-4.13,7.35-4.35a16.92,16.92,0,0,1,1.85-.52c2.88,1.41,3.42,2.66,1.59,3.77-.44.4,0,1.26.61,1,3.22-1.21,7.54-3,11-3.29,6.55-.49,2.55.87,5.35,1.83.76.26,1.09-.95.33-1.21-.42-.14-.67-1.23-1.13-1.59a3.18,3.18,0,0,0-2.45-.65c-4.21,0-9.52,2.23-13.43,3.71l.61,1c1.61-1.46,3-4,.52-5.59-2.83-1.86-8.46,1.24-10.71,2.84a41.89,41.89,0,0,0-6.39,6.24c-1.34,1.51-4.18,6.53-6.2,7.17-5.23,1.65-3.34-8-3-10.08a17.13,17.13,0,0,1,5.84-10.6c.61-.53-.28-1.42-.88-.89Z" transform="translate(-171.66 -140.43)"/><path class="cls-3" d="M294.05,411.69l1.65-.06a.63.63,0,0,0,.54-.94c-2.43-5.7.92-7.53,4.18-10.94a31.16,31.16,0,0,0,5.85-7.9,26.35,26.35,0,0,1,1.12-2.89q.08-2.62,2.32-.57a16.84,16.84,0,0,1,3,3.65,25.72,25.72,0,0,1,4,12.88,41.6,41.6,0,0,0,1.68,10.28c.21.63,2,4.41,1.56,4.66-1.16.61-4.2-2.71-4.8-3.32-6.14-6.38,1-15.31-1.89-22.85-.81-2.13-1.79-4.57-3.69-6a14.3,14.3,0,0,0-2.15-1.06,23.65,23.65,0,0,0,5.47,1.73c6.8,1.56,9.14,9.73,15.55,12.56,4,1.78,10.42,2,13.94-1,2.84-2.42,4.51-5.1,8.34-6.3,1.71-.53,3.87-.59,5.21-1.91a.64.64,0,0,0-.12-1c-2-1.49-3.79-.5-6,.21-4.37,1.41-8.92,2.54-13.4,3.54-4.33,1-7.41,1.14-11.08-1.8-1.23-1-2.3-2.19-3.55-3.15a14.7,14.7,0,0,0-8.28-3,.64.64,0,0,0-.54.31c.54-1-6.11,2-2-1.36,3.4-2.73,8.62-7.92,13.36-6.14a23.85,23.85,0,0,1,4.93,3.09c1.81,1.32,2.82,3.34,4.51,4.62,2.26,1.7,5.19,1.84,7.91,1.95a.63.63,0,0,0,.6-.46c.46-2.6,1.42-6.21,3.22-8.25,3.09-3.48,5.13,1.49,7.38,3.16s5.41,1.39,5.49-2c0-.77-1.18-3.22-.88-3.58-.15.18,2.16-.12,2.29-.2A2.53,2.53,0,0,0,361,375.2a5,5,0,0,0-2.75-4.21c-.43-.23-2.29-.46-2.54-.7-.86-.82-.5-1.84-1.07-2.69a3.92,3.92,0,0,0-3.72-2.14c-.89,0-1.22,1-2.25.52-.32-.14-.95-1.79-1.33-2.17-2.22-2.16-6.68-2-6.94,1.61-.28,3.79,2.66,6.51,5.55,8.29.84.52,3.88,2.19,5.06,1.45s.08-1.9.92-2.54a.63.63,0,0,0,.22-.85c-.61-.92-1.14-1.9-2.38-2.07-1.93-.26-2.48,2-4.2,1.79-.44-.05-.66.44-.6.8.85,5.25-4.25,7.91-8.3,4.85-1.67-1.26-2.8-3.33-4.4-4.71a7.51,7.51,0,0,0-6.42-2c-2.82.23-6.7.86-9.2,2.35s-3.86,4.12-5.37,6.36l1.16.32c.4-3.51,4.21-7,6.32-9.54s4.23-5.21,6.49-7.68c3.24-3.56,7.33-6.31,11-9.4,4.86-4.05,9.1-8.69,14.8-11.62a41,41,0,0,1,20.25-4.43v-1.25a37.33,37.33,0,0,0-16.74,4.64,65.27,65.27,0,0,0-8,5.51c-2.47,1.93-3.42,3.65-5.51,6a.63.63,0,0,0,.28,1c2.77.84,5-.57,7.65-1.37a26.76,26.76,0,0,1,8.13-1.22c8.2.09-1.34.13-3.38,1.3-1.89,1.09-2.14,2.65-.31,4.06,1.26,1,3.17,1,4.67,1.13a37.35,37.35,0,0,1,10.55,2.56L369,358c-8-2-18.11-1.54-25.55,2.22-.72.37-.09,1.45.63,1.08,7.05-3.56,16.93-4,24.59-2.09A.63.63,0,0,0,369,358a37.27,37.27,0,0,0-10.88-2.6c-.86-.09-4.76-1.19-4.06-2.71.17-.36,1.7-.6,2.12-.7a13.23,13.23,0,0,1,4.65-.34.63.63,0,0,0,.77-.77c-.91-4-10.58-1.4-12.93-.71-1.14.35-5.08,2.33-5.58,1.13-.7-1.72,6.26-6.13,7.57-7.05a38,38,0,0,1,20.67-7.44.63.63,0,0,0,0-1.25,42.21,42.21,0,0,0-19.44,3.89c-6.5,3-11,8.07-16.5,12.53-5.24,4.29-10.13,8.22-14.55,13.46-3.14,3.74-9.06,8.87-9.65,14-.07.67.86.77,1.17.31,2.16-3.19,4.15-5.86,8-6.95,4.59-1.3,8.34-1.69,12.15,1.63,2.5,2.17,4.58,6.73,8.49,6.34,2.48-.24,4.53-3.23,5.15-5.44.16-.58-.05-2.12.18-2.52.1-.17.82-.15,1-.31l.12-.1c.6-1.26,1.6-1.35,3-.28a.65.65,0,0,0-.28.71c1.05,2.57-5.6-1.73-5.84-2-.44-.41-2.92-3.14-2.57-4.6q-1.08-3.58,5.31-.71a9.09,9.09,0,0,0,1.07,2,.65.65,0,0,0,.86.22c2.59-1.37,4.48,1,4.91,3.38a.63.63,0,0,0,.6.46q4.51-.87,2.12,4.83a.63.63,0,0,0-.77.76c.18,1.15,2.91,6.67-1.53,5.83-1.17-.22-3-2.78-3.86-3.65s-2.24-2.69-3.51-2.65c-3.52.13-4.13,8-6.32,10-3.55,3.26-7.8-3.16-10.83-5.36-2-1.43-4.69-3.63-7.18-3.93-2.76-.32-4.68,1.64-6.84,3a32.47,32.47,0,0,0-7.73,6.36.63.63,0,0,0,.12,1c1.55.74,3.6.08,5.24.08,4.55,0,7.5,2.94,11,5.78,7.77,6.36,17.75.27,26.27-1.64.13,0,2.88-1.11,2.7-.29-.06.26-2.31.6-2.55.67a14.86,14.86,0,0,0-3.88,1.6,18.92,18.92,0,0,0-4.35,3.79c-2.72,3-6.88,3.66-10.8,2.89-6.83-1.35-8.85-6.8-13.32-11.17-2.84-2.77-8.28-3-12-3.77a.63.63,0,0,0-.77.77c.16.66.29.61.7,1.07s1.06.48,1.51.79a10.41,10.41,0,0,1,3.26,3.79c3.08,5.79.27,11.79-.26,17.8-.48,5.44,4.81,10.51,9.95,11.39a.62.62,0,0,0,.76-.76c-.9-3.67-2.62-6.92-3.25-10.71-.6-3.55-.18-7.34-1-10.83a24.13,24.13,0,0,0-9.4-13.44.63.63,0,0,0-.92.37c-1.33,3.72-2.53,7-5,10.15a77,77,0,0,1-6.42,6.36c-1.15,1.12-2.22,2.11-2.41,3.81a37.17,37.17,0,0,0,.83,4.2c-.8,0-.81,1.28,0,1.25Z" transform="translate(-171.66 -140.43)"/><path class="cls-3" d="M296.89,410.27c.54.69,4.34-3,4.75-.28l.43-.76a33.38,33.38,0,0,1-4.59.66l.32,1.16c1.07-.63,5.15-.64,4.61,1.35s-3.53-1-4-1.78l-.71.92a5.12,5.12,0,0,1,1.3.85c.27.45.45.44.55,0a6.74,6.74,0,0,0-1.55-.84,27.39,27.39,0,0,0-5-2.14.63.63,0,0,0-.7.29c-.54,1.13-.14,1.94.59,2.9.43.56,1.89,1.6,1.92,2.26,0,.94-1.21,1.47-1.95,1.48-2.31-2.22-2.43-3.69-.34-4.41a7.48,7.48,0,0,1,2.19-1.09.62.62,0,0,0-.33-1.2c-.56.08-5.74.94-4.37-.63,1-1.1,5.66.32,6.28.64s1.3-.48.76-1a18.85,18.85,0,0,1-2.64-2.21c-.92-1.28-.41-3.19,1.5-2.82s2.51,2.22,1.41,3.82c-.4.58.5,1.27,1,.75.27-.29.54-.58.83-.85l-.89-.89a48.11,48.11,0,0,0-5.75,6.92.62.62,0,0,0,.09.75c1.41,1.29,4.65,5.12,6.54,2.39s-2.07-4.67-2.86-6.73l-.44.77a12.93,12.93,0,0,0,2.44-.73c.75-.29.42-1.5-.33-1.21a13.74,13.74,0,0,1-2.44.74.62.62,0,0,0-.44.76,6.27,6.27,0,0,0,1,1.76,17.36,17.36,0,0,1,1.35,1.51l.65.91c-.62,1.8-1.37,2.13-2.25,1-1.79-.94-1.67-1.69-.79-3a32.11,32.11,0,0,1,4.07-4.94c.56-.57-.32-1.46-.89-.89-.28.28-.56.57-.82.86l1,.76c2.37-3.45-1.06-7.12-4.79-5.36-4,1.9,1,5.38,2.55,6.83l.76-1c-1.71-.88-8.12-2.36-9,.57-1,3.12,5.67,1.87,6.82,1.7l-.33-1.2c-2.9,1.13-7.69,4.15-3.54,7.23,1.69,1.25,6.11.7,5.3-2.13-.36-1.24-4.63-4.89-1.2-3.29,1.05.49,3.73,2.62,5,2.34,2.4-.52-1-3.11-1.91-3.42a.63.63,0,0,0-.7.91c1.44,2.15,4.5,4.33,7,2.23a.65.65,0,0,0,.16-.61,5,5,0,0,0-7.26-2.9.63.63,0,0,0,.31,1.17,30.67,30.67,0,0,0,4.93-.71.63.63,0,0,0,.43-.77c-.46-3.18-6-1.39-7.23.34a.58.58,0,0,0,0,.63l.21.27c.48.62,1.57,0,1.07-.63Z" transform="translate(-171.66 -140.43)"/><path class="cls-3" d="M296.76,412.1c.51-5.28,4.28-8.64,8.84-10.81,1.25-.59,3.74-1.27,4.2-3,.56-2.09-1.68-3.33-2.89-4.58s-1.32-.83-1.09-2.69c.19-1.57,1.46-4,1.19-5.46s-.37-.58-1.27-2c-1.69-2.71-1.52-1.33-.09-1.12a14.49,14.49,0,0,1,4.05,2c2.41,1.43,3.39,3.37,5.29,5.1a4.06,4.06,0,0,0,2.8,1.26c4,.13,7.14-4.2,11.27-4.23q2.31-1,3.73,1.56,3.58,1,1.53,3.21a32.57,32.57,0,0,0-1.36,3,9.67,9.67,0,0,0-.63,5.1,4.82,4.82,0,0,0,1.91,2.69c1,.75,4.94,1.35,5.29,2.25a.64.64,0,0,0,.92.37,21.33,21.33,0,0,1,6.72-2.73c1.7-.27,8.21-.17,4.09,3.21-2.67,2.18-6.93-.9-9.77.1a.63.63,0,0,0,0,1.21c.92.29,1.85.55,2.78.77q.44,5.35-2.39,2.42c-1.39-.55-2.5-2-3.81-2.73a.63.63,0,0,0-.92.7c1.17,3.82-1.86,5.34-5.09,5.32a6.37,6.37,0,0,1-2.66-.26c-1.73-1.14-1.85-5.18,1.39-5.13v-1.25c-1.22.11-5.84-.14-6.49-1.45-1-2.07,1.57-2.43,2.86-2.6,4.08-.51,7,1.3,10.3,3.47a.62.62,0,0,0,.91-.7,12,12,0,0,1-.58-3.06q-1.26-2.66,1.86-2.93,3.15-2.6,1.83.88a21.33,21.33,0,0,1-1.23,4.14.63.63,0,0,0,1.21.33c.62-2,3.64-9.2-.74-9.36-1.84-.06-3.25,1.84-3.9,3.31-1.24,2.8-.4,4.32.35,7l.92-.71c-5.55-3.69-10.22-5-16.44-1.9a.64.64,0,0,0-.29.7c1.17,3.37,6.32,4.38,9.43,4.11a.63.63,0,0,0,0-1.25c-4.53-.07-8.27,5.41-2.73,7.32,2.61.9,6.66,1,9.11-.36,2.64-1.49,2-3.44,1.19-6l-.92.71c2.06,1.21,8.81,7.67,11.43,3.21,2.18-3.72-5.06-5.37-7.05-6v1.21c1.11-.39,2.32.35,3.42.42a18.88,18.88,0,0,0,5.09-.22c1.37-.28,3.89-.79,4.51-2.34,1.33-3.34-4-3.82-6-3.77a13.05,13.05,0,0,0-6.32,1.61c-2.32,1.38-1.46,1.48-3.71.4s-4.9-.43-5.39-4.32c-.36-2.86,1.84-5.28,2.7-7.77.49-1.43,1.13-2.71.17-4.19-2.06-3.2-8.68-1.22-11.48,0-1.38.59-2.63,1.44-4,2.07-3.18,1.49-3.91.58-6.51-1.94a20.5,20.5,0,0,0-5.46-3.91c-1.54-.78-5-3.12-5.81-.73-.32.92,2.24,2.87,2.41,3.37.94,2.72-2,5.68-1.83,8.34a.63.63,0,0,0,.31.54c1.18.58,2.22.75,3,2s3.36-.9.2,3.13c-.77,1-3.3,1.42-4.34,2.06-4.08,2.51-6.83,6-7.3,10.83-.08.8,1.17.8,1.25,0Z" transform="translate(-171.66 -140.43)"/><path class="cls-3" d="M339.3,404.41a.63.63,0,0,0,0-1.25.63.63,0,0,0,0,1.25Z" transform="translate(-171.66 -140.43)"/><path class="cls-3" d="M339.3,403.16c-7.48-.35-9.86-5.28-10.31-11.94-.17-2.52-.27-5.06-2.16-7-2.42-2.44-6.41-2.69-9.61-3.24-2-.35-4-.8-6-1-2.67-.32-6.25.12-8.67-1.13-2.65-1.37-2-2.18-1-4.39,1-2.36,3.06-5.18,5.53-5.81,3.75-1,8.09.1,11.83.4,2.53.2,4.94.06,6.56-2.15.74-1,.62-2.64,1.35-3.57,3.84-4.92,7.46-.2,8.8,3.68.27.76,1.47.43,1.21-.33-1.31-3.78-2.8-7.05-7.44-7.1-5.42-.06-2.51,7.65-9.07,8.35-4.65.49-9.93-2.06-14.61-.36a5.28,5.28,0,0,0-2.66,2.28c-1.22,1.63-4.56,5.13-4.56,7,0,2.68,3,3.06,5.3,3.58,3.21.72,6.56.61,9.81,1.15,2.83.47,7.21.54,9.74,2,6.57,3.81,2.93,10.21,6.07,15.74,2,3.54,6.07,4.88,9.94,5.06.8,0,.8-1.21,0-1.25Z" transform="translate(-171.66 -140.43)"/></g></svg>