<svg id="Layer_1" data-name="Layer 1" xmlns="http://www.w3.org/2000/svg" xmlns:xlink="http://www.w3.org/1999/xlink" viewBox="0 0 446.76 369.93"><defs><style>.cls-1{fill:none;}.cls-2{clip-path:url(#clip-path);}.cls-3{fill:#bf938a;}.cls-4{fill:#231f20;}</style><clipPath id="clip-path" transform="translate(-77.04 -104.07)"><rect class="cls-1" x="16" y="16" width="566.93" height="566.93"/></clipPath></defs><title>roza1</title><g class="cls-2"><g class="cls-2"><path class="cls-3" d="M143.41,149.48C120,177.26,106.75,294.05,201.19,307.7c61.91,8.94,83.92-4.13,125.2,13.75s130-41.27,88.74-119.69-75.67-97-147.9-97.68c-53.94-.52-101.81,19.26-123.82,45.4" transform="translate(-77.04 -104.07)"/></g><g class="cls-2"><path class="cls-4" d="M77.32,395.86C84.18,402.45,91,409.08,98,415.47c3.52,3.18,7.08,6.33,10.73,9.35,1.81,1.53,3.67,3,5.51,4.49s3.71,2.94,5.63,4.33a165.19,165.19,0,0,0,24,15A189.07,189.07,0,0,0,170,459.39a271.47,271.47,0,0,0,27.38,7.35c9.25,2,18.56,3.75,27.86,3.75a52.16,52.16,0,0,0,26.49-6.58,84.62,84.62,0,0,0,11.5-7.89c1.82-1.47,3.63-3,5.36-4.57s3.52-3.14,5.2-4.78c13.67-13,25.26-28.13,35.58-44s19.32-32.69,28-49.59c4.26-8.49,8.91-16.83,12-25.76a56.54,56.54,0,0,0,3.12-13.71,35.73,35.73,0,0,0-1.38-13.84,46.31,46.31,0,0,0-2.66-6.49c-1.05-2.1-2.22-4.15-3.44-6.18-2.46-4.05-5.12-8-7.37-12.27a47.43,47.43,0,0,1-3-6.63l-1.12-3.46-.78-3.56a53.79,53.79,0,0,1-.53-14.5,73.28,73.28,0,0,1,2.87-14.17A114.64,114.64,0,0,1,340.17,219c1.89-4.4,3.94-8.73,6.11-13,1.11-2.14,2.14-4.22,3.35-6.39a20.52,20.52,0,0,1,2.17-3.17,10.57,10.57,0,0,1,3.23-2.62,9.09,9.09,0,0,1,4.15-1,15.68,15.68,0,0,1,3.94.55c1.23.32,2.4.72,3.52,1.1l3.36,1.07a136.36,136.36,0,0,0,13.63,3.54,143.62,143.62,0,0,0,28,2.76,137.83,137.83,0,0,0,27.93-2.95c2.31-.42,4.56-1.08,6.84-1.61s4.51-1.29,6.74-2,4.44-1.47,6.64-2.33l6.63-2.58A89.12,89.12,0,0,1,480.29,186a44.78,44.78,0,0,1,7.44-.93,33.72,33.72,0,0,1,7.56.62,35.08,35.08,0,0,1,23.91,17.16l.48.83.4.86.8,1.72c.49,1.16.86,2.38,1.29,3.56s.66,2.44.89,3.67l.31,1.86.15.93.07.93a47.28,47.28,0,0,1-1,14.83,54.13,54.13,0,0,1-5.11,13.85,64.48,64.48,0,0,1-8.4,12c-6.39,7.39-14,13.42-21.84,18.94-3.91,2.76-7.89,5.4-11.86,8s-7.94,5.25-12,7.8c-2,1.28-4.07,2.53-6.14,3.74s-4.16,2.38-6.37,3.48a23.77,23.77,0,0,1-7.21,2.07l-3.51.54-3.55.51c-4.74.65-9.46,1.41-14.23,1.79s-9.53.72-14.31.86c-9.56.32-19.06-.31-28.52.17a83.87,83.87,0,0,0-14,1.79,52.11,52.11,0,0,0-13.3,4.79L352,312a51.81,51.81,0,0,1,13.29-5.31,84.92,84.92,0,0,1,14.17-2.22c9.54-.75,19.08-.42,28.53-.91q7.08-.35,14.15-1.13c4.71-.48,9.36-1.34,14-2.08l3.5-.57,3.53-.61a20.84,20.84,0,0,0,6.41-2c2-1.06,4.06-2.23,6.08-3.46s4-2.47,6-3.76c4-2.57,7.89-5.25,11.83-7.92s7.85-5.34,11.67-8.11c7.63-5.53,15-11.5,20.94-18.6A63.06,63.06,0,0,0,514,244a50.75,50.75,0,0,0,4.66-12.87,43.07,43.07,0,0,0,.82-13.52l-.07-.84-.14-.83-.28-1.66c-.21-1.1-.55-2.17-.81-3.26s-.72-2.11-1.16-3.13l-.71-1.51-.35-.76-.43-.71a31,31,0,0,0-21-15.07,33.13,33.13,0,0,0-13.33.29,88.79,88.79,0,0,0-13.28,4.15l-6.68,2.54c-2.24.85-4.56,1.56-6.84,2.34s-4.63,1.38-7,2-4.68,1.2-7.05,1.61a140.91,140.91,0,0,1-28.74,2.83,144,144,0,0,1-28.69-3.06c-4.7-1.08-9.37-2.26-13.93-3.8l-3.43-1.15c-1.12-.4-2.2-.78-3.26-1.07a8.15,8.15,0,0,0-5.84.12,11,11,0,0,0-4.16,4.51c-1.13,2-2.24,4.14-3.35,6.21-2.22,4.19-4.33,8.42-6.28,12.71a116.67,116.67,0,0,0-5.09,13.15,71.19,71.19,0,0,0-3,13.69,51.57,51.57,0,0,0,.28,13.93l.69,3.42,1,3.33a43.85,43.85,0,0,0,2.74,6.44c2.13,4.19,4.7,8.19,7.12,12.3,1.22,2.06,2.4,4.15,3.46,6.3a50.19,50.19,0,0,1,2.71,6.72,37.57,37.57,0,0,1,1.35,14.37,57.73,57.73,0,0,1-3.28,14c-3.24,9-7.79,17.44-12,25.94s-8.61,17-13.12,25.36-9.15,16.71-14.17,24.83-10.4,16-16.21,23.62a203.1,203.1,0,0,1-18.93,21.6c-1.7,1.69-3.5,3.28-5.25,4.92s-3.58,3.21-5.44,4.75A81.77,81.77,0,0,1,253.51,467a52.39,52.39,0,0,1-13.67,5.43A58.86,58.86,0,0,1,225.27,474c-9.75-.08-19.26-1.95-28.56-4a277.39,277.39,0,0,1-27.64-7.66A173.71,173.71,0,0,1,142.66,451a167.83,167.83,0,0,1-24-15.69A257.43,257.43,0,0,1,97.1,416.46C90.24,409.85,83.61,403,77,396.15Z" transform="translate(-77.04 -104.07)"/><path class="cls-4" d="M343.93,297.93a70.21,70.21,0,0,1-8.79-10.12L333.25,285c-.62-.94-1.16-1.93-1.74-2.89s-1.12-1.95-1.64-2.95-1.06-2-1.5-3a77.36,77.36,0,0,1-4.66-12.71,67,67,0,0,1-2.3-13.34c-.2-2.25-.19-4.51-.19-6.76s.18-4.51.48-6.74.57-4.45.82-6.61a21.15,21.15,0,0,0-.13-6.41,10.3,10.3,0,0,0-2.94-5.43,6.39,6.39,0,0,0-5.54-1.85,17.79,17.79,0,0,0-5.76,2.65,53.89,53.89,0,0,0-5.35,3.74,57.37,57.37,0,0,0-9.11,9.19,31.36,31.36,0,0,0-3.47,5.25,16,16,0,0,0-1.82,5.63,9.34,9.34,0,0,0,1,5.36,13.35,13.35,0,0,0,3.77,4.31c3.19,2.49,7.19,4.37,11.09,6.71a113.32,113.32,0,0,1,37.94,37.41l-.33.23a149.89,149.89,0,0,0-39.78-34l-5.75-3.26a37.68,37.68,0,0,1-5.8-3.89,17.25,17.25,0,0,1-4.7-5.8,13.28,13.28,0,0,1-1.13-7.56,16.54,16.54,0,0,1,.92-3.6,20.66,20.66,0,0,1,1.53-3.26,31,31,0,0,1,4.13-5.63,55.64,55.64,0,0,1,10.26-8.89,58.84,58.84,0,0,1,5.8-3.47c1-.52,2-1,3.05-1.47a12.51,12.51,0,0,1,3.36-1,7.45,7.45,0,0,1,3.59.4,8.84,8.84,0,0,1,3,1.91,12.13,12.13,0,0,1,3.37,6,25.25,25.25,0,0,1,.5,6.81c-.08,2.25-.28,4.44-.26,6.63a84.54,84.54,0,0,0,.82,13,100.05,100.05,0,0,0,6.49,25.14,101.93,101.93,0,0,0,5.73,11.75,120.33,120.33,0,0,0,7.29,11Z" transform="translate(-77.04 -104.07)"/><path class="cls-4" d="M353.35,312.29a8.46,8.46,0,0,1-4.08-.9,23.07,23.07,0,0,1-3.56-2.12,66.37,66.37,0,0,0-6.83-4.37c-4.71-2.65-9.67-4.85-14.61-7.17s-9.74-4.91-14.67-7.13A104.47,104.47,0,0,0,294.54,285a63.66,63.66,0,0,0-7.78-1.63,48.32,48.32,0,0,0-7.87-.44c-5.25.1-10.56,1.17-16,1.87a55.63,55.63,0,0,1-8.41.53,27.59,27.59,0,0,1-8.56-1.47,21.32,21.32,0,0,1-7.55-4.56,26.35,26.35,0,0,1-5.18-7,42.22,42.22,0,0,1-4.26-16.3c-.42-5.53-.23-11-.38-16.4a76.64,76.64,0,0,0-.6-8,51.64,51.64,0,0,0-1.72-7.83,122.33,122.33,0,0,0-6.05-15.06,143.69,143.69,0,0,1-6.31-15.14,50,50,0,0,1-2.67-16.26,28,28,0,0,1,5-15.79c3.33-4.59,8-7.84,12.51-10.87,2.27-1.52,4.52-3,6.67-4.62l6.51-4.94a61.57,61.57,0,0,1,7-4.58,31,31,0,0,1,8-3.06c5.61-1.25,11.33-1,16.78-.5s10.82,1.24,16.07,1.14a39,39,0,0,0,7.7-1,65.9,65.9,0,0,0,7.58-2.33c5.05-1.82,10.12-4.05,15.71-5.31a32,32,0,0,1,8.66-.82,31,31,0,0,1,8.54,1.69c5.4,1.79,10.2,4.32,15.21,5.56a62.06,62.06,0,0,0,15.66,1.85c5.36.08,10.8-.2,16.3-.17a78.6,78.6,0,0,1,16.62,1.5,47.18,47.18,0,0,1,15.54,6.48,49.41,49.41,0,0,1,12.34,11.3,51.29,51.29,0,0,1,8,14.58,45.07,45.07,0,0,1,2.58,16.35,21.67,21.67,0,0,1-1.9,8.11,10.3,10.3,0,0,1-6,5.62l-.13-.38a9.76,9.76,0,0,0,5.28-5.6,20.46,20.46,0,0,0,1.42-7.79,45.9,45.9,0,0,0-3.18-15.61,49.6,49.6,0,0,0-20.13-23.94,44,44,0,0,0-14.58-5.7,74.27,74.27,0,0,0-15.89-1.06c-5.38.11-10.83.44-16.36.41A66.51,66.51,0,0,1,352,136c-5.6-1.39-10.52-4-15.47-5.64a27,27,0,0,0-7.42-1.5,29.38,29.38,0,0,0-7.55.65c-5.08,1.07-10.07,3.16-15.27,5a68.74,68.74,0,0,1-8.06,2.37,43.48,43.48,0,0,1-8.49,1,139.72,139.72,0,0,1-16.49-1.39c-5.35-.62-10.67-.93-15.74.09s-9.66,3.72-14.08,6.76L236.74,148c-2.26,1.58-4.61,3-6.9,4.46-4.58,2.87-9.11,5.87-12.33,10.06a24,24,0,0,0-3.65,7,29.62,29.62,0,0,0-1.34,7.84A47.06,47.06,0,0,0,215,193.14a127.81,127.81,0,0,0,6.33,15,134.65,134.65,0,0,1,6.43,15.11,52.4,52.4,0,0,1,2.07,8,76.24,76.24,0,0,1,.91,8.22c.35,5.48.35,10.93.94,16.24a40.38,40.38,0,0,0,4.41,15,22.68,22.68,0,0,0,4.62,6,18.54,18.54,0,0,0,6.36,3.76c4.73,1.66,10.06,1.39,15.36.78s10.75-1.68,16.4-1.75h2.12l2.11.14c.7,0,1.4.11,2.1.2s1.39.16,2.08.28A66.68,66.68,0,0,1,295.4,282c10.68,3.18,20.31,8.72,29.81,13.84,4.84,2.48,9.72,5,14.37,7.91a71.07,71.07,0,0,1,6.69,4.78,25.3,25.3,0,0,0,3.31,2.28,8,8,0,0,0,3.75,1.1Z" transform="translate(-77.04 -104.07)"/></g></g></svg>