<svg id="Layer_1" data-name="Layer 1" xmlns="http://www.w3.org/2000/svg" xmlns:xlink="http://www.w3.org/1999/xlink" viewBox="0 0 486.15 364.6"><defs><style>.cls-1{fill:none;}.cls-2{clip-path:url(#clip-path);}.cls-3{fill:#bf938a;}.cls-4{fill:#231f20;}</style><clipPath id="clip-path" transform="translate(-54.5 -93.42)"><rect class="cls-1" x="14.17" y="14.17" width="566.93" height="566.93"/></clipPath></defs><title>roza3</title><g class="cls-2"><g class="cls-2"><path class="cls-3" d="M184.12,93.89c45.79,3.81,87.88,38.38,119.73,79.29,14.35,18.44,33.66,37.68,38,56.81,5.05,22-7.64,42.94-15.23,59.05-11.07,23.53-24,104.68-79.92,109.77-91.35,8.31-74.29-67.41-93.54-118.07-5.39-14.17-54.78-51.66-64.68-93.8-11.06-47.11,24.15-99,95.59-93" transform="translate(-54.5 -93.42)"/></g><g class="cls-2"><path class="cls-4" d="M540.3,389.62c-25.61-44-62.42-81-105.4-107.7a314.1,314.1,0,0,0-142.72-47.2c-3.15-.18-6.33-.4-9.45-.55a25,25,0,0,0-8.85,1,8,8,0,0,0-5.46,5.48c-.78,2.68-.68,5.94-.88,9.11l-1.74,38.13-.43,9.53-.22,4.75a14.87,14.87,0,0,0,.45,4.4,4,4,0,0,0,2.24,2.92,3.81,3.81,0,0,0,3.58-.81,17.37,17.37,0,0,0,3.2-3.21,45.08,45.08,0,0,0,3-3.66c7.56-10,11.84-22.37,13.25-34.87a94.66,94.66,0,0,0-3.43-37.48A130,130,0,0,0,271,195.33a224.2,224.2,0,0,0-23.8-29.62c-4.35-4.62-8.75-9.2-13.81-12.88s-10.92-6.31-17-6.14l.86-1.54q20,34.15,42.44,66.8l11.25,16.33a125.72,125.72,0,0,1,10.07,17.35,80.25,80.25,0,0,1,6,19.3A104.9,104.9,0,0,1,288.36,285c-.2,13.41-2.41,26.61-5,39.59a333.41,333.41,0,0,1-10.22,38.51A262,262,0,0,1,257.81,400c-3,6-6.28,11.75-9.81,17.43a128.38,128.38,0,0,1-11.89,16.23,87.94,87.94,0,0,1-14.89,13.74,56.87,56.87,0,0,1-18.4,8.89,49.11,49.11,0,0,1-20.47,1.19,53.09,53.09,0,0,1-10-2.53c-1.58-.64-3.2-1.21-4.72-2-.77-.36-1.55-.7-2.3-1.09l-2.25-1.18a140.55,140.55,0,0,1-16.74-11.07c-5.3-4-10.54-8-15.79-12-10.47-8.11-20.79-16.61-29.75-26.54a103.79,103.79,0,0,1-12.11-16c-3.42-5.79-6-12.31-6.51-19.19a39,39,0,0,1,4-19.83,50.84,50.84,0,0,1,5.25-8.63,58.46,58.46,0,0,1,6.68-7.54,75.88,75.88,0,0,1,16.3-11.6c5.84-3.19,11.92-5.82,17.93-8.54A157,157,0,0,0,150,300.76a62.55,62.55,0,0,0,15.12-12.52l.31.25a62.28,62.28,0,0,1-15,13,159.26,159.26,0,0,1-17.52,9.37c-6,2.85-12,5.6-17.65,8.86a76.28,76.28,0,0,0-15.71,11.56,56.11,56.11,0,0,0-6.32,7.38A48.83,48.83,0,0,0,88.34,347a36.57,36.57,0,0,0-3.48,18.61c.52,6.34,3,12.4,6.4,17.89a103.11,103.11,0,0,0,11.91,15.41c8.85,9.62,19.08,17.91,29.56,25.87,5.25,4,10.57,7.92,15.85,11.83A136.13,136.13,0,0,0,165,447.24l2.15,1.11c.72.36,1.45.67,2.18,1,1.45.71,3,1.21,4.44,1.8a49.33,49.33,0,0,0,9.22,2.29,44.83,44.83,0,0,0,18.79-1.17,52.63,52.63,0,0,0,17-8.33,84.2,84.2,0,0,0,14.1-13.13,124.66,124.66,0,0,0,11.52-15.7c3.44-5.53,6.68-11.24,9.63-17.08s5.73-11.78,8.23-17.83,4.86-12.18,6.94-18.4a331.25,331.25,0,0,0,10.29-38c2.67-12.86,4.9-25.84,5.17-38.87a102.09,102.09,0,0,0-1.31-19.39,77.83,77.83,0,0,0-5.54-18.5c-5.34-11.8-13.49-22.31-20.74-33.37q-22.06-33-41.66-67.5l-.87-1.52,1.73,0a25.4,25.4,0,0,1,9.69,1.87,37.46,37.46,0,0,1,8.46,4.85c5.2,3.88,9.6,8.59,13.91,13.27a235.9,235.9,0,0,1,23.77,30,132.59,132.59,0,0,1,16.47,34.48,95.88,95.88,0,0,1,3.7,38A74.37,74.37,0,0,1,279,302.81a45.83,45.83,0,0,1-3,3.8,19.14,19.14,0,0,1-3.47,3.57,7.26,7.26,0,0,1-2.44,1.22,4.88,4.88,0,0,1-5.27-1.84,7.93,7.93,0,0,1-1.19-2.45,16.85,16.85,0,0,1-.61-5l.14-4.79.3-9.53,1.18-38.15.16-4.79a22.63,22.63,0,0,1,.7-5.05,11.66,11.66,0,0,1,1-2.53,10.27,10.27,0,0,1,.77-1.17,9.34,9.34,0,0,1,.91-1.07,12,12,0,0,1,4.61-2.86,27.94,27.94,0,0,1,10-1.26c3.23.13,6.4.32,9.6.48a286.3,286.3,0,0,1,38,5.05,294.05,294.05,0,0,1,37,9.94,320.93,320.93,0,0,1,69,33,315.35,315.35,0,0,1,59.07,48.52,292.39,292.39,0,0,1,24.55,29.33,283,283,0,0,1,20.5,32.23Z" transform="translate(-54.5 -93.42)"/><path class="cls-4" d="M265.14,234.11a128.59,128.59,0,0,1-35.24-38.32c-2.24-3.77-4.33-7.63-6.22-11.6A98,98,0,0,0,217.5,173,115.25,115.25,0,0,0,210,162.67a87.75,87.75,0,0,0-8.77-9.21A58.12,58.12,0,0,0,191.09,146l-2.81-1.44c-.94-.46-1.93-.81-2.89-1.22a36,36,0,0,0-6.06-1.77,79.45,79.45,0,0,0-12.76-1.37c-4.32-.14-8.65-.2-13-.14a268,268,0,0,0-51.48,5.83,68.57,68.57,0,0,0-12.18,3.77,37.11,37.11,0,0,0-10.5,6.69,42.24,42.24,0,0,0-12.25,21.32A46.9,46.9,0,0,0,66,190a53.19,53.19,0,0,0,2,12.33,68.24,68.24,0,0,0,11.32,22.36,59.71,59.71,0,0,0,8.42,9.3,36.31,36.31,0,0,0,10.37,6.52A25.83,25.83,0,0,0,110,242.36a22.66,22.66,0,0,0,3-.48c1-.22,1.91-.59,2.87-.9a26.42,26.42,0,0,0,5.27-3,36.69,36.69,0,0,0,4.53-4.21,51.07,51.07,0,0,0,3.84-5,83.47,83.47,0,0,0,6.12-11.25,79.16,79.16,0,0,0,4.66-12,27.21,27.21,0,0,0,.68-12.68l.38-.1a26.52,26.52,0,0,1,.19,13.07,70.73,70.73,0,0,1-4.05,12.5,86.24,86.24,0,0,1-5.77,11.84,52.56,52.56,0,0,1-3.83,5.5,35.85,35.85,0,0,1-4.82,4.8,28.38,28.38,0,0,1-5.91,3.6,23.81,23.81,0,0,1-6.73,1.82,29.28,29.28,0,0,1-13.64-1.77,38.19,38.19,0,0,1-11.67-7,63.75,63.75,0,0,1-9.14-9.82A72.94,72.94,0,0,1,68.8,216,62.63,62.63,0,0,1,64,203.44,57.52,57.52,0,0,1,62,190.13a50.43,50.43,0,0,1,1.51-13.41,44.49,44.49,0,0,1,13.8-22.8,39.65,39.65,0,0,1,5.49-4,42.64,42.64,0,0,1,6.08-2.87,70.52,70.52,0,0,1,12.78-3.4c8.6-1.52,17.22-2.51,25.88-3.36s17.32-1.37,26-1.62q6.52-.19,13-.2a80.62,80.62,0,0,1,13.13.82,42.63,42.63,0,0,1,12.68,4.16,58,58,0,0,1,11,7.47,86.22,86.22,0,0,1,17.06,20.17,101.8,101.8,0,0,1,6.27,11.64c1.76,3.9,3.7,7.73,5.81,11.46a147.21,147.21,0,0,0,32.8,39.56Z" transform="translate(-54.5 -93.42)"/><path class="cls-4" d="M104.16,317.7c-2.84-.85-5.72-.54-8.64-.2a27.37,27.37,0,0,1-9.31.07,11.63,11.63,0,0,1-4.69-2.08,9.57,9.57,0,0,1-3.11-4.35,18,18,0,0,1-1-4.79,42,42,0,0,1-.11-4.62c.21-6.13,1.67-12,2.3-17.87A59.42,59.42,0,0,0,80,275a44.18,44.18,0,0,0-1.31-8.67l-1.25-4.2c-.53-1.36-1-2.73-1.53-4.09l-1.71-4c-.59-1.34-1.24-2.66-1.85-4-2.57-5.27-5.53-10.4-8.22-15.74a113.21,113.21,0,0,1-7.05-16.63,48.24,48.24,0,0,1-2.47-17.92l.4,0c1.77,11.85,7.33,22.18,12.91,32.61,2.78,5.23,5.49,10.58,7.87,16.13.56,1.41,1.17,2.79,1.69,4.21s1,2.87,1.47,4.32.77,2.95,1.12,4.42.52,3,.77,4.5.25,3,.41,4.54c.09.75.07,1.51.1,2.26s0,1.51,0,2.27c0,3-.24,6-.43,9a148.06,148.06,0,0,0-.24,17.72l.14,2.16L81,306a18.5,18.5,0,0,0,.74,3.94,6.49,6.49,0,0,0,1.9,2.91A8.41,8.41,0,0,0,87,314.56a20.25,20.25,0,0,0,4.06.69c1.4.08,2.89.07,4.39.12a29.47,29.47,0,0,1,4.57.39,12.7,12.7,0,0,1,4.34,1.57Z" transform="translate(-54.5 -93.42)"/><path class="cls-4" d="M234.87,224a19.58,19.58,0,0,1,6.52,7.72,26.57,26.57,0,0,1,1.76,4.83,32.14,32.14,0,0,1,.85,5.07,37.89,37.89,0,0,1-.46,10.25,54.91,54.91,0,0,1-2.74,9.85,65.64,65.64,0,0,1-4.39,9.24,76.89,76.89,0,0,1-5.74,8.44,80.31,80.31,0,0,1-14.5,14.22,127.58,127.58,0,0,1-17,10.78q-4.42,2.37-9,4.51c-1.51.72-3,1.46-4.55,2.14a10.7,10.7,0,0,1-5.18,1,6,6,0,0,1-2.61-.95,7.57,7.57,0,0,1-1.91-1.92,19.89,19.89,0,0,1-2.21-4.64,68.79,68.79,0,0,1-2.7-9.7c-1.35-6.57-2.16-13.21-3.3-19.72-2.28-13-7.39-25.36-9.44-38.84a62,62,0,0,1-.11-20.53,43.62,43.62,0,0,1,1.26-5.1,33.36,33.36,0,0,1,2-4.92,22.72,22.72,0,0,1,7-8.36A19.93,19.93,0,0,1,178.89,194a29.15,29.15,0,0,1,10.52,1.46,70,70,0,0,1,9.47,3.94l8.94,4.45c3,1.47,5.94,3,8.92,4.5a96.64,96.64,0,0,1,8.76,5,38.91,38.91,0,0,1,7.77,6.55,23.38,23.38,0,0,1,5,8.73l-.38.14a24.09,24.09,0,0,0-5.59-8,43,43,0,0,0-7.91-5.72c-5.67-3.26-11.9-5.64-18-8.41l-9.11-4.06a66.43,66.43,0,0,0-9.06-3.45,26.69,26.69,0,0,0-9.16-1.08,15.56,15.56,0,0,0-8.23,2.83,18.91,18.91,0,0,0-5.67,6.84,34.58,34.58,0,0,0-3,8.85,58,58,0,0,0-.27,19.2,193.23,193.23,0,0,0,4,19.34,173.34,173.34,0,0,1,3.86,19.71c.89,6.64,1.24,13.29,2.47,19.78a57.61,57.61,0,0,0,2.52,9.55,16.25,16.25,0,0,0,2.07,4.34,5,5,0,0,0,3.64,2.3,9.07,9.07,0,0,0,4.46-1.07c1.45-.7,2.95-1.49,4.4-2.28,2.9-1.6,5.78-3.25,8.59-5A134,134,0,0,0,214.1,291a97.89,97.89,0,0,0,13.79-13.82,70.84,70.84,0,0,0,5.59-8,64.15,64.15,0,0,0,4.44-8.65,58.55,58.55,0,0,0,3-9.24,39.19,39.19,0,0,0,1-9.6,35.46,35.46,0,0,0-.48-4.81,25.89,25.89,0,0,0-1.3-4.65,19.73,19.73,0,0,0-5.48-8Z" transform="translate(-54.5 -93.42)"/></g></g></svg>