<svg id="Layer_1" data-name="Layer 1" xmlns="http://www.w3.org/2000/svg" xmlns:xlink="http://www.w3.org/1999/xlink" viewBox="0 0 351.67 416.2"><defs><style>.cls-1{fill:none;}.cls-2{clip-path:url(#clip-path);}.cls-3{fill:#bf938a;}.cls-4{fill:#231f20;}</style><clipPath id="clip-path" transform="translate(-143.12 -119.22)"><rect class="cls-1" x="14.17" y="14.17" width="566.93" height="566.93"/></clipPath></defs><title>roza4</title><g class="cls-2"><g class="cls-2"><path class="cls-3" d="M241.25,164.93c-25.25,35.5-29.38,79.43-11,124.51,12.22,30,34.52,72,79.11,80.48,86.67,16.51,129.84,2.31,162.34-47.46,12.76-19.53,62.93-93.92-42.65-110.07-33.58-5.14-17.19-44.71-55-74.29C319.57,95.54,263.26,134,241.25,164.93" transform="translate(-143.12 -119.22)"/></g><g class="cls-2"><path class="cls-4" d="M381.39,535.43q-35.62-80.17-70.48-160.65a27.25,27.25,0,0,1-1.61-5.58,13.12,13.12,0,0,1,.39-6.16,10.86,10.86,0,0,1,3.71-5.14,8.07,8.07,0,0,1,3.05-1.42,7,7,0,0,1,3.5.11,6.49,6.49,0,0,1,3,1.84,7.83,7.83,0,0,1,1.73,2.92,11.06,11.06,0,0,1,.16,6.34,10.39,10.39,0,0,1-1.3,3,8.54,8.54,0,0,1-1,1.31,14.56,14.56,0,0,1-1.16,1.08,15.91,15.91,0,0,1-5.37,2.81,44.87,44.87,0,0,1-11.24,1.53q-5.49.3-11,.48-11,.39-22,.37-22,0-43.93-1.79c-7.31-.58-14.65-1.28-21.93-2.59a100.42,100.42,0,0,1-21.4-6.09,29.85,29.85,0,0,1-5.16-2.62,12.73,12.73,0,0,1-4.27-4.52,10.29,10.29,0,0,1-1.09-6.26,15.73,15.73,0,0,1,2-5.69,36.28,36.28,0,0,1,7.4-8.66c2.73-2.45,5.47-4.89,8.24-7.28a422.75,422.75,0,0,1,34.66-27,345.85,345.85,0,0,1,37.51-22.88,217.38,217.38,0,0,1,19.88-9.4,96.64,96.64,0,0,1,21.18-6.07,52.68,52.68,0,0,1,5.46-.75c1.83-.19,3.66-.45,5.5-.46l5.51-.18,5.51.18c1.84,0,3.66.29,5.49.44s3.66.33,5.47.65,3.63.55,5.43.85l5.4,1.11c14.33,3.17,28.16,8.24,41.61,14,6.73,2.87,13.39,5.9,20,9a46.49,46.49,0,0,1,5,2.49,7.46,7.46,0,0,1,2.2,2.11,4.48,4.48,0,0,1,.65,3.17,10.46,10.46,0,0,1-1,2.78L416,305.22l-1.2,2.49-1.34,2.42a108.4,108.4,0,0,1-68.31,52.56,10.35,10.35,0,0,1-3.13.2,6.62,6.62,0,0,1-3.19-1.19,6.2,6.2,0,0,1-2.17-2.68,9.15,9.15,0,0,1-.74-3.13,16.69,16.69,0,0,1,.77-5.93,19.51,19.51,0,0,1,1.06-2.75,10.75,10.75,0,0,1,.66-1.27l.69-1.22a84,84,0,0,1,13.16-17.94c2.49-2.76,5.29-5.19,8-7.69l4.34-3.48,1.08-.87,1.13-.81,2.26-1.61a155,155,0,0,1,19-11.41c6.55-3.37,13.26-6.42,20.08-9.16s13.69-5.32,20.6-7.73c1.74-.63,3.44-1.18,5.07-1.85a49.77,49.77,0,0,0,4.8-2.21,30.52,30.52,0,0,0,4.39-2.73,17.74,17.74,0,0,0,3.59-3.42,10.34,10.34,0,0,0,2.08-4.11,9.69,9.69,0,0,0,0-4.48c-.74-2.94-3-5.49-5.74-7.48a47.33,47.33,0,0,0-9.23-5,84.49,84.49,0,0,0-10.06-3.64,66.22,66.22,0,0,0-21-2.77c-7.11.22-14.23,1.48-21.41,2.76s-14.42,2.53-21.65,3.68q-21.69,3.48-43.49,6.15t-43.69,4.44l-5.48.44c-1.81.14-3.69.3-5.64.29a19.53,19.53,0,0,1-6-.85,12.34,12.34,0,0,1-5.44-3.44,15.24,15.24,0,0,1-3.15-5.41,26.53,26.53,0,0,1-1.23-5.78,49.81,49.81,0,0,1-.25-5.7c0-1.84,0-3.69.12-5.53a164.88,164.88,0,0,1,2.22-22,124.16,124.16,0,0,1,5.71-21.48A97.37,97.37,0,0,1,263.34,174a78.33,78.33,0,0,1,15.1-16.43,70.52,70.52,0,0,1,19.29-11.2,27.67,27.67,0,0,1,2.65-.92l2.67-.85,2.73-.65a25.8,25.8,0,0,1,2.75-.57l2.77-.44c.92-.17,1.86-.17,2.8-.26s1.86-.19,2.8-.17l2.81,0c.47,0,.93,0,1.4,0l1.4.13,2.8.26c1.83.3,3.68.56,5.49,1s3.61.9,5.4,1.39,3.54,1.15,5.25,1.87a61.08,61.08,0,0,1,26.43,19.82,61.33,61.33,0,0,1,5.84,9.45,79.79,79.79,0,0,1,6.88,21,142.45,142.45,0,0,1,2.12,21.88c.18,7.33,0,14.64-.27,21.94h-.4c.14-14.58.19-29.29-2.72-43.56a78.11,78.11,0,0,0-7.12-20.44,61.08,61.08,0,0,0-5.82-9.07,59.5,59.5,0,0,0-7.4-7.82,63.09,63.09,0,0,0-39.34-15.21l-2.67,0c-.89,0-1.77.14-2.66.2s-1.78.11-2.66.28l-2.63.45a26.48,26.48,0,0,0-2.61.58l-2.59.66-2.54.84a25.14,25.14,0,0,0-2.51.92A68.79,68.79,0,0,0,280.42,160a75,75,0,0,0-14.33,15.85,94.23,94.23,0,0,0-9.58,19.22A121.41,121.41,0,0,0,251.15,216a160.28,160.28,0,0,0-2,21.56c-.07,1.8,0,3.61-.08,5.42a45.34,45.34,0,0,0,.27,5.25c.39,3.4,1.35,6.72,3.4,8.9s5.11,3,8.53,3c1.7,0,3.47-.14,5.3-.3l5.45-.46q21.79-1.89,43.52-4.59c14.48-1.8,28.93-3.81,43.33-6.12,7.21-1.14,14.39-2.38,21.58-3.65a148,148,0,0,1,22-2.74,70.4,70.4,0,0,1,22.27,3,89.87,89.87,0,0,1,10.51,3.87,50.38,50.38,0,0,1,10,5.47,22.75,22.75,0,0,1,4.34,4.11,14.89,14.89,0,0,1,2.83,5.58,12.26,12.26,0,0,1,.39,3.18v.8l-.1.8a9.43,9.43,0,0,1-.27,1.59,14.17,14.17,0,0,1-2.82,5.58,21.87,21.87,0,0,1-4.34,4.11,34.35,34.35,0,0,1-4.91,3,51,51,0,0,1-5.17,2.35c-1.75.7-3.53,1.28-5.23,1.88-6.89,2.37-13.73,4.88-20.47,7.58s-13.38,5.65-19.85,8.91a148.94,148.94,0,0,0-18.65,11l-2.22,1.55-1.11.78-1.06.83-4.24,3.35c-2.67,2.4-5.42,4.74-7.84,7.39a80,80,0,0,0-12.83,17.2c-.43.77-1,1.57-1.31,2.31a17.14,17.14,0,0,0-.93,2.35,14,14,0,0,0-.71,4.87,6.27,6.27,0,0,0,.47,2.18,3.39,3.39,0,0,0,1.21,1.54,5.12,5.12,0,0,0,4.19.59c.82-.15,1.69-.38,2.56-.63l2.6-.73c1.75-.45,3.45-1.06,5.15-1.65.85-.3,1.71-.58,2.55-.89l2.51-1,2.5-1c.82-.37,1.63-.77,2.45-1.16A107.34,107.34,0,0,0,383.5,341.7,105.71,105.71,0,0,0,412,309.29l1.34-2.36,1.2-2.44,1.21-2.44a9.28,9.28,0,0,0,.88-2.36,2.85,2.85,0,0,0-.4-2.07,5.86,5.86,0,0,0-1.73-1.66,43.4,43.4,0,0,0-4.77-2.43c-6.61-3.13-13.24-6.18-19.94-9.07-13.38-5.77-27.11-10.87-41.32-14.07s-29-4.19-43.27-1.68a96.39,96.39,0,0,0-20.85,6.1,203,203,0,0,0-19.67,9.47,343.2,343.2,0,0,0-37,23.24,422.12,422.12,0,0,0-34.1,27.32q-4.1,3.62-8.09,7.34a33.29,33.29,0,0,0-6.7,8c-1.67,2.93-2.33,6.28-.8,8.92a9.37,9.37,0,0,0,3.25,3.29,26.9,26.9,0,0,0,4.62,2.3,97.27,97.27,0,0,0,20.72,5.73c7.12,1.21,14.34,1.9,21.61,2.47q21.78,1.67,43.66,1.83,10.94.06,21.86-.25,5.46-.17,10.92-.43A42.05,42.05,0,0,0,315,372.72a13,13,0,0,0,4.3-2.21,8.1,8.1,0,0,0,.85-.79,5,5,0,0,0,.66-.84,6.76,6.76,0,0,0,.9-2,7.78,7.78,0,0,0-.07-4.46,3.93,3.93,0,0,0-2.6-2.74,4.21,4.21,0,0,0-3.8.8,7.75,7.75,0,0,0-2.62,3.6,10.26,10.26,0,0,0-.28,4.68,24.05,24.05,0,0,0,1.41,4.93l34.13,80.72,17,40.42,16.88,40.47Z" transform="translate(-143.12 -119.22)"/><path class="cls-4" d="M179,337.85a20.69,20.69,0,0,1-4.69,1,21.2,21.2,0,0,1-4.84-.1,25.62,25.62,0,0,1-9.19-3.15,27.94,27.94,0,0,1-4.05-2.78,29.5,29.5,0,0,1-3.5-3.48,35,35,0,0,1-5.19-8.32,52.3,52.3,0,0,1-4.26-18.9,131.18,131.18,0,0,1,.69-19.06c.62-6.26,1.12-12.49,1.39-18.76.13-3.13.22-6.27.25-9.41s0-6.28-.16-9.42c-.25-6.28-.91-12.52-1.42-18.82s-.84-12.64,0-19.08a6.87,6.87,0,0,1,.89-2.65,5.19,5.19,0,0,1,2.28-2,19.87,19.87,0,0,1,2.38-.85,11.33,11.33,0,0,0,1.94-.83,14.73,14.73,0,0,0,5.55-6.36,87.33,87.33,0,0,0,3.57-8.53q1.74-4.45,3.88-8.77a73.4,73.4,0,0,1,10.67-16.15,49.59,49.59,0,0,1,7.21-6.67,43.1,43.1,0,0,1,8.54-5,38.26,38.26,0,0,1,19.46-3.16,30.35,30.35,0,0,1,9.63,2.74,35.82,35.82,0,0,1,8.16,5.55c4.88,4.33,8.67,9.41,12.87,14,2.1,2.33,4.22,4.64,6.4,6.9s4.43,4.45,6.7,6.64l-.26.3c-2.51-1.91-4.94-3.93-7.33-6s-4.73-4.21-7-6.44c-4.53-4.44-8.7-9.19-13.44-13A28.85,28.85,0,0,0,210,150.53a35.19,35.19,0,0,0-17.34,3.2,40.59,40.59,0,0,0-7.71,4.53,53.23,53.23,0,0,0-6.69,6.07,69.56,69.56,0,0,0-10.4,15c-1.44,2.73-2.73,5.55-3.95,8.4a79.09,79.09,0,0,1-4,8.74,22.73,22.73,0,0,1-3,4.1,13.92,13.92,0,0,1-4.17,3.14,13.69,13.69,0,0,1-2.45.89,17.59,17.59,0,0,0-2.11.61,2.79,2.79,0,0,0-1.33,1,4.78,4.78,0,0,0-.69,1.77,65.15,65.15,0,0,0-.93,9.22c-.13,3.12-.06,6.25.12,9.38.33,6.27,1,12.55,1.35,18.84.2,3.15.38,6.3.52,9.46s.26,6.31.32,9.47c.12,6.31,0,12.66-.29,19s-.71,12.51-.47,18.66a58.81,58.81,0,0,0,1,9.11,44.36,44.36,0,0,0,2.53,8.73,35,35,0,0,0,4.44,7.86,27,27,0,0,0,6.57,6.13c5,3.32,11.36,5,17.49,3.64Z" transform="translate(-143.12 -119.22)"/></g></g></svg>