<svg id="Layer_1" data-name="Layer 1" xmlns="http://www.w3.org/2000/svg" xmlns:xlink="http://www.w3.org/1999/xlink" viewBox="0 0 464.64 461.18"><defs><style>.cls-1{fill:none;}.cls-2{clip-path:url(#clip-path);}.cls-3{fill:#bf938a;}.cls-4{fill:#231f20;}</style><clipPath id="clip-path" transform="translate(-81.94 -68.53)"><rect class="cls-1" x="16" y="16" width="566.93" height="566.93"/></clipPath></defs><title>roza2</title><g class="cls-2"><g class="cls-2"><path class="cls-3" d="M382.67,106.76C409,43.55,557.2,104.27,546,227.68S448.33,365.22,360.23,349.85C208.26,323.32,203,205,266.74,203.16c72.72-2.08,86-24.51,115.93-96.4" transform="translate(-81.94 -68.53)"/></g><g class="cls-2"><path class="cls-4" d="M81.94,529.45A473,473,0,0,1,251.33,402.09c16.26-7.26,32.95-13.56,47.89-22.91A107.64,107.64,0,0,0,310,371.61a76.11,76.11,0,0,0,9.52-8.95,70.48,70.48,0,0,0,13.68-22,57.3,57.3,0,0,0,3.07-12.54,44.76,44.76,0,0,0-.39-12.82c-.22-1-.39-2.11-.64-3.14a21.74,21.74,0,0,0-1-2.92,8.32,8.32,0,0,0-3.54-4.22c-3.27-1.82-7.9-1.52-12.21-1.49a86.25,86.25,0,0,0-48.59,17.08l-2.83,2.11.06-3.53A37.92,37.92,0,0,1,338,301.61L335,303.37a155.88,155.88,0,0,1-21.1-66.8l-.14-1.76,1.76,0a78,78,0,0,1,32.93,6.63,23.5,23.5,0,0,1,3.92,2.06,8.56,8.56,0,0,1,3.22,3.79,9,9,0,0,1,.33,4.9,31.88,31.88,0,0,1-1.11,4.16l-2.52,7.95c-.85,2.64-1.63,5.31-2.62,7.91q-2.85,7.85-6.21,15.47c-2.34,5-4.64,10.1-7.23,15l-.24.47-.12.23-.06.11-.12.19c-.25.4-.43.62-.54.82l-.05.08s.05-.06,0-.31a.57.57,0,0,0-.13-.35,1.73,1.73,0,0,0,.18.13s0,0-.13,0a1,1,0,0,0-.79.13c-.24.17-.24.25-.22.19l.12-.21.25-.44.51-.88,1-1.79c1.39-2.38,2.76-4.76,4-7.18s2.36-4.93,3.52-7.45l3.45-7.55a63.73,63.73,0,0,1,8.71-14.38,30.38,30.38,0,0,1,13.88-9.72,28.31,28.31,0,0,1,16.92-.13,17.76,17.76,0,0,1,4,1.7,7.58,7.58,0,0,1,1.82,1.51,5.05,5.05,0,0,1,1.13,2.25,4.72,4.72,0,0,1-.18,2.53,6.6,6.6,0,0,1-1.19,2.07,15.24,15.24,0,0,1-3.31,2.89L361.13,286l-13.76,9.24-6.89,4.62L337,302.12l-1.72,1.15-.43.29a4.33,4.33,0,0,0-.38.29,2.61,2.61,0,0,1-.32.2,1.19,1.19,0,0,1-.64.14,2.11,2.11,0,0,1-.75-.23l-.38-.92a.63.63,0,0,0,0,.21l0-.1a1,1,0,0,1,0-.36,1.22,1.22,0,0,1,.4-.57,5.57,5.57,0,0,1,.53-.41l.89-.71,1.88-1.46L340,296.9a77.47,77.47,0,0,1,8.25-4.73,81.07,81.07,0,0,1,17.87-6.4,78.23,78.23,0,0,1,37.65.4l.42.11,0,.41a7,7,0,0,1-.67,3.81,8.32,8.32,0,0,1-2.44,2.91,19.64,19.64,0,0,1-6.59,3.19,50.51,50.51,0,0,1-7.08,1.37l-7.05,1.1-28.21,4.36-14.1,2.18c-.58.1-1.18.16-1.75.29a1.2,1.2,0,0,1-.93-.16.86.86,0,0,1-.14-.13l-.06-.07c-.05-.09,0,.1-.12-.22.79-1.68.36-.51.53-.88h.13l.24,0a9.29,9.29,0,0,1,.94-.06l3.57-.07q3.58-.07,7.19.13a86.12,86.12,0,0,1,27.92,6.39l1.07.45-.88.76c-2.46,2.13-4,5.18-5.17,8.32s-2.11,6.46-3.52,9.67a19.71,19.71,0,0,1-2.72,4.57,11.24,11.24,0,0,1-4.36,3.25,11.05,11.05,0,0,1-5.43.72,12.91,12.91,0,0,1-5.06-1.92c-6.1-3.91-9.51-10.54-12.08-16.78-2.73-6.29-5.14-12.69-8.09-18.8s-6.42-12-11.29-16.55c-.62-.54-1.2-1.15-1.86-1.65l-2-1.5c-.68-.48-1.41-.87-2.11-1.31-.36-.21-.7-.45-1.07-.63l-1.12-.53a34.25,34.25,0,0,0-9.48-2.94l-2.48-.36c-.83-.08-1.67-.13-2.5-.2l-1.26-.09-1.26,0c-.84,0-1.68,0-2.53,0-3.37,0-6.76.25-10.16.51-6.8.49-13.68,1.19-20.64.74l-2.61-.21c-.87-.09-1.73-.24-2.6-.37s-1.73-.26-2.59-.46-1.71-.41-2.56-.62a54.25,54.25,0,0,1-9.77-3.82,74.08,74.08,0,0,1-16.94-12.08,81.52,81.52,0,0,1-22.42-34.68,63.74,63.74,0,0,1-2.89-20.73c0-.87.12-1.75.17-2.62s.13-1.76.25-2.63c.29-1.73.49-3.48.93-5.18a63.6,63.6,0,0,1,3.1-10,84.47,84.47,0,0,1,10.25-18.16,130.48,130.48,0,0,1,13.6-15.68,189.83,189.83,0,0,1,32.3-25.78,149.34,149.34,0,0,1,37.69-17.11,120.37,120.37,0,0,1,41.19-4.64,104.3,104.3,0,0,1,40.16,10.55,86.71,86.71,0,0,1,31.69,26.89,81.46,81.46,0,0,1,15.24,38.71,72.34,72.34,0,0,1-.82,21,93.25,93.25,0,0,1-6.3,20,147.14,147.14,0,0,1-9.75,18.37c-.9,1.47-1.84,2.92-2.77,4.38a32.44,32.44,0,0,1-3.43,4.31,27.09,27.09,0,0,1-4.18,3.64,17.6,17.6,0,0,1-5.23,2.57,9,9,0,0,1-7.91-1.18,15.84,15.84,0,0,1-1.27-1.06,8.06,8.06,0,0,1-1.86-2.91,9.54,9.54,0,0,1,0-6.44,12.24,12.24,0,0,1,3.37-5.15,10,10,0,0,1,5.78-2.63,12.82,12.82,0,0,1,6,.82,17.87,17.87,0,0,1,8.6,7.61,25.8,25.8,0,0,1,3.05,10.69,77.09,77.09,0,0,1-.05,10.54L406,282.85l-1.08,20.48a79.66,79.66,0,0,0-.14,10,20.77,20.77,0,0,0,2.4,8.94,15.91,15.91,0,0,0,2.79,3.5,16.57,16.57,0,0,0,3.74,2.6,22.4,22.4,0,0,0,2.11,1c.75.23,1.47.53,2.24.69a24.35,24.35,0,0,0,4.66.75,26,26,0,0,0,9.38-1.17,39.35,39.35,0,0,0,8.8-4.12c5.59-3.49,10.59-8,15.59-12.67s10-9.3,14.74-14.13c9.55-9.66,18.57-19.87,25.91-31.21a124.11,124.11,0,0,0,9.66-17.72A96.89,96.89,0,0,0,513,230.59a105.29,105.29,0,0,0,.43-40.11l-1-5c-.39-1.64-.82-3.27-1.23-4.9-.22-.82-.39-1.64-.65-2.45l-.76-2.41-.76-2.42c-.24-.8-.5-1.61-.82-2.39l-1.78-4.74c-.61-1.57-1.35-3.09-2-4.64l-1-2.32L502.25,157c-.77-1.5-1.5-3-2.32-4.5a141.39,141.39,0,0,0-11.11-16.93,158.73,158.73,0,0,0-13.58-15.06A168.87,168.87,0,0,0,459.7,107.4a180.43,180.43,0,0,0-17.06-11.09,207.69,207.69,0,0,0-77.05-25.16A138.62,138.62,0,0,0,325,72.29a104,104,0,0,0-37.7,14.89,84.33,84.33,0,0,0-28,29.23l-.35-.19a84.44,84.44,0,0,1,27.8-29.82,105.43,105.43,0,0,1,37.95-15.47,139.67,139.67,0,0,1,41.07-1.59,209.9,209.9,0,0,1,78.08,24.8,182,182,0,0,1,17.41,11.12,169.91,169.91,0,0,1,15.91,13.19,161.67,161.67,0,0,1,14,15.26A142.1,142.1,0,0,1,502.64,151c.84,1.51,1.59,3.07,2.4,4.6l1.18,2.31,1.06,2.37c.69,1.59,1.45,3.14,2.08,4.75l1.86,4.85c.32.81.59,1.63.85,2.45l.79,2.48.79,2.47c.27.82.45,1.67.68,2.51.43,1.68.88,3.35,1.29,5l1,5.1a109,109,0,0,1-.26,41.4,100.57,100.57,0,0,1-6.25,19.87,127.81,127.81,0,0,1-9.85,18.3c-7.49,11.68-16.63,22.12-26.24,31.94-4.81,4.91-9.78,9.66-14.8,14.32s-10.15,9.39-16.17,13.18a43.63,43.63,0,0,1-9.72,4.56,29.94,29.94,0,0,1-10.85,1.38A28.92,28.92,0,0,1,417,334c-.9-.19-1.77-.54-2.65-.82a26.68,26.68,0,0,1-2.56-1.15,20.81,20.81,0,0,1-4.64-3.24,19.92,19.92,0,0,1-3.59-4.47,25.13,25.13,0,0,1-3-10.68,85.26,85.26,0,0,1,.12-10.51l1-20.48,1-20.49a75.23,75.23,0,0,0,.05-9.95,25.85,25.85,0,0,0-.79-4.68,16.64,16.64,0,0,0-1.69-4.21,13.56,13.56,0,0,0-6.45-5.78,8.49,8.49,0,0,0-4-.56,5.79,5.79,0,0,0-3.38,1.55,8,8,0,0,0-2.18,3.34,5.26,5.26,0,0,0-.08,3.6,3.8,3.8,0,0,0,.87,1.38c.21.2.47.37.69.57a7.31,7.31,0,0,0,.76.43,5.18,5.18,0,0,0,3.58.13,13.3,13.3,0,0,0,3.92-2,21.78,21.78,0,0,0,3.53-3.08,26.75,26.75,0,0,0,3-3.7c.91-1.42,1.83-2.85,2.71-4.29a141.07,141.07,0,0,0,9.48-17.83,90.2,90.2,0,0,0,6-19.05,68.15,68.15,0,0,0,.83-19.8,77.3,77.3,0,0,0-14.39-36.78,82.71,82.71,0,0,0-30.18-25.75,100.52,100.52,0,0,0-38.63-10.24,116.65,116.65,0,0,0-39.92,4.39,145.83,145.83,0,0,0-36.81,16.59,185.85,185.85,0,0,0-31.81,25.15,126.48,126.48,0,0,0-13.32,15.21,81.07,81.07,0,0,0-10,17.4,60.5,60.5,0,0,0-3,9.53c-.43,1.61-.62,3.26-.91,4.9-.11.82-.16,1.65-.24,2.48s-.19,1.65-.18,2.48A60.84,60.84,0,0,0,203,223.34a75.87,75.87,0,0,0,8.52,18.14,83.18,83.18,0,0,0,12.88,15.45,71.64,71.64,0,0,0,16.26,11.78,51.16,51.16,0,0,0,9.28,3.7c.8.21,1.6.45,2.41.61a22.65,22.65,0,0,0,2.46.45c.82.13,1.64.28,2.47.38l2.5.21c6.7.49,13.49-.14,20.32-.59,3.41-.24,6.86-.41,10.31-.44.87,0,1.74,0,2.6.05l1.3,0,1.3.1c.87.08,1.74.13,2.61.22l2.59.4a36.07,36.07,0,0,1,10,3.18l1.2.57c.39.2.76.45,1.13.68.75.47,1.52.89,2.24,1.41l2.09,1.6c.7.54,1.31,1.18,2,1.77,5.12,4.85,8.66,11,11.61,17.19s5.32,12.66,8,18.92c.65,1.57,1.36,3.11,2.06,4.66a36.5,36.5,0,0,0,2.44,4.36,23.8,23.8,0,0,0,6.83,7.08,11.4,11.4,0,0,0,4.43,1.73,9.53,9.53,0,0,0,4.63-.59,9.65,9.65,0,0,0,3.78-2.8,17.61,17.61,0,0,0,2.52-4.21c1.36-3.05,2.27-6.35,3.51-9.59s2.84-6.5,5.6-8.88l.19,1.21a84.51,84.51,0,0,0-27.45-6.35c-2.35-.15-4.71-.19-7.07-.14l-3.57.05a8.3,8.3,0,0,0-.84.06l-.2,0h0c.15-.36-.3.81.47-.86-.15-.31-.05-.1-.09-.18l0,0-.06-.05c-.19-.1-.16,0-.07-.06.6-.14,1.18-.19,1.77-.29L352,302.14l28.21-4.3,7.06-1.07a50.37,50.37,0,0,0,6.92-1.33,18,18,0,0,0,6.17-3,6.19,6.19,0,0,0,2.64-5.62l.46.52a77.1,77.1,0,0,0-37-.27,79.78,79.78,0,0,0-17.54,6.34,76.39,76.39,0,0,0-8.08,4.68l-3.81,2.7-1.84,1.43-.95.77a4,4,0,0,0-.41.3s0,.11,0-.11a.63.63,0,0,0,0-.21v0a1.2,1.2,0,0,1,0,.5l-.39-.91c.18.09.3.12.22.1s-.18,0-.13,0l.11-.07c.09-.07.28-.23.44-.34l.43-.29,1.72-1.16,3.43-2.32,6.87-4.64,13.74-9.28L387.69,266a13.81,13.81,0,0,0,2.9-2.55,3.69,3.69,0,0,0,1-3.07,4.11,4.11,0,0,0-2.1-2.51,15.62,15.62,0,0,0-3.6-1.47,26.34,26.34,0,0,0-15.72.24,28.2,28.2,0,0,0-12.83,9.16,61.79,61.79,0,0,0-8.29,14l-3.38,7.55c-1.14,2.51-2.21,5.06-3.5,7.57s-2.65,4.91-4,7.32l-1,1.79-.52.92-.26.47-.13.24a1.86,1.86,0,0,1-.56.58,1.55,1.55,0,0,1-1.29.19,2.39,2.39,0,0,1-.59-.27,3.9,3.9,0,0,1-.62-.51,2,2,0,0,1-.59-1.26,1.84,1.84,0,0,1,.15-.81,2.37,2.37,0,0,1,.19-.39c.22-.4.47-.72.59-.91l.43-.83c2.53-4.88,4.76-9.91,7-14.91s4.19-10.16,6-15.34c.95-2.58,1.7-5.22,2.52-7.84l2.43-7.88c.83-2.62,1.59-5.26.82-7.11a5.53,5.53,0,0,0-2.13-2.39,20.37,20.37,0,0,0-3.43-1.75,75.33,75.33,0,0,0-31.61-6.15l1.62-1.79A153.72,153.72,0,0,0,338,301.56l-3.09,1.76a34.43,34.43,0,0,0-64.34,15.89l-2.77-1.42a89.63,89.63,0,0,1,50.56-17.6c1.14-.06,2.27,0,3.4,0s2.27,0,3.44.1a16.94,16.94,0,0,1,7.09,1.88,10.52,10.52,0,0,1,3,2.53,13.92,13.92,0,0,1,1.91,3.24,23.83,23.83,0,0,1,1.14,3.4c.28,1.13.45,2.26.68,3.39a47.61,47.61,0,0,1,.38,13.74,59.83,59.83,0,0,1-3.29,13.29,73.69,73.69,0,0,1-14.34,23,79,79,0,0,1-9.92,9.26,106.49,106.49,0,0,1-11.06,7.74c-15.36,9.45-32.2,15.64-48.42,22.74A481.11,481.11,0,0,0,82.25,529.71Z" transform="translate(-81.94 -68.53)"/></g></g></svg>