<svg id="Layer_1" data-name="Layer 1" xmlns="http://www.w3.org/2000/svg" viewBox="0 0 304.62 284.67"><defs><style>.cls-1{fill:#f9f4df;}.cls-2{fill:#e9bac2;}.cls-3{fill:#f3ebd5;}.cls-4{fill:#231f20;}</style></defs><title>sestrici</title><path class="cls-1" d="M355,222c-24-22-11-49,5-46,45.6,8.55,31,17,49,35,10.14,10.14,2.79,20.61,21,37,20,18,4,56.91-11,56-33-2-10.13-44.68-20-58C388.45,231.76,386.73,251.09,355,222Z" transform="translate(-151.52 -157.05)"/><path class="cls-2" d="M384.2,192.6c.21.67,2.16,4.42,4.8,5.4s15,13,17-5c.27-2.45-2.85-5.41-5-8-3.91-4.71-11.77-4.11-15,0C383.82,187.77,383.3,189.65,384.2,192.6Z" transform="translate(-151.52 -157.05)"/><path class="cls-3" d="M245,286c4-5-1-5.83,2-10,4.71-6.56-2-8-6-14-8.15-12.22-.33-57.48,11-60,18-4-.55-6.31,12-15,8.69-6,39.47,5.79,42-2,1.26-3.86-9.1-24.57-35-27-32-3-40.67.83-44,15-4,17-15.69,26.67-16,41-.22,10-15.81,21.29-22,44-6,22-48,39-35,80,1.09,3.44,18.74-24,18-20-2,11-.11,11.08-11,25-9.27,11.84,1,43,3,54,.87,4.8,53-28,61-41,5.44-8.83-1.57-17,1-18,5-2,14-2,15-18,.69-11-1.07-10.28,0-12C246,300,243.47,287.91,245,286Z" transform="translate(-151.52 -157.05)"/><g id="sestrici"><path class="cls-4" d="M354,279.23c1.51-.83,3-1.77,4.47-2.6s.85-.18,2.24,0a5.16,5.16,0,0,0,1.88-.27,4.66,4.66,0,0,1,3.79.45c1.43.67,3.17.9,4.54,1.71.33.2-.48-.22-.77-.3-.87-.24-1.75-.55-2.64-.73a14.14,14.14,0,0,0-3.56,0,51,51,0,0,1-6.18-.4c-.8-.07-.8,1.19,0,1.25,2.32.17,4.59.39,6.9.42a21.42,21.42,0,0,1,5.15.62,8.82,8.82,0,0,0,2.1.32.63.63,0,0,0,.6-.45c.77-2-3.15-2.8-4.3-3.19s-2.45-1.42-3.55-1.59c-1.52-.23-3.14,1.78-4.3.18a.63.63,0,0,0-.85-.22c-2.09,1.17-4,2.52-6.16,3.67-.7.39-.07,1.47.64,1.08Z" transform="translate(-151.52 -157.05)"/><path class="cls-4" d="M358,276.79c-1.44.41-3.06-.58-4.12,1a1.1,1.1,0,0,0,.59,1.86c.85.32,2.24,0,3.11.09a25,25,0,0,1,3,.63c2.29.62,3.61.8,5.73-.38.7-.39.07-1.47-.64-1.08-2.43,1.36-5.53.09-8.06-.46a15,15,0,0,0-2.32,0,11.8,11.8,0,0,0,3.06-.45.62.62,0,0,0-.33-1.2Z" transform="translate(-151.52 -157.05)"/><path class="cls-4" d="M375.77,241.07h-.12l.17,1.23a13.9,13.9,0,0,1,4.81-.55c1.86,0,4.07-.57,5.9-.16v-1.21c-.94.37-2.75-.14-3.68-.46v1.21c3.75-1,7.22,2.36,10.6,3.39a.63.63,0,0,0,.34-1.21c-3.72-1.12-7-4.5-11.27-3.39a.63.63,0,0,0,0,1.21c1.21.42,3.09,1,4.34.46.53-.21.66-1.06,0-1.21-2.06-.45-4.12.1-6.23.12a14.45,14.45,0,0,0-5.15.59c-.6.23-.59,1.29.17,1.23h.12c.8-.07.81-1.32,0-1.25Z" transform="translate(-151.52 -157.05)"/><path class="cls-4" d="M339.83,214.31c3.34-1.94,6.46-4.27,9.86-6.17s7.72-2.73,11-4.91a.63.63,0,0,0-.48-1.14,10.87,10.87,0,0,0-1.87.46l.33,1.2c2.07-.63,4.2-.9,6.27-1.51l-.61-1c-1.82,1.57-8.47,4.7-7.11,8.11,1.24,3.12,7.46.94,9.27.18a.64.64,0,0,0,.37-.92,6.13,6.13,0,0,0-2.06-2.14.63.63,0,0,0-.86.85c.9,1.92,2.33,7.07,4.72,7.53a.68.68,0,0,0,.71-.29c.21-.31.55-1.48.78-1.7,3.38-3.3,1.28-.56,2.52-.16.72.23,1.49,1.28,2.31,1.21,1.63-.15,2.5-2.9,2.5-4.21a.63.63,0,0,0-.94-.54c-4.66,3.31,5.75,7.55,5.85,2.4a.63.63,0,0,0-.62-.63,6.21,6.21,0,0,0-2,0,.63.63,0,0,0-.15,1.14c5.26,2.42,10.86,3.2,15.74,6.64l.63-1.08c-4.15-2.23-3-8.9-6.59-11.35l-.49,1.14c2.56.71,4.56,1.45,7.17.81a.63.63,0,0,0,0-1.2c-1.09-.31.35.15,1.17-.36a3.71,3.71,0,0,0,1.45-1.3c1.36-2.41-.73-7.15-1.52-9.24a39,39,0,0,0-5.84-10.35c-1.27-1.63-2.55-3.3-3.9-4.87-.78-.92-2.77-2.16-2.07-3.09a.64.64,0,0,0-.1-.76c-3.14-2.43-9.51-3.54-13.38-3.16a.66.66,0,0,0-.6.46c-.31.85-.65-.1-1.72-.15a27.41,27.41,0,0,0-3.95,0,22.26,22.26,0,0,0-8.54,2.48c-5.7,3.32-9.06,11.08-11,17.06l1.21.34a7.7,7.7,0,0,0,.54-3.68.64.64,0,0,0-.95-.54c-1.51.85-11,10.66-6.77,12,1.06.33,1.88-.51,2.75-1a31.1,31.1,0,0,1,7.95-3.12,45.06,45.06,0,0,1,21.07.33.63.63,0,0,0,.33-1.21,44.63,44.63,0,0,0-23.17,0,28.38,28.38,0,0,0-4.3,1.58c-1.07.5-4.25,3.3-3.9.15.12-1.11,6.46-8.8,5.24-4.95-.24.77,1,1.1,1.21.34,2.15-6.52,6-14.93,12.9-17.35a19.78,19.78,0,0,1,9.12-1.23c1.37.21,1.65.63,2.8.13a.61.61,0,0,0,.31-.54c0,.64,11.94,0,11.13,3.69a.65.65,0,0,0,.29.71c4.4,2,19.84,25.47,10.73,26.49a.63.63,0,0,0-.53.94c.65,1,.62,1,1.74,1.28V207c-2.35.58-4.34-.22-6.49-.82a.63.63,0,0,0-.49,1.14c3.44,2.35,2.45,9.13,6.6,11.36a.63.63,0,0,0,.63-1.08c-5-3.51-10.39-4.18-15.74-6.64l-.15,1.15c1.36-.09,1.18,0-.54.35q-3.18-2.42-4.68,0c-1.24-.42-1.27-1.23-2.13-2s-.79-1.22-1.91-1c-1.38.22-1.17,2.59-1.93,3-1.44.82-3.46-4.85-3.92-5.83l-.85.86c1.85,1,.86.77.39,1.25-1.32,1.38-3,.29-3.8-.83-1.61-2.32-.13-2.52,2.12-4.16.84-.61,1.53-1,2.34-1.69.48-.41,0-1.21-.61-1-2.07.6-4.2.87-6.27,1.51-.76.23-.44,1.43.33,1.2a10,10,0,0,1,1.87-.45l-.48-1.15c-3.24,2.15-7.57,3-11,4.91s-6.51,4.22-9.86,6.17a.63.63,0,0,0,.63,1.08Z" transform="translate(-151.52 -157.05)"/><path class="cls-4" d="M396.58,207.57c.08-.66,2.91-1.62,3.47-1.72,1.83-.34,2.79.08,4.56,1.09,2.46,1.4,8.66,6.15,7.09,9.67-.93,2.08-4.78,2-4.91,4.47s10,6.68,6.62,8.86c-1.23.8-5.28-3.39-6.58-4.46a15,15,0,0,1-5.49-8.6c-.19-.79-1.34-.45-1.2.33.84,4.88,3.12,11.63,6.61,15.32,2.24,2.37,5.59,3.58,7.63,6.16,1.62,2.05,1.52,5.26,3.31,7.07,2.57,2.61,5.3-.49,8.19.79,3.72,1.64,7.62,8.17,7.53,12.23,0,1.51-.89,2.79.33,3.86.51.45,1.36-.12,1-.76-2.06-3.39-4.66-4.77-8.28-6-.56-.2-.91.46-.7.91,2.34,5.1,7.68,7.88,7.92,14.13.17,4.43-2.26,6.23-5.11,8.64-.93.79-3,2.34-3.25,3.58-.71,3.12,4.24,5.75,4,9.65-.35,5.38-4.94.49-7.25-1.52a.63.63,0,0,0-.88,0c-.57.74-.42,1.22-.85,2a8.92,8.92,0,0,0-.08,1.16L415,298.05c-1.79.43-4.16-.66-5.59-1.54-2.44-1.49-3.87-3.81-5.41-6.2-1.77-2.73-2.19-3.94-.21-6.78.46-.66-.63-1.28-1.08-.63-3.68,5.26-.84,6.83,2.53,11.47a11,11,0,0,0,10.45,4.85c1.74-.19,3.73-.77,4.83-2.25.27-.36,1.44-4,1.56-4s3.36,3.17,4.11,3.41a5.08,5.08,0,0,0,3.66-.19.64.64,0,0,0,.22-.86c-.64-1,1.11-3.21,1.05-4.54-.07-1.65-2.31-3.57-3.1-4.69-1.91-2.7-1-3.57,1.34-5.59,1.53-1.31,3.25-2.38,4.36-4.12,5-7.88-4.07-14-6.94-20.25l-.71.92c3.31,1.15,5.63,2.32,7.53,5.46l1-.76c-.82-.72,0-5.05-.41-6.45a21.24,21.24,0,0,0-4-6.65,12.7,12.7,0,0,0-7.38-4.33c-6.23-1.5-4.12-.26-6.12-4.4a12.64,12.64,0,0,0-3.7-4.14c-2.94-2.35-5.85-4.09-7.69-7.57a42.69,42.69,0,0,1-4-11.33l-1.2.33c1.09,4.44,2.77,6.65,6.31,9.56,1.48,1.21,5.28,5.82,7.47,5.46s1.44-2.86.93-4.18A9,9,0,0,0,412.8,225c-1.74-1.77-5.31-2.51-3.51-4.95s3.58-.53,3.64-4.08-2.31-6.06-5-8.24c-2.34-1.89-5.11-3.77-8.18-3.06-1.44.33-4.18,1.21-4.39,2.92-.1.8,1.15.79,1.25,0Z" transform="translate(-151.52 -157.05)"/><path class="cls-4" d="M339.66,200.49c-7,2-12.75,6.65-18.73,10.64-5.07,3.39-1.36,7.14.12,12.05a9.69,9.69,0,0,0,1.21,3.09,3.5,3.5,0,0,1,1.39,4.76,5.88,5.88,0,0,1-1,3.75c-1,2.4-2.44,4.44-2.26,7.17.32,4.89,3.71,8.18,2.47,13.6a13.18,13.18,0,0,1-2.92,5.52,8.79,8.79,0,0,1-3.33,1.7,6.29,6.29,0,0,0-.64.63c-1.32,1.65-2.29,4.89-1.74,7,.29,1.13,2.67,2.74,2.74,3.18.58,3.72-7.75,5.53-9.29,7.57a4.9,4.9,0,0,0-.52,3.74c1.14,4.79,6.58,6.1,10.81,5.41,2.54-.41,4.69-1.62,7.14-2.32,2.9-.83,6-1.07,8.89-2.05.76-.26.43-1.47-.33-1.21-2.89,1-6,1.11-8.84,1.94-4.37,1.26-8.45,4.22-13.05,1.57-9.86-5.67,5.68-9.13,6.75-14.55a.67.67,0,0,0-.29-.71c-2.52-1.86-4.51-5.93-1.45-8.55,1-.83,2-.75,3.1-1.43,1.73-1.11,3-3.64,3.68-5.51a15.48,15.48,0,0,0,.05-9.86c-.88-3-2.53-4.84-1.61-8.38.52-2,1.8-3.83,2.67-5.68a6.25,6.25,0,0,0,.39-5.6c-.69-2.16-2.41-4.17-3.16-6.45-.36-1.08-.74-2.21-1.07-3.29-1.73-5.77,3-7.08,6.85-9.84,4-2.9,7.47-5.26,12.3-6.65a.62.62,0,0,0-.33-1.2Z" transform="translate(-151.52 -157.05)"/><path class="cls-4" d="M352.51,241.74c-.43-2-4.83-1.33-6.15-1.49-.69-.09-.86,1.09-.17,1.22l.83.16c.65.12,1.15-.79.48-1.14a14.51,14.51,0,0,0-6.56-1.33c-2.75.26-4.56,3.18-6.91,4.28-.72.34-.09,1.41.64,1.08,2.26-1.06,3.62-3.31,6.16-3.64a12,12,0,0,1,6,.69l.48-1.15-.82-.15-.17,1.23c.57.07,4.86.21,4.94.58.18.78,1.38.45,1.21-.34Z" transform="translate(-151.52 -157.05)"/><path class="cls-4" d="M397.79,187.1l.21-.17-1.06-.44c.06.49-5.21-.66-5.86-.29-.31.17-.51.56-.75.71,1-.66-.38,1-.3.93.77-.39-4-.36-2-.33-4.79-.07-3.24,4.23-1.82,7.33.87,1.91,1.35,1.69,3.38,2.37,2.29.77,2.79,1.84,4.29,3.41.37.38.62.93,1.18,1.07,1.25.29,1.56-.69,2-1.67a30.76,30.76,0,0,0,1.81-4.64c.09-.3.29-1.45.37-1.5,3.23-2.54,1.81,2.49,2.51,2.93,2.64,1.65,5.33-.58,5-3.93-.2-2-1.37-2.18-2.88-3-.62-.36-1.08.21-1.37-.87-.15-.55,1.12-1.68,1.13-2.41,0-1-.44-.82-.8-1.46-.24-.43-1-2.48-1.76-2.71-1.22-.36-1.95.81-2.3,1.77-.41,1.14,0,1.61-.92,2.71s-1,.64-1.83,1.29c-1.36,1.14-.62,1.49-2.68.77-1-.35-2.11-1.49-3.19-1.52-1.51,0-2.06,1.16-2.4,2.51s-.39,2.47,1,3c.89.36,2-.26,2.88-.42.5-.09,2.49-1,2.87-.21.18.39-.81,2.45-.89,2.9s.16.85.6.79c1.48-.17,2-.66,3.61-.15a.63.63,0,0,0,.7-.28c1.39-2-.45-6.45,2.92-6.23.8.05.8-1.2,0-1.25a3.22,3.22,0,0,0-2.3.32.67.67,0,0,0-.46.6,14.82,14.82,0,0,1-.93,4.23c-.72,1.29-.39.54-1.57.61s-1,1.15-.71-.54a6.35,6.35,0,0,0,.33-2.44.64.64,0,0,0-.61-.46,25.09,25.09,0,0,0-3.51.8c-.37.11-1.33.56-1.67.46-1.34-.38-1.27-1.63-.28-2.27,1.74-1.12,3.89,1.74,5.92,1.9a.62.62,0,0,0,.54-.31c1.14-1.81,2.67-2.09,3.51-4,.24-.55-.2-3,1.25-2.65,0,0,.4,1.34.4,1.35a6.75,6.75,0,0,0,.91.76c.14.87-1.93,2.63-1.31,3.91.32.67.67.37,1.14.74.16.13.79-.06.89,0,3,1.35,2.13,6.43-.24,4.23-1-.92-1.34-3.56-3.53-3.12s-1.65,4.4-2.82,6c-.56.76-.87,1.57-1.89,1.19-.25-.09-.33-.72-.56-.9a11.49,11.49,0,0,0-3.65-2.35c-1.82-.56-2.34-.72-3.19-2.51-1.37-2.91-.66-5.83,3.3-4.33a.63.63,0,0,0,.79-.61c.19-3.24,7.47,2.11,7-2.16a.64.64,0,0,0-1.07-.44l-.21.17c-.63.5.26,1.38.88.88Z" transform="translate(-151.52 -157.05)"/><path class="cls-4" d="M339.16,213.15c-1.84,1.65-2.42,1.4-3.64,3.8s-2.51,5-1.95,7.91c.66,3.4,4.25,9.21,7.19,11.13a.62.62,0,0,0,.75-.1c.72-.83.48-.92.56-2,.32-4.25-2.14-7.13.77-11.15,3.79-5.25,1.11-.14,3.66-1.57a20.6,20.6,0,0,0,3.56-3c2.54-2.34,3.46-3.21,5.34.11.81,1.44,1.57,3,3.15,3.71,1.29.58,3.61.66,4.49-.6.42-.59-.49-1.24-1-.76-2.13,2.1,1.2,8.33,2.41,10.12,2.18,3.25,6.47,7,10.7,5.92a.63.63,0,0,0,.44-.44,7.84,7.84,0,0,0-.05-2.64l-1.17.32c1.83,2.59,3.57,3.72,6.93,3.64,2-.05,5.2-.05,5-2.63l-1.16.32c1.78,2.5,3.76,4,6.92,4,1.8,0,3.21-.76,5.1.2,2.1,1.06,4.15,3.43,5.9,5a.63.63,0,0,0,1-.13c2.95-4.17-1.17-9.1-3.49-12.34a16.72,16.72,0,0,1-2.21-3.26c-2.23-5.89,1.59-1.63,2.53-.21,1.8,2.71,3.05,6.4,4.7,9.29s4.31.3,1.51,7.82c-.54,1.45-1.72,2.78-2.4,4.2a8.93,8.93,0,0,0-.95,5.54c.4,2.68,1.09,4.25.53,7.22-.12.63-.57,1.15-.55,1.81a22.7,22.7,0,0,0,.81,2.15c.33,2.76-2.22,5.09-4.72,5.54-.79.15-.46,1.35.33,1.21a6.7,6.7,0,0,0,5.64-5.71c.17-1.51-.6-2.66-.55-4.05.06-1.82,1.07-2.91.73-4.89-.46-2.64-1.36-4.11-.49-6.86a22.93,22.93,0,0,1,2.35-4.95c.95-1.6,1.7-2.86,1.54-4.79-.15-1.71-.86-2.58-1.84-3.91-2.19-3-3.24-5.86-4.92-9.12-.76-1.46-3.24-5.16-5.32-4.77-3.26.62-.13,5,.7,6.21,1.61,2.43,4.06,4.77,5.13,7.5a3.25,3.25,0,0,1,.1,3.77q-.4,1.8-1.56-.18a24.24,24.24,0,0,1-3.6-3c-1.14-1-1.32-1.4-2.68-1.62-.38-.06-.75.33-1.11.41-3.66.8-5.52.84-8-2.69-.33-.46-1.22-.36-1.17.31.1,1.25-3.89,1.43-4.31,1.36a9.46,9.46,0,0,1-5.28-3c-.32-.46-1.23-.36-1.16.31.49,5.34-7.75-1.73-9.11-4-.55-.91-3.49-6.88-2.26-8.09l-1-.76c-1.62,2.32-5-2.25-5.48-3.11s-.83-2.35-1.48-3c-.92-.9-1-1.1-2.36-.63-2.5.84-4.57,4.53-7.05,5.83-.66.35-1.12,0-2.36.85a8.56,8.56,0,0,0-3.23,4.2c-.28,1,1.2,8.18.74,8.61-.11,1-.43.9-1-.38-.54-.7-1.06-1.4-1.58-2.1a31.36,31.36,0,0,1-2.2-3.59c-2.79-5.73.05-9.79,4-13.36.61-.53-.28-1.42-.88-.88Z" transform="translate(-151.52 -157.05)"/><path class="cls-4" d="M372.87,254.42a42,42,0,0,1,5.24.28c2.05.07,3.61-.76,5.56-1.26,1.46-.37,3.32.23,4.63-.17.53-.16,1-.43,1-1,0-1-1.42-1.42-2.11-1.76-1.36-.67-2.5-1.61-3.8-2.36-3-1.69-6.95-1.27-9.86.35-.71.39-.08,1.47.63,1.08,3.62-2,7-1.23,10.28.91a12.83,12.83,0,0,0,2.19,1.18c.66.24,1.7.25.9.32s-1.9-.13-2.86,0a26.21,26.21,0,0,0-3.87,1.19c-2.51.74-5.32-.24-7.92,0-.79.08-.8,1.33,0,1.25Z" transform="translate(-151.52 -157.05)"/><path class="cls-4" d="M375.83,248.56c-1.75,1.86-.5,4.74,1.86,5.33a3.73,3.73,0,0,0,1.45,0,12.56,12.56,0,0,0,2.7-.61,3.36,3.36,0,0,0,1.84-3.29.64.64,0,0,0-1.07-.44l-.5.45-1.33-.56c0-.07.06-.32,0-.41-.16-.24-.12-.42-.39-.6a1.37,1.37,0,0,0-1.58.2,2.12,2.12,0,0,0-.09,2.07,2.83,2.83,0,0,0,.83.93c.14.12.79.46.82.61l.6-.79a1.67,1.67,0,0,1-1.74-.76,2.07,2.07,0,0,1-.18-1.25c.18-.42.63-.43.57-1a.64.64,0,0,0-.79-.6c-.86.12-1.93.71-1.52,1.72a.63.63,0,0,0,1.23-.17c0-.36-.08-.71-.08-1.08a.63.63,0,0,0-.79-.6c-1.86.26-.72,3.27.19,4,1.14,1,4.14,1.47,4.89-.26a.64.64,0,0,0-.38-.92,3.27,3.27,0,0,0-2,.27c-.76.26-.43,1.47.33,1.2a2.7,2.7,0,0,1,1.33-.27l-.37-.91c-.5,1.15-2.72.26-3.19-.37a4.84,4.84,0,0,1-.57-2.06l-.16.61.25-.12-.79-.61c0,.35.1.74.08,1.08l1.23-.16c0-.07.62-.18.64-.19l-.79-.6a3.33,3.33,0,0,0-.71.81A3.81,3.81,0,0,0,378,251c.44,1.37,1.59,1.71,2.94,1.67a.64.64,0,0,0,.6-.79c-.08-.45-.4-.64-.74-.9a3.28,3.28,0,0,1-.83-.64c-.06-.09-.34-.93-.16-.8l-.31-.54c.09,1-.08,1.8,1,2.24a2.78,2.78,0,0,0,2.93-.83l-1.07-.45c.14,1.56-.92,2-2.18,2.35a5.75,5.75,0,0,1-2.09.38c-1.41-.27-2.57-2.07-1.45-3.27.55-.58-.33-1.47-.88-.88Z" transform="translate(-151.52 -157.05)"/><path class="cls-4" d="M353.05,252.86a9.08,9.08,0,0,0-3.1-.46c-1,.14-1.88.58-2.86.74-2.89.49-4.72-.87-6.74-2.69l-.27,1.05c2.26-.79,4.16-2.77,6.54-3.19,1.12-.21,3.75.07,4.2,1.32.87,2.48-5.4,5.46-5.39.38,0-2.33.52.49.79,1.1a2.43,2.43,0,0,0,1.26,1.39c1.21.51,3.66-.31,3.93-1.67a.64.64,0,0,0-.6-.79c-.59,0-2.38,0-1.75-1.18a.64.64,0,0,0-.23-.86c-2.61-1.19-1.8,2.42-1,3.63l.54-.94c-.9.08-.37-2.19-.65-2.88a.63.63,0,0,0-.91-.38,1.91,1.91,0,0,0-.92.81.6.6,0,0,0,0,.63l.1.14c.45.66,1.54,0,1.08-.63l.37.13-.92-.37c.52,1.31-.84,4.06,1.85,3.8a.64.64,0,0,0,.54-.94c-.11-.17-.91-2-.72-1.92l-.22-.85a2.15,2.15,0,0,0,.31,2.44c.91,1.13,1.33.52,2.52.62l-.61-.79c-.25,1.28-2.51.49-2.85,0-.19-.25-.14-.71-.27-1-.24-.5-.3-1.21-.77-1.58a1.19,1.19,0,0,0-1.8.27c-1,1.35-.37,3.85.74,4.9s2.48,1.08,4,.54a4,4,0,0,0,2.8-3.22c.21-1.62-.81-2.3-2.16-3-3.86-1.94-6.79,1.64-10.18,2.83a.63.63,0,0,0-.28,1c1.36,1.23,2.92,2.78,4.79,3.15a9.44,9.44,0,0,0,3.51-.15,11.77,11.77,0,0,1,5-.27c.78.16,1.12-1.05.33-1.2Z" transform="translate(-151.52 -157.05)"/><path class="cls-4" d="M347.92,248.17c.95,0,1.89.3,2.84.38a.63.63,0,0,0,.6-.79c-.55-2-3.43-1.94-5.06-1.78-3,.3-5.64,1.07-7.82,3.28-.56.57.32,1.46.89.88a9,9,0,0,1,5-2.56c1.2-.24,5.32-1.25,5.8.51l.61-.79c-1-.08-1.87-.38-2.84-.38a.63.63,0,0,0,0,1.25Z" transform="translate(-151.52 -157.05)"/><path class="cls-4" d="M374.27,249.44a8.71,8.71,0,0,1,7.39-2.06c2.16.44,4,1.83,6.23,2,.8.07.79-1.18,0-1.25-1.22-.11-3.34-1.16-4.62-1.55a9.36,9.36,0,0,0-3.19-.62,10,10,0,0,0-6.69,2.58c-.61.53.28,1.41.88.88Z" transform="translate(-151.52 -157.05)"/><path class="cls-4" d="M349.92,248.51c.64.62,1.64.43,2.37.9a.64.64,0,0,0,.92-.71c-.12-.65-.71-1-1.2-1.41a6.85,6.85,0,0,0-1.91-1c-.76-.27-1.09.94-.33,1.2a6.2,6.2,0,0,1,1.32.64c.29.19.85.51.92.86l.92-.7a3.88,3.88,0,0,0-1.21-.46c-.27-.06-.72-.06-.92-.25-.58-.56-1.46.33-.88.89Z" transform="translate(-151.52 -157.05)"/><path class="cls-4" d="M334.29,237.43c-3.13,4.72-1.68,11.84-2.87,17.07-.62,2.73-1.66,5.51-1.47,8.36.29,4.21,1.93,8.48,3.32,12.42,1.84,5.23,3.91,11.14,8.47,14.63,2.84,2.17,5.81,2.68,9.14,3.67,3.6,1.08,6.95,3.11,10.63,3.85,7.49,1.51,13.62-1.91,20.69-3.54,5.11-1.18,11.11-4.23,14.44-8.31,4.75-5.84,3.16-12.94,4.17-19.86.61-4.16,1.73-7.87,2-12.12.22-3.88-1-5.69-1.71-9.35-.15-.79-1.35-.45-1.2.34.58,3.12,1.85,5.72,1.66,9-.24,4.09-1.32,7.79-1.93,11.79-.95,6.17.55,12.89-3.16,18.37-3.94,5.83-11.16,7.61-17.41,9.36-6.72,1.88-12.45,4.89-19.59,2.35-2.49-.89-4.89-2-7.41-2.83-3.42-1.08-6.62-1.64-9.55-3.81-5.41-4-7.12-11.74-9.21-17.79-1.25-3.64-2.35-7.23-1.82-11.13.37-2.64,1.51-5.1,1.85-7.73.59-4.48-.61-10.1,2.06-14.12.45-.67-.63-1.3-1.08-.63Z" transform="translate(-151.52 -157.05)"/><path class="cls-4" d="M334.48,285.41c-.05.23-.29.27,0,.19a1.43,1.43,0,0,0,.31-.24,3.08,3.08,0,0,0,.56-.73,11.63,11.63,0,0,0,1-1.75c.32-.88.5-2.47-.1-3.26-.48-.64-1.57,0-1.08.63s.11,2-.34,2.73a10.44,10.44,0,0,1-.73,1.31c-.23.28-.7.41-.78.79-.16.78,1,1.12,1.21.33Z" transform="translate(-151.52 -157.05)"/><path class="cls-4" d="M333.2,224.8c-1.72,2.75-.6,6.84.4,9.6a3.08,3.08,0,0,0,.6,1.3c.42.49,1.18.38,1.58.93.67.91.08,1.54,1.39,1.92a.62.62,0,0,0,.77-.43c.34-2-.49-3.36,1.07-5.19.52-.61-.36-1.5-.88-.88a5.79,5.79,0,0,0-1.45,2.74c-.2,1,.21,2.06.06,3l.77-.43c-.56-.17-.53-1.26-.79-1.71-.44-.77-1.52-1-2-1.87-1.07-2.08-1.83-6.17-.47-8.34.42-.68-.66-1.31-1.08-.63Z" transform="translate(-151.52 -157.05)"/><path class="cls-4" d="M406.71,207.45c.64-.53,4.06,2.24,4.64,2.69,3,2.3,4.66,5.08,4.66,8.88,0,3.35-.06,6.42,2.38,9.13,1.27,1.4,3.11,2.17,4,3.95,1.24,2.46,1.09,5.53,1.18,8.12.14,3.92.63,5,3.78,7.28.66.47,1.28-.61.64-1.08-5-3.61-1.95-10.59-4.66-15.75-.83-1.57-2.54-1.8-3.72-3-3.47-3.47-1.55-7.5-2.38-11.57-.6-2.92-2.94-5.44-5.27-7.06-1.25-.87-4.42-3.93-6.15-2.49-.62.51.27,1.39.88.88Z" transform="translate(-151.52 -157.05)"/><path class="cls-4" d="M356.89,260.8c-.75,1.6-2.92,3.57-2.42,5.59.64,2.6,2.88,1.66,4.4.82a.63.63,0,0,0,0-1.08l-.83-.75-.22.85.55-.32.12,1c.32-.28,3.06.68,3.86.5s2.33-1.9,2.93-1l.22-.85-.95.14-.17,1.23c1.1,0,1.63.8,2.89.63a1.78,1.78,0,0,0,1.57-.82,3,3,0,0,0,0-2.55c-.72-1.18-1.74-1.93-2.13-3.4a.61.61,0,0,0-.44-.44c-1.1-.16-1.43-.67-2.4,0-.8.52-1.28,1.36-2.13.57-.44-.4-.68-1.65-1-2.19a.63.63,0,0,0-1.08.63c.86,1.47.41,2.86,2.31,3.25,1.5.3,1.76-1,3.11-1.2.87-.11.42.26.7,1.11a6,6,0,0,0,1.07,1.67c.65.88,1.46,2.3-.48,2.18-.74,0-1.22-.64-2-.65a.63.63,0,0,0-.16,1.23,2.24,2.24,0,0,0,1.91-.28.62.62,0,0,0,.23-.85,1.71,1.71,0,0,0-1.71-.84c-1.54,0-1.13.48-2.08,1.06-1.83,1.11-3.24-1.46-5,.07a.63.63,0,0,0,.13,1c2.05,1.28,2.72-3.43-.55-1.84a.64.64,0,0,0-.23.86c.44.85.38.75,1.28,1.2v-1.08c-1,.54-2.18,1.32-2.47-.4a3,3,0,0,1,.45-1.48c.52-1,1.27-1.8,1.75-2.82.35-.72-.73-1.35-1.08-.63Z" transform="translate(-151.52 -157.05)"/><path class="cls-4" d="M372.55,278.22q.06.25.09.09a1.34,1.34,0,0,0,.07-.18,1.35,1.35,0,0,0,0-.4c0-.23-.24-.47-.24-.67,0-.8-1.21-.8-1.25,0a1.81,1.81,0,0,0,.33,1.1,3.18,3.18,0,0,1,.28.43s.06.17.07.17.07.08.19-.1.25-.16.07-.19c-.73-.33-1.36.75-.63,1.08a1.25,1.25,0,0,0,1.14.1,1,1,0,0,0,.48-.85,1.72,1.72,0,0,0-.27-.9c-.16-.28-.42-.49-.41-.84h-1.25a1.18,1.18,0,0,0,.12.56c.1.23.13.13.07.36a1.05,1.05,0,0,0,.23,1.12c.53.61,1.41-.28.88-.88Z" transform="translate(-151.52 -157.05)"/><path class="cls-4" d="M354.24,278.86c.14-.29.36-.52.34-.87a.84.84,0,0,0-.59-.76c-.62-.17-1.13.46-1.27,1l1-.27c.12.14.06-.06.11-.2a.74.74,0,0,1,.14-.28l-.61.16c.3.07.5.39.83.47.78.17,1.12-1,.33-1.21-.3-.07-.5-.39-.83-.46a.62.62,0,0,0-.61.16,1.77,1.77,0,0,0-.24,2.24.63.63,0,0,0,1-.27c0-.07.09-.12.1-.18-.34-.52-.6-.63-.76-.32a.59.59,0,0,0-.1.17c-.36.71.72,1.35,1.08.63Z" transform="translate(-151.52 -157.05)"/><path class="cls-4" d="M395.73,288.89c0,1.2.67,3.9.39,5-.6,2.22-5.06,2.68-7.11,3.31-2.58.8-5.21.9-7.72,1.92-3.49,1.4-6.17,2.54-10,2.82-3.34.25-6.64.65-10,0-2.78-.53-5.48-1.41-8.22-2.08a11.85,11.85,0,0,1-7.18-4.32,17.09,17.09,0,0,0-4.52-4.09.63.63,0,0,0-.85.86c1.1,2.56-2.73,2.52-4.52,3-2.29.62-4.29,2.23-6.57,3-2.55.81-5.08,0-7.55.77-1.93.6-2.5,2.07-4,3.21-2.93,2.17-5.91,1.69-9.1,2.55a33.4,33.4,0,0,0-5.79,2.3c-4.89,2.39-8.39,6.64-12.12,10.48-.56.57.32,1.46.88.88C297,313.12,301.64,308,309.12,306c2.41-.64,4.67,0,7-1,1.49-.65,1.37-1,2.68-1.89,2.37-1.64,3.87-2.56,6.71-2.95a20.64,20.64,0,0,0,6-1.36c1.29-.56,2.51-1.39,3.84-1.86,1.52-.54,3.19-.32,4.67-.69,3.05-.75,2.81-1.94,1.65-4.61l-.85.85c3.74,2.14,5.46,7.08,9.55,8.39,1.58.5,3.56.4,5.24.82,1.3.33,2.56.79,3.87,1.09a27.67,27.67,0,0,0,7.16.86c2.44-.09,5.51-.3,7.95-.65,3.17-.46,5.47-2.4,8.48-3.31,2.8-.84,5.71-1.21,8.53-2.1,1.85-.57,4.29-.7,5.9-1.79a.64.64,0,0,0,.31-.54c-.19-2.18-.82-4.12-.8-6.38a.63.63,0,0,0-1.25,0Z" transform="translate(-151.52 -157.05)"/><path class="cls-4" d="M290.36,317.68c-1.84,3-5.24,5.17-7.32,8.1-2.23,3.14-2.76,6-6,8.57a51.72,51.72,0,0,0-11.8,12.58c-1.74,2.61-2.34,5.41-3.83,8a45.3,45.3,0,0,1-7,8.63c-4.41,4.41-4.87,5.81-3,12.21a55.73,55.73,0,0,0,3.59,8.81c1.11,2.34,2.25,5.29,2.14,7.91-.09,2.13-1.81,4.22-2.49,6.25-2,5.86-.08,10.74,4.19,15.15,2.26,2.33,6.45,3.94,9.23,1.69,1.5-1.21,1.83-3.09,3-4.48.18-1.44,1.13-2,2.84-1.57q2.38-1.66,2.93.52c1.87,1.68,1.74,6.18,1.69,8.34a.63.63,0,0,0,1.25,0c.08-3.42-.52-9.68-3.93-11.8-2.26-1.39-4,.07-5.13,2-1.93,3.19-.87,3.73-4.72,5.31q-4,3-7-1.95c-.41-.7-.85-1.39-1.3-2.07-2.05-3-3.28-5.45-2.35-9.23a37.9,37.9,0,0,1,1.82-4.62c2.4-5.93.43-8.77-2.14-14.31-2-4.3-5.15-11-1.76-15.43,1.75-2.28,4.2-4.41,6.08-6.67,1.22-1.46,3.06-2.82,3.89-4.56.73-1.55.75-3.3,1.53-4.87a38.76,38.76,0,0,1,3-4.52,35.1,35.1,0,0,1,8.74-9.36c1.69-1.21,3.35-2.05,4.52-3.81,1.68-2.52,2.56-5.27,4.52-7.72,1.79-2.22,4.51-4.08,6-6.46.43-.68-.65-1.31-1.08-.63Z" transform="translate(-151.52 -157.05)"/><path class="cls-4" d="M278.13,419.12c1,2.1,1.37,4.58,2.87,6.43,2.21,2.74,6.31,4.63,9.06,6.89,1.92,1.6,9.18,6.79,10.76,2.06.53-1.55-1.45-3.68-2.16-4.89-1.73-2.93-3-4.7-3-8.57,0,.15.15-3,.06-3,1.7-.91,8,5.69,9.1,6.8,1.68,1.76,2.69,4.35,5.48,4.5,3.68.2,4.33-3.83,2-6-.92-.86-2.4-1.28-3.4-2.24a44.13,44.13,0,0,1-3.95-4.37c-.63-.81-2.43-2.83-2.28-3.89.55-3.78,5.41-1,7.21-.71,2.26.34,10.72-.65,8-4.87-1.32-2-5.55-2.3-7.54-2.77a22.8,22.8,0,0,1-7.85-3c-1.83-1.19-3.54-3.37-5.67-4-3.11-1-7.33.82-10.13,1.95a36.32,36.32,0,0,0-6.44,3.17c-.83.57-3.21,3.54-1.64,2,3.3-3.23,3.8-5.38,9.1-6.57,5.81-1.3,11.07-.71,16.85.33a.65.65,0,0,0,.77-.44c.63-1.52-.21-2.61-.51-4.11-.42-2.09.7-3.68.53-5.6-.18-2.1-1.4-3.47-2.54-5.16a11.43,11.43,0,0,1-2.2-7.47c.11-1.31,1-2.51,1.07-3.9.19-3.94-3-4.77-6.25-5.68-2.94-.81-5.64-1.8-8.49-2.81-1.09-.38-1.71-.69-2.69-.2a.63.63,0,0,0-.13,1,6.4,6.4,0,0,0,3,1.56,39.53,39.53,0,0,1,7.61,3.53c2,1.13,5.84,3.81,8.27,2.67,1.88-.89,2.91-4.43,3.6-6.17.89-2.23,1.43-4.63,2.41-6.82,1.56-3.49,4.85-5.67,8-7.68.67-.44,0-1.52-.63-1.08-2.44,1.57-5.34,3.38-7.13,5.67-1.24,1.6-1.72,3.53-2.39,5.47-1,2.84-2.23,9.79-6.7,9.21-3.12-.4-6.08-3.45-8.9-4.72a21.41,21.41,0,0,0-2.87-1c-1.12-.31-4.74-1.62-1,.16a38.92,38.92,0,0,0,6.85,2.24,32.89,32.89,0,0,1,3.55,1l2.2,5.76c0,.92-.91,1.93-1,2.87-.27,2.44,1,4.45,2.37,6.45,1.18,1.75,2.13,2.5,2.15,4.71.05,4.52-.33-.09-.56,2.63-.16,2,1.07,3,1.12,4.81s.1,1.24-1.29,1.47c-2,.33-4.4-.78-6.35-1a19,19,0,0,0-6,.54c-4.18.82-7.7,1.43-10.6,4.75-1,1.19-3.7,3.76-3,5.47a.62.62,0,0,0,1,.12c3.84-4.43,13.22-9.39,18.94-7.33,2.25.81,3.84,2.57,5.82,3.82a21.64,21.64,0,0,0,6.64,2.45c1.33.33,2.73.53,4,.91,2.41.69,3.24.4,2.06,2.8-2,4.1-7.34.66-10.59.21-1.37-.19-2.72-.24-3.37,1.21-2,4.46,6.32,9.91,8,12.67.18.29.59.34.74.56l.93.33c-1.82,2.31-3.17,2.74-4,1.27-1-.49-2.17-2.26-3-3.06-2.43-2.33-5.45-5.39-8.92-5.86-.36-.05-.83.15-.79.6.2,2.41-.3,4.9.32,7.24s6.63,9.35,2.89,10.29c-3.27.82-9.53-5.61-12-7.46-1.68-1.27-3.62-2.58-4.59-4.5-.65-1.29-1-2.89-1.64-4.23-.34-.73-1.42-.09-1.08.63Z" transform="translate(-151.52 -157.05)"/><path class="cls-4" d="M396.23,294.07c.95,6.09,8.13,9.94,13.2,11.91a121.43,121.43,0,0,1,14,6.8c4.58,2.48,10.16,3.12,13.28,7.74,5.29,7.8,7.22,17.47,11.41,25.87,2.21,4.42,3.15,8.48,4.14,13.28,1.1,5.31,2.48,10,2.51,15.53,0,4.52-.86,8.86-.85,13.4,0,5.07-1.2,11.7-5.38,14.76-3.53,2.57-7,5.27-11.15,6.81a80.4,80.4,0,0,1-18.24,4.34c-4.29.55-8.87,1.14-12.89,2.83a26.23,26.23,0,0,0-4.26,2.47c-1,.69-2.09,1.34-3.19,1.93-2.25,1.21-2.45,1.53-5,.19-5.42-2.78-7.38-10.26-13.75-12.59-4.61-1.68-9.94-3.76-14.94-3.57a5.43,5.43,0,0,0-3.63,1.12c-.39.31-.62.8-1,1.1-2.16,1.75-4,3.4-7,3.35a31.9,31.9,0,0,0-12.72,2.3c-3.22,1.26-8.08,3-10.07,6.05a.63.63,0,0,0,.37.92c4.09.72,7.39-.95,11.11-2.39,5.2-2,10-1.07,15.34-.41l-.45-1.07c-2.61,2.25-7.1,2.48-10.18,4.06a13.68,13.68,0,0,0-5.24,4.54c-1.6,2.35-2.5,6.75,1.88,6.33,2-.19,3.53-2.15,4.88-3.38,2.13-1.94,4.25-3.59,7.25-3.93,1.09-.13,5.4-.41,6.22.33,3.15,2.85-10.73,10.55-10.79,14.05a.63.63,0,0,0,.62.62c4.57-.05,7.22-2.71,10.5-5.51,2.06-1.77,6.29-4.45,9.11-2.59s-.16,6.69-1.09,8.69a.64.64,0,0,0,.38.92l1.31.66a.64.64,0,0,0,.75.1c4.65-3,5.95-8.45,10-11.93,3.2-2.72,7.15-2.18,9.2-6.1.37-.71-.71-1.34-1.08-.63-1.55,3-4.79,2.85-7.36,4.46-3.14,2-4.71,5.33-6.73,8.25-.48.69-4,5.37-4.78,4.28-.2-.29.45-1.08.5-1.45.29-2,2.47-5.77.64-7.83-1.06-1.2-4.26-1.37-5.68-1.35-2.86.06-4.78,2.42-6.72,4.24-1,.9-6.35,5.25-6.52,3.66-.15-1.4,2.19-2.52,3.24-3.49a31.76,31.76,0,0,0,6.89-8.76.63.63,0,0,0-.22-.86c-5.71-2.89-12.21-.75-16.56,3.28-.44.42-1.1,1.41-1.67,1.62q-5.26,0-3.68-2.19a6.46,6.46,0,0,1,.82-1.19,10.77,10.77,0,0,1,4.52-3.76c3.3-1.74,7.59-1.8,10.44-4.25.46-.4,0-1-.44-1.07-4.33-.54-7.35-1.78-11.62-.77a36.21,36.21,0,0,0-5.59,1.84c-1,.45-2.54,1.44-3.7,1.48-1.1.66-1.85.34-2.25-.94l1-.48c1.39-1.94,6.66-3.05,8.84-3.75a20.43,20.43,0,0,1,9.38-1.29c4.09.25,4.5-.24,7.22-2.84,4.36-4.18,8.93-2.45,13.74-1,2.45.75,5.68,1.48,7.86,2.87s3.19,3.89,4.93,5.74a23.71,23.71,0,0,1,1.92,1.71c3.85,5.21-.36,1.19,1.48,4.22,1.25,2.05,2.21,2.24,4.45,1.48,5-1.68,8.85-5.56,13.93-7.12,10.58-3.23,21.86-2.41,31.91-7.75a53.26,53.26,0,0,0,5.68-3.83c1.46-1,3.48-1.86,4.72-3.14,2.2-2.29,3.22-7.72,3.66-10.66a52.82,52.82,0,0,0,.13-5.9c.1-2.74.73-5.37.88-8.1a46.47,46.47,0,0,0-1.56-15.18c-1.24-4.38-1.59-9.13-3.22-13.39-2.11-5.5-5.22-10.49-7.11-16.14a55.54,55.54,0,0,0-6.37-13.76c-2.56-3.74-5.88-5-9.95-6.42-5.2-1.81-9.57-5.51-14.68-7.51-5.53-2.18-14.62-5.08-15.74-12.22-.12-.79-1.33-.45-1.2.33Z" transform="translate(-151.52 -157.05)"/><path class="cls-4" d="M373.67,407.7c3.9-5.39,11.9-8.87,17.8-11.57,2.77-1.27,4.65-1.28,7.51-1.69,2-.29,4.87-1,6.51-2.35,4.21-3.53-4.22-7.25,1.11-10.93,2.75-1.89,9.15-1.47,12.27-1.39,3.88.11,7.69.47,11.58.44a.63.63,0,0,0,0-1.25c-6.89,0-13.74.2-20.62.36-2,.05-6.35-.48-7.94,1.15-1,1-.8,2,.17,3,1.64,1.65,3.8.47,5.31-.74,3.54-2.85,9.67-11.69,4.27-15.3-3-2-6.35-3.65-5.38-8a25.6,25.6,0,0,1,5.45-10.14c3-3.55,7-5.82,8.79-10.28a.61.61,0,0,0-.16-.6l-1.19-1c-.62-.5-1.51.38-.89.88,2.31,1.88-6.94,9.48-7.92,10.69a29.21,29.21,0,0,0-4.35,7.33c-1.61,4-2.36,8.77,1.94,11,2.49,1.29,2.87.34,3.65,3.53s-.23,5.06-2,7.58c-.6.84-2.62,3.85-3.71,3.9L403.69,381a12.81,12.81,0,0,1,2.46-.36c8-.74,16.27-.45,24.3-.45V379c-7.62.07-15.31-1.29-22.81.63-1.91.49-3.8,1.11-4.68,3-1.07,2.38.12,2.79,1.06,4.64,3.16,6.24-4.93,5.23-8.08,5.86s-6.18,2.4-9,3.85c-5.07,2.64-10.93,5.35-14.36,10.09-.47.65.61,1.28,1.08.63Z" transform="translate(-151.52 -157.05)"/><path class="cls-4" d="M287.78,226c1-.56,1.51-1.64,2.51-2.22,1.4-.82,3.54-.8,5.09-.64,2.38.25,4,2.33,6.31,2.92a.62.62,0,0,0,.33-1.2c-2.87-.74-4.43-3.09-7.51-3.19a10.47,10.47,0,0,0-3.9.53c-1.53.57-2.13,2-3.46,2.72-.71.39-.08,1.47.63,1.08Z" transform="translate(-151.52 -157.05)"/><path class="cls-4" d="M289.77,223.69a6,6,0,0,0,.07,2.38,4,4,0,0,0,1.35,1.57,3.7,3.7,0,0,0,2.58.51c.91-.1,1.47-.85,2.33-1,.3,0,.43-.36.46-.61a5,5,0,0,1,.14-1.3c.29-.59-.5-1.34-1-.76-.8,1-1.84-1.68-2.66-1.85s-1.88.23-2,1c-.12,1.11,1.37,1.81,2.19,2.2a2.88,2.88,0,0,0,.91.31l-.13,0a2.51,2.51,0,0,1-.52-.45,4.35,4.35,0,0,1-1.14-2.13.63.63,0,0,0-1-.27,1.21,1.21,0,0,0,0,1.79,2,2,0,0,0,.67.58c.25.13,1,.14,1.09.36.35.72,1.42.09,1.08-.63a1.2,1.2,0,0,0-.75-.68c-.11,0-1.46-.3-1.18-.54l-1.05-.27c.31,1.22,1.21,3.12,2.6,3.48,1.18.3,2.35-1.48,1.25-2.23a3.26,3.26,0,0,0-.8-.26c-.55-.18-1-.65-1.47-.83,0,0-.44-.25-.47-.06,0,0,.47-.15.49-.14.19.07.47.72.61.89.82,1,2.18,1.87,3.2.61l-1-.76a5.7,5.7,0,0,0-.31,1.93l.46-.6a3.49,3.49,0,0,0-1.37.66,2.53,2.53,0,0,1-2.29.09c-1.31-.67-1.13-1.77-1.09-3,0-.81-1.22-.81-1.25,0Z" transform="translate(-151.52 -157.05)"/><path class="cls-4" d="M292.16,226.88a13.81,13.81,0,0,1-1.93,0v1.25c1.83,0,3.63.54,5.46.61a6.23,6.23,0,0,0,4.13-1.27.63.63,0,0,0-.63-1.08,5.08,5.08,0,0,1-2.58,1.12,11.83,11.83,0,0,1-2.3-.12,35.25,35.25,0,0,0-4.08-.51.63.63,0,0,0,0,1.25,13.81,13.81,0,0,0,1.93,0c.8,0,.81-1.28,0-1.25Z" transform="translate(-151.52 -157.05)"/><path class="cls-4" d="M302.06,224.72a4.4,4.4,0,0,0-1.73-2c-.92-.59-1.69-1.3-2.61-1.89a6.47,6.47,0,0,0-6-.36c-.75.27-.43,1.48.33,1.2a5.45,5.45,0,0,1,5.91.93c1,.93,2.38,1.43,3,2.77.34.73,1.42.09,1.08-.63Z" transform="translate(-151.52 -157.05)"/><path class="cls-4" d="M270.19,224.05c-1.6-2.49-4.49-5.93-7.66-6a35.17,35.17,0,0,0-7.1.52c-1.68.35-3,1.48-4.65,2l.71.92c1-1.84,3.37-2.57,5.23-3.26a11.09,11.09,0,0,1,9.8.84c.71.38,1.34-.7.63-1.08-2.72-1.45-6.28-2.56-9.36-1.7-2.46.68-6.05,2.15-7.38,4.57a.63.63,0,0,0,.71.91c2.7-.82,4.66-2.06,7.64-2.22,2.09-.11,4.75-.24,6.58.94a16.29,16.29,0,0,1,3.77,4.16c.44.68,1.52,0,1.08-.63Z" transform="translate(-151.52 -157.05)"/><path class="cls-4" d="M257.21,219.12l-.14,0a.62.62,0,0,0-.44.43,3.33,3.33,0,0,0,1,3.22,4.36,4.36,0,0,0,3,1.86,3.25,3.25,0,0,0,3.41-1.14c1-1.16,1-2.36,1-3.84a.63.63,0,0,0-1.23-.17,4.36,4.36,0,0,1-.39,1.22A.78.78,0,0,1,262,220h-1.21c.2.5.14,1.07.33,1.59s.42.77.6,1.18v-.63a1.33,1.33,0,0,1-1,.27c-.6-.09-.53-.44-.59-.94a5.89,5.89,0,0,1,0-1.92l-.43.43c-.35.06-.17-.16-.16.18a1.71,1.71,0,0,0,.15.47c.11.39.19.78.33,1.16a2.06,2.06,0,0,0,.86,1.26.63.63,0,0,0,.94-.54,3.82,3.82,0,0,0-.9-2.32l-.54.94c.76,0,1.28,1.7,1.54,2.23l.22-.85c-.24.17-.7.08-1,.06-.8,0-.8,1.21,0,1.25a2.32,2.32,0,0,0,1.6-.23.66.66,0,0,0,.23-.86c-.5-1-1.2-2.8-2.62-2.85a.63.63,0,0,0-.54.94,2.93,2.93,0,0,1,.73,1.69l1-.54c-1.08-.59-.22-3.52-2.15-3.19a.6.6,0,0,0-.44.43c-.36,1.64-.45,4.39,1.78,4.45.69,0,1.87-.16,2.1-1,.11-.39-.07-.6-.23-.94a20.51,20.51,0,0,1-.6-2.09c-.21-.51-1.08-.68-1.21,0-.22,1.15.66,2.84,2,2.91s1.84-1.69,2.18-2.75l-1.23-.16a5,5,0,0,1-.26,2.48,2.46,2.46,0,0,1-2.59,1.24,3.45,3.45,0,0,1-3-3.48l-.44.43.14,0c.79-.17.45-1.37-.33-1.21Z" transform="translate(-151.52 -157.05)"/><path class="cls-4" d="M259.86,223.08c-.58,0-1.11-.56-1.61-.83-.17-.09,0,.13,0,0a2.93,2.93,0,0,0-.1-.37,10.65,10.65,0,0,1,0-1.13.63.63,0,0,0-1.25,0c0,.81-.15,2,.63,2.57.31.21.67.4,1,.61a2.47,2.47,0,0,0,1.33.43c.81,0,.81-1.22,0-1.25Z" transform="translate(-151.52 -157.05)"/><path class="cls-4" d="M252.06,221.65c.7-.25,2.85,2.18,3.56,2.44,1.76.63,4.1.4,5.9.24.8-.07.81-1.32,0-1.25a13.87,13.87,0,0,1-4.59-.07c-1-.25-.55-.12-1.36-.8-.28-.23-.9-.48-1.19-.69s-.68-.68-1-.91a1.42,1.42,0,0,0-1.62-.16c-.75.27-.43,1.48.33,1.2Z" transform="translate(-151.52 -157.05)"/><path class="cls-4" d="M269.14,210.89c-4-2.13-7.23-3.95-12-3.7-4,.22-7.29.44-9.91,3.61-.36.44,0,1.26.61,1,2.82-.93,6-2.57,9.05-2.44,2.71.12,5,2,7.52,2.73,1.42.42,2.63.42,4,.72,1.78.39,2.77,1.49,4.54,1.45a.63.63,0,0,0,.54-.94c-.83-1.77-2.77-1.67-4.34-2.48-.71-.37-1.35.7-.63,1.07.88.46,4.24,1.2,1.84.12-1.53-.69-4-.89-5.5-1.33-2.85-.82-5.69-2.87-8.81-2.77-2.73.1-6,1.81-8.55,2.66l.61,1.05c4.83-5.86,14.91-2.65,20.41.27C269.22,212.34,269.85,211.26,269.14,210.89Z" transform="translate(-151.52 -157.05)"/><path class="cls-4" d="M287.82,214.05l-.31-.11-.17,1.23a26.57,26.57,0,0,0,7.18.29c2.37-.32,5.4-1.56,7.66-.34,1.8,1,2.1,2.59,3.19,4,.4.51,1.2-.05,1.05-.61-.78-2.77-3.82-3.72-6.35-3.83-4.15-.18-8.23-.18-12.42-.61-.79-.08-.79,1.17,0,1.25,2.08.21,4.18.63,6.25.71,3.1.12,10.23-1,11.31,2.81l1-.61c-.93-1.18-.36-2.26-1.56-3.33s-3.78-1.47-5.41-1.41c-4.18.16-7.75,1-11.94.47-.74-.1-.78,1-.16,1.22l.31.12C288.25,215.53,288.57,214.32,287.82,214.05Z" transform="translate(-151.52 -157.05)"/><path class="cls-4" d="M273.82,240.51l.14.07a.62.62,0,0,0,.75-1c-1-1.13-1.58-3-3.45-2.24-1.47.6-2.47,2.86-2.66,4.31a3.6,3.6,0,0,0,1.76,3.69,3.82,3.82,0,0,0,2.52.88c.93-.07,2.68-1.5,3.41-.82l.13-1c-2.15,1-1.63.54-.37,1.19a12.89,12.89,0,0,0,2.77.68c1.12.2.89.37,2.15.21s2.67-1.2,4.09-.73v-1.2a3.94,3.94,0,0,1-1.8.12l.6.79.79-.68-.32,1.17c2.35-.08,3-.44,2.37-3-.19-.78-1.39-.45-1.2.33.34,1.37,0,1.39-1.17,1.43a.63.63,0,0,0-.31,1.16c.76.39,1.14.51,1.88,0a.65.65,0,0,0,.29-.71,1.82,1.82,0,0,0-3.53,0,.64.64,0,0,0,.6.79,6.1,6.1,0,0,0,2.13-.17.63.63,0,0,0,0-1.2,4.88,4.88,0,0,0-2.73,0,12.41,12.41,0,0,1-4.32.2c-.79-.14-1.31-.4-2.09-.61s-1.89-.78-2.48.32a.62.62,0,0,0,.1.75,2.76,2.76,0,0,0,3.18.29.63.63,0,0,0,.13-1c-1.16-1.07-1.5-.94-2.82-.57-1.14.31.4.48-1.76.54-2.34.07-3.44-3.13-2-4.76s2.09-.54,3.18.73l.76-1-.14-.07c-.71-.36-1.35.71-.63,1.08Z" transform="translate(-151.52 -157.05)"/><path class="cls-4" d="M265.51,254.15l0,.06a.63.63,0,0,0,.38.92c2,.57,4-.38,5.93-.91.93-.26.69-.49,2-.47,2.24,0,.68.39,1.9.6.27.05.61.08.85.12,2.14.42,3.42-1.33,5.38.43s2.67,3,5.41,3.32c.8.08.8-1.17,0-1.25-3.16-.32-4-4.1-6.74-4.78-1.63-.4-2.69,1.21-4.07,1-.75-.13-1.16-1.31-2.26-1.39s-2.08.81-2.93,1.17a14.16,14.16,0,0,1-1.65.6,4,4,0,0,1-1.93.33c-1.22-.33-1.62,0-1.19.9a.63.63,0,0,0-1.08-.63Z" transform="translate(-151.52 -157.05)"/><path class="cls-4" d="M266.46,255.29c1.86,1.87,5.38,1.4,7.76,1.63,3.49.34,7.22.33,10.66.9.79.13,1.13-1.08.33-1.21-2.68-.44-5.39-.22-8.06-.5-2.27-.23-8.08,0-9.8-1.71-.57-.57-1.45.31-.89.89Z" transform="translate(-151.52 -157.05)"/><path class="cls-4" d="M267.6,256.26c3.48,2.89,7.37,5.28,12,4a.63.63,0,0,0-.34-1.21c-4.15,1.16-7.7-1.08-10.8-3.66-.62-.51-1.5.37-.88.89Z" transform="translate(-151.52 -157.05)"/><path class="cls-4" d="M268.28,182c-1.47.66-3.35.66-4.88,1.32a19.48,19.48,0,0,0-5.06,3.14c-3.08,2.68-4,6.26-5.49,9.85a6.47,6.47,0,0,0-.89,3.15c-.22,1.55.81,1.42-.71,1.84s-4.79-.41-5.61-1.5c-1.31-1.71-.82-1.75.31-3.28.65-.89,1.33-1.68,1.91-2.61a.63.63,0,0,0-.54-.94c-1.58.17-2.67,1.46-4.15,1.64-1.23.16-.95,1.18-.42-.21s2.36-3.08,3.39-4.11c4.07-4.1,9-6.34,14.15-8.66,1.5-.68,4-.83,3.7-2.94-.13-.83-1.33-1.49-1.94-1.82-2.68-1.44-4.44-.05-6.62-3.42l-1,.76c3.93,3,8.92,2.45,13.44,4.26,1.64.66,3.71,1.69,5.46.92.46-.2.34-.84,0-1.08.44.31-2.3-1.54-1.89-1-2.09-2.85.1-3.09,1.5-3.92,3.11-1.86,9.69-3.49,12.91-1.77l.49-1.14c-3-1.09-6.35.12-8.92,1.77-1.38.89-5.78,3.88-5.16,6,.54,1.89,3.77,1.7,5.17,2.11,1.71.51,5.27,2,1.66,2a66.42,66.42,0,0,1-7.58-1c-.53-.07-1.17.6-.61,1,1.15.91,1.63.68,3.11.54,4.3-.41,8.34-.93,12.53.53s8.78,4.49,11.13,8.19c1.26,2,1.78,4.5,3.39,6.24s3.29,1.59,5.22,2.42c4.8,2.07,4,5.89,2.72,9.91-.21.67-.57,1.43-.71,2.12-.34,1.7.53,3.38.23,5-.14.79,1.06,1.12,1.21.33.33-1.8-.39-3.44,0-5.31.25-1.3.79-2.54,1.1-3.82,1-4.05,1-8.09-3.49-9.24-5.91-1.51-6.08-4.69-9-8.9a19.6,19.6,0,0,0-6.53-5.64,23.32,23.32,0,0,0-8.11-3.29,26.43,26.43,0,0,0-6.59-.15c-1.28.11-4.29,1-5.33.23l-.61,1c2.84.38,5.65.82,8.47,1.26a5.19,5.19,0,0,0,3.12,0,.61.61,0,0,0,.31-.54c.15-2.11-3.28-3.57-4.87-4.09-1.91-.64-4.25-.21-2.85-3.64,1.22-3,8-4.81,10.65-3.84.67.24,1.1-.82.49-1.15-3.88-2.08-8-.62-12,.82-1.72.63-5.71,1.94-6.22,4-.48,1.91,1.5,2.51,2.83,3.16-1.15-.56-2.71-1.28-4-1.77-3.88-1.45-8.42-.82-11.8-3.44-.51-.4-1.4.1-1,.75,1.46,2.26,2.87,2.3,4.86,3.58,4.26,2.74,1.42,1.51.5,2.72-1.13,1.51-3.87,1.63-5.49,2.45-5.48,2.77-11,7.31-13.34,13.1-.18.46.35.89.77.77a26.8,26.8,0,0,0,4-1.91c.3.62-2.7,3.38-2.73,4.57a2.59,2.59,0,0,0,1.37,2.57c1.11.69,6,1.09,7,1,1.19-.15,1.57.15,2.27-1a2.69,2.69,0,0,0-.09-.93c.62-4.42-.83.42,1.21-4.76,1.3-3.3,1.6-6.31,4.56-8.89s6.37-2.77,9.69-4.26c.73-.34.09-1.41-.63-1.08Z" transform="translate(-151.52 -157.05)"/><path class="cls-4" d="M291.74,270.91a10.67,10.67,0,0,0-6,5.87c-.61,1.72-1.29,5.94.11,7.42.85.9,1.18.75,2.34.21s1.8-1.81,2.64-2.58a48.59,48.59,0,0,1,5.88-4.46l-.85-.85c-1.57,2.08-6.85,6.3-4.91,9.47s8.32.67,10.59-.07l-.61-1c-1.07,1.21-.91,1.44-1.14,2.91-.32,2.11.1,4.11-1,6s-2.85,2.67-4.21,4.09-4.28,5.36-2.43,7.49c1.39,1.61,4.46.52,5.88-.45,2.43-1.66,2.67-4.86,5.57-5.74a33.64,33.64,0,0,1,9.11-.93.63.63,0,0,0,0-1.25c-2.75,0-8-.16-10.39,1-2.84,1.4-2.92,4.59-6.09,6q-3.83,2.82-2.36-3.28a9.36,9.36,0,0,1,3-3.1,16.68,16.68,0,0,0,3-3.21,11.1,11.1,0,0,0,1.47-3.93c.35-1.69-1.1-3,.44-4.77.38-.44,0-1.25-.61-1.05-3,1-11,2.9-7.64-3.51.75-1.45,2.37-2.72,3.37-4.05.38-.51-.36-1.19-.86-.86a44.45,44.45,0,0,0-6.39,4.94c-1.16,1.12-1.73,3-3.17.2-1.84-3.59,2.71-8.12,5.56-9.31.73-.31.41-1.52-.33-1.21Z" transform="translate(-151.52 -157.05)"/><path class="cls-4" d="M319.41,212.63c-4,0-2.94-9.54-3.24-11.51-1.11-7.25-5.34-10.94-9.59-16.57-.92-1.23-1.71-1.63-2.54-3.24-3-5.72,0-3.34-1.09-6.09a13.66,13.66,0,0,0-3.52-5.34c-1.85-1.5-4.43-2.44-6.49-3.67-2.66-1.59-5.71-1.66-8.18-3.21-4.49-2.8-8-6-13.79-5.78-4.2.18-9.24.79-12,4.24-1.79,2.27-2.79,5.95-6.09,5.78-2-.1-2.59-.93-4.61.25-4.77,2.79-6,10.16-8.93,14.34l1.14.48c1.8-5,5-8.8,8.54-12.64s7.78-9.16,13.62-8.16c.78.13,1.13-1,.33-1.21-6-1.61-12.23.78-17.12,4.14-5.75,4-10.54,6.31-13.47,13-1.38,3.12-1.67,6.35-2.7,9.51-1.28,4-5.61,7.16-7.9,10.62a23.85,23.85,0,0,0-3.27,8.68,81.66,81.66,0,0,1-3.44,10.21c-.58,1.59-.82,3.54-1.48,5-.94,2.14-2.65,3.47-4,5.31a31.49,31.49,0,0,0-4.41,7.75c-1.42,3.89-1,7.71-3,11.43s-5.17,6.48-7.6,9.8c-4.6,6.31-2.38,14.76-6.85,20.89-1.9,2.61-4,4.28-5.42,7.25-2.06,4.37-3.58,8.9-6,13.1a.63.63,0,0,0,1.08.63A82.4,82.4,0,0,0,182,287.7a25.62,25.62,0,0,1,3.61-6.87,48.67,48.67,0,0,0,3.91-4.47c2.95-4.64,1.83-10.95,3.72-16,2.38-6.36,9.34-10.1,11.47-16.61,1.12-3.45.69-6.82,2.26-10.24,1.84-4,5.28-6.64,7.36-10.31,1.15-2,1.35-4.88,2.19-7.1a70,70,0,0,0,2.9-8.12c1-4.19,1.78-7.54,4.39-11.12,1.93-2.63,5.23-5.24,6.64-8.21,1.1-2.32,1-5.17,1.83-7.62a22.75,22.75,0,0,1,7.07-10.81c5.94-5,15.2-10.86,23.31-8.69l.33-1.21c-2.61-.44-3.8-.73-6,.54a35.33,35.33,0,0,0-7.08,6.11c-4.37,4.49-8.41,9.06-10.58,15-.25.71.76,1,1.15.48,1.66-2.35,2.58-5.27,4-7.81.81-1.44,2.29-4.23,3.52-5.17a5.69,5.69,0,0,1,5.41-.65,2.49,2.49,0,0,0,1,.2c2.68-1.13,3.72-4.65,5.66-6.83,4.89-5.49,15.76-4.27,21.22-.35,1.55,1.11,2.27,2.32,4,3s3.5.49,5.42,1.42a49,49,0,0,1,4.81,3c4.28,2.74,4.94,3.65,6,8.46a11.82,11.82,0,0,0,1.84,4.83c3.56,5.33,9.08,9.39,11,15.71,1.07,3.57.84,6.63.62,10.19a4.22,4.22,0,0,0,.4,2.79c.5.88,2.89,2.62,4.09,2.63a.63.63,0,0,0,0-1.25Z" transform="translate(-151.52 -157.05)"/><path class="cls-4" d="M176.76,297.38c-4.19.19-4.5-.85-8,1.71-2.24,1.63-5.17,4.15-6.21,6.83a13.22,13.22,0,0,0-.52,4.26,25.7,25.7,0,0,1-1.53,6.79c-.7,2.09-2.06,6-4.56,6.21-1.22.11-.48,1.39-.38.06.21-2.88,2.55-6.53,3.71-9.06a19.62,19.62,0,0,0,1.63-4.21c.5-2.53-.08-4.85,1.19-7.38,1.66-3.31,3.3-4.65,6.55-6.16a9.41,9.41,0,0,0,2.87-2c3.78-3.69,5.74-9.37,9.83-12.6,2.84-2.24,5.84-4.42,8.7-6.73.62-.51-.27-1.39-.89-.89a82,82,0,0,1-6.33,5.28c-2.34,1.55-3.9,2.41-5.41,4.81-2,3.21-3.91,6.68-6.78,9.25-2,1.8-4.67,2.07-6.63,3.95a17.63,17.63,0,0,0-4.79,10.11,37.57,37.57,0,0,1-3,10.26c-.74,1.78-2.48,4.94-2.26,6.93,0,.43.51.84.94.54,5-3.42,7.57-7.1,8.38-13.43.53-4.13.62-6.65,3.88-9.8,1.59-1.52,3.59-3.5,5.93-3.74,1-.11,2.55.3,3.68.25.8,0,.8-1.29,0-1.25Z" transform="translate(-151.52 -157.05)"/><path class="cls-4" d="M246.26,198.47c-1.28.27-1.09,1.08-1.36,2.16a52.1,52.1,0,0,1-2.65,7.26c-1,2.47-2.05,4.78-1.81,7.47.35,4.12,2.53,7.86,3,12a25,25,0,0,1-.5,7.27c-.36,2.22-.83,1.31-.61,3.69.06.63.51,2.51.58,2.82-.24-1.12-.44-2.25-.66-3.38a33.08,33.08,0,0,0-2.6-7.53,52,52,0,0,1-1.63-5.5c-.35-1.11-1.58-3.23-1.66-4a.63.63,0,0,0-1.06-.44c-1.6,1.45-1.9,4.46-2.05,6.51-.34,4.59,1.67,7.58,3.32,11.69a20.51,20.51,0,0,1,.88,14.24c-.95,3.32-2.86,6.86-2.49,10.4.5,4.81,4.74,8.06,1.64,13.12a16.31,16.31,0,0,1-6.24,5.62,29.27,29.27,0,0,0-3.84,1.89,10.31,10.31,0,0,0-3.54,7.31c.07,2.1,1.08,2.86,2.49,4.45l.75-1c-8.58-5.06-2.05-14.57.36-20.93.7-1.84,2.66-5.91.36-7.22a.63.63,0,0,0-.94.54c-.33,3.37.56,6.28-1.26,9.52-1.39,2.47-4.12,4.45-6.17,6.35s-3.27,4.46-4.71,7l1.14.48,0,0c.25-.66-.83-1.11-1.15-.48-2,4-2.89,7.57-1.58,11.9l1.05-.61c-4.45-5.57-5-10.59-1.25-16.65,1.6-2.61,3.65-5,4.9-7.76,1.52-3.36,2.65-6.27,2.71-10,.1-5.42-.43-10.88,1.79-16,.32-.73-.76-1.36-1.08-.63-1.87,4.3-2,8.83-2,13.46A28.47,28.47,0,0,1,215,277.65c-2.37,4.4-6.59,8.19-7,13.43-.33,4,2,7.82,4.44,10.86.4.5,1.22-.05,1.05-.61-1.25-4.12-.38-7.23,1.45-10.94l-1.14-.48v0c-.26.67.79,1.09,1.14.48.86-1.51,1.61-3.17,2.6-4.6,1.67-2.42,4.3-4.07,6.3-6.23a12.31,12.31,0,0,0,3.47-9.48c0-1.19.48-3.09-.84-1s-1.78,5.93-2.81,8.23c-.83,1.88-2.16,3.79-2.76,5.74-1.35,4.31.92,10.3,4.69,12.52a.63.63,0,0,0,.76-1c-6.94-7.89,6.67-11.54,10.48-16.53,4.23-5.54,1-8.14-.38-13.76-1.56-6.21,4-12.24,3.31-18.61a32.38,32.38,0,0,0-2.72-9.38c-1.7-4-5-11.42-.86-15.18l-1.07-.45c.53,5.6,4.28,10.12,5.59,15.48.47,1.94.27,7.51,3.1,7.61a.62.62,0,0,0,.6-.46,6.92,6.92,0,0,0-.08-2.68c-.26-3.11.27-5.82.56-8.89A27.85,27.85,0,0,0,243.33,221c-.84-2.58-2.18-5.46-1.57-8.25a30.16,30.16,0,0,1,2.41-5.78c.14-.32,2.52-7.29,2.43-7.27.78-.16.45-1.37-.34-1.21Z" transform="translate(-151.52 -157.05)"/><path class="cls-4" d="M233.08,280.38c-1.29,1.75-1.07,3-1.16,5.1-.11,2.64-.87,5.25-.84,7.89,0,1.89,1,3.11,1.4,4.77,1.19,5.47-2.44,7-6.65,8.74-2.65,1.08-4.12,2.12-3.92,5.29.15,2.42,1.37,4.94,1.78,7.33.47,2.73-.05,7.15-1.81,9.63-3.22,4.52-9.73,3.17-13.19,7.69-1.5,1.95-2.34,4.26-.75,6.37,1.95,2.59,5.27,1.39,5.12,6.16-.07,2.42-2.24,4.86-3.91,6.34-4,3.51-9.21,5.49-13.7,8.24-.68.42,0,1.5.64,1.08,6.46-4,16.31-6.95,18.18-15.33.84-3.78-.53-3.76-3.22-5.78-7-5.27,3-9.45,6.75-10.39,1.56-.4,3.1-.76,4.2-2,2-2.29,3.56-7.66,3.59-10.6,0-2.35-1.43-3.89-1.79-6.09q-1.1-2.21,1-4.07c.13-1.89,1-2.87,2.53-2.94.68-.47,1.83-.79,2.55-1.23,2.32-1.45,5.18-3.39,4.83-6.45-.32-2.71-2.5-4.49-2.38-7.47.09-2.4.64-10,1.83-11.64.48-.65-.6-1.27-1.08-.63Z" transform="translate(-151.52 -157.05)"/><path class="cls-4" d="M243.63,276c5.14,5.25,13.12,5.88,20.12,6.9,3,.43,5.56,0,8.68-.18,3.58-.16,7,.91,10.46-.36.74-.28.42-1.49-.34-1.21-3.22,1.19-6.76.23-10.12.32a57.11,57.11,0,0,1-9.5-.33c-6.46-.86-13.59-1.1-18.41-6a.63.63,0,0,0-.89.88Z" transform="translate(-151.52 -157.05)"/><path class="cls-4" d="M283.43,282.38c.61.06,1.08-.37,1.66-.36v-1.25h-.6a.63.63,0,0,0,0,1.25h.6a.63.63,0,0,0,0-1.25c-.59,0-1.1.42-1.66.36-.8-.08-.8,1.17,0,1.25Z" transform="translate(-151.52 -157.05)"/><path class="cls-4" d="M244.8,275.22c-1-.86-2.33-.19-3.34.27-.64.29-3.57,2.16-3.76,1-.13-.79-1.33-.46-1.21.33.25,1.55,1.71,1.49,2.89,1.05.75-.28,3.85-2.33,4.54-1.72s1.49-.35.88-.89Z" transform="translate(-151.52 -157.05)"/><path class="cls-4" d="M309.27,216.91l-.17,0a.63.63,0,0,0-.44.44c-1.15,4.84-.83,9.71-1.8,14.6-.91,4.55-2.4,9.29-3.74,13.71-.77,2.52-1.15,5-2.28,7.29-.84,1.72-1.56,3.54-2.45,5.29-1.92,3.8-4.56,7.83-8.29,10.06-2.28,1.35-4.61,2.63-6.88,4-3.48,2.07-6,2-9.71,1.24l-1.12-1.42c.08.85-.18,1.37-.79,1.56a5.76,5.76,0,0,1-3.75-.2c-2.41-.75-5-2.35-7.38-3.44a21.84,21.84,0,0,1-8.65-6.25,27.29,27.29,0,0,0-3.89-4,30,30,0,0,1-4.25-4.85c-2.12-2.64-2.51-3.26-3.32-7-.1-.48.15-1,0-1.48-.59-1.74-1.76-.56-2.09-3.72-.08-.8-1.33-.8-1.25,0,.25,2.39,1.61,4.54,2.26,6.82A12.35,12.35,0,0,0,242,255.1c1.54,1.81,2.49,3.46,4.28,5,3.07,2.61,5.29,6.54,8.62,8.78,2.59,1.75,5.88,2.56,8.67,4,2.28,1.19,4.29,2.68,7,2.35,2.58-.31,4.59-2.37,2-4.53a.64.64,0,0,0-1.05.27c-1.92,5.26,5.55,5.2,8.89,3.94,7.52-2.85,14.15-7.47,18.26-14.46a58,58,0,0,0,4.69-8.91c.59-1.62.39-3.71,1-5.49.65-2,.85-4,1.46-5.94a73.2,73.2,0,0,0,2.79-9.65c.25-1.48.33-12.18,1-12.32s.46-1.36-.33-1.2Z" transform="translate(-151.52 -157.05)"/><path class="cls-4" d="M274.94,244.94c.08-.23.08-.62.26-.8s.28-.06.53-.12A.59.59,0,0,0,276,244c-.13-.09-.13,0,0,.1s.13.31.21.45a3.31,3.31,0,0,0,2,1.43c.78.18,1.12-1,.33-1.21a2,2,0,0,1-1.35-1.15c-.22-.45-.53-.88-1.07-.9a6.65,6.65,0,0,0-.78.1,1.41,1.41,0,0,0-.7.19c-.6.38-.63,1-.84,1.65s.94,1.09,1.2.33Z" transform="translate(-151.52 -157.05)"/><path class="cls-4" d="M283.17,245.35a2.32,2.32,0,0,1,.36-.72c.27-.37.3-.24.62,0a2.29,2.29,0,0,0,1.85.62c.79,0,.8-1.3,0-1.25a4.61,4.61,0,0,1-.83,0l.44.18a6.3,6.3,0,0,0-1.15-.89,1.1,1.1,0,0,0-1.12-.13A3,3,0,0,0,282,245c-.19.78,1,1.11,1.21.33Z" transform="translate(-151.52 -157.05)"/><path class="cls-4" d="M257.19,224.46c1.2.12,2.23,1,3.45,1.07a4,4,0,0,0,2.49-.89.63.63,0,0,0-.63-1.08,2.75,2.75,0,0,1-2.73.47,11.57,11.57,0,0,0-2.58-.82c-.79-.09-.79,1.16,0,1.25Z" transform="translate(-151.52 -157.05)"/><path class="cls-4" d="M208.51,254c-4.39,2.88-7.27,5.41-9.25,10.34a21.34,21.34,0,0,0-1.86,8.24c.09,3.59.09,6.13-2.41,9-4.54,5.27-8.26,9.38-10,16.33-.54,2.15-1.21,4.33-1,6.58.19,1.71,1.08,3.17,1.42,4.82.9,4.31-.23,7-3.4,9.68-4.19,3.58-7.42,7.13-9.44,12.4-1.24,3.24-1.34,6.73-3.75,9.4-1.88,2.1-4,3.64-5.54,6.06-7.68,11.95,2.92,25.94,4.35,38.12l1.23-.17c-.28-1-.6-2.06-.94-3.08-.24-.77-1.45-.44-1.2.33.34,1,.65,2.05.94,3.08.18.65,1.31.56,1.22-.16-1.56-13.23-13.27-28.32-2.29-40.38,1.4-1.54,3.38-2.73,4.54-4.48,1.33-2,1.39-4.65,2.12-6.9a27.11,27.11,0,0,1,5.67-9.93c1.85-2,4.44-3.24,6.17-5.34,3.26-4,1.16-7.88.4-12.27-1.41-8.22,3.92-17.26,9.7-22.61,3.38-3.14,4.53-3.13,3.81-7.68-1.35-8.54,3.17-15.78,10.09-20.34.67-.44,0-1.52-.63-1.07Z" transform="translate(-151.52 -157.05)"/><path class="cls-4" d="M166.82,380c.46,1.58.86,6.85.26,8.17-.28.6.47,1.33,1,.76,3.55-4,6.48-7.22,11.7-9,4.85-1.62,10.36-2.82,14.8-5.34,1.9-1.07,4.93-2.66,4.56-5.35-.51-3.85-2.94-1.33-2.34-7.52a22.22,22.22,0,0,0,.51-3.82c-.14-3.74-.73-7.39-4.47-9-2.29-1-2.83-.54-4.67-2.62s-1.62-2.83-.91-5.31a23.8,23.8,0,0,1,5.29-9.19c2.44-2.86,7.37-6.19,7.57-10.21a55.32,55.32,0,0,1,1.12-10.6,69.71,69.71,0,0,0,1.32-7.73c.09-.8-1.16-.79-1.25,0-.69,5.87-2.08,11.49-2.6,17.35-.5,5.58-7.12,9.38-10,13.8-1.76,2.69-3.46,6.86-3.36,10.11.11,3.7,2.38,3.94,5.29,5,4.68,1.75,6.22,7.14,5.08,11.53-.42,1.61-1.64,2.5-1,4.35.43,1.25,1.7,1.61,2.33,2.68,2,3.5-3.43,5.82-6.07,6.7-4.84,1.6-10.05,3-14.73,5-4.09,1.77-6.19,5-9.06,8.2l1,.76c1.25-2.71.7-6.33-.13-9.13a.62.62,0,0,0-1.2.33Z" transform="translate(-151.52 -157.05)"/><path class="cls-4" d="M208.19,254.52c-1.55,1.86-5,3.09-7,4.6a15.2,15.2,0,0,0-4.57,5,21.77,21.77,0,0,0-.62,3.19c-.7,2.36-1.55,2.17-3.25,3.33a19.83,19.83,0,0,0-4.66,5c-.47.65.61,1.28,1.08.63A15.41,15.41,0,0,1,194,271.5c.65-.37,1-.3,1.6-.8,1.22-1.05,1.46-2.93,1.88-4.35,1.13-3.74,3.4-5.45,6.55-7.67,1.58-1.11,3.85-1.82,5.07-3.27.51-.62-.37-1.51-.89-.89Z" transform="translate(-151.52 -157.05)"/><path class="cls-4" d="M286.91,218.26a18.94,18.94,0,0,0-2.13,2.71,12.08,12.08,0,0,0-.92,3.49c-.09,1.23.4,2.4.37,3.63,0,.94-.34,1.69.39,2.38a.63.63,0,0,0,1-.28c.26-.67.29-1.27.56-2a12.63,12.63,0,0,1,1.77-2.73c.48-.65-.61-1.27-1.08-.63a14.11,14.11,0,0,0-2.07,2.82c-.27.71-.11,1.48-.38,2.18l1-.27c-.44-.43.09-2.05,0-2.64a8.75,8.75,0,0,1-.06-3.71,8.21,8.21,0,0,1,.75-2.24c.48-.74,1.25-1.37,1.78-2.11s-.62-1.28-1.08-.63Z" transform="translate(-151.52 -157.05)"/><path class="cls-4" d="M244.61,275.87a31.48,31.48,0,0,0,2.68-7.69c.5-2.82.2-5.72.16-8.55a.63.63,0,0,0-1.25,0c0,2.71.35,5.52-.12,8.21a30.13,30.13,0,0,1-2.54,7.4c-.34.73.73,1.36,1.07.63Z" transform="translate(-151.52 -157.05)"/></g></svg>